<?xml version="1.0" standalone="no"?>
<!DOCTYPE svg PUBLIC "-//W3C//DTD SVG 1.1//EN" "http://www.w3.org/Graphics/SVG/1.1/DTD/svg11.dtd" >
<svg>
<metadata>
Created by FontForge 20120731 at Thu Aug  8 14:24:03 2019
 By www-data
Copyright 2017 BlackFoundry
</metadata>
<defs>
<font id="TRYVesterbro-Poster" horiz-adv-x="500" >
  <font-face 
    font-family="TRY Vesterbro"
    font-weight="1000"
    font-stretch="normal"
    units-per-em="1000"
    panose-1="2 0 11 0 8 0 0 2 0 4"
    ascent="780"
    descent="-220"
    x-height="510"
    cap-height="683"
    bbox="-215 -319 1352 997"
    underline-thickness="50"
    underline-position="-25"
    stemh="41"
    stemv="242"
    unicode-range="U+000D-FB04"
  />
<missing-glyph horiz-adv-x="518" 
d="M30 0v680h458v-680h-458zM63 34h392v612h-392v-612z" />
    <glyph glyph-name="ff" unicode="ff" horiz-adv-x="707" 
d="M387 175v293h-98v-293c0 -123 0 -140 17 -144l13 -3v-31c-98 5 -204 5 -302 0v31l17 3c22 4 23 21 23 144v293h-50v34l50 6h1c10 127 100 232 251 232c80 0 124 -52 129 -94c43 57 111 94 201 94c97 0 153 -60 153 -112c0 -43 -33 -65 -88 -68l-19 6
c-4 63 -21 144 -46 144c-17 0 -20 -32 -20 -100v-102h88v-40h-88v-293c0 -123 1 -140 28 -144l22 -3v-31c-102 5 -211 5 -312 0v31l13 3c17 4 17 21 17 144zM289 610v-102h99c2 28 8 56 18 81c-12 -6 -27 -9 -45 -10l-17 5c-3 52 -18 126 -35 126s-20 -32 -20 -100z" />
    <glyph glyph-name="fi" unicode="fi" horiz-adv-x="669" 
d="M659 28v-31c-97 5 -204 5 -302 0v31l11 3c18 5 19 21 19 144v207c0 72 -5 86 -68 86h-30v-293c0 -123 1 -139 19 -144l11 -3v-31c-97 5 -204 5 -302 0v31l17 3c22 4 23 21 23 144v293h-50v34l50 6h3c15 129 103 232 280 232c130 0 194 -74 194 -125
c0 -41 -36 -64 -88 -64l-22 6c-43 114 -68 153 -95 153c-29 0 -40 -25 -40 -100v-102h58c111 0 182 3 263 19l13 -12c-3 -54 -4 -150 -4 -201v-139c0 -123 1 -140 23 -144z" />
    <glyph glyph-name="fj" unicode="fj" horiz-adv-x="665" 
d="M375 -208l-37 -10l-11 25l15 10c37 25 45 53 45 214v351c0 72 -5 86 -68 86h-30v-293c0 -123 1 -140 29 -144l21 -3v-31c-103 5 -218 5 -322 0v31l17 3c22 4 23 21 23 144v293h-50v34l50 6h3c15 129 103 232 280 232c130 0 194 -74 194 -125c0 -41 -36 -64 -88 -64l-22 6
c-43 114 -68 153 -95 153c-29 0 -40 -25 -40 -100v-102h58c111 0 182 3 263 19l13 -12c-3 -54 -4 -150 -4 -201v-280c0 -143 -72 -196 -244 -242z" />
    <glyph glyph-name="fl" unicode="fl" horiz-adv-x="669" 
d="M659 28v-31c-97 5 -204 5 -302 0v31l12 3c17 4 18 21 18 144v384c0 104 -36 151 -62 151c-29 0 -36 -32 -36 -100v-102h50v-40h-50v-293c0 -123 1 -140 18 -144l12 -3v-31c-97 5 -204 5 -302 0v31l17 3c22 4 23 21 23 144v293h-50v34l50 6h1c10 127 100 232 251 232
c51 0 92 -14 131 -34c58 4 115 18 173 34l10 -9c-3 -55 -4 -152 -4 -204v-352c0 -123 1 -140 23 -144z" />
    <glyph glyph-name="f_b" unicode="fb" horiz-adv-x="977" 
d="M955 279c0 -199 -136 -298 -277 -298c-68 0 -139 23 -187 58c-31 -20 -59 -39 -88 -58l-20 11c4 56 4 105 4 179v388c0 104 -36 151 -62 151c-29 0 -36 -32 -36 -100v-102h50v-40h-50v-293c0 -123 2 -138 28 -144l12 -3v-31c-100 5 -211 5 -312 0v31l17 3
c22 4 23 21 23 144v293h-50v34l50 6h1c10 127 100 232 251 232c51 0 92 -14 131 -34c58 4 115 18 173 34l10 -9c-3 -55 -4 -152 -4 -204v-99c24 64 75 99 146 99c122 0 190 -111 190 -248zM673 15c25 0 44 37 44 158c0 133 -26 238 -70 238c-10 0 -20 -5 -28 -13v-202
c0 -151 34 -181 54 -181z" />
    <glyph glyph-name="f_h" unicode="fh" horiz-adv-x="999" 
d="M989 28v-31c-97 5 -204 5 -302 0v31l8 2c18 5 22 18 22 145v141c0 68 -18 93 -52 93c-17 0 -31 -6 -46 -18v-216c0 -123 4 -140 22 -145l8 -2v-31c-94 5 -197 5 -292 0v31l8 2c21 5 22 21 22 145v384c0 104 -36 151 -62 151c-29 0 -36 -32 -36 -100v-102h50v-40h-50v-293
c0 -124 1 -140 22 -145l8 -2v-31c-97 5 -204 5 -302 0v31l17 3c22 4 23 21 23 144v293h-50v34l50 6h1c10 127 100 232 251 232c51 0 92 -14 131 -34c58 4 115 18 173 34l10 -9c-3 -54 -4 -153 -4 -204v-107c36 60 87 107 170 107c81 0 160 -45 160 -175v-177
c0 -123 1 -140 23 -144z" />
    <glyph glyph-name="f_k" unicode="fk" horiz-adv-x="1022" 
d="M1022 28v-31c-91 5 -185 5 -276 0l-127 251v-73c0 -123 1 -140 22 -145l8 -2v-31c-94 5 -197 5 -292 0v31l8 2c21 5 22 21 22 145v384c0 104 -36 151 -62 151c-29 0 -36 -32 -36 -100v-102h50v-40h-50v-293c0 -124 1 -140 22 -145l8 -2v-31c-97 5 -204 5 -302 0v31l17 3
c22 4 23 21 23 144v293h-50v34l50 6h1c10 127 100 232 251 232c51 0 92 -14 131 -34c58 4 115 18 173 34l10 -9c-3 -54 -4 -153 -4 -204v-211l65 64c58 58 62 88 12 97l-17 3v31c86 -5 180 -5 266 0v-31l-16 -5c-75 -23 -115 -37 -212 -115l-78 -62c65 -7 132 12 159 39h20
l88 -164c68 -131 82 -134 104 -141z" />
    <glyph glyph-name="f_f_f" unicode="fff" horiz-adv-x="1037" 
d="M387 175v293h-98v-293c0 -124 0 -141 20 -145l10 -2v-31c-98 5 -204 5 -302 0v31l14 2c25 4 26 21 26 145v293h-50v34l50 6h1c10 127 100 232 251 232c80 0 124 -52 129 -94c43 57 111 94 201 94c80 0 124 -52 129 -94c43 57 111 94 201 94c97 0 153 -60 153 -112
c0 -43 -33 -65 -88 -68l-19 6c-4 63 -21 144 -46 144c-17 0 -20 -32 -20 -100v-102h88v-40h-88v-293c0 -123 1 -140 28 -144l22 -3v-31c-102 5 -211 5 -312 0v31l13 3c17 4 17 21 17 144v293h-98v-293c0 -124 0 -141 20 -145l10 -2v-31c-94 5 -198 5 -292 0v31l10 2
c19 4 20 21 20 145zM619 610v-102h99c2 28 8 56 18 81c-12 -6 -27 -9 -45 -10l-17 5c-3 52 -18 126 -35 126s-20 -32 -20 -100zM289 610v-102h99c2 28 8 56 18 81c-12 -6 -27 -9 -45 -10l-17 5c-3 52 -18 126 -35 126s-20 -32 -20 -100z" />
    <glyph glyph-name="ffi" unicode="ffi" horiz-adv-x="999" 
d="M989 28v-31c-97 5 -204 5 -302 0v31l11 3c18 5 19 21 19 144v207c0 72 -5 86 -68 86h-30v-293c0 -123 1 -139 19 -144l11 -3v-31c-93 5 -197 5 -292 0v31l10 2c20 4 20 21 20 145v293h-98v-293c0 -124 0 -141 20 -145l10 -2v-31c-98 5 -204 5 -302 0v31l14 2
c25 4 26 21 26 145v293h-50v34l50 6h1c10 127 100 232 251 232c86 0 130 -60 130 -101c45 61 121 101 231 101c130 0 194 -74 194 -125c0 -41 -36 -64 -88 -64l-22 6c-43 114 -68 153 -95 153c-29 0 -40 -25 -40 -100v-102h58c111 0 182 3 263 19l13 -12
c-3 -54 -4 -150 -4 -201v-139c0 -123 1 -140 23 -144zM289 610v-102h101c3 30 11 58 22 84c-13 -8 -30 -12 -51 -13l-17 5c-3 52 -18 126 -35 126s-20 -32 -20 -100z" />
    <glyph glyph-name="f_f_j" unicode="ffj" horiz-adv-x="995" 
d="M705 -208l-37 -10l-11 25l15 10c37 25 45 53 45 214v351c0 72 -5 86 -68 86h-30v-293c0 -123 1 -140 29 -144l21 -3v-31c-100 5 -211 5 -312 0v31l10 2c20 4 20 21 20 145v293h-98v-293c0 -124 0 -141 20 -145l10 -2v-31c-98 5 -204 5 -302 0v31l14 2c25 4 26 21 26 145
v293h-50v34l50 6h1c10 127 100 232 251 232c86 0 130 -60 130 -101c45 61 121 101 231 101c130 0 194 -74 194 -125c0 -41 -36 -64 -88 -64l-22 6c-43 114 -68 153 -95 153c-29 0 -40 -25 -40 -100v-102h58c111 0 182 3 263 19l13 -12c-3 -54 -4 -150 -4 -201v-280
c0 -143 -72 -196 -244 -242zM289 610v-102h101c3 30 11 58 22 84c-13 -8 -30 -12 -51 -13l-17 5c-3 52 -18 126 -35 126s-20 -32 -20 -100z" />
    <glyph glyph-name="f_f_l" unicode="ffl" horiz-adv-x="999" 
d="M387 175v293h-98v-293c0 -124 0 -141 20 -145l10 -2v-31c-98 5 -204 5 -302 0v31l14 2c25 4 26 21 26 145v293h-50v34l50 6h1c10 127 100 232 251 232c80 0 124 -52 129 -94c43 57 111 94 201 94c51 0 92 -14 131 -34c58 4 115 18 173 34l10 -9c-3 -55 -4 -152 -4 -204
v-352c0 -123 1 -140 23 -144l17 -3v-31c-97 5 -204 5 -302 0v31l12 3c17 4 18 21 18 144v384c0 104 -36 151 -62 151c-29 0 -36 -32 -36 -100v-102h50v-40h-50v-293c0 -123 1 -140 18 -144l12 -3v-31c-93 5 -198 5 -292 0v31l10 2c20 4 20 21 20 145zM289 610v-102h99
c2 28 8 56 18 81c-12 -6 -27 -9 -45 -10l-17 5c-3 52 -18 126 -35 126s-20 -32 -20 -100z" />
    <glyph glyph-name="f_f_b" unicode="ffb" horiz-adv-x="1307" 
d="M387 175v293h-98v-293c0 -124 0 -141 20 -145l10 -2v-31c-98 5 -204 5 -302 0v31l14 2c25 4 26 21 26 145v293h-50v34l50 6h1c10 127 100 232 251 232c80 0 124 -52 129 -94c43 57 111 94 201 94c51 0 92 -14 131 -34c58 4 115 18 173 34l10 -9c-3 -55 -4 -152 -4 -204
v-99c24 64 75 99 146 99c122 0 190 -111 190 -248c0 -199 -136 -298 -277 -298c-68 0 -139 23 -187 58c-31 -20 -59 -39 -88 -58l-20 11c4 56 4 105 4 179v388c0 104 -36 151 -62 151c-29 0 -36 -32 -36 -100v-102h50v-40h-50v-293c0 -123 2 -138 28 -144l12 -3v-31
c-96 5 -205 5 -302 0v31l10 2c20 4 20 21 20 145zM289 610v-102h99c2 28 8 56 18 81c-12 -6 -27 -9 -45 -10l-17 5c-3 52 -18 126 -35 126s-20 -32 -20 -100zM1003 15c25 0 44 37 44 158c0 133 -26 238 -70 238c-10 0 -20 -5 -28 -13v-202c0 -151 34 -181 54 -181z" />
    <glyph glyph-name="f_f_h" unicode="ffh" horiz-adv-x="1329" 
d="M387 175v293h-98v-293c0 -124 0 -141 20 -145l10 -2v-31c-98 5 -204 5 -302 0v31l14 2c25 4 26 21 26 145v293h-50v34l50 6h1c10 127 100 232 251 232c80 0 124 -52 129 -94c43 57 111 94 201 94c51 0 92 -14 131 -34c58 4 115 18 173 34l10 -9c-3 -55 -4 -152 -4 -204
v-107c36 60 87 107 170 107c81 0 160 -45 160 -175v-177c0 -123 1 -140 23 -144l17 -3v-31c-97 5 -204 5 -302 0v31l8 2c18 5 22 18 22 145v141c0 68 -18 93 -52 93c-17 0 -31 -6 -46 -18v-216c0 -123 4 -140 22 -145l8 -2v-31c-94 5 -197 5 -292 0v31l8 2
c21 5 22 21 22 145v384c0 104 -36 151 -62 151c-29 0 -36 -32 -36 -100v-102h50v-40h-50v-293c0 -123 1 -140 18 -144l12 -3v-31c-93 5 -198 5 -292 0v31l10 2c20 4 20 21 20 145zM289 610v-102h99c2 28 8 56 18 81c-12 -6 -27 -9 -45 -10l-17 5c-3 52 -18 126 -35 126
s-20 -32 -20 -100z" />
    <glyph glyph-name="f_f_k" unicode="ffk" horiz-adv-x="1352" 
d="M387 175v293h-98v-293c0 -124 0 -141 20 -145l10 -2v-31c-98 5 -204 5 -302 0v31l14 2c25 4 26 21 26 145v293h-50v34l50 6h1c10 127 100 232 251 232c80 0 124 -52 129 -94c43 57 111 94 201 94c51 0 92 -14 131 -34c58 4 115 18 173 34l10 -9c-3 -55 -4 -152 -4 -204
v-211l65 64c58 58 62 88 12 97l-17 3v31c86 -5 180 -5 266 0v-31l-16 -5c-75 -23 -115 -37 -212 -115l-78 -62c65 -7 132 12 159 39h20l88 -164c68 -131 82 -134 104 -141l12 -4v-31c-91 5 -185 5 -276 0l-127 251v-73c0 -123 1 -140 22 -145l8 -2v-31c-94 5 -197 5 -292 0
v31l8 2c21 5 22 21 22 145v384c0 104 -36 151 -62 151c-29 0 -36 -32 -36 -100v-102h50v-40h-50v-293c0 -123 1 -140 18 -144l12 -3v-31c-93 5 -198 5 -292 0v31l10 2c20 4 20 21 20 145zM289 610v-102h99c2 28 8 56 18 81c-12 -6 -27 -9 -45 -10l-17 5
c-3 52 -18 126 -35 126s-20 -32 -20 -100z" />
    <glyph glyph-name=".notdef" horiz-adv-x="518" 
d="M30 0v680h458v-680h-458zM63 34h392v612h-392v-612z" />
    <glyph glyph-name=".null" horiz-adv-x="0" 
 />
    <glyph glyph-name=".null" horiz-adv-x="0" 
 />
    <glyph glyph-name="CR" unicode="&#xd;" horiz-adv-x="0" 
 />
    <glyph glyph-name="space" unicode=" " horiz-adv-x="185" 
 />
    <glyph glyph-name="uni00A0" unicode="&#xa0;" horiz-adv-x="185" 
 />
    <glyph glyph-name="A" unicode="A" horiz-adv-x="685" 
d="M685 28v-31c-108 5 -241 5 -350 0v31l13 4c20 6 39 22 17 91l-24 75h-187l-4 -16c-24 -95 -4 -134 49 -150l13 -4v-31c-67 5 -145 6 -212 0v31l16 5c36 11 56 26 94 155l82 282c10 36 16 68 16 90c0 24 -8 39 -25 50l-18 12v26c86 -6 171 20 233 60h20l204 -579
c28 -79 32 -93 51 -98zM165 238h163l-89 276z" />
    <glyph glyph-name="B" unicode="B" horiz-adv-x="692" 
d="M682 215c0 -122 -137 -218 -331 -218c-55 0 -119 4 -185 4c-56 0 -97 -1 -141 -4v31l17 3c22 4 23 20 23 132v354c0 112 -1 128 -23 132l-17 3v31c45 -3 81 -5 132 -4c76 0 185 4 243 4c162 -1 240 -39 240 -143c0 -70 -68 -131 -177 -168c148 -1 219 -65 219 -157z
M307 647v-270c60 2 102 37 102 115c0 89 -46 156 -102 155zM307 154c0 -89 13 -119 54 -119c45 0 70 46 70 116c0 117 -60 186 -124 190v-187z" />
    <glyph glyph-name="C" unicode="C" horiz-adv-x="645" 
d="M373 660c-56 0 -94 -79 -94 -237c0 -223 88 -390 166 -390c46 0 63 34 132 181l16 34l27 -7c-13 -70 -25 -145 -32 -216c-49 -30 -116 -44 -199 -44c-211 0 -367 140 -367 373c0 195 148 345 367 345c78 0 148 -20 189 -46c-2 -72 4 -143 11 -218l-26 -4l-17 33
c-70 137 -116 196 -173 196z" />
    <glyph glyph-name="D" unicode="D" horiz-adv-x="752" 
d="M319 683c237 0 411 -124 411 -345c0 -196 -154 -341 -407 -341c-48 0 -117 4 -187 4c-38 0 -76 -2 -111 -4v31l17 3c22 4 23 20 23 132v354c0 112 -1 128 -23 132l-17 3v31c41 -2 84 -4 128 -4c64 1 126 4 166 4zM473 277c0 227 -66 341 -166 368v-495
c0 -85 12 -113 49 -113c70 0 117 84 117 240z" />
    <glyph glyph-name="E" unicode="E" horiz-adv-x="608" 
d="M386 641l-79 4v-275l37 3c51 4 69 24 88 77l8 23h25c-4 -68 -5 -169 0 -238h-25l-8 23c-19 53 -37 73 -88 77l-37 3v-178c0 -90 20 -125 81 -125c45 0 86 30 163 150l18 28l24 -7c-20 -70 -32 -139 -39 -209c-173 5 -351 5 -529 0v31l17 3c22 4 23 20 23 132v355
c0 112 -1 128 -23 132l-17 3v31c176 -6 353 -6 529 0c-2 -71 -1 -141 4 -214l-25 -3l-9 27c-34 103 -56 143 -138 147z" />
    <glyph glyph-name="F" unicode="F" horiz-adv-x="563" 
d="M375 641l-68 4v-300l37 3c51 4 69 24 88 77l8 23h25c-4 -68 -5 -169 0 -238h-25l-8 23c-19 53 -37 73 -88 77l-37 3v-150c0 -112 2 -125 43 -132l17 -3v-31c-104 5 -239 5 -342 0v31l17 3c22 4 23 20 23 132v355c0 112 -1 128 -23 132l-17 3v31c173 -6 346 -6 519 0
c-2 -64 -1 -158 4 -224l-22 -3l-11 29c-36 96 -66 151 -140 155z" />
    <glyph glyph-name="G" unicode="G" horiz-adv-x="722" 
d="M677 -15l-25 -4c-15 23 -33 45 -54 64c-72 -50 -137 -64 -216 -64c-207 0 -360 148 -360 373c0 195 136 345 366 345c101 0 182 -31 230 -63c-5 -72 -4 -144 -2 -218l-28 -4l-13 29c-65 145 -129 217 -192 217c-62 0 -104 -79 -104 -237c0 -236 76 -400 151 -400
c32 0 45 15 45 112c0 125 -2 149 -43 156l-17 3v31c90 -5 203 -5 292 0v-31l-8 -3c-21 -8 -22 -25 -22 -139v-167z" />
    <glyph glyph-name="H" unicode="H" horiz-adv-x="772" 
d="M65 178v327c0 123 -1 140 -23 144l-17 3v31c99 -5 224 -5 322 0v-31l-17 -3c-22 -4 -23 -21 -23 -144v-128h158v128c0 123 -1 140 -23 144l-17 3v31c99 -5 224 -5 322 0v-31l-17 -3c-22 -4 -23 -21 -23 -144v-327c0 -123 1 -143 23 -147l17 -3v-31c-99 5 -224 5 -322 0
v31l17 3c22 4 23 24 23 147v159h-158v-159c0 -123 1 -143 23 -147l17 -3v-31c-99 5 -224 5 -322 0v31l17 3c22 4 23 24 23 147z" />
    <glyph glyph-name="I" unicode="I" horiz-adv-x="372" 
d="M65 175v330c0 123 -1 140 -23 144l-17 3v31c99 -5 224 -5 322 0v-31l-17 -3c-22 -4 -23 -21 -23 -144v-330c0 -123 1 -140 23 -144l17 -3v-31c-99 5 -224 5 -322 0v31l17 3c22 4 23 21 23 144z" />
    <glyph glyph-name="J" unicode="J" horiz-adv-x="376" 
d="M69 505c0 123 -1 140 -23 144l-17 3v31c99 -5 224 -5 322 0v-31l-17 -3c-22 -4 -23 -21 -23 -144v-361c0 -145 -72 -216 -254 -246l-37 -6l-7 19l15 10c35 23 41 56 41 223v361z" />
    <glyph glyph-name="K" unicode="K" horiz-adv-x="796" 
d="M791 28v-31c-91 5 -197 5 -288 0l-191 371l128 144c80 90 61 123 24 135l-15 5v31c95 -5 184 -5 279 0v-31l-21 -4c-58 -11 -118 -53 -228 -159l-116 -112c74 -4 123 7 157 34h25l129 -236c72 -124 84 -136 105 -143zM65 175v330c0 123 -1 140 -23 144l-17 3v31
c99 -5 224 -5 322 0v-31l-17 -3c-22 -4 -23 -21 -23 -144v-330c0 -123 1 -140 23 -144l17 -3v-31c-99 5 -224 5 -322 0v31l17 3c22 4 23 21 23 144z" />
    <glyph glyph-name="L" unicode="L" horiz-adv-x="595" 
d="M65 505c0 123 -1 140 -23 144l-17 3v31c99 -5 224 -5 322 0v-31l-17 -3c-22 -4 -23 -21 -23 -144v-347c0 -89 7 -123 54 -123c36 0 75 33 178 169l22 29l24 -7c-22 -78 -35 -152 -43 -229c-169 5 -344 5 -517 0v31l17 3c22 4 23 20 23 132v342z" />
    <glyph glyph-name="M" unicode="M" horiz-adv-x="943" 
d="M132 305c2 -214 28 -256 83 -273l13 -4v-31c-61 4 -146 4 -207 0v31l18 6c38 13 52 46 52 271v245c0 38 -6 68 -39 91l-16 11v31c97 -5 198 -5 296 0l167 -406l144 406c87 -5 182 -5 275 0v-31l-17 -3c-22 -4 -23 -21 -23 -139v-335c0 -123 1 -140 23 -144l17 -3v-31
c-97 5 -224 5 -322 0v31l17 3c22 4 23 21 23 144v371l-183 -511c-37 2 -74 2 -111 0l-212 516z" />
    <glyph glyph-name="N" unicode="N" horiz-adv-x="692" 
d="M222 28v-31c-61 4 -146 4 -207 0v31l18 6c38 13 52 46 52 271v245c0 37 -18 66 -47 88l-19 14v31c77 -5 206 -5 282 0l277 -418l-2 107c-4 219 -16 254 -74 274l-17 6v31c58 -6 134 -6 192 0v-31l-14 -5c-35 -12 -47 -48 -47 -274v-373c-47 2 -95 2 -142 0l-351 525
l3 -220c3 -214 28 -256 83 -273z" />
    <glyph glyph-name="O" unicode="O" horiz-adv-x="749" 
d="M376 699c189 0 351 -140 351 -361c0 -207 -143 -357 -354 -357c-190 0 -351 140 -351 362c0 206 143 356 354 356zM339 658c-38 0 -60 -70 -60 -191c0 -267 80 -445 131 -445c38 0 60 71 60 192c0 266 -80 444 -131 444z" />
    <glyph glyph-name="P" unicode="P" horiz-adv-x="680" 
d="M376 30v-33c-108 5 -245 5 -351 0v31l17 3c22 4 23 21 23 142v333c0 123 -1 139 -23 143l-17 3v31c43 -3 89 -4 140 -4c62 0 131 4 201 4c218 0 304 -68 304 -189c0 -123 -131 -232 -363 -235v-84c0 -112 6 -130 52 -141zM307 644v-346c79 6 115 74 115 150
c0 95 -57 196 -115 196z" />
    <glyph glyph-name="Q" unicode="Q" horiz-adv-x="749" 
d="M719 -167c-75 1 -167 -32 -227 -70c-24 95 -71 144 -147 144c-40 0 -87 -13 -154 -45l-16 35l199 84c-191 0 -352 140 -352 362c0 206 143 356 354 356c189 0 351 -140 351 -361s-131 -312 -359 -393c139 26 274 -1 358 -92zM339 658c-38 0 -60 -70 -60 -191
c0 -267 80 -445 131 -445c38 0 60 71 60 192c0 266 -80 444 -131 444z" />
    <glyph glyph-name="R" unicode="R" horiz-adv-x="754" 
d="M749 28v-31c-89 5 -199 5 -288 0l-154 313v-135c0 -122 2 -138 28 -144l12 -3v-31c-93 5 -224 5 -322 0v31l17 3c22 4 23 22 23 144v330c0 123 -1 140 -23 144l-17 3v31c36 -2 75 -4 115 -4c83 0 170 4 243 4c165 0 267 -57 267 -169c0 -94 -115 -189 -282 -196
c53 -36 128 -48 180 -35h25l71 -121c66 -113 75 -124 93 -130zM307 645v-300c53 5 106 46 106 127c0 97 -47 163 -106 173z" />
    <glyph glyph-name="S" unicode="S" horiz-adv-x="565" 
d="M267 27c55 0 93 23 93 81c0 142 -328 136 -328 377c0 122 102 214 275 214c83 0 150 -22 196 -49c-4 -63 -4 -137 -2 -202l-26 -4l-12 29c-49 119 -95 180 -164 180c-40 0 -66 -21 -66 -68c0 -147 326 -130 326 -371c0 -135 -112 -233 -318 -233c-79 0 -165 22 -210 49
c4 63 3 163 1 228l26 4l12 -30c49 -122 110 -205 197 -205z" />
    <glyph glyph-name="T" unicode="T" horiz-adv-x="658" 
d="M636 683c0 -83 5 -170 12 -257l-24 -3l-35 76c-44 96 -64 132 -124 148l-15 4v-476c0 -123 1 -140 29 -144l21 -3v-31c-105 5 -238 5 -342 0v31l20 3c28 4 30 21 30 144v476l-15 -4c-60 -16 -80 -52 -124 -148l-35 -76l-24 3c7 87 12 174 12 257c204 -6 409 -6 614 0z
" />
    <glyph glyph-name="U" unicode="U" horiz-adv-x="658" 
d="M65 505c0 123 -1 140 -23 144l-17 3v31c103 -5 234 -5 335 0v-31l-22 -3c-30 -4 -31 -21 -31 -144v-295c0 -95 40 -147 119 -147c88 0 130 56 128 183l-3 153c-4 202 -18 233 -67 248l-16 5v31c55 -7 127 -5 180 0v-31l-11 -6c-27 -15 -44 -41 -44 -242v-159
c0 -195 -107 -264 -253 -264c-159 0 -275 63 -275 253v271z" />
    <glyph glyph-name="V" unicode="V" horiz-adv-x="686" 
d="M563 436l-142 -437c-46 2 -91 2 -137 0l-221 552c-32 80 -32 93 -51 98l-12 3v31c111 -5 231 -5 364 0v-31l-13 -4c-37 -11 -58 -26 -33 -94l132 -364l72 252c45 157 17 193 -26 206l-13 4v31c70 -6 144 -6 203 0v-31l-14 -5c-27 -9 -54 -41 -109 -211z" />
    <glyph glyph-name="W" unicode="W" horiz-adv-x="1084" 
d="M960 434l-142 -435c-45 2 -89 2 -134 0l-147 435l-151 -435c-45 2 -91 2 -136 0l-187 552c-27 81 -32 93 -51 98l-12 3v31c109 -5 228 -5 337 0v-31l-11 -4c-20 -7 -30 -21 -9 -91l106 -352l93 292l-19 55c-27 79 -32 92 -51 97l-12 3v31c109 -5 228 -5 337 0v-31l-11 -4
c-20 -7 -30 -19 -9 -90l102 -351l68 233c40 138 28 191 -27 208l-13 4v31c70 -6 143 -6 203 0v-31l-9 -3c-31 -10 -58 -42 -115 -215z" />
    <glyph glyph-name="X" unicode="X" horiz-adv-x="742" 
d="M742 28v-31c-117 5 -261 5 -377 0v31l21 3c26 4 40 22 2 82l-105 165l-41 -70c-70 -120 -51 -164 -7 -176l15 -4v-31c-69 5 -181 4 -250 0v31l14 5c37 13 83 41 189 189l61 85l-178 280c-35 55 -38 57 -58 62l-12 3v31c115 -5 259 -5 374 0v-31l-26 -6
c-16 -4 -37 -19 -7 -65l88 -138l26 42c60 97 50 153 13 164l-9 3v31c84 -5 167 -5 229 0v-31l-17 -6c-32 -11 -70 -28 -184 -180l-39 -52l182 -285c52 -81 59 -92 84 -98z" />
    <glyph glyph-name="Y" unicode="Y" horiz-adv-x="687" 
d="M518 27v-31c-105 6 -238 6 -342 0v31l17 3c31 5 33 21 33 144v101l-164 309c-29 55 -35 62 -48 65l-14 3v31c110 -5 236 -5 370 0v-31l-14 -4c-32 -9 -53 -26 -19 -93l106 -206l47 103c62 135 36 182 -1 195l-14 5v31c77 -6 148 -5 212 0v-31l-9 -4
c-37 -16 -67 -55 -152 -213l-58 -108v-153c0 -123 2 -139 33 -144z" />
    <glyph glyph-name="Z" unicode="Z" horiz-adv-x="632" 
d="M612 225c-14 -60 -24 -169 -30 -229c-179 6 -381 6 -562 0v18l323 630l-53 -6c-119 -12 -159 -69 -203 -158l-20 -40l-26 6c12 63 22 191 25 238c174 -6 368 -6 542 0v-18l-325 -631l49 5c155 15 199 80 241 164l14 28z" />
    <glyph glyph-name="AE" unicode="&#xc6;" horiz-adv-x="926" 
d="M704 641l-79 4v-275l37 3c51 4 69 24 88 77l8 23h25c-4 -68 -5 -169 0 -238h-25l-8 23c-19 53 -37 73 -88 77l-37 3v-193c0 -79 28 -110 81 -110c45 0 86 30 163 150l18 28l24 -7c-20 -70 -32 -139 -39 -209c-173 5 -351 5 -529 0v31l17 3c22 4 23 20 23 132v51h-168
l-11 -22c-48 -97 -46 -147 13 -165l13 -4v-26c-64 4 -166 4 -230 0v26l19 6c40 11 76 44 147 178l170 319c29 55 38 87 38 102c0 11 -4 19 -17 22l-14 3v31c176 -6 353 -6 529 0c-2 -71 -1 -141 4 -214l-25 -3l-9 27c-34 103 -56 143 -138 147zM383 543l-148 -289h148v289z
" />
    <glyph glyph-name="OE" unicode="&#x152;" horiz-adv-x="988" 
d="M766 641l-79 4v-275l37 3c51 4 69 24 88 77l8 23h25c-4 -68 -5 -169 0 -238h-25l-8 23c-19 53 -37 73 -88 77l-37 3v-198c0 -76 29 -105 81 -105c45 0 86 30 163 150l18 28l24 -7c-20 -70 -32 -139 -39 -209c-109 3 -223 4 -335 4c-71 0 -126 -4 -166 -4
c-237 0 -411 124 -411 345c0 196 154 341 407 341c57 0 129 -4 224 -4c93 0 188 2 281 5c-2 -71 -1 -141 4 -214l-25 -3l-9 27c-34 103 -56 143 -138 147zM279 403c0 -229 89 -371 158 -371c6 0 8 4 8 10v491c0 85 -12 113 -49 113c-70 0 -117 -85 -117 -243z" />
    <glyph glyph-name="Lslash" unicode="&#x141;" horiz-adv-x="595" 
d="M585 226c-22 -78 -35 -152 -43 -229c-169 5 -344 5 -517 0v31l17 3c22 4 23 20 23 132v127l-54 -13v43l54 13v172c0 123 -1 140 -23 144l-17 3v31c99 -5 224 -5 322 0v-31l-17 -3c-22 -4 -23 -21 -23 -144v-113l117 28v-43l-117 -28v-191c0 -89 7 -123 54 -123
c36 0 75 33 178 169l22 29z" />
    <glyph glyph-name="Oslash" unicode="&#xd8;" horiz-adv-x="749" 
d="M373 -19c-81 0 -157 26 -218 72l-77 -89h-56l101 118c-62 62 -101 152 -101 261c0 206 143 356 354 356c81 0 157 -26 218 -73l77 90h56l-102 -118c63 -62 102 -151 102 -260c0 -207 -143 -357 -354 -357zM279 467c0 -69 5 -133 14 -189l153 177
c-28 127 -74 203 -107 203c-38 0 -60 -70 -60 -191zM470 214c0 69 -5 132 -14 188l-153 -177c28 -127 74 -203 107 -203c38 0 60 71 60 192z" />
    <glyph glyph-name="Eth" unicode="&#xd0;" horiz-adv-x="752" 
d="M730 338c0 -196 -154 -341 -407 -341c-48 0 -117 4 -187 4c-38 0 -76 -2 -111 -4v31l17 3c22 4 23 20 23 132v166h-44v40h44v148c0 112 -1 128 -23 132l-17 3v31c41 -2 84 -4 128 -4c64 1 126 4 166 4c237 0 411 -124 411 -345zM307 150c0 -85 12 -113 49 -113
c70 0 117 84 117 240c0 227 -66 341 -166 368v-276h91v-40h-91v-179z" />
    <glyph glyph-name="Thorn" unicode="&#xde;" horiz-adv-x="662" 
d="M347 28v-31c-99 5 -224 5 -322 0v31l17 3c22 4 23 21 23 144v330c0 123 -1 140 -23 144l-17 3v31c99 -5 224 -5 322 0v-31l-17 -3c-17 -3 -21 -14 -23 -76h45c187 0 300 -60 300 -195c0 -130 -137 -219 -345 -224c0 -104 2 -119 23 -123zM307 533v-339
c65 8 108 60 108 148c0 89 -43 175 -108 191z" />
    <glyph glyph-name="uni0191" unicode="&#x191;" horiz-adv-x="563" 
d="M375 641l-68 4v-300l37 3c51 4 69 24 88 77l8 23h25c-4 -68 -5 -169 0 -238h-25l-8 23c-19 53 -37 73 -88 77l-37 3v-169c0 -145 -72 -216 -254 -246l-37 -6l-7 19l15 10c35 23 41 56 41 223v374c-1 112 -1 128 -23 132l-17 3v31c173 -6 346 -6 519 0
c-2 -64 -1 -158 4 -224l-22 -3l-11 29c-36 96 -66 151 -140 155z" />
    <glyph glyph-name="uni1E9E" unicode="&#x1e9e;" horiz-adv-x="774" 
d="M764 192c0 -142 -121 -211 -260 -211c-66 0 -120 17 -146 28c4 55 -3 141 -5 199l28 6l9 -28c32 -101 71 -167 119 -167c26 0 42 28 42 81c0 79 -65 177 -179 246v26l97 132c-23 98 -73 158 -117 158s-63 -35 -63 -97v-387c0 -123 1 -143 23 -147l17 -3v-31
c-99 5 -224 5 -322 0v31l17 3c22 4 23 24 23 147v248c0 153 95 272 320 272c119 0 196 -24 253 -67v-26l-86 -102c121 -74 230 -166 230 -311z" />
    <glyph glyph-name="a" unicode="a" horiz-adv-x="577" 
d="M577 47c-45 -46 -115 -66 -174 -66c-68 0 -108 34 -108 91v6c-28 -69 -71 -97 -137 -97c-81 0 -142 61 -142 150c0 65 36 117 161 134l118 16v17c0 108 -39 169 -78 169c-42 0 -52 -69 -45 -172l-19 -6c-58 2 -109 17 -109 64c0 84 144 174 277 174
c123 0 208 -63 208 -191c0 -62 -4 -152 -4 -226c0 -39 4 -44 22 -44c9 0 15 3 21 6zM274 95c9 0 17 2 21 6v145h-8c-55 0 -68 -32 -68 -67c0 -47 22 -84 55 -84z" />
    <glyph glyph-name="b" unicode="b" horiz-adv-x="635" 
d="M45 502c0 157 0 179 -31 186l-9 2v31c112 0 184 3 266 19l10 -9c-3 -55 -4 -152 -4 -204v-99c24 64 75 99 146 99c122 0 190 -111 190 -248c0 -199 -136 -298 -277 -298c-68 0 -139 23 -187 58c-31 -20 -59 -39 -88 -58l-20 11c4 56 4 105 4 179v331zM331 15
c25 0 44 37 44 158c0 133 -26 238 -70 238c-10 0 -20 -5 -28 -13v-202c0 -151 34 -181 54 -181z" />
    <glyph glyph-name="c" unicode="c" horiz-adv-x="520" 
d="M268 488c-24 0 -39 -23 -39 -72c0 -173 73 -273 167 -273c30 0 64 9 103 36l13 -13c-51 -118 -141 -185 -245 -185c-141 0 -247 102 -247 255c0 180 135 291 281 291c117 0 192 -60 192 -124c0 -54 -47 -89 -121 -94l-19 6c-19 87 -48 173 -85 173z" />
    <glyph glyph-name="d" unicode="d" horiz-adv-x="635" 
d="M378 -17c-7 22 -15 58 -18 102c-23 -67 -76 -104 -148 -104c-122 0 -190 111 -190 248c0 199 137 298 279 298c19 0 38 -2 57 -6c0 140 -1 160 -31 167l-9 2v31c112 0 184 3 266 19l10 -9c-3 -55 -4 -152 -4 -204v-309c0 -133 2 -151 23 -157l17 -5v-31
c-81 -9 -168 -23 -252 -42zM260 345c0 -145 26 -248 70 -248c10 0 20 5 28 14v303c0 48 -18 77 -48 77c-28 0 -50 -34 -50 -146z" />
    <glyph glyph-name="e" unicode="e" horiz-adv-x="538" 
d="M530 179c-59 -129 -139 -198 -258 -198c-143 0 -252 109 -252 271c0 164 130 275 274 275c142 0 219 -101 219 -203c0 -12 -1 -29 -3 -45h-271c27 -91 84 -138 154 -138c49 0 84 18 122 51zM222 413c0 -39 3 -73 10 -104l91 14l-2 22c-9 104 -33 152 -60 152
c-25 0 -39 -32 -39 -84z" />
    <glyph glyph-name="f" unicode="f" horiz-adv-x="377" 
d="M339 28v-31c-105 5 -217 5 -322 0v31l17 3c22 4 23 21 23 144v293h-50v34l50 6h1c10 127 100 232 251 232c97 0 153 -60 153 -112c0 -43 -33 -65 -88 -68l-19 6c-4 63 -21 144 -46 144c-17 0 -20 -32 -20 -100v-102h88v-40h-88v-293c0 -123 1 -140 28 -144z" />
    <glyph glyph-name="g" unicode="g" horiz-adv-x="574" 
d="M577 -13c0 -128 -165 -212 -338 -212c-184 0 -251 52 -251 106c0 39 51 73 134 77c-63 19 -104 57 -104 118c0 56 52 98 119 126c-71 30 -116 85 -116 151c0 97 104 174 246 174c37 0 72 -5 103 -14c14 87 67 133 118 133c48 0 76 -45 74 -105l-6 -17
c-69 5 -119 -4 -162 -19c77 -29 127 -86 127 -155c0 -95 -104 -174 -246 -174c-41 0 -79 6 -113 17c-8 -7 -13 -14 -13 -22c0 -27 34 -36 169 -42c168 -6 259 -47 259 -142zM255 496c-14 0 -22 -22 -22 -71c0 -126 26 -218 54 -218c14 0 22 23 22 71c0 124 -26 218 -54 218z
M130 -103c0 -45 41 -85 124 -85c88 0 141 35 141 75c0 34 -30 48 -165 54c-28 1 -55 4 -80 9c-12 -12 -20 -29 -20 -53z" />
    <glyph glyph-name="h" unicode="h" horiz-adv-x="666" 
d="M656 28v-31c-97 5 -204 5 -302 0v31l8 2c18 5 22 18 22 145v141c0 68 -18 93 -52 93c-17 0 -31 -6 -46 -18v-216c0 -123 -3 -139 22 -145l8 -2v-31c-97 5 -204 5 -302 0v31l17 3c22 4 23 21 23 144v327c0 157 0 179 -31 186l-9 2v31c112 0 184 3 266 19l10 -9
c-3 -55 -4 -152 -4 -204v-107c36 60 87 107 170 107c81 0 160 -45 160 -175v-177c0 -123 1 -140 23 -144z" />
    <glyph glyph-name="i" unicode="i" horiz-adv-x="336" 
d="M294 673c0 -67 -52 -117 -124 -117c-71 0 -124 50 -124 117s53 117 124 117s124 -50 124 -117zM54 175v114c0 157 0 179 -31 186l-9 2v31c112 0 184 3 266 19l10 -9c-3 -55 -4 -152 -4 -204v-139c0 -123 1 -140 23 -144l17 -3v-31c-101 5 -210 5 -312 0v31l17 3
c22 4 23 21 23 144z" />
    <glyph glyph-name="j" unicode="j" horiz-adv-x="328" 
d="M290 673c0 -67 -52 -117 -124 -117c-71 0 -124 50 -124 117s53 117 124 117s124 -50 124 -117zM50 289c0 157 0 179 -31 186l-9 2v31c112 0 184 3 266 19l10 -9c-3 -55 -4 -152 -4 -204v-280c0 -143 -72 -196 -244 -242l-37 -10l-11 25l15 10c37 25 45 53 45 214v258z
" />
    <glyph glyph-name="k" unicode="k" horiz-adv-x="689" 
d="M689 28v-31c-91 5 -185 5 -276 0l-127 251v-73c0 -123 1 -140 22 -145l8 -2v-31c-97 5 -204 5 -302 0v31l17 3c22 4 23 21 23 144v327c0 157 0 179 -31 186l-9 2v31c112 0 184 3 266 19l10 -9c-3 -55 -4 -152 -4 -204v-211l65 64c58 58 62 88 12 97l-17 3v31
c86 -5 180 -5 266 0v-31l-16 -5c-75 -23 -115 -37 -212 -115l-78 -62c65 -7 132 12 159 39h20l88 -164c68 -131 82 -134 104 -141z" />
    <glyph glyph-name="l" unicode="l" horiz-adv-x="336" 
d="M54 175v327c0 157 0 179 -31 186l-9 2v31c112 0 184 3 266 19l10 -9c-3 -55 -4 -152 -4 -204v-352c0 -123 1 -140 23 -144l17 -3v-31c-101 5 -210 5 -312 0v31l17 3c22 4 23 21 23 144z" />
    <glyph glyph-name="m" unicode="m" horiz-adv-x="976" 
d="M966 28v-31c-96 5 -203 5 -300 0v31l9 2c18 4 19 13 19 135v151c0 68 -18 93 -52 93c-14 0 -25 -7 -39 -18c2 -12 3 -25 3 -39v-187c0 -122 1 -131 19 -135l9 -2v-31c-92 5 -195 5 -288 0v31l9 2c18 4 19 13 19 135v151c0 68 -18 93 -52 93c-13 0 -23 -6 -35 -16
c-1 -30 -1 -58 -1 -79v-149c0 -123 1 -131 19 -135l9 -2v-31c-96 5 -203 5 -300 0v31l17 3c22 4 23 21 23 144v114c0 157 0 179 -31 186l-9 2v31c112 0 184 3 266 19l10 -9c-1 -26 -2 -61 -3 -96c36 60 82 105 159 105c65 0 129 -29 152 -109c36 62 87 109 168 109
s160 -45 160 -175v-177c0 -123 1 -140 23 -144z" />
    <glyph glyph-name="n" unicode="n" horiz-adv-x="666" 
d="M656 28v-31c-97 5 -204 5 -302 0v31l8 2c18 5 22 18 22 145v141c0 68 -18 93 -52 93c-17 0 -31 -6 -45 -18c-1 -29 -1 -56 -1 -77v-139c0 -123 -3 -139 22 -145l8 -2v-31c-97 5 -204 5 -302 0v31l17 3c22 4 23 21 23 144v114c0 157 0 179 -31 186l-9 2v31
c112 0 184 3 266 19l10 -9c-1 -26 -2 -61 -3 -96c36 59 87 105 169 105c81 0 160 -45 160 -175v-177c0 -123 1 -140 23 -144z" />
    <glyph glyph-name="o" unicode="o" horiz-adv-x="619" 
d="M20 252c0 171 132 275 296 275c175 0 283 -114 283 -271c0 -171 -131 -275 -295 -275c-175 0 -284 114 -284 271zM367 133c0 149 -39 355 -82 355c-21 0 -32 -40 -32 -113c0 -148 39 -355 82 -355c21 0 32 40 32 113z" />
    <glyph glyph-name="p" unicode="p" horiz-adv-x="644" 
d="M338 -182v-31c-101 5 -212 5 -314 0v31l8 2c18 5 22 18 22 145v324c0 157 0 179 -31 186l-9 2v31c112 0 184 3 266 19l10 -9c-1 -24 -2 -55 -3 -87c24 62 76 96 145 96c122 0 190 -111 190 -248c0 -199 -137 -298 -279 -298c-19 0 -38 2 -57 6v-22c0 -122 2 -135 35 -143
zM286 74c0 -39 21 -57 46 -57c29 0 52 36 52 156c0 128 -26 238 -70 238c-9 0 -17 -4 -27 -13c-1 -31 -1 -62 -1 -84v-240z" />
    <glyph glyph-name="q" unicode="q" horiz-adv-x="632" 
d="M358 -35v115c-24 -64 -75 -99 -146 -99c-122 0 -190 111 -190 248c0 199 136 298 277 298c68 0 136 -20 188 -58c31 19 59 38 86 59l21 -12c-4 -66 -4 -130 -4 -225v-326c0 -123 -3 -139 22 -145l8 -2v-31c-100 5 -212 5 -314 0v31l17 4c33 8 35 21 35 143zM330 97
c10 0 20 5 28 13v156c0 193 -24 225 -52 225c-26 0 -46 -35 -46 -151c0 -142 26 -243 70 -243z" />
    <glyph glyph-name="r" unicode="r" horiz-adv-x="531" 
d="M353 28v-31c-108 5 -230 5 -339 0v31l8 2c36 9 32 23 32 145v114c0 157 0 179 -31 186l-9 2v31c112 0 184 3 266 19l10 -9c-2 -45 -4 -120 -4 -173c30 124 72 182 150 182c55 0 87 -43 87 -98c0 -30 -8 -48 -21 -67l-17 -10c-34 10 -60 16 -92 16c-43 0 -87 -9 -107 -72
v-121c0 -120 4 -129 49 -142z" />
    <glyph glyph-name="s" unicode="s" horiz-adv-x="490" 
d="M244 16c25 0 47 10 47 34c0 50 -58 82 -155 137c-61 35 -116 83 -116 166c0 101 90 174 232 174c76 0 129 -20 175 -49c0 -27 1 -85 4 -128h-25c-41 63 -110 143 -172 143c-22 0 -36 -12 -36 -35c0 -41 52 -74 144 -121c68 -35 135 -88 135 -182
c0 -112 -95 -174 -249 -174c-79 0 -145 19 -204 43c2 45 2 91 0 143h25c58 -87 124 -151 195 -151z" />
    <glyph glyph-name="t" unicode="t" horiz-adv-x="412" 
d="M64 515c94 21 148 78 206 152l25 -7v-152h106v-40h-106v-279c0 -67 15 -89 50 -89c19 0 35 6 52 18l15 -17c-50 -84 -104 -120 -182 -120c-97 0 -167 59 -167 196v291h-58v34z" />
    <glyph glyph-name="u" unicode="u" horiz-adv-x="647" 
d="M367 86c-30 -65 -86 -105 -165 -105c-85 0 -157 49 -157 175v133c0 157 0 179 -31 186l-9 2v31c112 0 184 3 266 19l10 -9c-3 -56 -4 -156 -4 -209v-117c0 -66 18 -93 49 -93c14 0 28 8 39 20v170c0 157 0 179 -31 186l-9 2v31c112 0 184 3 266 19l10 -9
c-3 -55 -4 -152 -4 -204v-96c0 -133 2 -151 23 -157l17 -5v-31c-81 -9 -168 -23 -252 -42c-7 22 -15 58 -18 103z" />
    <glyph glyph-name="v" unicode="v" horiz-adv-x="582" 
d="M469 329l-111 -330c-47 2 -95 2 -142 0l-158 409c-22 57 -27 66 -44 70l-9 2v31c105 -5 229 -5 335 0v-31l-11 -4c-24 -9 -39 -23 -17 -91l71 -214l47 166c30 104 13 130 -15 139l-13 4v31c57 -5 118 -5 175 0v-31l-11 -3c-28 -8 -60 -39 -97 -148z" />
    <glyph glyph-name="w" unicode="w" horiz-adv-x="929" 
d="M835 347l-118 -348c-44 2 -89 2 -133 0l-118 312l-111 -312c-46 2 -93 2 -141 0l-151 395c-28 73 -33 79 -47 83l-11 3v31c105 -5 220 -5 325 0v-31l-11 -4c-20 -7 -32 -23 -9 -91l72 -213l65 191l-13 33c-27 71 -30 77 -45 81l-12 3v31c104 -5 218 -5 321 0v-31l-16 -4
c-20 -5 -31 -23 -9 -91l69 -211l56 183c24 79 6 112 -23 120l-11 3v31c47 -3 114 -4 160 0v-31l-12 -5c-29 -12 -47 -40 -77 -128z" />
    <glyph glyph-name="x" unicode="x" horiz-adv-x="642" 
d="M637 23v-26c-110 5 -236 5 -347 0v26l14 4c24 7 25 33 -18 97l-54 81l-53 -85c-35 -56 -26 -86 -8 -93l11 -4v-26c-50 5 -128 5 -177 0v26l14 4c27 8 61 30 117 102l79 102l-98 148c-53 81 -57 90 -88 98l-12 3v31c112 -5 240 -5 352 0v-31l-11 -3c-34 -9 -34 -28 11 -96
l39 -58l40 66c37 61 24 81 4 88l-9 3v31c62 -5 118 -5 172 0v-31l-10 -3c-28 -8 -63 -32 -115 -99l-64 -83l113 -171c52 -78 58 -91 86 -98z" />
    <glyph glyph-name="y" unicode="y" horiz-adv-x="587" 
d="M338 18c-85 -207 -137 -247 -202 -247c-59 0 -82 58 -86 120l8 18c116 -16 204 5 240 96l4 11h-51l-165 365c-35 77 -50 91 -69 96l-12 3v31c112 -6 235 -6 347 0v-31l-11 -4c-30 -11 -41 -20 -11 -91l63 -150l41 115c33 93 21 117 -9 126l-14 4v31c49 -4 121 -4 171 0
v-31l-17 -5c-29 -9 -52 -32 -99 -146z" />
    <glyph glyph-name="z" unicode="z" horiz-adv-x="522" 
d="M510 190c-4 -47 -6 -139 -2 -193c-159 6 -335 6 -498 0v29l245 448c-106 -12 -154 -35 -183 -112l-14 -37l-24 5c6 46 12 120 15 180c151 -5 303 -5 452 0v-30l-245 -446c115 10 192 41 222 134l7 22h25z" />
    <glyph glyph-name="ae" unicode="&#xe6;" horiz-adv-x="813" 
d="M805 179c-59 -129 -139 -198 -258 -198c-86 0 -160 40 -205 107c-35 -78 -96 -107 -167 -107c-98 0 -159 61 -159 150c0 65 36 117 160 134l119 16c-1 127 -40 181 -78 181c-39 0 -52 -67 -45 -167l-19 -6c-58 2 -109 17 -109 64c0 84 144 174 277 174
c47 0 91 -11 124 -29c38 19 80 29 124 29c142 0 219 -101 219 -203c0 -12 -1 -29 -3 -45h-271c27 -91 84 -138 154 -138c49 0 84 18 122 51zM497 413c0 -39 3 -73 10 -104l91 14l-2 22c-10 110 -34 152 -59 152c-26 0 -40 -32 -40 -84zM274 95c18 0 37 6 54 17
c-21 39 -33 87 -33 134h-8c-55 0 -68 -32 -68 -67c0 -47 22 -84 55 -84z" />
    <glyph glyph-name="oe" unicode="&#x153;" horiz-adv-x="880" 
d="M872 179c-59 -129 -139 -198 -258 -198c-57 0 -108 20 -147 56c-41 -36 -96 -56 -163 -56c-175 0 -284 114 -284 271c0 171 130 275 284 275c72 0 128 -22 168 -60c44 39 101 60 164 60c142 0 219 -101 219 -203c0 -12 -1 -29 -3 -45h-271c27 -91 84 -138 154 -138
c49 0 84 18 122 51zM564 413c0 -39 3 -73 10 -104l91 14l-2 22c-9 104 -33 152 -60 152c-25 0 -39 -32 -39 -84zM367 133c0 149 -39 355 -82 355c-21 0 -32 -40 -32 -113c0 -148 39 -355 82 -355c21 0 32 40 32 113z" />
    <glyph glyph-name="lslash" unicode="&#x142;" horiz-adv-x="336" 
d="M326 28v-31c-101 5 -210 5 -312 0v31l17 3c22 4 23 21 23 144v149l-48 -12v43l48 12v135c0 157 0 179 -31 186l-9 2v31c112 0 184 3 266 19l10 -9c-3 -55 -4 -152 -4 -204v-103l49 12v-43l-49 -12v-206c0 -123 1 -140 23 -144z" />
    <glyph glyph-name="oslash" unicode="&#xf8;" horiz-adv-x="619" 
d="M304 -19c-72 0 -133 19 -179 53l-55 -58h-50l77 81c-50 48 -77 116 -77 195c0 171 132 275 296 275c72 0 132 -19 178 -52l55 57h50l-77 -81c50 -48 77 -116 77 -195c0 -171 -131 -275 -295 -275zM253 375c0 -45 4 -95 10 -144l87 92c-15 91 -39 165 -65 165
c-21 0 -32 -40 -32 -113zM367 133c0 45 -4 96 -10 145l-87 -92c15 -92 39 -166 65 -166c21 0 32 40 32 113z" />
    <glyph glyph-name="eth" unicode="&#xf0;" horiz-adv-x="615" 
d="M593 286c0 -201 -130 -305 -293 -305c-174 0 -282 114 -282 271c0 171 131 275 294 275c6 0 13 0 28 -1c-15 34 -37 66 -66 93l-82 -63l-24 29l76 59c-33 24 -72 43 -115 54l9 30c58 -11 110 -27 157 -46l73 57l24 -30l-58 -44c179 -87 259 -229 259 -379zM365 133
c0 158 -40 355 -84 355c-22 0 -34 -40 -34 -113c0 -158 40 -355 84 -355c22 0 34 40 34 113z" />
    <glyph glyph-name="thorn" unicode="&#xfe;" horiz-adv-x="644" 
d="M338 -182v-31c-101 5 -212 5 -314 0v31l8 2c18 5 22 18 22 145v537c0 157 0 179 -31 186l-9 2v31c112 0 184 3 266 19l10 -9c-3 -55 -4 -152 -4 -204v-99c24 64 75 99 146 99c122 0 190 -111 190 -248c0 -199 -137 -298 -279 -298c-19 0 -38 2 -57 6v-22
c0 -122 2 -135 35 -143zM286 74c0 -39 21 -57 46 -57c29 0 52 36 52 156c0 128 -26 238 -70 238c-10 0 -20 -5 -28 -13v-324z" />
    <glyph glyph-name="uni0192" unicode="&#x192;" horiz-adv-x="377" 
d="M45 -208l-37 -10l-11 25l15 10c37 25 45 53 45 214v437h-50v34l50 6h1c9 127 100 232 251 232c97 0 153 -60 153 -112c0 -43 -33 -65 -88 -68l-19 6c-4 63 -21 144 -46 144c-17 0 -20 -32 -20 -100v-102h88v-40h-88v-434c0 -143 -72 -196 -244 -242z" />
    <glyph glyph-name="germandbls" unicode="&#xdf;" horiz-adv-x="747" 
d="M737 169c0 -120 -88 -188 -213 -188c-62 0 -121 13 -172 38c2 45 2 91 0 143h25c48 -90 95 -148 143 -148c26 0 46 20 46 51c0 115 -243 136 -243 312c0 112 109 135 109 239c0 46 -32 89 -74 89c-51 0 -69 -36 -69 -125v-405c0 -123 1 -141 18 -144l17 -3v-31
c-99 5 -207 5 -307 0v31l17 3c22 4 23 21 23 144v293h-50v34l50 6h1c10 127 106 232 296 232c165 0 222 -60 222 -112c0 -86 -136 -70 -136 -116c0 -60 297 -150 297 -343z" />
    <glyph glyph-name="dotlessi" unicode="&#x131;" horiz-adv-x="336" 
d="M54 175v114c0 157 0 179 -31 186l-9 2v31c112 0 184 3 266 19l10 -9c-3 -55 -4 -152 -4 -204v-139c0 -123 1 -140 23 -144l17 -3v-31c-101 5 -210 5 -312 0v31l17 3c22 4 23 21 23 144z" />
    <glyph glyph-name="dotlessj" unicode="&#x237;" horiz-adv-x="328" 
d="M50 289c0 157 0 179 -31 186l-9 2v31c112 0 184 3 266 19l10 -9c-3 -55 -4 -152 -4 -204v-280c0 -143 -72 -196 -244 -242l-37 -10l-11 25l15 10c37 25 45 53 45 214v258z" />
    <glyph glyph-name="Aacute" unicode="&#xc1;" horiz-adv-x="685" 
d="M498 880c0 -56 -53 -93 -214 -158l-14 13l116 218l18 5c60 -10 94 -38 94 -78zM685 28v-31c-108 5 -241 5 -350 0v31l13 4c20 6 39 22 17 91l-24 75h-187l-4 -16c-24 -95 -4 -134 49 -150l13 -4v-31c-67 5 -145 6 -212 0v31l16 5c36 11 56 26 94 155l82 282
c10 36 16 68 16 90c0 24 -8 39 -25 50l-18 12v26c86 -6 171 20 233 60h20l204 -579c28 -79 32 -93 51 -98zM165 238h163l-89 276z" />
    <glyph glyph-name="Acircumflex" unicode="&#xc2;" horiz-adv-x="685" 
d="M343 838l-164 -118l-16 13l111 215h138l111 -215l-16 -13zM685 28v-31c-108 5 -241 5 -350 0v31l13 4c20 6 39 22 17 91l-24 75h-187l-4 -16c-24 -95 -4 -134 49 -150l13 -4v-31c-67 5 -145 6 -212 0v31l16 5c36 11 56 26 94 155l82 282c10 36 16 68 16 90
c0 24 -8 39 -25 50l-18 12v26c86 -6 171 20 233 60h20l204 -579c28 -79 32 -93 51 -98zM165 238h163l-89 276z" />
    <glyph glyph-name="Adieresis" unicode="&#xc4;" horiz-adv-x="685" 
d="M329 837c0 -55 -41 -97 -99 -97c-57 0 -99 42 -99 97s42 97 99 97s99 -42 99 -97zM559 837c0 -55 -41 -97 -99 -97c-57 0 -99 42 -99 97s42 97 99 97s99 -42 99 -97zM685 28v-31c-108 5 -241 5 -350 0v31l13 4c20 6 39 22 17 91l-24 75h-187l-4 -16
c-24 -95 -4 -134 49 -150l13 -4v-31c-67 5 -145 6 -212 0v31l16 5c36 11 56 26 94 155l82 282c10 36 16 68 16 90c0 24 -8 39 -25 50l-18 12v26c86 -6 171 20 233 60h20l204 -579c28 -79 32 -93 51 -98zM165 238h163l-89 276z" />
    <glyph glyph-name="Agrave" unicode="&#xc0;" horiz-adv-x="685" 
d="M119 880c0 40 34 68 94 78l18 -5l116 -218l-14 -13c-161 65 -214 102 -214 158zM685 28v-31c-108 5 -241 5 -350 0v31l13 4c20 6 39 22 17 91l-24 75h-187l-4 -16c-24 -95 -4 -134 49 -150l13 -4v-31c-67 5 -145 6 -212 0v31l16 5c36 11 56 26 94 155l82 282
c10 36 16 68 16 90c0 24 -8 39 -25 50l-18 12v26c86 -6 171 20 233 60h20l204 -579c28 -79 32 -93 51 -98zM165 238h163l-89 276z" />
    <glyph glyph-name="Aring" unicode="&#xc5;" horiz-adv-x="685" 
d="M454 861c0 -75 -61 -135 -136 -135s-136 60 -136 135c0 76 61 136 136 136s136 -60 136 -136zM229 861c0 -52 40 -93 89 -93c48 0 89 41 89 93s-41 94 -89 94c-49 0 -89 -42 -89 -94zM685 28v-31c-108 5 -241 5 -350 0v31l13 4c20 6 39 22 17 91l-24 75h-187l-4 -16
c-24 -95 -4 -134 49 -150l13 -4v-31c-67 5 -145 6 -212 0v31l16 5c36 11 56 26 94 155l82 282c10 36 16 68 16 90c0 24 -8 39 -25 50l-18 12v26c86 -6 171 20 233 60h20l204 -579c28 -79 32 -93 51 -98zM165 238h163l-89 276z" />
    <glyph glyph-name="Atilde" unicode="&#xc3;" horiz-adv-x="685" 
d="M155 744c26 119 67 175 135 175c56 0 86 -41 143 -41c22 0 48 10 68 53l20 -11c-31 -127 -71 -177 -132 -177c-55 0 -86 44 -141 44c-24 0 -53 -10 -73 -53zM685 28v-31c-108 5 -241 5 -350 0v31l13 4c20 6 39 22 17 91l-24 75h-187l-4 -16c-24 -95 -4 -134 49 -150
l13 -4v-31c-67 5 -145 6 -212 0v31l16 5c36 11 56 26 94 155l82 282c10 36 16 68 16 90c0 24 -8 39 -25 50l-18 12v26c86 -6 171 20 233 60h20l204 -579c28 -79 32 -93 51 -98zM165 238h163l-89 276z" />
    <glyph glyph-name="Abreve" unicode="&#x102;" horiz-adv-x="685" 
d="M488 937c0 -129 -54 -208 -162 -208c-107 0 -162 79 -162 208h24c11 -47 57 -85 138 -85c76 0 127 38 138 85h24zM685 28v-31c-108 5 -241 5 -350 0v31l13 4c20 6 39 22 17 91l-24 75h-187l-4 -16c-24 -95 -4 -134 49 -150l13 -4v-31c-67 5 -145 6 -212 0v31l16 5
c36 11 56 26 94 155l82 282c10 36 16 68 16 90c0 24 -8 39 -25 50l-18 12v26c86 -6 171 20 233 60h20l204 -579c28 -79 32 -93 51 -98zM165 238h163l-89 276z" />
    <glyph glyph-name="Amacron" unicode="&#x100;" horiz-adv-x="685" 
d="M182 772v112h306v-112h-306zM685 28v-31c-108 5 -241 5 -350 0v31l13 4c20 6 39 22 17 91l-24 75h-187l-4 -16c-24 -95 -4 -134 49 -150l13 -4v-31c-67 5 -145 6 -212 0v31l16 5c36 11 56 26 94 155l82 282c10 36 16 68 16 90c0 24 -8 39 -25 50l-18 12v26
c86 -6 171 20 233 60h20l204 -579c28 -79 32 -93 51 -98zM165 238h163l-89 276z" />
    <glyph glyph-name="Aogonek" unicode="&#x104;" horiz-adv-x="685" 
d="M683 -169c-34 -68 -81 -106 -149 -106c-61 0 -107 36 -107 102c0 62 72 137 210 172c-97 3 -209 2 -302 -2v31l13 4c20 6 39 22 17 91l-24 75h-187l-4 -16c-24 -95 -4 -134 49 -150l13 -4v-31c-67 5 -145 6 -212 0v31l16 5c36 11 56 26 94 155l82 282c10 36 16 68 16 90
c0 24 -8 39 -25 50l-18 12v26c86 -6 171 20 233 60h20l204 -579c28 -79 32 -93 51 -98l12 -3v-31c-75 -22 -108 -70 -108 -122c0 -36 13 -59 46 -59c18 0 30 10 44 28zM165 238h163l-89 276z" />
    <glyph glyph-name="Ccedilla" unicode="&#xc7;" horiz-adv-x="645" 
d="M481 -163c0 -63 -57 -112 -132 -112c-58 0 -93 23 -119 49l12 22c12 -7 23 -10 39 -10c30 0 51 20 51 55s-23 51 -48 54l-3 14l42 77c-177 26 -301 160 -301 368c0 195 148 345 367 345c78 0 148 -20 189 -46c-2 -72 4 -143 11 -218l-26 -4l-17 33
c-70 137 -116 196 -173 196c-56 0 -94 -79 -94 -237c0 -223 88 -390 166 -390c46 0 63 34 132 181l16 34l27 -7c-13 -70 -25 -145 -32 -216c-49 -30 -116 -44 -199 -44c-9 0 -19 0 -28 1l-29 -48c89 13 149 -30 149 -97z" />
    <glyph glyph-name="Cacute" unicode="&#x106;" horiz-adv-x="645" 
d="M535 880c0 -56 -53 -93 -214 -158l-14 13l116 218l18 5c60 -10 94 -38 94 -78zM373 660c-56 0 -94 -79 -94 -237c0 -223 88 -390 166 -390c46 0 63 34 132 181l16 34l27 -7c-13 -70 -25 -145 -32 -216c-49 -30 -116 -44 -199 -44c-211 0 -367 140 -367 373
c0 195 148 345 367 345c78 0 148 -20 189 -46c-2 -72 4 -143 11 -218l-26 -4l-17 33c-70 137 -116 196 -173 196z" />
    <glyph glyph-name="Ccaron" unicode="&#x10c;" horiz-adv-x="645" 
d="M373 840l164 118l16 -13l-111 -215h-138l-111 215l16 13zM373 660c-56 0 -94 -79 -94 -237c0 -223 88 -390 166 -390c46 0 63 34 132 181l16 34l27 -7c-13 -70 -25 -145 -32 -216c-49 -30 -116 -44 -199 -44c-211 0 -367 140 -367 373c0 195 148 345 367 345
c78 0 148 -20 189 -46c-2 -72 4 -143 11 -218l-26 -4l-17 33c-70 137 -116 196 -173 196z" />
    <glyph glyph-name="Ccircumflex" unicode="&#x108;" horiz-adv-x="645" 
d="M351 838l-164 -118l-16 13l111 215h138l111 -215l-16 -13zM373 660c-56 0 -94 -79 -94 -237c0 -223 88 -390 166 -390c46 0 63 34 132 181l16 34l27 -7c-13 -70 -25 -145 -32 -216c-49 -30 -116 -44 -199 -44c-211 0 -367 140 -367 373c0 195 148 345 367 345
c78 0 148 -20 189 -46c-2 -72 4 -143 11 -218l-26 -4l-17 33c-70 137 -116 196 -173 196z" />
    <glyph glyph-name="Cdotaccent" unicode="&#x10a;" horiz-adv-x="645" 
d="M476 836c0 -63 -48 -111 -114 -111c-65 0 -114 48 -114 111s49 111 114 111s114 -48 114 -111zM373 660c-56 0 -94 -79 -94 -237c0 -223 88 -390 166 -390c46 0 63 34 132 181l16 34l27 -7c-13 -70 -25 -145 -32 -216c-49 -30 -116 -44 -199 -44
c-211 0 -367 140 -367 373c0 195 148 345 367 345c78 0 148 -20 189 -46c-2 -72 4 -143 11 -218l-26 -4l-17 33c-70 137 -116 196 -173 196z" />
    <glyph glyph-name="Dcaron" unicode="&#x10e;" horiz-adv-x="752" 
d="M373 840l164 118l16 -13l-111 -215h-138l-111 215l16 13zM319 683c237 0 411 -124 411 -345c0 -196 -154 -341 -407 -341c-48 0 -117 4 -187 4c-38 0 -76 -2 -111 -4v31l17 3c22 4 23 20 23 132v354c0 112 -1 128 -23 132l-17 3v31c41 -2 84 -4 128 -4c64 1 126 4 166 4z
M473 277c0 227 -66 341 -166 368v-495c0 -85 12 -113 49 -113c70 0 117 84 117 240z" />
    <glyph glyph-name="Dcroat" unicode="&#x110;" horiz-adv-x="752" 
d="M730 338c0 -196 -154 -341 -407 -341c-48 0 -117 4 -187 4c-38 0 -76 -2 -111 -4v31l17 3c22 4 23 20 23 132v166h-44v40h44v148c0 112 -1 128 -23 132l-17 3v31c41 -2 84 -4 128 -4c64 1 126 4 166 4c237 0 411 -124 411 -345zM307 150c0 -85 12 -113 49 -113
c70 0 117 84 117 240c0 227 -66 341 -166 368v-276h91v-40h-91v-179z" />
    <glyph glyph-name="Eacute" unicode="&#xc9;" horiz-adv-x="608" 
d="M500 880c0 -56 -53 -93 -214 -158l-14 13l116 218l18 5c60 -10 94 -38 94 -78zM386 641l-79 4v-275l37 3c51 4 69 24 88 77l8 23h25c-4 -68 -5 -169 0 -238h-25l-8 23c-19 53 -37 73 -88 77l-37 3v-178c0 -90 20 -125 81 -125c45 0 86 30 163 150l18 28l24 -7
c-20 -70 -32 -139 -39 -209c-173 5 -351 5 -529 0v31l17 3c22 4 23 20 23 132v355c0 112 -1 128 -23 132l-17 3v31c176 -6 353 -6 529 0c-2 -71 -1 -141 4 -214l-25 -3l-9 27c-34 103 -56 143 -138 147z" />
    <glyph glyph-name="Ecircumflex" unicode="&#xca;" horiz-adv-x="608" 
d="M315 838l-164 -118l-16 13l111 215h138l111 -215l-16 -13zM386 641l-79 4v-275l37 3c51 4 69 24 88 77l8 23h25c-4 -68 -5 -169 0 -238h-25l-8 23c-19 53 -37 73 -88 77l-37 3v-178c0 -90 20 -125 81 -125c45 0 86 30 163 150l18 28l24 -7c-20 -70 -32 -139 -39 -209
c-173 5 -351 5 -529 0v31l17 3c22 4 23 20 23 132v355c0 112 -1 128 -23 132l-17 3v31c176 -6 353 -6 529 0c-2 -71 -1 -141 4 -214l-25 -3l-9 27c-34 103 -56 143 -138 147z" />
    <glyph glyph-name="Edieresis" unicode="&#xcb;" horiz-adv-x="608" 
d="M289 837c0 -55 -41 -97 -99 -97c-57 0 -99 42 -99 97s42 97 99 97s99 -42 99 -97zM519 837c0 -55 -41 -97 -99 -97c-57 0 -99 42 -99 97s42 97 99 97s99 -42 99 -97zM386 641l-79 4v-275l37 3c51 4 69 24 88 77l8 23h25c-4 -68 -5 -169 0 -238h-25l-8 23
c-19 53 -37 73 -88 77l-37 3v-178c0 -90 20 -125 81 -125c45 0 86 30 163 150l18 28l24 -7c-20 -70 -32 -139 -39 -209c-173 5 -351 5 -529 0v31l17 3c22 4 23 20 23 132v355c0 112 -1 128 -23 132l-17 3v31c176 -6 353 -6 529 0c-2 -71 -1 -141 4 -214l-25 -3l-9 27
c-34 103 -56 143 -138 147z" />
    <glyph glyph-name="Egrave" unicode="&#xc8;" horiz-adv-x="608" 
d="M138 880c0 40 34 68 94 78l18 -5l116 -218l-14 -13c-161 65 -214 102 -214 158zM386 641l-79 4v-275l37 3c51 4 69 24 88 77l8 23h25c-4 -68 -5 -169 0 -238h-25l-8 23c-19 53 -37 73 -88 77l-37 3v-178c0 -90 20 -125 81 -125c45 0 86 30 163 150l18 28l24 -7
c-20 -70 -32 -139 -39 -209c-173 5 -351 5 -529 0v31l17 3c22 4 23 20 23 132v355c0 112 -1 128 -23 132l-17 3v31c176 -6 353 -6 529 0c-2 -71 -1 -141 4 -214l-25 -3l-9 27c-34 103 -56 143 -138 147z" />
    <glyph glyph-name="Ebreve" unicode="&#x114;" horiz-adv-x="608" 
d="M466 937c0 -129 -54 -208 -162 -208c-107 0 -162 79 -162 208h24c11 -47 57 -85 138 -85c76 0 127 38 138 85h24zM386 641l-79 4v-275l37 3c51 4 69 24 88 77l8 23h25c-4 -68 -5 -169 0 -238h-25l-8 23c-19 53 -37 73 -88 77l-37 3v-178c0 -90 20 -125 81 -125
c45 0 86 30 163 150l18 28l24 -7c-20 -70 -32 -139 -39 -209c-173 5 -351 5 -529 0v31l17 3c22 4 23 20 23 132v355c0 112 -1 128 -23 132l-17 3v31c176 -6 353 -6 529 0c-2 -71 -1 -141 4 -214l-25 -3l-9 27c-34 103 -56 143 -138 147z" />
    <glyph glyph-name="Ecaron" unicode="&#x11a;" horiz-adv-x="608" 
d="M307 840l164 118l16 -13l-111 -215h-138l-111 215l16 13zM386 641l-79 4v-275l37 3c51 4 69 24 88 77l8 23h25c-4 -68 -5 -169 0 -238h-25l-8 23c-19 53 -37 73 -88 77l-37 3v-178c0 -90 20 -125 81 -125c45 0 86 30 163 150l18 28l24 -7c-20 -70 -32 -139 -39 -209
c-173 5 -351 5 -529 0v31l17 3c22 4 23 20 23 132v355c0 112 -1 128 -23 132l-17 3v31c176 -6 353 -6 529 0c-2 -71 -1 -141 4 -214l-25 -3l-9 27c-34 103 -56 143 -138 147z" />
    <glyph glyph-name="Edotaccent" unicode="&#x116;" horiz-adv-x="608" 
d="M421 836c0 -63 -48 -111 -114 -111c-65 0 -114 48 -114 111s49 111 114 111s114 -48 114 -111zM386 641l-79 4v-275l37 3c51 4 69 24 88 77l8 23h25c-4 -68 -5 -169 0 -238h-25l-8 23c-19 53 -37 73 -88 77l-37 3v-178c0 -90 20 -125 81 -125c45 0 86 30 163 150l18 28
l24 -7c-20 -70 -32 -139 -39 -209c-173 5 -351 5 -529 0v31l17 3c22 4 23 20 23 132v355c0 112 -1 128 -23 132l-17 3v31c176 -6 353 -6 529 0c-2 -71 -1 -141 4 -214l-25 -3l-9 27c-34 103 -56 143 -138 147z" />
    <glyph glyph-name="Emacron" unicode="&#x112;" horiz-adv-x="608" 
d="M151 772v112h306v-112h-306zM386 641l-79 4v-275l37 3c51 4 69 24 88 77l8 23h25c-4 -68 -5 -169 0 -238h-25l-8 23c-19 53 -37 73 -88 77l-37 3v-178c0 -90 20 -125 81 -125c45 0 86 30 163 150l18 28l24 -7c-20 -70 -32 -139 -39 -209c-173 5 -351 5 -529 0v31l17 3
c22 4 23 20 23 132v355c0 112 -1 128 -23 132l-17 3v31c176 -6 353 -6 529 0c-2 -71 -1 -141 4 -214l-25 -3l-9 27c-34 103 -56 143 -138 147z" />
    <glyph glyph-name="Eogonek" unicode="&#x118;" horiz-adv-x="608" 
d="M386 641l-79 4v-275l37 3c51 4 69 24 88 77l8 23h25c-4 -68 -5 -169 0 -238h-25l-8 23c-19 53 -37 73 -88 77l-37 3v-178c0 -90 20 -125 81 -125c45 0 86 30 163 150l18 28l24 -7c-20 -70 -32 -139 -39 -209c-52 3 -75 0 -97 -16c-31 -22 -47 -62 -47 -101s13 -64 46 -64
c18 0 30 10 44 28l16 -13c-34 -68 -81 -106 -149 -106c-61 0 -107 36 -107 102c0 68 68 128 185 173c-136 2 -281 1 -420 -3v31l17 3c22 4 23 20 23 132v355c0 112 -1 128 -23 132l-17 3v31c176 -6 353 -6 529 0c-2 -71 -1 -141 4 -214l-25 -3l-9 27
c-34 103 -56 143 -138 147z" />
    <glyph glyph-name="Gbreve" unicode="&#x11e;" horiz-adv-x="722" 
d="M530 937c0 -129 -54 -208 -162 -208c-107 0 -162 79 -162 208h24c11 -47 57 -85 138 -85c76 0 127 38 138 85h24zM677 -15l-25 -4c-15 23 -33 45 -54 64c-72 -50 -137 -64 -216 -64c-207 0 -360 148 -360 373c0 195 136 345 366 345c101 0 182 -31 230 -63
c-5 -72 -4 -144 -2 -218l-28 -4l-13 29c-65 145 -129 217 -192 217c-62 0 -104 -79 -104 -237c0 -236 76 -400 151 -400c32 0 45 15 45 112c0 125 -2 149 -43 156l-17 3v31c90 -5 203 -5 292 0v-31l-8 -3c-21 -8 -22 -25 -22 -139v-167z" />
    <glyph glyph-name="Gcircumflex" unicode="&#x11c;" horiz-adv-x="722" 
d="M370 838l-164 -118l-16 13l111 215h138l111 -215l-16 -13zM677 -15l-25 -4c-15 23 -33 45 -54 64c-72 -50 -137 -64 -216 -64c-207 0 -360 148 -360 373c0 195 136 345 366 345c101 0 182 -31 230 -63c-5 -72 -4 -144 -2 -218l-28 -4l-13 29c-65 145 -129 217 -192 217
c-62 0 -104 -79 -104 -237c0 -236 76 -400 151 -400c32 0 45 15 45 112c0 125 -2 149 -43 156l-17 3v31c90 -5 203 -5 292 0v-31l-8 -3c-21 -8 -22 -25 -22 -139v-167z" />
    <glyph glyph-name="Gcommaaccent" unicode="&#x122;" horiz-adv-x="722" 
d="M677 -15l-25 -4c-15 23 -33 45 -54 64c-72 -50 -137 -64 -216 -64c-207 0 -360 148 -360 373c0 195 136 345 366 345c101 0 182 -31 230 -63c-5 -72 -4 -144 -2 -218l-28 -4l-13 29c-65 145 -129 217 -192 217c-62 0 -104 -79 -104 -237c0 -236 76 -400 151 -400
c32 0 45 15 45 112c0 125 -2 149 -43 156l-17 3v31c90 -5 203 -5 292 0v-31l-8 -3c-21 -8 -22 -25 -22 -139v-167zM289 -319l-16 24l29 24c52 43 46 93 -17 167l7 22c27 24 58 37 94 37c55 0 91 -41 91 -87c0 -81 -59 -126 -188 -187z" />
    <glyph glyph-name="Gdotaccent" unicode="&#x120;" horiz-adv-x="722" 
d="M475 836c0 -63 -48 -111 -114 -111c-65 0 -114 48 -114 111s49 111 114 111s114 -48 114 -111zM677 -15l-25 -4c-15 23 -33 45 -54 64c-72 -50 -137 -64 -216 -64c-207 0 -360 148 -360 373c0 195 136 345 366 345c101 0 182 -31 230 -63c-5 -72 -4 -144 -2 -218l-28 -4
l-13 29c-65 145 -129 217 -192 217c-62 0 -104 -79 -104 -237c0 -236 76 -400 151 -400c32 0 45 15 45 112c0 125 -2 149 -43 156l-17 3v31c90 -5 203 -5 292 0v-31l-8 -3c-21 -8 -22 -25 -22 -139v-167z" />
    <glyph glyph-name="Hbar" unicode="&#x126;" horiz-adv-x="772" 
d="M747 28v-31c-99 5 -224 5 -322 0v31l17 3c22 4 23 24 23 147v159h-158v-159c0 -123 1 -143 23 -147l17 -3v-31c-99 5 -224 5 -322 0v31l17 3c22 4 23 24 23 147v316h-44v40h44c0 97 -3 111 -23 115l-17 3v31c99 -5 224 -5 322 0v-31l-17 -3c-20 -4 -23 -18 -23 -115h158
c0 97 -3 111 -23 115l-17 3v31c99 -5 224 -5 322 0v-31l-17 -3c-20 -4 -23 -18 -23 -115h44v-40h-44v-316c0 -123 1 -143 23 -147zM307 377h158v117h-158v-117z" />
    <glyph glyph-name="Hcircumflex" unicode="&#x124;" horiz-adv-x="772" 
d="M386 838l-164 -118l-16 13l111 215h138l111 -215l-16 -13zM65 178v327c0 123 -1 140 -23 144l-17 3v31c99 -5 224 -5 322 0v-31l-17 -3c-22 -4 -23 -21 -23 -144v-128h158v128c0 123 -1 140 -23 144l-17 3v31c99 -5 224 -5 322 0v-31l-17 -3c-22 -4 -23 -21 -23 -144
v-327c0 -123 1 -143 23 -147l17 -3v-31c-99 5 -224 5 -322 0v31l17 3c22 4 23 24 23 147v159h-158v-159c0 -123 1 -143 23 -147l17 -3v-31c-99 5 -224 5 -322 0v31l17 3c22 4 23 24 23 147z" />
    <glyph glyph-name="Iacute" unicode="&#xcd;" horiz-adv-x="372" 
d="M360 880c0 -56 -53 -93 -214 -158l-14 13l116 218l18 5c60 -10 94 -38 94 -78zM65 175v330c0 123 -1 140 -23 144l-17 3v31c99 -5 224 -5 322 0v-31l-17 -3c-22 -4 -23 -21 -23 -144v-330c0 -123 1 -140 23 -144l17 -3v-31c-99 5 -224 5 -322 0v31l17 3
c22 4 23 21 23 144z" />
    <glyph glyph-name="Icircumflex" unicode="&#xce;" horiz-adv-x="372" 
d="M186 838l-164 -118l-16 13l111 215h138l111 -215l-16 -13zM65 175v330c0 123 -1 140 -23 144l-17 3v31c99 -5 224 -5 322 0v-31l-17 -3c-22 -4 -23 -21 -23 -144v-330c0 -123 1 -140 23 -144l17 -3v-31c-99 5 -224 5 -322 0v31l17 3c22 4 23 21 23 144z" />
    <glyph glyph-name="Idieresis" unicode="&#xcf;" horiz-adv-x="372" 
d="M170 837c0 -55 -41 -97 -99 -97c-57 0 -99 42 -99 97s42 97 99 97s99 -42 99 -97zM400 837c0 -55 -41 -97 -99 -97c-57 0 -99 42 -99 97s42 97 99 97s99 -42 99 -97zM65 175v330c0 123 -1 140 -23 144l-17 3v31c99 -5 224 -5 322 0v-31l-17 -3c-22 -4 -23 -21 -23 -144
v-330c0 -123 1 -140 23 -144l17 -3v-31c-99 5 -224 5 -322 0v31l17 3c22 4 23 21 23 144z" />
    <glyph glyph-name="Igrave" unicode="&#xcc;" horiz-adv-x="372" 
d="M26 880c0 40 34 68 94 78l18 -5l116 -218l-14 -13c-161 65 -214 102 -214 158zM65 175v330c0 123 -1 140 -23 144l-17 3v31c99 -5 224 -5 322 0v-31l-17 -3c-22 -4 -23 -21 -23 -144v-330c0 -123 1 -140 23 -144l17 -3v-31c-99 5 -224 5 -322 0v31l17 3
c22 4 23 21 23 144z" />
    <glyph glyph-name="Ibreve" unicode="&#x12c;" horiz-adv-x="372" 
d="M348 937c0 -129 -54 -208 -162 -208c-107 0 -162 79 -162 208h24c11 -47 57 -85 138 -85c76 0 127 38 138 85h24zM65 175v330c0 123 -1 140 -23 144l-17 3v31c99 -5 224 -5 322 0v-31l-17 -3c-22 -4 -23 -21 -23 -144v-330c0 -123 1 -140 23 -144l17 -3v-31
c-99 5 -224 5 -322 0v31l17 3c22 4 23 21 23 144z" />
    <glyph glyph-name="Idotaccent" unicode="&#x130;" horiz-adv-x="372" 
d="M300 836c0 -63 -48 -111 -114 -111c-65 0 -114 48 -114 111s49 111 114 111s114 -48 114 -111zM65 175v330c0 123 -1 140 -23 144l-17 3v31c99 -5 224 -5 322 0v-31l-17 -3c-22 -4 -23 -21 -23 -144v-330c0 -123 1 -140 23 -144l17 -3v-31c-99 5 -224 5 -322 0v31l17 3
c22 4 23 21 23 144z" />
    <glyph glyph-name="Imacron" unicode="&#x12a;" horiz-adv-x="372" 
d="M33 772v112h306v-112h-306zM65 175v330c0 123 -1 140 -23 144l-17 3v31c99 -5 224 -5 322 0v-31l-17 -3c-22 -4 -23 -21 -23 -144v-330c0 -123 1 -140 23 -144l17 -3v-31c-99 5 -224 5 -322 0v31l17 3c22 4 23 21 23 144z" />
    <glyph glyph-name="Iogonek" unicode="&#x12e;" horiz-adv-x="372" 
d="M280 0c-84 3 -176 1 -255 -3v31l17 3c22 4 23 21 23 144v330c0 123 -1 140 -23 144l-17 3v31c99 -5 224 -5 322 0v-31l-17 -3c-22 -4 -23 -21 -23 -144v-330c0 -123 1 -140 23 -144l17 -3v-31c-62 -8 -108 -50 -108 -117c0 -39 14 -64 48 -64c18 0 30 10 44 28l16 -13
c-34 -68 -81 -106 -149 -106c-61 0 -107 36 -107 102c0 63 65 134 189 173z" />
    <glyph glyph-name="Itilde" unicode="&#x128;" horiz-adv-x="372" 
d="M6 744c26 119 67 175 135 175c56 0 86 -41 143 -41c22 0 48 10 68 53l20 -11c-31 -127 -71 -177 -132 -177c-55 0 -86 44 -141 44c-24 0 -53 -10 -73 -53zM65 175v330c0 123 -1 140 -23 144l-17 3v31c99 -5 224 -5 322 0v-31l-17 -3c-22 -4 -23 -21 -23 -144v-330
c0 -123 1 -140 23 -144l17 -3v-31c-99 5 -224 5 -322 0v31l17 3c22 4 23 21 23 144z" />
    <glyph glyph-name="Jcircumflex" unicode="&#x134;" horiz-adv-x="376" 
d="M186 838l-164 -118l-16 13l111 215h138l111 -215l-16 -13zM69 505c0 123 -1 140 -23 144l-17 3v31c99 -5 224 -5 322 0v-31l-17 -3c-22 -4 -23 -21 -23 -144v-361c0 -145 -72 -216 -254 -246l-37 -6l-7 19l15 10c35 23 41 56 41 223v361z" />
    <glyph glyph-name="IJ" unicode="&#x132;" horiz-adv-x="737" 
d="M65 175v330c0 123 -1 140 -23 144l-17 3v31c99 -5 224 -5 322 0v-31l-17 -3c-22 -4 -23 -21 -23 -144v-330c0 -123 1 -140 23 -144l17 -3v-31c-99 5 -224 5 -322 0v31l17 3c22 4 23 21 23 144zM434 505c0 123 -1 140 -23 144l-17 3v31c99 -5 224 -5 322 0v-31l-17 -3
c-22 -4 -23 -21 -23 -144v-361c0 -145 -72 -216 -254 -246l-37 -6l-7 19l15 10c35 23 41 56 41 223v361z" />
    <glyph glyph-name="Kcommaaccent" unicode="&#x136;" horiz-adv-x="796" 
d="M791 28v-31c-91 5 -197 5 -288 0l-191 371l128 144c80 90 61 123 24 135l-15 5v31c95 -5 184 -5 279 0v-31l-21 -4c-58 -11 -118 -53 -228 -159l-116 -112c74 -4 123 7 157 34h25l129 -236c72 -124 84 -136 105 -143zM65 175v330c0 123 -1 140 -23 144l-17 3v31
c99 -5 224 -5 322 0v-31l-17 -3c-22 -4 -23 -21 -23 -144v-330c0 -123 1 -140 23 -144l17 -3v-31c-99 5 -224 5 -322 0v31l17 3c22 4 23 21 23 144zM294 -319l-16 24l29 24c52 43 46 93 -17 167l7 22c27 24 58 37 94 37c55 0 91 -41 91 -87c0 -81 -59 -126 -188 -187z" />
    <glyph glyph-name="kgreenlandic.case" horiz-adv-x="916" 
d="M887 707l16 -24l-29 -24c-60 -49 -52 -99 13 -167l-7 -22c-26 -23 -56 -37 -90 -37c-54 0 -89 41 -89 87c0 79 58 124 186 187zM791 28v-31c-91 5 -197 5 -288 0l-191 371l128 144c80 90 61 123 24 135l-15 5v31c95 -5 184 -5 279 0v-31l-21 -4
c-58 -11 -118 -53 -228 -159l-116 -112c74 -4 123 7 157 34h25l129 -236c72 -124 84 -136 105 -143zM65 175v330c0 123 -1 140 -23 144l-17 3v31c99 -5 224 -5 322 0v-31l-17 -3c-22 -4 -23 -21 -23 -144v-330c0 -123 1 -140 23 -144l17 -3v-31c-99 5 -224 5 -322 0v31l17 3
c22 4 23 21 23 144z" />
    <glyph glyph-name="Lacute" unicode="&#x139;" horiz-adv-x="595" 
d="M386 880c0 -56 -53 -93 -214 -158l-14 13l116 218l18 5c60 -10 94 -38 94 -78zM65 505c0 123 -1 140 -23 144l-17 3v31c99 -5 224 -5 322 0v-31l-17 -3c-22 -4 -23 -21 -23 -144v-347c0 -89 7 -123 54 -123c36 0 75 33 178 169l22 29l24 -7c-22 -78 -35 -152 -43 -229
c-169 5 -344 5 -517 0v31l17 3c22 4 23 20 23 132v342z" />
    <glyph glyph-name="Lcaron" unicode="&#x13d;" horiz-adv-x="595" 
d="M411 685c18 10 40 15 58 15c40 0 64 -27 64 -65c0 -84 -75 -119 -121 -209l-20 3l6 238zM65 505c0 123 -1 140 -23 144l-17 3v31c99 -5 224 -5 322 0v-31l-17 -3c-22 -4 -23 -21 -23 -144v-347c0 -89 7 -123 54 -123c36 0 75 33 178 169l22 29l24 -7
c-22 -78 -35 -152 -43 -229c-169 5 -344 5 -517 0v31l17 3c22 4 23 20 23 132v342z" />
    <glyph glyph-name="Lcommaaccent" unicode="&#x13b;" horiz-adv-x="595" 
d="M65 505c0 123 -1 140 -23 144l-17 3v31c99 -5 224 -5 322 0v-31l-17 -3c-22 -4 -23 -21 -23 -144v-347c0 -89 7 -123 54 -123c36 0 75 33 178 169l22 29l24 -7c-22 -78 -35 -152 -43 -229c-169 5 -344 5 -517 0v31l17 3c22 4 23 20 23 132v342zM210 -319l-16 24l29 24
c52 43 46 93 -17 167l7 22c27 24 58 37 94 37c55 0 91 -41 91 -87c0 -81 -59 -126 -188 -187z" />
    <glyph glyph-name="Ldot" unicode="&#x13f;" horiz-adv-x="595" 
d="M65 505c0 123 -1 140 -23 144l-17 3v31c99 -5 224 -5 322 0v-31l-17 -3c-22 -4 -23 -21 -23 -144v-347c0 -89 7 -123 54 -123c36 0 75 33 178 169l22 29l24 -7c-22 -78 -35 -152 -43 -229c-169 5 -344 5 -517 0v31l17 3c22 4 23 20 23 132v342zM597 375
c0 -66 -50 -115 -118 -115c-67 0 -118 49 -118 115s51 115 118 115s118 -49 118 -115z" />
    <glyph glyph-name="Ntilde" unicode="&#xd1;" horiz-adv-x="692" 
d="M193 744c26 119 67 175 135 175c56 0 86 -41 143 -41c22 0 48 10 68 53l20 -11c-31 -127 -71 -177 -132 -177c-55 0 -86 44 -141 44c-24 0 -53 -10 -73 -53zM222 28v-31c-61 4 -146 4 -207 0v31l18 6c38 13 52 46 52 271v245c0 37 -18 66 -47 88l-19 14v31
c77 -5 206 -5 282 0l277 -418l-2 107c-4 219 -16 254 -74 274l-17 6v31c58 -6 134 -6 192 0v-31l-14 -5c-35 -12 -47 -48 -47 -274v-373c-47 2 -95 2 -142 0l-351 525l3 -220c3 -214 28 -256 83 -273z" />
    <glyph glyph-name="Nacute" unicode="&#x143;" horiz-adv-x="692" 
d="M562 880c0 -56 -53 -93 -214 -158l-14 13l116 218l18 5c60 -10 94 -38 94 -78zM222 28v-31c-61 4 -146 4 -207 0v31l18 6c38 13 52 46 52 271v245c0 37 -18 66 -47 88l-19 14v31c77 -5 206 -5 282 0l277 -418l-2 107c-4 219 -16 254 -74 274l-17 6v31c58 -6 134 -6 192 0
v-31l-14 -5c-35 -12 -47 -48 -47 -274v-373c-47 2 -95 2 -142 0l-351 525l3 -220c3 -214 28 -256 83 -273z" />
    <glyph glyph-name="Ncaron" unicode="&#x147;" horiz-adv-x="692" 
d="M378 840l164 118l16 -13l-111 -215h-138l-111 215l16 13zM222 28v-31c-61 4 -146 4 -207 0v31l18 6c38 13 52 46 52 271v245c0 37 -18 66 -47 88l-19 14v31c77 -5 206 -5 282 0l277 -418l-2 107c-4 219 -16 254 -74 274l-17 6v31c58 -6 134 -6 192 0v-31l-14 -5
c-35 -12 -47 -48 -47 -274v-373c-47 2 -95 2 -142 0l-351 525l3 -220c3 -214 28 -256 83 -273z" />
    <glyph glyph-name="Ncommaaccent" unicode="&#x145;" horiz-adv-x="692" 
d="M222 28v-31c-61 4 -146 4 -207 0v31l18 6c38 13 52 46 52 271v245c0 37 -18 66 -47 88l-19 14v31c77 -5 206 -5 282 0l277 -418l-2 107c-4 219 -16 254 -74 274l-17 6v31c58 -6 134 -6 192 0v-31l-14 -5c-35 -12 -47 -48 -47 -274v-373c-47 2 -95 2 -142 0l-351 525
l3 -220c3 -214 28 -256 83 -273zM267 -319l-16 24l29 24c52 43 46 93 -17 167l7 22c27 24 58 37 94 37c55 0 91 -41 91 -87c0 -81 -59 -126 -188 -187z" />
    <glyph glyph-name="Eng" unicode="&#x14a;" horiz-adv-x="692" 
d="M616 373v-310c0 -145 -72 -216 -254 -246l-37 -6l-7 19l15 10c47 31 61 56 61 223v57l-271 405l3 -220c3 -214 28 -256 83 -273l13 -4v-31c-61 4 -146 4 -207 0v31l18 6c38 13 52 46 52 271v245c0 37 -18 66 -47 88l-19 14v31c77 -5 206 -5 282 0l277 -418l-2 107
c-4 219 -16 254 -74 274l-17 6v31c58 -6 134 -6 192 0v-31l-14 -5c-35 -12 -47 -48 -47 -274z" />
    <glyph glyph-name="napostrophe.case" horiz-adv-x="692" 
d="M43 703l-16 24l29 24c52 43 46 93 -17 167l7 22c27 24 58 37 94 37c55 0 91 -41 91 -87c0 -81 -59 -126 -188 -187zM222 28v-31c-61 4 -146 4 -207 0v31l18 6c38 13 52 46 52 271v245c0 37 -18 66 -47 88l-19 14v31c77 -5 206 -5 282 0l277 -418l-2 107
c-4 219 -16 254 -74 274l-17 6v31c58 -6 134 -6 192 0v-31l-14 -5c-35 -12 -47 -48 -47 -274v-373c-47 2 -95 2 -142 0l-351 525l3 -220c3 -214 28 -256 83 -273z" />
    <glyph glyph-name="Oacute" unicode="&#xd3;" horiz-adv-x="749" 
d="M542 880c0 -56 -53 -93 -214 -158l-14 13l116 218l18 5c60 -10 94 -38 94 -78zM376 699c189 0 351 -140 351 -361c0 -207 -143 -357 -354 -357c-190 0 -351 140 -351 362c0 206 143 356 354 356zM339 658c-38 0 -60 -70 -60 -191c0 -267 80 -445 131 -445
c38 0 60 71 60 192c0 266 -80 444 -131 444z" />
    <glyph glyph-name="Ocircumflex" unicode="&#xd4;" horiz-adv-x="749" 
d="M368 838l-164 -118l-16 13l111 215h138l111 -215l-16 -13zM376 699c189 0 351 -140 351 -361c0 -207 -143 -357 -354 -357c-190 0 -351 140 -351 362c0 206 143 356 354 356zM339 658c-38 0 -60 -70 -60 -191c0 -267 80 -445 131 -445c38 0 60 71 60 192
c0 266 -80 444 -131 444z" />
    <glyph glyph-name="Odieresis" unicode="&#xd6;" horiz-adv-x="749" 
d="M352 837c0 -55 -41 -97 -99 -97c-57 0 -99 42 -99 97s42 97 99 97s99 -42 99 -97zM582 837c0 -55 -41 -97 -99 -97c-57 0 -99 42 -99 97s42 97 99 97s99 -42 99 -97zM376 699c189 0 351 -140 351 -361c0 -207 -143 -357 -354 -357c-190 0 -351 140 -351 362
c0 206 143 356 354 356zM339 658c-38 0 -60 -70 -60 -191c0 -267 80 -445 131 -445c38 0 60 71 60 192c0 266 -80 444 -131 444z" />
    <glyph glyph-name="Ograve" unicode="&#xd2;" horiz-adv-x="749" 
d="M198 880c0 40 34 68 94 78l18 -5l116 -218l-14 -13c-161 65 -214 102 -214 158zM376 699c189 0 351 -140 351 -361c0 -207 -143 -357 -354 -357c-190 0 -351 140 -351 362c0 206 143 356 354 356zM339 658c-38 0 -60 -70 -60 -191c0 -267 80 -445 131 -445
c38 0 60 71 60 192c0 266 -80 444 -131 444z" />
    <glyph glyph-name="Otilde" unicode="&#xd5;" horiz-adv-x="749" 
d="M186 744c26 119 67 175 135 175c56 0 86 -41 143 -41c22 0 48 10 68 53l20 -11c-31 -127 -71 -177 -132 -177c-55 0 -86 44 -141 44c-24 0 -53 -10 -73 -53zM376 699c189 0 351 -140 351 -361c0 -207 -143 -357 -354 -357c-190 0 -351 140 -351 362
c0 206 143 356 354 356zM339 658c-38 0 -60 -70 -60 -191c0 -267 80 -445 131 -445c38 0 60 71 60 192c0 266 -80 444 -131 444z" />
    <glyph glyph-name="Obreve" unicode="&#x14e;" horiz-adv-x="749" 
d="M530 937c0 -129 -54 -208 -162 -208c-107 0 -162 79 -162 208h24c11 -47 57 -85 138 -85c76 0 127 38 138 85h24zM376 699c189 0 351 -140 351 -361c0 -207 -143 -357 -354 -357c-190 0 -351 140 -351 362c0 206 143 356 354 356zM339 658c-38 0 -60 -70 -60 -191
c0 -267 80 -445 131 -445c38 0 60 71 60 192c0 266 -80 444 -131 444z" />
    <glyph glyph-name="Ohungarumlaut" unicode="&#x150;" horiz-adv-x="749" 
d="M441 884c0 -57 -65 -105 -186 -160l-14 11l82 215l18 5c62 -12 100 -35 100 -71zM633 884c0 -57 -65 -105 -186 -160l-14 11l82 215l18 5c62 -12 100 -35 100 -71zM376 699c189 0 351 -140 351 -361c0 -207 -143 -357 -354 -357c-190 0 -351 140 -351 362
c0 206 143 356 354 356zM339 658c-38 0 -60 -70 -60 -191c0 -267 80 -445 131 -445c38 0 60 71 60 192c0 266 -80 444 -131 444z" />
    <glyph glyph-name="Omacron" unicode="&#x14c;" horiz-adv-x="749" 
d="M215 772v112h306v-112h-306zM376 699c189 0 351 -140 351 -361c0 -207 -143 -357 -354 -357c-190 0 -351 140 -351 362c0 206 143 356 354 356zM339 658c-38 0 -60 -70 -60 -191c0 -267 80 -445 131 -445c38 0 60 71 60 192c0 266 -80 444 -131 444z" />
    <glyph glyph-name="Racute" unicode="&#x154;" horiz-adv-x="754" 
d="M541 880c0 -56 -53 -93 -214 -158l-14 13l116 218l18 5c60 -10 94 -38 94 -78zM749 28v-31c-89 5 -199 5 -288 0l-154 313v-135c0 -122 2 -138 28 -144l12 -3v-31c-93 5 -224 5 -322 0v31l17 3c22 4 23 22 23 144v330c0 123 -1 140 -23 144l-17 3v31c36 -2 75 -4 115 -4
c83 0 170 4 243 4c165 0 267 -57 267 -169c0 -94 -115 -189 -282 -196c53 -36 128 -48 180 -35h25l71 -121c66 -113 75 -124 93 -130zM307 645v-300c53 5 106 46 106 127c0 97 -47 163 -106 173z" />
    <glyph glyph-name="Rcaron" unicode="&#x158;" horiz-adv-x="754" 
d="M357 840l164 118l16 -13l-111 -215h-138l-111 215l16 13zM749 28v-31c-89 5 -199 5 -288 0l-154 313v-135c0 -122 2 -138 28 -144l12 -3v-31c-93 5 -224 5 -322 0v31l17 3c22 4 23 22 23 144v330c0 123 -1 140 -23 144l-17 3v31c36 -2 75 -4 115 -4c83 0 170 4 243 4
c165 0 267 -57 267 -169c0 -94 -115 -189 -282 -196c53 -36 128 -48 180 -35h25l71 -121c66 -113 75 -124 93 -130zM307 645v-300c53 5 106 46 106 127c0 97 -47 163 -106 173z" />
    <glyph glyph-name="Rcommaaccent" unicode="&#x156;" horiz-adv-x="754" 
d="M749 28v-31c-89 5 -199 5 -288 0l-154 313v-135c0 -122 2 -138 28 -144l12 -3v-31c-93 5 -224 5 -322 0v31l17 3c22 4 23 22 23 144v330c0 123 -1 140 -23 144l-17 3v31c36 -2 75 -4 115 -4c83 0 170 4 243 4c165 0 267 -57 267 -169c0 -94 -115 -189 -282 -196
c53 -36 128 -48 180 -35h25l71 -121c66 -113 75 -124 93 -130zM307 645v-300c53 5 106 46 106 127c0 97 -47 163 -106 173zM296 -319l-16 24l29 24c52 43 46 93 -17 167l7 22c27 24 58 37 94 37c55 0 91 -41 91 -87c0 -81 -59 -126 -188 -187z" />
    <glyph glyph-name="Scaron" unicode="&#x160;" horiz-adv-x="565" 
d="M292 840l164 118l16 -13l-111 -215h-138l-111 215l16 13zM267 27c55 0 93 23 93 81c0 142 -328 136 -328 377c0 122 102 214 275 214c83 0 150 -22 196 -49c-4 -63 -4 -137 -2 -202l-26 -4l-12 29c-49 119 -95 180 -164 180c-40 0 -66 -21 -66 -68
c0 -147 326 -130 326 -371c0 -135 -112 -233 -318 -233c-79 0 -165 22 -210 49c4 63 3 163 1 228l26 4l12 -30c49 -122 110 -205 197 -205z" />
    <glyph glyph-name="Sacute" unicode="&#x15a;" horiz-adv-x="565" 
d="M467 880c0 -56 -53 -93 -214 -158l-14 13l116 218l18 5c60 -10 94 -38 94 -78zM267 27c55 0 93 23 93 81c0 142 -328 136 -328 377c0 122 102 214 275 214c83 0 150 -22 196 -49c-4 -63 -4 -137 -2 -202l-26 -4l-12 29c-49 119 -95 180 -164 180c-40 0 -66 -21 -66 -68
c0 -147 326 -130 326 -371c0 -135 -112 -233 -318 -233c-79 0 -165 22 -210 49c4 63 3 163 1 228l26 4l12 -30c49 -122 110 -205 197 -205z" />
    <glyph glyph-name="Scedilla" unicode="&#x15e;" horiz-adv-x="565" 
d="M408 -163c0 -63 -57 -112 -132 -112c-58 0 -93 23 -119 49l12 22c12 -7 23 -10 39 -10c30 0 51 20 51 55s-23 51 -48 54l-3 14l40 72h-7c-79 0 -165 22 -210 49c4 63 3 163 1 228l26 4l12 -30c49 -122 110 -205 197 -205c55 0 93 23 93 81c0 142 -328 136 -328 377
c0 122 102 214 275 214c83 0 150 -22 196 -49c-4 -63 -4 -137 -2 -202l-26 -4l-12 29c-49 119 -95 180 -164 180c-40 0 -66 -21 -66 -68c0 -147 326 -130 326 -371c0 -124 -95 -217 -271 -231l-29 -49c89 13 149 -30 149 -97z" />
    <glyph glyph-name="Scircumflex" unicode="&#x15c;" horiz-adv-x="565" 
d="M286 838l-164 -118l-16 13l111 215h138l111 -215l-16 -13zM267 27c55 0 93 23 93 81c0 142 -328 136 -328 377c0 122 102 214 275 214c83 0 150 -22 196 -49c-4 -63 -4 -137 -2 -202l-26 -4l-12 29c-49 119 -95 180 -164 180c-40 0 -66 -21 -66 -68
c0 -147 326 -130 326 -371c0 -135 -112 -233 -318 -233c-79 0 -165 22 -210 49c4 63 3 163 1 228l26 4l12 -30c49 -122 110 -205 197 -205z" />
    <glyph glyph-name="uni0218" unicode="&#x218;" horiz-adv-x="565" 
d="M267 27c55 0 93 23 93 81c0 142 -328 136 -328 377c0 122 102 214 275 214c83 0 150 -22 196 -49c-4 -63 -4 -137 -2 -202l-26 -4l-12 29c-49 119 -95 180 -164 180c-40 0 -66 -21 -66 -68c0 -147 326 -130 326 -371c0 -135 -112 -233 -318 -233c-79 0 -165 22 -210 49
c4 63 3 163 1 228l26 4l12 -30c49 -122 110 -205 197 -205zM192 -319l-16 24l29 24c52 43 46 93 -17 167l7 22c27 24 58 37 94 37c55 0 91 -41 91 -87c0 -81 -59 -126 -188 -187z" />
    <glyph glyph-name="Tbar" unicode="&#x166;" horiz-adv-x="658" 
d="M500 28v-31c-105 5 -238 5 -342 0v31l20 3c28 4 30 21 30 144v134h-95v40h95v302l-15 -4c-60 -16 -80 -52 -124 -148l-35 -76l-24 3c7 87 12 174 12 257c204 -6 409 -6 614 0c0 -83 5 -170 12 -257l-24 -3l-35 76c-44 96 -64 132 -124 148l-15 4v-302h95v-40h-95v-134
c0 -123 1 -140 29 -144z" />
    <glyph glyph-name="Tcaron" unicode="&#x164;" horiz-adv-x="658" 
d="M329 840l164 118l16 -13l-111 -215h-138l-111 215l16 13zM636 683c0 -83 5 -170 12 -257l-24 -3l-35 76c-44 96 -64 132 -124 148l-15 4v-476c0 -123 1 -140 29 -144l21 -3v-31c-105 5 -238 5 -342 0v31l20 3c28 4 30 21 30 144v476l-15 -4c-60 -16 -80 -52 -124 -148
l-35 -76l-24 3c7 87 12 174 12 257c204 -6 409 -6 614 0z" />
    <glyph glyph-name="uni0162" unicode="&#x162;" horiz-adv-x="658" 
d="M636 683c0 -83 5 -170 12 -257l-24 -3l-35 76c-44 96 -64 132 -124 148l-15 4v-476c0 -123 1 -140 29 -144l21 -3v-31c-105 5 -238 5 -342 0v31l20 3c28 4 30 21 30 144v476l-15 -4c-60 -16 -80 -52 -124 -148l-35 -76l-24 3c7 87 12 174 12 257c204 -6 409 -6 614 0z
M238 -319l-16 24l29 24c52 43 46 93 -17 167l7 22c27 24 58 37 94 37c55 0 91 -41 91 -87c0 -81 -59 -126 -188 -187z" />
    <glyph glyph-name="uni021A" unicode="&#x21a;" horiz-adv-x="658" 
d="M636 683c0 -83 5 -170 12 -257l-24 -3l-35 76c-44 96 -64 132 -124 148l-15 4v-476c0 -123 1 -140 29 -144l21 -3v-31c-105 5 -238 5 -342 0v31l20 3c28 4 30 21 30 144v476l-15 -4c-60 -16 -80 -52 -124 -148l-35 -76l-24 3c7 87 12 174 12 257c204 -6 409 -6 614 0z
M238 -319l-16 24l29 24c52 43 46 93 -17 167l7 22c27 24 58 37 94 37c55 0 91 -41 91 -87c0 -81 -59 -126 -188 -187z" />
    <glyph glyph-name="Uacute" unicode="&#xda;" horiz-adv-x="658" 
d="M579 880c0 -56 -53 -93 -214 -158l-14 13l116 218l18 5c60 -10 94 -38 94 -78zM65 505c0 123 -1 140 -23 144l-17 3v31c103 -5 234 -5 335 0v-31l-22 -3c-30 -4 -31 -21 -31 -144v-295c0 -95 40 -147 119 -147c88 0 130 56 128 183l-3 153c-4 202 -18 233 -67 248l-16 5
v31c55 -7 127 -5 180 0v-31l-11 -6c-27 -15 -44 -41 -44 -242v-159c0 -195 -107 -264 -253 -264c-159 0 -275 63 -275 253v271z" />
    <glyph glyph-name="Ucircumflex" unicode="&#xdb;" horiz-adv-x="658" 
d="M367 838l-164 -118l-16 13l111 215h138l111 -215l-16 -13zM65 505c0 123 -1 140 -23 144l-17 3v31c103 -5 234 -5 335 0v-31l-22 -3c-30 -4 -31 -21 -31 -144v-295c0 -95 40 -147 119 -147c88 0 130 56 128 183l-3 153c-4 202 -18 233 -67 248l-16 5v31
c55 -7 127 -5 180 0v-31l-11 -6c-27 -15 -44 -41 -44 -242v-159c0 -195 -107 -264 -253 -264c-159 0 -275 63 -275 253v271z" />
    <glyph glyph-name="Udieresis" unicode="&#xdc;" horiz-adv-x="658" 
d="M348 837c0 -55 -41 -97 -99 -97c-57 0 -99 42 -99 97s42 97 99 97s99 -42 99 -97zM578 837c0 -55 -41 -97 -99 -97c-57 0 -99 42 -99 97s42 97 99 97s99 -42 99 -97zM65 505c0 123 -1 140 -23 144l-17 3v31c103 -5 234 -5 335 0v-31l-22 -3c-30 -4 -31 -21 -31 -144v-295
c0 -95 40 -147 119 -147c88 0 130 56 128 183l-3 153c-4 202 -18 233 -67 248l-16 5v31c55 -7 127 -5 180 0v-31l-11 -6c-27 -15 -44 -41 -44 -242v-159c0 -195 -107 -264 -253 -264c-159 0 -275 63 -275 253v271z" />
    <glyph glyph-name="Ugrave" unicode="&#xd9;" horiz-adv-x="658" 
d="M205 880c0 40 34 68 94 78l18 -5l116 -218l-14 -13c-161 65 -214 102 -214 158zM65 505c0 123 -1 140 -23 144l-17 3v31c103 -5 234 -5 335 0v-31l-22 -3c-30 -4 -31 -21 -31 -144v-295c0 -95 40 -147 119 -147c88 0 130 56 128 183l-3 153c-4 202 -18 233 -67 248l-16 5
v31c55 -7 127 -5 180 0v-31l-11 -6c-27 -15 -44 -41 -44 -242v-159c0 -195 -107 -264 -253 -264c-159 0 -275 63 -275 253v271z" />
    <glyph glyph-name="Ubreve" unicode="&#x16c;" horiz-adv-x="658" 
d="M512 937c0 -129 -54 -208 -162 -208c-107 0 -162 79 -162 208h24c11 -47 57 -85 138 -85c76 0 127 38 138 85h24zM65 505c0 123 -1 140 -23 144l-17 3v31c103 -5 234 -5 335 0v-31l-22 -3c-30 -4 -31 -21 -31 -144v-295c0 -95 40 -147 119 -147c88 0 130 56 128 183
l-3 153c-4 202 -18 233 -67 248l-16 5v31c55 -7 127 -5 180 0v-31l-11 -6c-27 -15 -44 -41 -44 -242v-159c0 -195 -107 -264 -253 -264c-159 0 -275 63 -275 253v271z" />
    <glyph glyph-name="Uhungarumlaut" unicode="&#x170;" horiz-adv-x="658" 
d="M437 884c0 -57 -65 -105 -186 -160l-14 11l82 215l18 5c62 -12 100 -35 100 -71zM629 884c0 -57 -65 -105 -186 -160l-14 11l82 215l18 5c62 -12 100 -35 100 -71zM65 505c0 123 -1 140 -23 144l-17 3v31c103 -5 234 -5 335 0v-31l-22 -3c-30 -4 -31 -21 -31 -144v-295
c0 -95 40 -147 119 -147c88 0 130 56 128 183l-3 153c-4 202 -18 233 -67 248l-16 5v31c55 -7 127 -5 180 0v-31l-11 -6c-27 -15 -44 -41 -44 -242v-159c0 -195 -107 -264 -253 -264c-159 0 -275 63 -275 253v271z" />
    <glyph glyph-name="Umacron" unicode="&#x16a;" horiz-adv-x="658" 
d="M201 772v112h306v-112h-306zM65 505c0 123 -1 140 -23 144l-17 3v31c103 -5 234 -5 335 0v-31l-22 -3c-30 -4 -31 -21 -31 -144v-295c0 -95 40 -147 119 -147c88 0 130 56 128 183l-3 153c-4 202 -18 233 -67 248l-16 5v31c55 -7 127 -5 180 0v-31l-11 -6
c-27 -15 -44 -41 -44 -242v-159c0 -195 -107 -264 -253 -264c-159 0 -275 63 -275 253v271z" />
    <glyph glyph-name="Uogonek" unicode="&#x172;" horiz-adv-x="658" 
d="M340 -19c-159 0 -275 63 -275 253v271c0 123 -1 140 -23 144l-17 3v31c103 -5 234 -5 335 0v-31l-22 -3c-30 -4 -31 -21 -31 -144v-295c0 -95 40 -147 119 -147c88 0 130 56 128 183l-3 153c-4 202 -18 233 -67 248l-16 5v31c55 -7 127 -5 180 0v-31l-11 -6
c-27 -15 -44 -41 -44 -242v-159c0 -124 -44 -195 -112 -234c-49 -29 -84 -77 -84 -131c0 -39 13 -64 46 -64c18 0 30 10 44 28l16 -13c-34 -68 -81 -106 -149 -106c-61 0 -107 36 -107 102c0 70 74 123 153 158c-19 -3 -39 -4 -60 -4z" />
    <glyph glyph-name="Uring" unicode="&#x16e;" horiz-adv-x="658" 
d="M515 861c0 -75 -61 -135 -136 -135s-136 60 -136 135c0 76 61 136 136 136s136 -60 136 -136zM290 861c0 -52 40 -93 89 -93c48 0 89 41 89 93s-41 94 -89 94c-49 0 -89 -42 -89 -94zM65 505c0 123 -1 140 -23 144l-17 3v31c103 -5 234 -5 335 0v-31l-22 -3
c-30 -4 -31 -21 -31 -144v-295c0 -95 40 -147 119 -147c88 0 130 56 128 183l-3 153c-4 202 -18 233 -67 248l-16 5v31c55 -7 127 -5 180 0v-31l-11 -6c-27 -15 -44 -41 -44 -242v-159c0 -195 -107 -264 -253 -264c-159 0 -275 63 -275 253v271z" />
    <glyph glyph-name="Utilde" unicode="&#x168;" horiz-adv-x="658" 
d="M183 744c26 119 67 175 135 175c56 0 86 -41 143 -41c22 0 48 10 68 53l20 -11c-31 -127 -71 -177 -132 -177c-55 0 -86 44 -141 44c-24 0 -53 -10 -73 -53zM65 505c0 123 -1 140 -23 144l-17 3v31c103 -5 234 -5 335 0v-31l-22 -3c-30 -4 -31 -21 -31 -144v-295
c0 -95 40 -147 119 -147c88 0 130 56 128 183l-3 153c-4 202 -18 233 -67 248l-16 5v31c55 -7 127 -5 180 0v-31l-11 -6c-27 -15 -44 -41 -44 -242v-159c0 -195 -107 -264 -253 -264c-159 0 -275 63 -275 253v271z" />
    <glyph glyph-name="Wacute" unicode="&#x1e82;" horiz-adv-x="1084" 
d="M800 880c0 -56 -53 -93 -214 -158l-14 13l116 218l18 5c60 -10 94 -38 94 -78zM960 434l-142 -435c-45 2 -89 2 -134 0l-147 435l-151 -435c-45 2 -91 2 -136 0l-187 552c-27 81 -32 93 -51 98l-12 3v31c109 -5 228 -5 337 0v-31l-11 -4c-20 -7 -30 -21 -9 -91l106 -352
l93 292l-19 55c-27 79 -32 92 -51 97l-12 3v31c109 -5 228 -5 337 0v-31l-11 -4c-20 -7 -30 -19 -9 -90l102 -351l68 233c40 138 28 191 -27 208l-13 4v31c70 -6 143 -6 203 0v-31l-9 -3c-31 -10 -58 -42 -115 -215z" />
    <glyph glyph-name="Wcircumflex" unicode="&#x174;" horiz-adv-x="1084" 
d="M600 838l-164 -118l-16 13l111 215h138l111 -215l-16 -13zM960 434l-142 -435c-45 2 -89 2 -134 0l-147 435l-151 -435c-45 2 -91 2 -136 0l-187 552c-27 81 -32 93 -51 98l-12 3v31c109 -5 228 -5 337 0v-31l-11 -4c-20 -7 -30 -21 -9 -91l106 -352l93 292l-19 55
c-27 79 -32 92 -51 97l-12 3v31c109 -5 228 -5 337 0v-31l-11 -4c-20 -7 -30 -19 -9 -90l102 -351l68 233c40 138 28 191 -27 208l-13 4v31c70 -6 143 -6 203 0v-31l-9 -3c-31 -10 -58 -42 -115 -215z" />
    <glyph glyph-name="Wdieresis" unicode="&#x1e84;" horiz-adv-x="1084" 
d="M580 837c0 -55 -41 -97 -99 -97c-57 0 -99 42 -99 97s42 97 99 97s99 -42 99 -97zM810 837c0 -55 -41 -97 -99 -97c-57 0 -99 42 -99 97s42 97 99 97s99 -42 99 -97zM960 434l-142 -435c-45 2 -89 2 -134 0l-147 435l-151 -435c-45 2 -91 2 -136 0l-187 552
c-27 81 -32 93 -51 98l-12 3v31c109 -5 228 -5 337 0v-31l-11 -4c-20 -7 -30 -21 -9 -91l106 -352l93 292l-19 55c-27 79 -32 92 -51 97l-12 3v31c109 -5 228 -5 337 0v-31l-11 -4c-20 -7 -30 -19 -9 -90l102 -351l68 233c40 138 28 191 -27 208l-13 4v31
c70 -6 143 -6 203 0v-31l-9 -3c-31 -10 -58 -42 -115 -215z" />
    <glyph glyph-name="Wgrave" unicode="&#x1e80;" horiz-adv-x="1084" 
d="M388 880c0 40 34 68 94 78l18 -5l116 -218l-14 -13c-161 65 -214 102 -214 158zM960 434l-142 -435c-45 2 -89 2 -134 0l-147 435l-151 -435c-45 2 -91 2 -136 0l-187 552c-27 81 -32 93 -51 98l-12 3v31c109 -5 228 -5 337 0v-31l-11 -4c-20 -7 -30 -21 -9 -91l106 -352
l93 292l-19 55c-27 79 -32 92 -51 97l-12 3v31c109 -5 228 -5 337 0v-31l-11 -4c-20 -7 -30 -19 -9 -90l102 -351l68 233c40 138 28 191 -27 208l-13 4v31c70 -6 143 -6 203 0v-31l-9 -3c-31 -10 -58 -42 -115 -215z" />
    <glyph glyph-name="Yacute" unicode="&#xdd;" horiz-adv-x="687" 
d="M568 880c0 -56 -53 -93 -214 -158l-14 13l116 218l18 5c60 -10 94 -38 94 -78zM518 27v-31c-105 6 -238 6 -342 0v31l17 3c31 5 33 21 33 144v101l-164 309c-29 55 -35 62 -48 65l-14 3v31c110 -5 236 -5 370 0v-31l-14 -4c-32 -9 -53 -26 -19 -93l106 -206l47 103
c62 135 36 182 -1 195l-14 5v31c77 -6 148 -5 212 0v-31l-9 -4c-37 -16 -67 -55 -152 -213l-58 -108v-153c0 -123 2 -139 33 -144z" />
    <glyph glyph-name="Ydieresis" unicode="&#x178;" horiz-adv-x="687" 
d="M349 837c0 -55 -41 -97 -99 -97c-57 0 -99 42 -99 97s42 97 99 97s99 -42 99 -97zM579 837c0 -55 -41 -97 -99 -97c-57 0 -99 42 -99 97s42 97 99 97s99 -42 99 -97zM518 27v-31c-105 6 -238 6 -342 0v31l17 3c31 5 33 21 33 144v101l-164 309c-29 55 -35 62 -48 65
l-14 3v31c110 -5 236 -5 370 0v-31l-14 -4c-32 -9 -53 -26 -19 -93l106 -206l47 103c62 135 36 182 -1 195l-14 5v31c77 -6 148 -5 212 0v-31l-9 -4c-37 -16 -67 -55 -152 -213l-58 -108v-153c0 -123 2 -139 33 -144z" />
    <glyph glyph-name="Ycircumflex" unicode="&#x176;" horiz-adv-x="687" 
d="M364 838l-164 -118l-16 13l111 215h138l111 -215l-16 -13zM518 27v-31c-105 6 -238 6 -342 0v31l17 3c31 5 33 21 33 144v101l-164 309c-29 55 -35 62 -48 65l-14 3v31c110 -5 236 -5 370 0v-31l-14 -4c-32 -9 -53 -26 -19 -93l106 -206l47 103c62 135 36 182 -1 195
l-14 5v31c77 -6 148 -5 212 0v-31l-9 -4c-37 -16 -67 -55 -152 -213l-58 -108v-153c0 -123 2 -139 33 -144z" />
    <glyph glyph-name="Ygrave" unicode="&#x1ef2;" horiz-adv-x="687" 
d="M196 880c0 40 34 68 94 78l18 -5l116 -218l-14 -13c-161 65 -214 102 -214 158zM518 27v-31c-105 6 -238 6 -342 0v31l17 3c31 5 33 21 33 144v101l-164 309c-29 55 -35 62 -48 65l-14 3v31c110 -5 236 -5 370 0v-31l-14 -4c-32 -9 -53 -26 -19 -93l106 -206l47 103
c62 135 36 182 -1 195l-14 5v31c77 -6 148 -5 212 0v-31l-9 -4c-37 -16 -67 -55 -152 -213l-58 -108v-153c0 -123 2 -139 33 -144z" />
    <glyph glyph-name="Zcaron" unicode="&#x17d;" horiz-adv-x="632" 
d="M336 840l164 118l16 -13l-111 -215h-138l-111 215l16 13zM612 225c-14 -60 -24 -169 -30 -229c-179 6 -381 6 -562 0v18l323 630l-53 -6c-119 -12 -159 -69 -203 -158l-20 -40l-26 6c12 63 22 191 25 238c174 -6 368 -6 542 0v-18l-325 -631l49 5c155 15 199 80 241 164
l14 28z" />
    <glyph glyph-name="Zacute" unicode="&#x179;" horiz-adv-x="632" 
d="M528 880c0 -56 -53 -93 -214 -158l-14 13l116 218l18 5c60 -10 94 -38 94 -78zM612 225c-14 -60 -24 -169 -30 -229c-179 6 -381 6 -562 0v18l323 630l-53 -6c-119 -12 -159 -69 -203 -158l-20 -40l-26 6c12 63 22 191 25 238c174 -6 368 -6 542 0v-18l-325 -631l49 5
c155 15 199 80 241 164l14 28z" />
    <glyph glyph-name="Zdotaccent" unicode="&#x17b;" horiz-adv-x="632" 
d="M459 836c0 -63 -48 -111 -114 -111c-65 0 -114 48 -114 111s49 111 114 111s114 -48 114 -111zM612 225c-14 -60 -24 -169 -30 -229c-179 6 -381 6 -562 0v18l323 630l-53 -6c-119 -12 -159 -69 -203 -158l-20 -40l-26 6c12 63 22 191 25 238c174 -6 368 -6 542 0v-18
l-325 -631l49 5c155 15 199 80 241 164l14 28z" />
    <glyph glyph-name="aacute" unicode="&#xe1;" horiz-adv-x="577" 
d="M463 708c0 -56 -53 -93 -214 -158l-14 13l116 218l18 5c60 -10 94 -38 94 -78zM577 47c-45 -46 -115 -66 -174 -66c-68 0 -108 34 -108 91v6c-28 -69 -71 -97 -137 -97c-81 0 -142 61 -142 150c0 65 36 117 161 134l118 16v17c0 108 -39 169 -78 169
c-42 0 -52 -69 -45 -172l-19 -6c-58 2 -109 17 -109 64c0 84 144 174 277 174c123 0 208 -63 208 -191c0 -62 -4 -152 -4 -226c0 -39 4 -44 22 -44c9 0 15 3 21 6zM274 95c9 0 17 2 21 6v145h-8c-55 0 -68 -32 -68 -67c0 -47 22 -84 55 -84z" />
    <glyph glyph-name="acircumflex" unicode="&#xe2;" horiz-adv-x="577" 
d="M289 666l-164 -118l-16 13l111 215h138l111 -215l-16 -13zM577 47c-45 -46 -115 -66 -174 -66c-68 0 -108 34 -108 91v6c-28 -69 -71 -97 -137 -97c-81 0 -142 61 -142 150c0 65 36 117 161 134l118 16v17c0 108 -39 169 -78 169c-42 0 -52 -69 -45 -172l-19 -6
c-58 2 -109 17 -109 64c0 84 144 174 277 174c123 0 208 -63 208 -191c0 -62 -4 -152 -4 -226c0 -39 4 -44 22 -44c9 0 15 3 21 6zM274 95c9 0 17 2 21 6v145h-8c-55 0 -68 -32 -68 -67c0 -47 22 -84 55 -84z" />
    <glyph glyph-name="adieresis" unicode="&#xe4;" horiz-adv-x="577" 
d="M273 665c0 -55 -41 -97 -99 -97c-57 0 -99 42 -99 97s42 97 99 97s99 -42 99 -97zM503 665c0 -55 -41 -97 -99 -97c-57 0 -99 42 -99 97s42 97 99 97s99 -42 99 -97zM577 47c-45 -46 -115 -66 -174 -66c-68 0 -108 34 -108 91v6c-28 -69 -71 -97 -137 -97
c-81 0 -142 61 -142 150c0 65 36 117 161 134l118 16v17c0 108 -39 169 -78 169c-42 0 -52 -69 -45 -172l-19 -6c-58 2 -109 17 -109 64c0 84 144 174 277 174c123 0 208 -63 208 -191c0 -62 -4 -152 -4 -226c0 -39 4 -44 22 -44c9 0 15 3 21 6zM274 95c9 0 17 2 21 6v145
h-8c-55 0 -68 -32 -68 -67c0 -47 22 -84 55 -84z" />
    <glyph glyph-name="agrave" unicode="&#xe0;" horiz-adv-x="577" 
d="M131 708c0 40 34 68 94 78l18 -5l116 -218l-14 -13c-161 65 -214 102 -214 158zM577 47c-45 -46 -115 -66 -174 -66c-68 0 -108 34 -108 91v6c-28 -69 -71 -97 -137 -97c-81 0 -142 61 -142 150c0 65 36 117 161 134l118 16v17c0 108 -39 169 -78 169
c-42 0 -52 -69 -45 -172l-19 -6c-58 2 -109 17 -109 64c0 84 144 174 277 174c123 0 208 -63 208 -191c0 -62 -4 -152 -4 -226c0 -39 4 -44 22 -44c9 0 15 3 21 6zM274 95c9 0 17 2 21 6v145h-8c-55 0 -68 -32 -68 -67c0 -47 22 -84 55 -84z" />
    <glyph glyph-name="aring" unicode="&#xe5;" horiz-adv-x="577" 
d="M425 689c0 -75 -61 -135 -136 -135s-136 60 -136 135c0 76 61 136 136 136s136 -60 136 -136zM200 689c0 -52 40 -93 89 -93c48 0 89 41 89 93s-41 94 -89 94c-49 0 -89 -42 -89 -94zM577 47c-45 -46 -115 -66 -174 -66c-68 0 -108 34 -108 91v6
c-28 -69 -71 -97 -137 -97c-81 0 -142 61 -142 150c0 65 36 117 161 134l118 16v17c0 108 -39 169 -78 169c-42 0 -52 -69 -45 -172l-19 -6c-58 2 -109 17 -109 64c0 84 144 174 277 174c123 0 208 -63 208 -191c0 -62 -4 -152 -4 -226c0 -39 4 -44 22 -44c9 0 15 3 21 6z
M274 95c9 0 17 2 21 6v145h-8c-55 0 -68 -32 -68 -67c0 -47 22 -84 55 -84z" />
    <glyph glyph-name="atilde" unicode="&#xe3;" horiz-adv-x="577" 
d="M114 572c26 119 67 175 135 175c56 0 86 -41 143 -41c22 0 48 10 68 53l20 -11c-31 -127 -71 -177 -132 -177c-55 0 -86 44 -141 44c-24 0 -53 -10 -73 -53zM577 47c-45 -46 -115 -66 -174 -66c-68 0 -108 34 -108 91v6c-28 -69 -71 -97 -137 -97c-81 0 -142 61 -142 150
c0 65 36 117 161 134l118 16v17c0 108 -39 169 -78 169c-42 0 -52 -69 -45 -172l-19 -6c-58 2 -109 17 -109 64c0 84 144 174 277 174c123 0 208 -63 208 -191c0 -62 -4 -152 -4 -226c0 -39 4 -44 22 -44c9 0 15 3 21 6zM274 95c9 0 17 2 21 6v145h-8c-55 0 -68 -32 -68 -67
c0 -47 22 -84 55 -84z" />
    <glyph glyph-name="abreve" unicode="&#x103;" horiz-adv-x="577" 
d="M455 765c0 -129 -54 -208 -162 -208c-107 0 -162 79 -162 208h24c11 -47 57 -85 138 -85c76 0 127 38 138 85h24zM577 47c-45 -46 -115 -66 -174 -66c-68 0 -108 34 -108 91v6c-28 -69 -71 -97 -137 -97c-81 0 -142 61 -142 150c0 65 36 117 161 134l118 16v17
c0 108 -39 169 -78 169c-42 0 -52 -69 -45 -172l-19 -6c-58 2 -109 17 -109 64c0 84 144 174 277 174c123 0 208 -63 208 -191c0 -62 -4 -152 -4 -226c0 -39 4 -44 22 -44c9 0 15 3 21 6zM274 95c9 0 17 2 21 6v145h-8c-55 0 -68 -32 -68 -67c0 -47 22 -84 55 -84z" />
    <glyph glyph-name="amacron" unicode="&#x101;" horiz-adv-x="577" 
d="M136 600v112h306v-112h-306zM577 47c-45 -46 -115 -66 -174 -66c-68 0 -108 34 -108 91v6c-28 -69 -71 -97 -137 -97c-81 0 -142 61 -142 150c0 65 36 117 161 134l118 16v17c0 108 -39 169 -78 169c-42 0 -52 -69 -45 -172l-19 -6c-58 2 -109 17 -109 64
c0 84 144 174 277 174c123 0 208 -63 208 -191c0 -62 -4 -152 -4 -226c0 -39 4 -44 22 -44c9 0 15 3 21 6zM274 95c9 0 17 2 21 6v145h-8c-55 0 -68 -32 -68 -67c0 -47 22 -84 55 -84z" />
    <glyph glyph-name="aogonek" unicode="&#x105;" horiz-adv-x="577" 
d="M560 -169c-34 -68 -81 -106 -149 -106c-61 0 -107 36 -107 102c0 59 53 111 139 157c-13 -2 -27 -3 -40 -3c-68 0 -108 34 -108 91v6c-28 -69 -71 -97 -137 -97c-81 0 -142 61 -142 150c0 65 36 117 161 134l118 16v17c0 108 -39 169 -78 169c-42 0 -52 -69 -45 -172
l-19 -6c-58 2 -109 17 -109 64c0 84 144 174 277 174c123 0 208 -63 208 -191c0 -62 -4 -152 -4 -226c0 -39 4 -44 22 -44c9 0 15 3 21 6l9 -25c-63 -44 -123 -88 -123 -167c0 -39 13 -64 46 -64c18 0 30 10 44 28zM274 95c9 0 17 2 21 6v145h-8c-55 0 -68 -32 -68 -67
c0 -47 22 -84 55 -84z" />
    <glyph glyph-name="ccedilla" unicode="&#xe7;" horiz-adv-x="520" 
d="M393 -163c0 -63 -57 -112 -132 -112c-58 0 -93 23 -119 49l12 22c12 -7 23 -10 39 -10c30 0 51 20 51 55s-23 51 -48 54l-3 14l41 74c-124 15 -214 112 -214 253c0 180 135 291 281 291c117 0 192 -60 192 -124c0 -54 -47 -89 -121 -94l-19 6c-19 87 -48 173 -85 173
c-24 0 -39 -23 -39 -72c0 -173 73 -273 167 -273c30 0 64 9 103 36l13 -13c-50 -116 -138 -183 -240 -185l-28 -47c89 13 149 -30 149 -97z" />
    <glyph glyph-name="cacute" unicode="&#x107;" horiz-adv-x="520" 
d="M431 708c0 -56 -53 -93 -214 -158l-14 13l116 218l18 5c60 -10 94 -38 94 -78zM268 488c-24 0 -39 -23 -39 -72c0 -173 73 -273 167 -273c30 0 64 9 103 36l13 -13c-51 -118 -141 -185 -245 -185c-141 0 -247 102 -247 255c0 180 135 291 281 291c117 0 192 -60 192 -124
c0 -54 -47 -89 -121 -94l-19 6c-19 87 -48 173 -85 173z" />
    <glyph glyph-name="ccaron" unicode="&#x10d;" horiz-adv-x="520" 
d="M279 668l164 118l16 -13l-111 -215h-138l-111 215l16 13zM268 488c-24 0 -39 -23 -39 -72c0 -173 73 -273 167 -273c30 0 64 9 103 36l13 -13c-51 -118 -141 -185 -245 -185c-141 0 -247 102 -247 255c0 180 135 291 281 291c117 0 192 -60 192 -124
c0 -54 -47 -89 -121 -94l-19 6c-19 87 -48 173 -85 173z" />
    <glyph glyph-name="ccircumflex" unicode="&#x109;" horiz-adv-x="520" 
d="M270 666l-164 -118l-16 13l111 215h138l111 -215l-16 -13zM268 488c-24 0 -39 -23 -39 -72c0 -173 73 -273 167 -273c30 0 64 9 103 36l13 -13c-51 -118 -141 -185 -245 -185c-141 0 -247 102 -247 255c0 180 135 291 281 291c117 0 192 -60 192 -124
c0 -54 -47 -89 -121 -94l-19 6c-19 87 -48 173 -85 173z" />
    <glyph glyph-name="cdotaccent" unicode="&#x10b;" horiz-adv-x="520" 
d="M393 664c0 -63 -48 -111 -114 -111c-65 0 -114 48 -114 111s49 111 114 111s114 -48 114 -111zM268 488c-24 0 -39 -23 -39 -72c0 -173 73 -273 167 -273c30 0 64 9 103 36l13 -13c-51 -118 -141 -185 -245 -185c-141 0 -247 102 -247 255c0 180 135 291 281 291
c117 0 192 -60 192 -124c0 -54 -47 -89 -121 -94l-19 6c-19 87 -48 173 -85 173z" />
    <glyph glyph-name="dcaron" unicode="&#x10f;" horiz-adv-x="772" 
d="M378 -17c-7 22 -15 58 -18 102c-23 -67 -76 -104 -148 -104c-122 0 -190 111 -190 248c0 199 137 298 279 298c19 0 38 -2 57 -6c0 140 -1 160 -31 167l-9 2v31c112 0 184 3 266 19l10 -9c-3 -55 -4 -152 -4 -204v-309c0 -133 2 -151 23 -157l17 -5v-31
c-81 -9 -168 -23 -252 -42zM641 725c18 10 40 15 58 15c40 0 64 -27 64 -65c0 -84 -75 -119 -121 -209l-20 3l6 238zM260 345c0 -145 26 -248 70 -248c10 0 20 5 28 14v303c0 48 -18 77 -48 77c-28 0 -50 -34 -50 -146z" />
    <glyph glyph-name="dcroat" unicode="&#x111;" horiz-adv-x="635" 
d="M360 85c-23 -67 -76 -104 -148 -104c-122 0 -190 111 -190 248c0 199 137 298 279 298c19 0 38 -2 57 -6v66h-144v40h143c-3 46 -10 56 -30 61l-9 2v31c112 0 184 3 266 19l10 -9c-2 -28 -3 -66 -3 -104h45v-40h-46v-369c0 -133 2 -151 23 -157l17 -5v-31
c-81 -9 -168 -23 -252 -42c-7 22 -15 58 -18 102zM260 345c0 -145 26 -248 70 -248c10 0 20 5 28 14v303c0 48 -18 77 -48 77c-28 0 -50 -34 -50 -146z" />
    <glyph glyph-name="eacute" unicode="&#xe9;" horiz-adv-x="538" 
d="M440 708c0 -56 -53 -93 -214 -158l-14 13l116 218l18 5c60 -10 94 -38 94 -78zM530 179c-59 -129 -139 -198 -258 -198c-143 0 -252 109 -252 271c0 164 130 275 274 275c142 0 219 -101 219 -203c0 -12 -1 -29 -3 -45h-271c27 -91 84 -138 154 -138c49 0 84 18 122 51z
M222 413c0 -39 3 -73 10 -104l91 14l-2 22c-9 104 -33 152 -60 152c-25 0 -39 -32 -39 -84z" />
    <glyph glyph-name="ecircumflex" unicode="&#xea;" horiz-adv-x="538" 
d="M270 666l-164 -118l-16 13l111 215h138l111 -215l-16 -13zM530 179c-59 -129 -139 -198 -258 -198c-143 0 -252 109 -252 271c0 164 130 275 274 275c142 0 219 -101 219 -203c0 -12 -1 -29 -3 -45h-271c27 -91 84 -138 154 -138c49 0 84 18 122 51zM222 413
c0 -39 3 -73 10 -104l91 14l-2 22c-9 104 -33 152 -60 152c-25 0 -39 -32 -39 -84z" />
    <glyph glyph-name="edieresis" unicode="&#xeb;" horiz-adv-x="538" 
d="M265 665c0 -55 -41 -97 -99 -97c-57 0 -99 42 -99 97s42 97 99 97s99 -42 99 -97zM495 665c0 -55 -41 -97 -99 -97c-57 0 -99 42 -99 97s42 97 99 97s99 -42 99 -97zM530 179c-59 -129 -139 -198 -258 -198c-143 0 -252 109 -252 271c0 164 130 275 274 275
c142 0 219 -101 219 -203c0 -12 -1 -29 -3 -45h-271c27 -91 84 -138 154 -138c49 0 84 18 122 51zM222 413c0 -39 3 -73 10 -104l91 14l-2 22c-9 104 -33 152 -60 152c-25 0 -39 -32 -39 -84z" />
    <glyph glyph-name="egrave" unicode="&#xe8;" horiz-adv-x="538" 
d="M108 708c0 40 34 68 94 78l18 -5l116 -218l-14 -13c-161 65 -214 102 -214 158zM530 179c-59 -129 -139 -198 -258 -198c-143 0 -252 109 -252 271c0 164 130 275 274 275c142 0 219 -101 219 -203c0 -12 -1 -29 -3 -45h-271c27 -91 84 -138 154 -138c49 0 84 18 122 51z
M222 413c0 -39 3 -73 10 -104l91 14l-2 22c-9 104 -33 152 -60 152c-25 0 -39 -32 -39 -84z" />
    <glyph glyph-name="ebreve" unicode="&#x115;" horiz-adv-x="538" 
d="M438 765c0 -129 -54 -208 -162 -208c-107 0 -162 79 -162 208h24c11 -47 57 -85 138 -85c76 0 127 38 138 85h24zM530 179c-59 -129 -139 -198 -258 -198c-143 0 -252 109 -252 271c0 164 130 275 274 275c142 0 219 -101 219 -203c0 -12 -1 -29 -3 -45h-271
c27 -91 84 -138 154 -138c49 0 84 18 122 51zM222 413c0 -39 3 -73 10 -104l91 14l-2 22c-9 104 -33 152 -60 152c-25 0 -39 -32 -39 -84z" />
    <glyph glyph-name="ecaron" unicode="&#x11b;" horiz-adv-x="538" 
d="M278 668l164 118l16 -13l-111 -215h-138l-111 215l16 13zM530 179c-59 -129 -139 -198 -258 -198c-143 0 -252 109 -252 271c0 164 130 275 274 275c142 0 219 -101 219 -203c0 -12 -1 -29 -3 -45h-271c27 -91 84 -138 154 -138c49 0 84 18 122 51zM222 413
c0 -39 3 -73 10 -104l91 14l-2 22c-9 104 -33 152 -60 152c-25 0 -39 -32 -39 -84z" />
    <glyph glyph-name="edotaccent" unicode="&#x117;" horiz-adv-x="538" 
d="M383 664c0 -63 -48 -111 -114 -111c-65 0 -114 48 -114 111s49 111 114 111s114 -48 114 -111zM530 179c-59 -129 -139 -198 -258 -198c-143 0 -252 109 -252 271c0 164 130 275 274 275c142 0 219 -101 219 -203c0 -12 -1 -29 -3 -45h-271c27 -91 84 -138 154 -138
c49 0 84 18 122 51zM222 413c0 -39 3 -73 10 -104l91 14l-2 22c-9 104 -33 152 -60 152c-25 0 -39 -32 -39 -84z" />
    <glyph glyph-name="emacron" unicode="&#x113;" horiz-adv-x="538" 
d="M113 600v112h306v-112h-306zM530 179c-59 -129 -139 -198 -258 -198c-143 0 -252 109 -252 271c0 164 130 275 274 275c142 0 219 -101 219 -203c0 -12 -1 -29 -3 -45h-271c27 -91 84 -138 154 -138c49 0 84 18 122 51zM222 413c0 -39 3 -73 10 -104l91 14l-2 22
c-9 104 -33 152 -60 152c-25 0 -39 -32 -39 -84z" />
    <glyph glyph-name="eogonek" unicode="&#x119;" horiz-adv-x="538" 
d="M432 -169c-34 -68 -81 -106 -149 -106c-61 0 -107 36 -107 102c0 60 53 111 143 157c-16 -2 -31 -3 -47 -3c-143 0 -252 109 -252 271c0 164 130 275 274 275c142 0 219 -101 219 -203c0 -12 -1 -29 -3 -45h-271c27 -91 84 -138 154 -138c49 0 84 18 122 51l15 -13
c-32 -70 -69 -119 -117 -155c-61 -46 -87 -97 -87 -144c0 -39 13 -64 46 -64c18 0 30 10 44 28zM222 413c0 -39 3 -73 10 -104l91 14l-2 22c-9 104 -33 152 -60 152c-25 0 -39 -32 -39 -84z" />
    <glyph glyph-name="gbreve" unicode="&#x11f;" horiz-adv-x="574" 
d="M425 765c0 -129 -54 -208 -162 -208c-107 0 -162 79 -162 208h24c11 -47 57 -85 138 -85c76 0 127 38 138 85h24zM577 -13c0 -128 -165 -212 -338 -212c-184 0 -251 52 -251 106c0 39 51 73 134 77c-63 19 -104 57 -104 118c0 56 52 98 119 126c-71 30 -116 85 -116 151
c0 97 104 174 246 174c37 0 72 -5 103 -14c14 87 67 133 118 133c48 0 76 -45 74 -105l-6 -17c-69 5 -119 -4 -162 -19c77 -29 127 -86 127 -155c0 -95 -104 -174 -246 -174c-41 0 -79 6 -113 17c-8 -7 -13 -14 -13 -22c0 -27 34 -36 169 -42c168 -6 259 -47 259 -142z
M255 496c-14 0 -22 -22 -22 -71c0 -126 26 -218 54 -218c14 0 22 23 22 71c0 124 -26 218 -54 218zM130 -103c0 -45 41 -85 124 -85c88 0 141 35 141 75c0 34 -30 48 -165 54c-28 1 -55 4 -80 9c-12 -12 -20 -29 -20 -53z" />
    <glyph glyph-name="gcircumflex" unicode="&#x11d;" horiz-adv-x="574" 
d="M278 666l-164 -118l-17 18l112 210h138l60 -146l-22 -25zM577 -13c0 -128 -165 -212 -338 -212c-184 0 -251 52 -251 106c0 39 51 73 134 77c-63 19 -104 57 -104 118c0 56 52 98 119 126c-71 30 -116 85 -116 151c0 97 104 174 246 174c37 0 72 -5 103 -14
c14 87 67 133 118 133c48 0 76 -45 74 -105l-6 -17c-69 5 -118 -4 -162 -19c77 -29 127 -86 127 -155c0 -95 -104 -174 -246 -174c-41 0 -79 6 -113 17c-8 -7 -13 -14 -13 -22c0 -27 34 -36 169 -42c168 -6 259 -47 259 -142zM255 496c-14 0 -22 -22 -22 -71
c0 -126 26 -218 54 -218c14 0 22 23 22 71c0 124 -26 218 -54 218zM130 -103c0 -45 41 -85 124 -85c88 0 141 35 141 75c0 34 -30 48 -165 54c-28 1 -55 4 -80 9c-12 -12 -20 -29 -20 -53z" />
    <glyph glyph-name="gcommaaccent" unicode="&#x123;" horiz-adv-x="574" 
d="M354 830l16 -24l-29 -24c-60 -49 -52 -99 13 -167l-7 -22c-26 -23 -56 -37 -90 -37c-54 0 -89 41 -89 87c0 79 58 124 186 187zM577 -13c0 -128 -165 -212 -338 -212c-184 0 -251 52 -251 106c0 39 51 73 134 77c-63 19 -104 57 -104 118c0 56 52 98 119 126
c-71 30 -116 85 -116 151c0 97 104 174 246 174c37 0 72 -5 103 -14c14 87 67 133 118 133c48 0 76 -45 74 -105l-6 -17c-69 5 -119 -4 -162 -19c77 -29 127 -86 127 -155c0 -95 -104 -174 -246 -174c-41 0 -79 6 -113 17c-8 -7 -13 -14 -13 -22c0 -27 34 -36 169 -42
c168 -6 259 -47 259 -142zM255 496c-14 0 -22 -22 -22 -71c0 -126 26 -218 54 -218c14 0 22 23 22 71c0 124 -26 218 -54 218zM130 -103c0 -45 41 -85 124 -85c88 0 141 35 141 75c0 34 -30 48 -165 54c-28 1 -55 4 -80 9c-12 -12 -20 -29 -20 -53z" />
    <glyph glyph-name="gdotaccent" unicode="&#x121;" horiz-adv-x="574" 
d="M372 664c0 -63 -48 -111 -114 -111c-65 0 -114 48 -114 111s49 111 114 111s114 -48 114 -111zM577 -13c0 -128 -165 -212 -338 -212c-184 0 -251 52 -251 106c0 39 51 73 134 77c-63 19 -104 57 -104 118c0 56 52 98 119 126c-71 30 -116 85 -116 151
c0 97 104 174 246 174c37 0 72 -5 103 -14c14 87 67 133 118 133c48 0 76 -45 74 -105l-6 -17c-69 5 -119 -4 -162 -19c77 -29 127 -86 127 -155c0 -95 -104 -174 -246 -174c-41 0 -79 6 -113 17c-8 -7 -13 -14 -13 -22c0 -27 34 -36 169 -42c168 -6 259 -47 259 -142z
M255 496c-14 0 -22 -22 -22 -71c0 -126 26 -218 54 -218c14 0 22 23 22 71c0 124 -26 218 -54 218zM130 -103c0 -45 41 -85 124 -85c88 0 141 35 141 75c0 34 -30 48 -165 54c-28 1 -55 4 -80 9c-12 -12 -20 -29 -20 -53z" />
    <glyph glyph-name="hbar" unicode="&#x127;" horiz-adv-x="666" 
d="M656 28v-31c-97 5 -204 5 -302 0v31l8 2c18 5 22 18 22 145v141c0 68 -18 93 -52 93c-17 0 -31 -6 -46 -18v-216c0 -123 -3 -139 22 -145l8 -2v-31c-97 5 -204 5 -302 0v31l17 3c22 4 23 21 23 144v412h-50v40h48c-2 46 -10 57 -29 61l-9 2v31c112 0 184 3 266 19l10 -9
c-2 -28 -3 -66 -3 -104h139v-40h-140v-167c36 60 87 107 170 107c81 0 160 -45 160 -175v-177c0 -123 1 -140 23 -144z" />
    <glyph glyph-name="hcircumflex" unicode="&#x125;" horiz-adv-x="666" 
d="M338 876l-164 -118l-16 13l111 215h138l111 -215l-16 -13zM656 28v-31c-97 5 -204 5 -302 0v31l8 2c18 5 22 18 22 145v141c0 68 -18 93 -52 93c-17 0 -31 -6 -46 -18v-216c0 -123 -3 -139 22 -145l8 -2v-31c-97 5 -204 5 -302 0v31l17 3c22 4 23 21 23 144v327
c0 157 0 179 -31 186l-9 2v31c112 0 184 3 266 19l10 -9c-3 -55 -4 -152 -4 -204v-107c36 60 87 107 170 107c81 0 160 -45 160 -175v-177c0 -123 1 -140 23 -144z" />
    <glyph glyph-name="iacute" unicode="&#xed;" horiz-adv-x="336" 
d="M332 708c0 -56 -53 -93 -214 -158l-14 13l116 218l18 5c60 -10 94 -38 94 -78zM54 175v114c0 157 0 179 -31 186l-9 2v31c112 0 184 3 266 19l10 -9c-3 -55 -4 -152 -4 -204v-139c0 -123 1 -140 23 -144l17 -3v-31c-101 5 -210 5 -312 0v31l17 3c22 4 23 21 23 144z" />
    <glyph glyph-name="icircumflex" unicode="&#xee;" horiz-adv-x="336" 
d="M168 666l-164 -118l-16 13l111 215h138l111 -215l-16 -13zM54 175v114c0 157 0 179 -31 186l-9 2v31c112 0 184 3 266 19l10 -9c-3 -55 -4 -152 -4 -204v-139c0 -123 1 -140 23 -144l17 -3v-31c-101 5 -210 5 -312 0v31l17 3c22 4 23 21 23 144z" />
    <glyph glyph-name="idieresis" unicode="&#xef;" horiz-adv-x="336" 
d="M152 665c0 -55 -41 -97 -99 -97c-57 0 -99 42 -99 97s42 97 99 97s99 -42 99 -97zM382 665c0 -55 -41 -97 -99 -97c-57 0 -99 42 -99 97s42 97 99 97s99 -42 99 -97zM54 175v114c0 157 0 179 -31 186l-9 2v31c112 0 184 3 266 19l10 -9c-3 -55 -4 -152 -4 -204v-139
c0 -123 1 -140 23 -144l17 -3v-31c-101 5 -210 5 -312 0v31l17 3c22 4 23 21 23 144z" />
    <glyph glyph-name="igrave" unicode="&#xec;" horiz-adv-x="336" 
d="M18 708c0 40 34 68 94 78l18 -5l116 -218l-14 -13c-161 65 -214 102 -214 158zM54 175v114c0 157 0 179 -31 186l-9 2v31c112 0 184 3 266 19l10 -9c-3 -55 -4 -152 -4 -204v-139c0 -123 1 -140 23 -144l17 -3v-31c-101 5 -210 5 -312 0v31l17 3c22 4 23 21 23 144z" />
    <glyph glyph-name="ibreve" unicode="&#x12d;" horiz-adv-x="336" 
d="M330 765c0 -129 -54 -208 -162 -208c-107 0 -162 79 -162 208h24c11 -47 57 -85 138 -85c76 0 127 38 138 85h24zM54 175v114c0 157 0 179 -31 186l-9 2v31c112 0 184 3 266 19l10 -9c-3 -55 -4 -152 -4 -204v-139c0 -123 1 -140 23 -144l17 -3v-31c-101 5 -210 5 -312 0
v31l17 3c22 4 23 21 23 144z" />
    <glyph glyph-name="i.dot" horiz-adv-x="336" 
d="M294 673c0 -67 -52 -117 -124 -117c-71 0 -124 50 -124 117s53 117 124 117s124 -50 124 -117zM54 175v114c0 157 0 179 -31 186l-9 2v31c112 0 184 3 266 19l10 -9c-3 -55 -4 -152 -4 -204v-139c0 -123 1 -140 23 -144l17 -3v-31c-101 5 -210 5 -312 0v31l17 3
c22 4 23 21 23 144z" />
    <glyph glyph-name="imacron" unicode="&#x12b;" horiz-adv-x="336" 
d="M15 600v112h306v-112h-306zM54 175v114c0 157 0 179 -31 186l-9 2v31c112 0 184 3 266 19l10 -9c-3 -55 -4 -152 -4 -204v-139c0 -123 1 -140 23 -144l17 -3v-31c-101 5 -210 5 -312 0v31l17 3c22 4 23 21 23 144z" />
    <glyph glyph-name="iogonek" unicode="&#x12f;" horiz-adv-x="336" 
d="M294 673c0 -67 -52 -117 -124 -117c-71 0 -124 50 -124 117s53 117 124 117s124 -50 124 -117zM315 -169c-34 -68 -81 -106 -149 -106c-61 0 -107 36 -107 102c0 71 70 129 194 173c-80 2 -161 1 -239 -3v31l17 3c22 4 23 21 23 144v114c0 157 0 179 -31 186l-9 2v31
c112 0 184 3 266 19l10 -9c-3 -55 -4 -152 -4 -204v-139c0 -123 1 -140 23 -144l17 -3v-31c-77 -6 -119 -59 -119 -117c0 -39 14 -64 48 -64c18 0 30 10 44 28z" />
    <glyph glyph-name="itilde" unicode="&#x129;" horiz-adv-x="336" 
d="M-17 572c26 119 67 175 135 175c56 0 86 -41 143 -41c22 0 48 10 68 53l20 -11c-31 -127 -71 -177 -132 -177c-55 0 -86 44 -141 44c-24 0 -53 -10 -73 -53zM54 175v114c0 157 0 179 -31 186l-9 2v31c112 0 184 3 266 19l10 -9c-3 -55 -4 -152 -4 -204v-139
c0 -123 1 -140 23 -144l17 -3v-31c-101 5 -210 5 -312 0v31l17 3c22 4 23 21 23 144z" />
    <glyph glyph-name="jcircumflex" unicode="&#x135;" horiz-adv-x="328" 
d="M164 666l-164 -118l-16 13l111 215h138l111 -215l-16 -13zM50 289c0 157 0 179 -31 186l-9 2v31c112 0 184 3 266 19l10 -9c-3 -55 -4 -152 -4 -204v-280c0 -143 -72 -196 -244 -242l-37 -10l-11 25l15 10c37 25 45 53 45 214v258z" />
    <glyph glyph-name="ij" unicode="&#x133;" horiz-adv-x="664" 
d="M294 673c0 -67 -52 -117 -124 -117c-71 0 -124 50 -124 117s53 117 124 117s124 -50 124 -117zM626 673c0 -67 -52 -117 -124 -117c-71 0 -124 50 -124 117s53 117 124 117s124 -50 124 -117zM54 175v114c0 157 0 179 -31 186l-9 2v31c112 0 184 3 266 19l10 -9
c-3 -55 -4 -152 -4 -204v-139c0 -123 1 -140 23 -144l17 -3v-31c-101 5 -210 5 -312 0v31l17 3c22 4 23 21 23 144zM386 289c0 157 0 179 -31 186l-9 2v31c112 0 184 3 266 19l10 -9c-3 -55 -4 -152 -4 -204v-280c0 -143 -72 -196 -244 -242l-37 -10l-11 25l15 10
c37 25 45 53 45 214v258z" />
    <glyph glyph-name="kcommaaccent" unicode="&#x137;" horiz-adv-x="689" 
d="M689 28v-31c-91 5 -185 5 -276 0l-127 251v-73c0 -123 1 -140 22 -145l8 -2v-31c-97 5 -204 5 -302 0v31l17 3c22 4 23 21 23 144v327c0 157 0 179 -31 186l-9 2v31c112 0 184 3 266 19l10 -9c-3 -55 -4 -152 -4 -204v-211l65 64c58 58 62 88 12 97l-17 3v31
c86 -5 180 -5 266 0v-31l-16 -5c-75 -23 -115 -37 -212 -115l-78 -62c65 -7 132 12 159 39h20l88 -164c68 -131 82 -134 104 -141zM254 -319l-16 24l29 24c52 43 46 93 -17 167l7 22c27 24 58 37 94 37c55 0 91 -41 91 -87c0 -81 -59 -126 -188 -187z" />
    <glyph glyph-name="kgreenlandic" unicode="&#x138;" horiz-adv-x="689" 
d="M689 28v-31c-91 5 -185 5 -276 0l-127 251v-73c0 -123 1 -140 20 -144l14 -3v-31c-99 5 -206 5 -306 0v31l17 3c22 4 23 21 23 144v114c0 157 0 179 -31 186l-9 2v31c112 0 184 3 266 19l10 -9c-3 -55 -4 -152 -4 -201l62 58c68 63 67 93 15 102l-17 3v31
c86 -5 180 -5 266 0v-31l-16 -5c-75 -23 -114 -40 -212 -119l-75 -60c63 -5 127 13 158 41h20l88 -170c60 -116 78 -129 100 -135z" />
    <glyph glyph-name="lacute" unicode="&#x13a;" horiz-adv-x="336" 
d="M358 918c0 -56 -53 -93 -214 -158l-14 13l116 218l18 5c60 -10 94 -38 94 -78zM54 175v327c0 157 0 179 -31 186l-9 2v31c112 0 184 3 266 19l10 -9c-3 -55 -4 -152 -4 -204v-352c0 -123 1 -140 23 -144l17 -3v-31c-101 5 -210 5 -312 0v31l17 3c22 4 23 21 23 144z" />
    <glyph glyph-name="lcaron" unicode="&#x13e;" horiz-adv-x="474" 
d="M54 175v327c0 157 0 179 -31 186l-9 2v31c112 0 184 3 266 19l10 -9c-3 -55 -4 -152 -4 -204v-352c0 -123 1 -140 23 -144l17 -3v-31c-101 5 -210 5 -312 0v31l17 3c22 4 23 21 23 144zM343 725c18 10 40 15 58 15c40 0 64 -27 64 -65c0 -84 -75 -119 -121 -209l-20 3
l6 238z" />
    <glyph glyph-name="lcommaaccent" unicode="&#x13c;" horiz-adv-x="336" 
d="M54 175v327c0 157 0 179 -31 186l-9 2v31c112 0 184 3 266 19l10 -9c-3 -55 -4 -152 -4 -204v-352c0 -123 1 -140 23 -144l17 -3v-31c-101 5 -210 5 -312 0v31l17 3c22 4 23 21 23 144zM73 -319l-16 24l29 24c52 43 46 93 -17 167l7 22c27 24 58 37 94 37
c55 0 91 -41 91 -87c0 -81 -59 -126 -188 -187z" />
    <glyph glyph-name="ldot" unicode="&#x140;" horiz-adv-x="506" 
d="M54 175v327c0 157 0 179 -31 186l-9 2v31c112 0 184 3 266 19l10 -9c-3 -55 -4 -152 -4 -204v-352c0 -123 1 -140 23 -144l17 -3v-31c-101 5 -210 5 -312 0v31l17 3c22 4 23 21 23 144zM531 378c0 -61 -47 -107 -110 -107c-62 0 -110 46 -110 107s48 107 110 107
s110 -46 110 -107z" />
    <glyph glyph-name="ntilde" unicode="&#xf1;" horiz-adv-x="666" 
d="M166 572c26 119 67 175 135 175c56 0 86 -41 143 -41c22 0 48 10 68 53l20 -11c-31 -127 -71 -177 -132 -177c-55 0 -86 44 -141 44c-24 0 -53 -10 -73 -53zM656 28v-31c-97 5 -204 5 -302 0v31l8 2c18 5 22 18 22 145v141c0 68 -18 93 -52 93c-17 0 -31 -6 -45 -18
c-1 -29 -1 -56 -1 -77v-139c0 -123 -3 -139 22 -145l8 -2v-31c-97 5 -204 5 -302 0v31l17 3c22 4 23 21 23 144v114c0 157 0 179 -31 186l-9 2v31c112 0 184 3 266 19l10 -9c-1 -26 -2 -61 -3 -96c36 59 87 105 169 105c81 0 160 -45 160 -175v-177c0 -123 1 -140 23 -144z
" />
    <glyph glyph-name="nacute" unicode="&#x144;" horiz-adv-x="666" 
d="M547 708c0 -56 -53 -93 -214 -158l-14 13l116 218l18 5c60 -10 94 -38 94 -78zM656 28v-31c-97 5 -204 5 -302 0v31l8 2c18 5 22 18 22 145v141c0 68 -18 93 -52 93c-17 0 -31 -6 -45 -18c-1 -29 -1 -56 -1 -77v-139c0 -123 -3 -139 22 -145l8 -2v-31
c-97 5 -204 5 -302 0v31l17 3c22 4 23 21 23 144v114c0 157 0 179 -31 186l-9 2v31c112 0 184 3 266 19l10 -9c-1 -26 -2 -61 -3 -96c36 59 87 105 169 105c81 0 160 -45 160 -175v-177c0 -123 1 -140 23 -144z" />
    <glyph glyph-name="ncaron" unicode="&#x148;" horiz-adv-x="666" 
d="M341 668l164 118l16 -13l-111 -215h-138l-111 215l16 13zM656 28v-31c-97 5 -204 5 -302 0v31l8 2c18 5 22 18 22 145v141c0 68 -18 93 -52 93c-17 0 -31 -6 -45 -18c-1 -29 -1 -56 -1 -77v-139c0 -123 -3 -139 22 -145l8 -2v-31c-97 5 -204 5 -302 0v31l17 3
c22 4 23 21 23 144v114c0 157 0 179 -31 186l-9 2v31c112 0 184 3 266 19l10 -9c-1 -26 -2 -61 -3 -96c36 59 87 105 169 105c81 0 160 -45 160 -175v-177c0 -123 1 -140 23 -144z" />
    <glyph glyph-name="ncommaaccent" unicode="&#x146;" horiz-adv-x="666" 
d="M656 28v-31c-97 5 -204 5 -302 0v31l8 2c18 5 22 18 22 145v141c0 68 -18 93 -52 93c-17 0 -31 -6 -45 -18c-1 -29 -1 -56 -1 -77v-139c0 -123 -3 -139 22 -145l8 -2v-31c-97 5 -204 5 -302 0v31l17 3c22 4 23 21 23 144v114c0 157 0 179 -31 186l-9 2v31
c112 0 184 3 266 19l10 -9c-1 -26 -2 -61 -3 -96c36 59 87 105 169 105c81 0 160 -45 160 -175v-177c0 -123 1 -140 23 -144zM242 -319l-16 24l29 24c52 43 46 93 -17 167l7 22c27 24 58 37 94 37c55 0 91 -41 91 -87c0 -81 -59 -126 -188 -187z" />
    <glyph glyph-name="eng" unicode="&#x14b;" horiz-adv-x="661" 
d="M372 -208l-37 -10l-11 25l15 10c38 25 45 55 45 214v285c0 68 -18 93 -52 93c-17 0 -31 -6 -45 -18c-1 -29 -1 -56 -1 -77v-139c0 -123 -3 -139 22 -145l8 -2v-31c-97 5 -204 5 -302 0v31l17 3c22 4 23 21 23 144v114c0 157 0 179 -31 186l-9 2v31c112 0 184 3 266 19
l10 -9c-1 -26 -2 -61 -3 -96c36 59 87 105 169 105c81 0 160 -45 160 -175v-308c0 -143 -72 -206 -244 -252z" />
    <glyph glyph-name="napostrophe" unicode="&#x149;" horiz-adv-x="666" 
d="M36 515l-16 24l29 24c52 43 46 93 -17 167l7 22c27 24 58 37 94 37c55 0 91 -41 91 -87c0 -81 -59 -126 -188 -187zM656 28v-31c-97 5 -204 5 -302 0v31l8 2c18 5 22 18 22 145v141c0 68 -18 93 -52 93c-17 0 -31 -6 -45 -18c-1 -29 -1 -56 -1 -77v-139
c0 -123 -3 -139 22 -145l8 -2v-31c-97 5 -204 5 -302 0v31l17 3c22 4 23 21 23 144v114c0 157 0 179 -31 186l-9 2v31c112 0 184 3 266 19l10 -9c-1 -26 -2 -61 -3 -96c36 59 87 105 169 105c81 0 160 -45 160 -175v-177c0 -123 1 -140 23 -144z" />
    <glyph glyph-name="oacute" unicode="&#xf3;" horiz-adv-x="619" 
d="M469 708c0 -56 -53 -93 -214 -158l-14 13l116 218l18 5c60 -10 94 -38 94 -78zM20 252c0 171 132 275 296 275c175 0 283 -114 283 -271c0 -171 -131 -275 -295 -275c-175 0 -284 114 -284 271zM367 133c0 149 -39 355 -82 355c-21 0 -32 -40 -32 -113
c0 -148 39 -355 82 -355c21 0 32 40 32 113z" />
    <glyph glyph-name="ocircumflex" unicode="&#xf4;" horiz-adv-x="619" 
d="M304 666l-164 -118l-16 13l111 215h138l111 -215l-16 -13zM20 252c0 171 132 275 296 275c175 0 283 -114 283 -271c0 -171 -131 -275 -295 -275c-175 0 -284 114 -284 271zM367 133c0 149 -39 355 -82 355c-21 0 -32 -40 -32 -113c0 -148 39 -355 82 -355
c21 0 32 40 32 113z" />
    <glyph glyph-name="odieresis" unicode="&#xf6;" horiz-adv-x="619" 
d="M291 665c0 -55 -41 -97 -99 -97c-57 0 -99 42 -99 97s42 97 99 97s99 -42 99 -97zM521 665c0 -55 -41 -97 -99 -97c-57 0 -99 42 -99 97s42 97 99 97s99 -42 99 -97zM20 252c0 171 132 275 296 275c175 0 283 -114 283 -271c0 -171 -131 -275 -295 -275
c-175 0 -284 114 -284 271zM367 133c0 149 -39 355 -82 355c-21 0 -32 -40 -32 -113c0 -148 39 -355 82 -355c21 0 32 40 32 113z" />
    <glyph glyph-name="ograve" unicode="&#xf2;" horiz-adv-x="619" 
d="M146 708c0 40 34 68 94 78l18 -5l116 -218l-14 -13c-161 65 -214 102 -214 158zM20 252c0 171 132 275 296 275c175 0 283 -114 283 -271c0 -171 -131 -275 -295 -275c-175 0 -284 114 -284 271zM367 133c0 149 -39 355 -82 355c-21 0 -32 -40 -32 -113
c0 -148 39 -355 82 -355c21 0 32 40 32 113z" />
    <glyph glyph-name="otilde" unicode="&#xf5;" horiz-adv-x="619" 
d="M131 572c26 119 67 175 135 175c56 0 86 -41 143 -41c22 0 48 10 68 53l20 -11c-31 -127 -71 -177 -132 -177c-55 0 -86 44 -141 44c-24 0 -53 -10 -73 -53zM20 252c0 171 132 275 296 275c175 0 283 -114 283 -271c0 -171 -131 -275 -295 -275c-175 0 -284 114 -284 271
zM367 133c0 149 -39 355 -82 355c-21 0 -32 -40 -32 -113c0 -148 39 -355 82 -355c21 0 32 40 32 113z" />
    <glyph glyph-name="obreve" unicode="&#x14f;" horiz-adv-x="619" 
d="M466 765c0 -129 -54 -208 -162 -208c-107 0 -162 79 -162 208h24c11 -47 57 -85 138 -85c76 0 127 38 138 85h24zM20 252c0 171 132 275 296 275c175 0 283 -114 283 -271c0 -171 -131 -275 -295 -275c-175 0 -284 114 -284 271zM367 133c0 149 -39 355 -82 355
c-21 0 -32 -40 -32 -113c0 -148 39 -355 82 -355c21 0 32 40 32 113z" />
    <glyph glyph-name="ohungarumlaut" unicode="&#x151;" horiz-adv-x="619" 
d="M365 712c0 -57 -65 -105 -186 -160l-14 11l82 215l18 5c62 -12 100 -35 100 -71zM557 712c0 -57 -65 -105 -186 -160l-14 11l82 215l18 5c62 -12 100 -35 100 -71zM20 252c0 171 132 275 296 275c175 0 283 -114 283 -271c0 -171 -131 -275 -295 -275
c-175 0 -284 114 -284 271zM367 133c0 149 -39 355 -82 355c-21 0 -32 -40 -32 -113c0 -148 39 -355 82 -355c21 0 32 40 32 113z" />
    <glyph glyph-name="omacron" unicode="&#x14d;" horiz-adv-x="619" 
d="M151 600v112h306v-112h-306zM20 252c0 171 132 275 296 275c175 0 283 -114 283 -271c0 -171 -131 -275 -295 -275c-175 0 -284 114 -284 271zM367 133c0 149 -39 355 -82 355c-21 0 -32 -40 -32 -113c0 -148 39 -355 82 -355c21 0 32 40 32 113z" />
    <glyph glyph-name="racute" unicode="&#x155;" horiz-adv-x="531" 
d="M397 708c0 -56 -53 -93 -214 -158l-14 13l116 218l18 5c60 -10 94 -38 94 -78zM353 28v-31c-108 5 -230 5 -339 0v31l8 2c36 9 32 23 32 145v114c0 157 0 179 -31 186l-9 2v31c112 0 184 3 266 19l10 -9c-2 -45 -4 -120 -4 -173c30 124 72 182 150 182
c55 0 87 -43 87 -98c0 -30 -8 -48 -21 -67l-17 -10c-34 10 -60 16 -92 16c-43 0 -87 -9 -107 -72v-121c0 -120 4 -129 49 -142z" />
    <glyph glyph-name="rcaron" unicode="&#x159;" horiz-adv-x="531" 
d="M265 668l164 118l16 -13l-111 -215h-138l-111 215l16 13zM353 28v-31c-108 5 -230 5 -339 0v31l8 2c36 9 32 23 32 145v114c0 157 0 179 -31 186l-9 2v31c112 0 184 3 266 19l10 -9c-2 -45 -4 -120 -4 -173c30 124 72 182 150 182c55 0 87 -43 87 -98
c0 -30 -8 -48 -21 -67l-17 -10c-34 10 -60 16 -92 16c-43 0 -87 -9 -107 -72v-121c0 -120 4 -129 49 -142z" />
    <glyph glyph-name="rcommaaccent" unicode="&#x157;" horiz-adv-x="531" 
d="M353 28v-31c-108 5 -230 5 -339 0v31l8 2c36 9 32 23 32 145v114c0 157 0 179 -31 186l-9 2v31c112 0 184 3 266 19l10 -9c-2 -45 -4 -120 -4 -173c30 124 72 182 150 182c55 0 87 -43 87 -98c0 -30 -8 -48 -21 -67l-17 -10c-34 10 -60 16 -92 16c-43 0 -87 -9 -107 -72
v-121c0 -120 4 -129 49 -142zM87 -319l-16 24l29 24c52 43 46 93 -17 167l7 22c27 24 58 37 94 37c55 0 91 -41 91 -87c0 -81 -59 -126 -188 -187z" />
    <glyph glyph-name="scaron" unicode="&#x161;" horiz-adv-x="490" 
d="M248 668l164 118l16 -13l-111 -215h-138l-111 215l16 13zM244 16c25 0 47 10 47 34c0 50 -58 82 -155 137c-61 35 -116 83 -116 166c0 101 90 174 232 174c76 0 129 -20 175 -49c0 -27 1 -85 4 -128h-25c-41 63 -110 143 -172 143c-22 0 -36 -12 -36 -35
c0 -41 52 -74 144 -121c68 -35 135 -88 135 -182c0 -112 -95 -174 -249 -174c-79 0 -145 19 -204 43c2 45 2 91 0 143h25c58 -87 124 -151 195 -151z" />
    <glyph glyph-name="sacute" unicode="&#x15b;" horiz-adv-x="490" 
d="M410 708c0 -56 -53 -93 -214 -158l-14 13l116 218l18 5c60 -10 94 -38 94 -78zM244 16c25 0 47 10 47 34c0 50 -58 82 -155 137c-61 35 -116 83 -116 166c0 101 90 174 232 174c76 0 129 -20 175 -49c0 -27 1 -85 4 -128h-25c-41 63 -110 143 -172 143
c-22 0 -36 -12 -36 -35c0 -41 52 -74 144 -121c68 -35 135 -88 135 -182c0 -112 -95 -174 -249 -174c-79 0 -145 19 -204 43c2 45 2 91 0 143h25c58 -87 124 -151 195 -151z" />
    <glyph glyph-name="scedilla" unicode="&#x15f;" horiz-adv-x="490" 
d="M368 -163c0 -63 -57 -112 -132 -112c-58 0 -93 23 -119 49l12 22c12 -7 23 -10 39 -10c30 0 51 20 51 55s-23 51 -48 54l-3 14l40 72c-70 3 -130 21 -184 43c2 45 2 91 0 143h25c58 -87 124 -151 195 -151c25 0 47 10 47 34c0 50 -58 82 -155 137
c-61 35 -116 83 -116 166c0 101 90 174 232 174c76 0 129 -20 175 -49c0 -27 1 -85 4 -128h-25c-41 63 -110 143 -172 143c-22 0 -36 -12 -36 -35c0 -41 52 -74 144 -121c68 -35 135 -88 135 -182c0 -107 -87 -169 -229 -174l-29 -47c89 13 149 -30 149 -97z" />
    <glyph glyph-name="scircumflex" unicode="&#x15d;" horiz-adv-x="490" 
d="M248 666l-164 -118l-16 13l111 215h138l111 -215l-16 -13zM244 16c25 0 47 10 47 34c0 50 -58 82 -155 137c-61 35 -116 83 -116 166c0 101 90 174 232 174c76 0 129 -20 175 -49c0 -27 1 -85 4 -128h-25c-41 63 -110 143 -172 143c-22 0 -36 -12 -36 -35
c0 -41 52 -74 144 -121c68 -35 135 -88 135 -182c0 -112 -95 -174 -249 -174c-79 0 -145 19 -204 43c2 45 2 91 0 143h25c58 -87 124 -151 195 -151z" />
    <glyph glyph-name="uni0219" unicode="&#x219;" horiz-adv-x="490" 
d="M244 16c25 0 47 10 47 34c0 50 -58 82 -155 137c-61 35 -116 83 -116 166c0 101 90 174 232 174c76 0 129 -20 175 -49c0 -27 1 -85 4 -128h-25c-41 63 -110 143 -172 143c-22 0 -36 -12 -36 -35c0 -41 52 -74 144 -121c68 -35 135 -88 135 -182
c0 -112 -95 -174 -249 -174c-79 0 -145 19 -204 43c2 45 2 91 0 143h25c58 -87 124 -151 195 -151zM157 -319l-16 24l29 24c52 43 46 93 -17 167l7 22c27 24 58 37 94 37c55 0 91 -41 91 -87c0 -81 -59 -126 -188 -187z" />
    <glyph glyph-name="tbar" unicode="&#x167;" horiz-adv-x="412" 
d="M412 101c-50 -84 -104 -120 -182 -120c-97 0 -167 59 -167 196v105h-58v40h58v146h-58v34l59 13c94 21 148 78 206 152l25 -7v-152h106v-40h-106v-146h106v-40h-106v-93c0 -67 15 -89 50 -89c19 0 35 6 52 18z" />
    <glyph glyph-name="tcaron" unicode="&#x165;" horiz-adv-x="459" 
d="M338 785c18 10 40 15 58 15c40 0 64 -27 64 -65c0 -84 -75 -119 -121 -209l-20 3l6 238zM64 515c94 21 148 78 206 152l25 -7v-152h106v-40h-106v-279c0 -67 15 -89 50 -89c19 0 35 6 52 18l15 -17c-50 -84 -104 -120 -182 -120c-97 0 -167 59 -167 196v291h-58v34z" />
    <glyph glyph-name="uni0163" unicode="&#x163;" horiz-adv-x="412" 
d="M64 515c94 21 148 78 206 152l25 -7v-152h106v-40h-106v-279c0 -67 15 -89 50 -89c19 0 35 6 52 18l15 -17c-50 -84 -104 -120 -182 -120c-97 0 -167 59 -167 196v291h-58v34zM116 -319l-16 24l29 24c52 43 46 93 -17 167l7 22c27 24 58 37 94 37c55 0 91 -41 91 -87
c0 -81 -59 -126 -188 -187z" />
    <glyph glyph-name="uni021B" unicode="&#x21b;" horiz-adv-x="412" 
d="M64 515c94 21 148 78 206 152l25 -7v-152h106v-40h-106v-279c0 -67 15 -89 50 -89c19 0 35 6 52 18l15 -17c-50 -84 -104 -120 -182 -120c-97 0 -167 59 -167 196v291h-58v34zM116 -319l-16 24l29 24c52 43 46 93 -17 167l7 22c27 24 58 37 94 37c55 0 91 -41 91 -87
c0 -81 -59 -126 -188 -187z" />
    <glyph glyph-name="uacute" unicode="&#xfa;" horiz-adv-x="647" 
d="M529 708c0 -56 -53 -93 -214 -158l-14 13l116 218l18 5c60 -10 94 -38 94 -78zM367 86c-30 -65 -86 -105 -165 -105c-85 0 -157 49 -157 175v133c0 157 0 179 -31 186l-9 2v31c112 0 184 3 266 19l10 -9c-3 -56 -4 -156 -4 -209v-117c0 -66 18 -93 49 -93
c14 0 28 8 39 20v170c0 157 0 179 -31 186l-9 2v31c112 0 184 3 266 19l10 -9c-3 -55 -4 -152 -4 -204v-96c0 -133 2 -151 23 -157l17 -5v-31c-81 -9 -168 -23 -252 -42c-7 22 -15 58 -18 103z" />
    <glyph glyph-name="ucircumflex" unicode="&#xfb;" horiz-adv-x="647" 
d="M330 666l-164 -118l-16 13l111 215h138l111 -215l-16 -13zM367 86c-30 -65 -86 -105 -165 -105c-85 0 -157 49 -157 175v133c0 157 0 179 -31 186l-9 2v31c112 0 184 3 266 19l10 -9c-3 -56 -4 -156 -4 -209v-117c0 -66 18 -93 49 -93c14 0 28 8 39 20v170
c0 157 0 179 -31 186l-9 2v31c112 0 184 3 266 19l10 -9c-3 -55 -4 -152 -4 -204v-96c0 -133 2 -151 23 -157l17 -5v-31c-81 -9 -168 -23 -252 -42c-7 22 -15 58 -18 103z" />
    <glyph glyph-name="udieresis" unicode="&#xfc;" horiz-adv-x="647" 
d="M308 665c0 -55 -41 -97 -99 -97c-57 0 -99 42 -99 97s42 97 99 97s99 -42 99 -97zM538 665c0 -55 -41 -97 -99 -97c-57 0 -99 42 -99 97s42 97 99 97s99 -42 99 -97zM367 86c-30 -65 -86 -105 -165 -105c-85 0 -157 49 -157 175v133c0 157 0 179 -31 186l-9 2v31
c112 0 184 3 266 19l10 -9c-3 -56 -4 -156 -4 -209v-117c0 -66 18 -93 49 -93c14 0 28 8 39 20v170c0 157 0 179 -31 186l-9 2v31c112 0 184 3 266 19l10 -9c-3 -55 -4 -152 -4 -204v-96c0 -133 2 -151 23 -157l17 -5v-31c-81 -9 -168 -23 -252 -42c-7 22 -15 58 -18 103z
" />
    <glyph glyph-name="ugrave" unicode="&#xf9;" horiz-adv-x="647" 
d="M154 708c0 40 34 68 94 78l18 -5l116 -218l-14 -13c-161 65 -214 102 -214 158zM367 86c-30 -65 -86 -105 -165 -105c-85 0 -157 49 -157 175v133c0 157 0 179 -31 186l-9 2v31c112 0 184 3 266 19l10 -9c-3 -56 -4 -156 -4 -209v-117c0 -66 18 -93 49 -93
c14 0 28 8 39 20v170c0 157 0 179 -31 186l-9 2v31c112 0 184 3 266 19l10 -9c-3 -55 -4 -152 -4 -204v-96c0 -133 2 -151 23 -157l17 -5v-31c-81 -9 -168 -23 -252 -42c-7 22 -15 58 -18 103z" />
    <glyph glyph-name="ubreve" unicode="&#x16d;" horiz-adv-x="647" 
d="M491 765c0 -129 -54 -208 -162 -208c-107 0 -162 79 -162 208h24c11 -47 57 -85 138 -85c76 0 127 38 138 85h24zM367 86c-30 -65 -86 -105 -165 -105c-85 0 -157 49 -157 175v133c0 157 0 179 -31 186l-9 2v31c112 0 184 3 266 19l10 -9c-3 -56 -4 -156 -4 -209v-117
c0 -66 18 -93 49 -93c14 0 28 8 39 20v170c0 157 0 179 -31 186l-9 2v31c112 0 184 3 266 19l10 -9c-3 -55 -4 -152 -4 -204v-96c0 -133 2 -151 23 -157l17 -5v-31c-81 -9 -168 -23 -252 -42c-7 22 -15 58 -18 103z" />
    <glyph glyph-name="uhungarumlaut" unicode="&#x171;" horiz-adv-x="647" 
d="M407 712c0 -57 -65 -105 -186 -160l-14 11l82 215l18 5c62 -12 100 -35 100 -71zM599 712c0 -57 -65 -105 -186 -160l-14 11l82 215l18 5c62 -12 100 -35 100 -71zM367 86c-30 -65 -86 -105 -165 -105c-85 0 -157 49 -157 175v133c0 157 0 179 -31 186l-9 2v31
c112 0 184 3 266 19l10 -9c-3 -56 -4 -156 -4 -209v-117c0 -66 18 -93 49 -93c14 0 28 8 39 20v170c0 157 0 179 -31 186l-9 2v31c112 0 184 3 266 19l10 -9c-3 -55 -4 -152 -4 -204v-96c0 -133 2 -151 23 -157l17 -5v-31c-81 -9 -168 -23 -252 -42c-7 22 -15 58 -18 103z
" />
    <glyph glyph-name="umacron" unicode="&#x16b;" horiz-adv-x="647" 
d="M174 600v112h306v-112h-306zM367 86c-30 -65 -86 -105 -165 -105c-85 0 -157 49 -157 175v133c0 157 0 179 -31 186l-9 2v31c112 0 184 3 266 19l10 -9c-3 -56 -4 -156 -4 -209v-117c0 -66 18 -93 49 -93c14 0 28 8 39 20v170c0 157 0 179 -31 186l-9 2v31
c112 0 184 3 266 19l10 -9c-3 -55 -4 -152 -4 -204v-96c0 -133 2 -151 23 -157l17 -5v-31c-81 -9 -168 -23 -252 -42c-7 22 -15 58 -18 103z" />
    <glyph glyph-name="uogonek" unicode="&#x173;" horiz-adv-x="647" 
d="M627 -169c-34 -68 -81 -106 -149 -106c-61 0 -107 36 -107 102c0 75 77 145 203 192c-62 -9 -126 -22 -189 -36c-7 22 -15 58 -18 103c-30 -65 -86 -105 -165 -105c-85 0 -157 49 -157 175v133c0 157 0 179 -31 186l-9 2v31c112 0 184 3 266 19l10 -9
c-3 -56 -4 -156 -4 -209v-117c0 -66 18 -93 49 -93c14 0 28 8 39 20v170c0 157 0 179 -31 186l-9 2v31c112 0 184 3 266 19l10 -9c-3 -55 -4 -152 -4 -204v-96c0 -133 2 -151 23 -157l17 -5v-31c-70 -26 -118 -80 -118 -145c0 -39 14 -64 48 -64c18 0 30 10 44 28z" />
    <glyph glyph-name="uring" unicode="&#x16f;" horiz-adv-x="647" 
d="M471 689c0 -75 -61 -135 -136 -135s-136 60 -136 135c0 76 61 136 136 136s136 -60 136 -136zM246 689c0 -52 40 -93 89 -93c48 0 89 41 89 93s-41 94 -89 94c-49 0 -89 -42 -89 -94zM367 86c-30 -65 -86 -105 -165 -105c-85 0 -157 49 -157 175v133c0 157 0 179 -31 186
l-9 2v31c112 0 184 3 266 19l10 -9c-3 -56 -4 -156 -4 -209v-117c0 -66 18 -93 49 -93c14 0 28 8 39 20v170c0 157 0 179 -31 186l-9 2v31c112 0 184 3 266 19l10 -9c-3 -55 -4 -152 -4 -204v-96c0 -133 2 -151 23 -157l17 -5v-31c-81 -9 -168 -23 -252 -42
c-7 22 -15 58 -18 103z" />
    <glyph glyph-name="utilde" unicode="&#x169;" horiz-adv-x="647" 
d="M153 572c26 119 67 175 135 175c56 0 86 -41 143 -41c22 0 48 10 68 53l20 -11c-31 -127 -71 -177 -132 -177c-55 0 -86 44 -141 44c-24 0 -53 -10 -73 -53zM367 86c-30 -65 -86 -105 -165 -105c-85 0 -157 49 -157 175v133c0 157 0 179 -31 186l-9 2v31
c112 0 184 3 266 19l10 -9c-3 -56 -4 -156 -4 -209v-117c0 -66 18 -93 49 -93c14 0 28 8 39 20v170c0 157 0 179 -31 186l-9 2v31c112 0 184 3 266 19l10 -9c-3 -55 -4 -152 -4 -204v-96c0 -133 2 -151 23 -157l17 -5v-31c-81 -9 -168 -23 -252 -42c-7 22 -15 58 -18 103z
" />
    <glyph glyph-name="wacute" unicode="&#x1e83;" horiz-adv-x="929" 
d="M692 708c0 -56 -53 -93 -214 -158l-14 13l116 218l18 5c60 -10 94 -38 94 -78zM835 347l-118 -348c-44 2 -89 2 -133 0l-118 312l-111 -312c-46 2 -93 2 -141 0l-151 395c-28 73 -33 79 -47 83l-11 3v31c105 -5 220 -5 325 0v-31l-11 -4c-20 -7 -32 -23 -9 -91l72 -213
l65 191l-13 33c-27 71 -30 77 -45 81l-12 3v31c104 -5 218 -5 321 0v-31l-16 -4c-20 -5 -31 -23 -9 -91l69 -211l56 183c24 79 6 112 -23 120l-11 3v31c47 -3 114 -4 160 0v-31l-12 -5c-29 -12 -47 -40 -77 -128z" />
    <glyph glyph-name="wcircumflex" unicode="&#x175;" horiz-adv-x="929" 
d="M471 666l-164 -118l-16 13l111 215h138l111 -215l-16 -13zM835 347l-118 -348c-44 2 -89 2 -133 0l-118 312l-111 -312c-46 2 -93 2 -141 0l-151 395c-28 73 -33 79 -47 83l-11 3v31c105 -5 220 -5 325 0v-31l-11 -4c-20 -7 -32 -23 -9 -91l72 -213l65 191l-13 33
c-27 71 -30 77 -45 81l-12 3v31c104 -5 218 -5 321 0v-31l-16 -4c-20 -5 -31 -23 -9 -91l69 -211l56 183c24 79 6 112 -23 120l-11 3v31c47 -3 114 -4 160 0v-31l-12 -5c-29 -12 -47 -40 -77 -128z" />
    <glyph glyph-name="wdieresis" unicode="&#x1e85;" horiz-adv-x="929" 
d="M454 665c0 -55 -41 -97 -99 -97c-57 0 -99 42 -99 97s42 97 99 97s99 -42 99 -97zM684 665c0 -55 -41 -97 -99 -97c-57 0 -99 42 -99 97s42 97 99 97s99 -42 99 -97zM835 347l-118 -348c-44 2 -89 2 -133 0l-118 312l-111 -312c-46 2 -93 2 -141 0l-151 395
c-28 73 -33 79 -47 83l-11 3v31c105 -5 220 -5 325 0v-31l-11 -4c-20 -7 -32 -23 -9 -91l72 -213l65 191l-13 33c-27 71 -30 77 -45 81l-12 3v31c104 -5 218 -5 321 0v-31l-16 -4c-20 -5 -31 -23 -9 -91l69 -211l56 183c24 79 6 112 -23 120l-11 3v31c47 -3 114 -4 160 0
v-31l-12 -5c-29 -12 -47 -40 -77 -128z" />
    <glyph glyph-name="wgrave" unicode="&#x1e81;" horiz-adv-x="929" 
d="M296 708c0 40 34 68 94 78l18 -5l116 -218l-14 -13c-161 65 -214 102 -214 158zM835 347l-118 -348c-44 2 -89 2 -133 0l-118 312l-111 -312c-46 2 -93 2 -141 0l-151 395c-28 73 -33 79 -47 83l-11 3v31c105 -5 220 -5 325 0v-31l-11 -4c-20 -7 -32 -23 -9 -91l72 -213
l65 191l-13 33c-27 71 -30 77 -45 81l-12 3v31c104 -5 218 -5 321 0v-31l-16 -4c-20 -5 -31 -23 -9 -91l69 -211l56 183c24 79 6 112 -23 120l-11 3v31c47 -3 114 -4 160 0v-31l-12 -5c-29 -12 -47 -40 -77 -128z" />
    <glyph glyph-name="yacute" unicode="&#xfd;" horiz-adv-x="587" 
d="M497 708c0 -56 -53 -93 -214 -158l-14 13l116 218l18 5c60 -10 94 -38 94 -78zM338 18c-85 -207 -137 -247 -202 -247c-59 0 -82 58 -86 120l8 18c116 -16 204 5 240 96l4 11h-51l-165 365c-35 77 -50 91 -69 96l-12 3v31c112 -6 235 -6 347 0v-31l-11 -4
c-30 -11 -41 -20 -11 -91l63 -150l41 115c33 93 21 117 -9 126l-14 4v31c49 -4 121 -4 171 0v-31l-17 -5c-29 -9 -52 -32 -99 -146z" />
    <glyph glyph-name="ydieresis" unicode="&#xff;" horiz-adv-x="587" 
d="M290 665c0 -55 -41 -97 -99 -97c-57 0 -99 42 -99 97s42 97 99 97s99 -42 99 -97zM520 665c0 -55 -41 -97 -99 -97c-57 0 -99 42 -99 97s42 97 99 97s99 -42 99 -97zM338 18c-85 -207 -137 -247 -202 -247c-59 0 -82 58 -86 120l8 18c116 -16 204 5 240 96l4 11h-51
l-165 365c-35 77 -50 91 -69 96l-12 3v31c112 -6 235 -6 347 0v-31l-11 -4c-30 -11 -41 -20 -11 -91l63 -150l41 115c33 93 21 117 -9 126l-14 4v31c49 -4 121 -4 171 0v-31l-17 -5c-29 -9 -52 -32 -99 -146z" />
    <glyph glyph-name="ycircumflex" unicode="&#x177;" horiz-adv-x="587" 
d="M295 666l-164 -118l-16 13l111 215h138l111 -215l-16 -13zM338 18c-85 -207 -137 -247 -202 -247c-59 0 -82 58 -86 120l8 18c116 -16 204 5 240 96l4 11h-51l-165 365c-35 77 -50 91 -69 96l-12 3v31c112 -6 235 -6 347 0v-31l-11 -4c-30 -11 -41 -20 -11 -91l63 -150
l41 115c33 93 21 117 -9 126l-14 4v31c49 -4 121 -4 171 0v-31l-17 -5c-29 -9 -52 -32 -99 -146z" />
    <glyph glyph-name="ygrave" unicode="&#x1ef3;" horiz-adv-x="587" 
d="M143 708c0 40 34 68 94 78l18 -5l116 -218l-14 -13c-161 65 -214 102 -214 158zM338 18c-85 -207 -137 -247 -202 -247c-59 0 -82 58 -86 120l8 18c116 -16 204 5 240 96l4 11h-51l-165 365c-35 77 -50 91 -69 96l-12 3v31c112 -6 235 -6 347 0v-31l-11 -4
c-30 -11 -41 -20 -11 -91l63 -150l41 115c33 93 21 117 -9 126l-14 4v31c49 -4 121 -4 171 0v-31l-17 -5c-29 -9 -52 -32 -99 -146z" />
    <glyph glyph-name="zcaron" unicode="&#x17e;" horiz-adv-x="522" 
d="M274 668l164 118l16 -13l-111 -215h-138l-111 215l16 13zM510 190c-4 -47 -6 -139 -2 -193c-159 6 -335 6 -498 0v29l245 448c-106 -12 -154 -35 -183 -112l-14 -37l-24 5c6 46 12 120 15 180c151 -5 303 -5 452 0v-30l-245 -446c115 10 192 41 222 134l7 22h25z" />
    <glyph glyph-name="zacute" unicode="&#x17a;" horiz-adv-x="522" 
d="M450 708c0 -56 -53 -93 -214 -158l-14 13l116 218l18 5c60 -10 94 -38 94 -78zM510 190c-4 -47 -6 -139 -2 -193c-159 6 -335 6 -498 0v29l245 448c-106 -12 -154 -35 -183 -112l-14 -37l-24 5c6 46 12 120 15 180c151 -5 303 -5 452 0v-30l-245 -446
c115 10 192 41 222 134l7 22h25z" />
    <glyph glyph-name="zdotaccent" unicode="&#x17c;" horiz-adv-x="522" 
d="M390 664c0 -63 -48 -111 -114 -111c-65 0 -114 48 -114 111s49 111 114 111s114 -48 114 -111zM510 190c-4 -47 -6 -139 -2 -193c-159 6 -335 6 -498 0v29l245 448c-106 -12 -154 -35 -183 -112l-14 -37l-24 5c6 46 12 120 15 180c151 -5 303 -5 452 0v-30l-245 -446
c115 10 192 41 222 134l7 22h25z" />
    <glyph glyph-name="acute" unicode="&#xb4;" 
d="M402 708c0 -56 -53 -93 -214 -158l-14 13l116 218l18 5c60 -10 94 -38 94 -78z" />
    <glyph glyph-name="grave" unicode="`" 
d="M102 708c0 40 34 68 94 78l18 -5l116 -218l-14 -13c-161 65 -214 102 -214 158z" />
    <glyph glyph-name="circumflex" unicode="&#x2c6;" 
d="M250 666l-164 -118l-16 13l111 215h138l111 -215l-16 -13z" />
    <glyph glyph-name="caron" unicode="&#x2c7;" 
d="M250 668l164 118l16 -13l-111 -215h-138l-111 215l16 13z" />
    <glyph glyph-name="tilde" unicode="&#x2dc;" 
d="M65 572c26 119 67 175 135 175c56 0 86 -41 143 -41c22 0 48 10 68 53l20 -11c-31 -127 -71 -177 -132 -177c-55 0 -86 44 -141 44c-24 0 -53 -10 -73 -53z" />
    <glyph glyph-name="dieresis" unicode="&#xa8;" 
d="M234 665c0 -55 -41 -97 -99 -97c-57 0 -99 42 -99 97s42 97 99 97s99 -42 99 -97zM464 665c0 -55 -41 -97 -99 -97c-57 0 -99 42 -99 97s42 97 99 97s99 -42 99 -97z" />
    <glyph glyph-name="ring" unicode="&#x2da;" 
d="M386 689c0 -75 -61 -135 -136 -135s-136 60 -136 135c0 76 61 136 136 136s136 -60 136 -136zM161 689c0 -52 40 -93 89 -93c48 0 89 41 89 93s-41 94 -89 94c-49 0 -89 -42 -89 -94z" />
    <glyph glyph-name="cedilla" unicode="&#xb8;" 
d="M232 0l42 2l-41 -68c89 13 149 -30 149 -97c0 -63 -57 -112 -132 -112c-58 0 -93 23 -119 49l12 22c12 -7 23 -10 39 -10c30 0 51 20 51 55s-23 51 -48 54l-3 14z" />
    <glyph glyph-name="hungarumlaut" unicode="&#x2dd;" 
d="M311 712c0 -57 -65 -105 -186 -160l-14 11l82 215l18 5c62 -12 100 -35 100 -71zM503 712c0 -57 -65 -105 -186 -160l-14 11l82 215l18 5c62 -12 100 -35 100 -71z" />
    <glyph glyph-name="breve" unicode="&#x2d8;" 
d="M412 765c0 -129 -54 -208 -162 -208c-107 0 -162 79 -162 208h24c11 -47 57 -85 138 -85c76 0 127 38 138 85h24z" />
    <glyph glyph-name="macron" unicode="&#xaf;" 
d="M97 600v112h306v-112h-306z" />
    <glyph glyph-name="dotaccent" unicode="&#x2d9;" 
d="M364 664c0 -63 -48 -111 -114 -111c-65 0 -114 48 -114 111s49 111 114 111s114 -48 114 -111z" />
    <glyph glyph-name="periodcentered" unicode="&#xb7;" horiz-adv-x="356" 
d="M296 349c0 -66 -50 -115 -118 -115c-67 0 -118 49 -118 115s51 115 118 115s118 -49 118 -115z" />
    <glyph glyph-name="ogonek" unicode="&#x2db;" 
d="M343 18l4 -6c-65 -34 -88 -88 -88 -132c0 -39 13 -64 46 -64c18 0 30 10 44 28l16 -13c-34 -68 -81 -106 -149 -106c-61 0 -107 36 -107 102c0 72 80 147 234 191z" />
    <glyph glyph-name="commaaccent" unicode="&#xf6c3;" 
d="M159 -319l-16 24l29 24c52 43 46 93 -17 167l7 22c27 24 58 37 94 37c55 0 91 -41 91 -87c0 -81 -59 -126 -188 -187z" />
    <glyph glyph-name="caron.alt" 
d="M195 725c18 10 40 15 58 15c40 0 64 -27 64 -65c0 -84 -75 -119 -121 -209l-20 3l6 238z" />
    <glyph glyph-name="revcommaaccent" 
d="M347 830l16 -24l-29 -24c-60 -49 -52 -99 13 -167l-7 -22c-26 -23 -56 -37 -90 -37c-54 0 -89 41 -89 87c0 79 58 124 186 187z" />
    <glyph glyph-name="period" unicode="." horiz-adv-x="304" 
d="M274 101c0 -69 -51 -120 -122 -120c-69 0 -122 51 -122 120c0 68 53 119 122 119c70 0 122 -51 122 -119z" />
    <glyph glyph-name="comma" unicode="," horiz-adv-x="304" 
d="M21 -183l-17 28c89 73 94 138 38 326l16 21c32 17 56 28 90 28c79 0 116 -65 116 -121c0 -112 -102 -195 -243 -282z" />
    <glyph glyph-name="colon" unicode=":" horiz-adv-x="304" 
d="M274 403c0 -69 -51 -120 -122 -120c-69 0 -122 51 -122 120c0 68 53 119 122 119c70 0 122 -51 122 -119zM274 101c0 -69 -51 -120 -122 -120c-69 0 -122 51 -122 120c0 68 53 119 122 119c70 0 122 -51 122 -119z" />
    <glyph glyph-name="semicolon" unicode=";" horiz-adv-x="304" 
d="M274 403c0 -69 -51 -120 -122 -120c-69 0 -122 51 -122 120c0 68 53 119 122 119c70 0 122 -51 122 -119zM21 -183l-17 28c89 73 94 138 38 326l16 21c32 17 56 28 90 28c79 0 116 -65 116 -121c0 -112 -102 -195 -243 -282z" />
    <glyph glyph-name="ellipsis" unicode="&#x2026;" horiz-adv-x="954" 
d="M274 101c0 -69 -51 -120 -122 -120c-69 0 -122 51 -122 120c0 68 53 119 122 119c70 0 122 -51 122 -119zM599 101c0 -69 -51 -120 -122 -120c-69 0 -122 51 -122 120c0 68 53 119 122 119c70 0 122 -51 122 -119zM924 101c0 -69 -51 -120 -122 -120
c-69 0 -122 51 -122 120c0 68 53 119 122 119c70 0 122 -51 122 -119z" />
    <glyph glyph-name="question" unicode="?" horiz-adv-x="617" 
d="M218 695c-46 0 -52 -75 -35 -213l-19 -6c-71 2 -134 21 -134 82c0 96 142 182 290 182c178 0 267 -83 267 -167c0 -177 -307 -124 -307 -231c0 -27 17 -50 50 -50c41 0 66 32 81 65l34 -18c-28 -51 -67 -82 -124 -82c-52 0 -115 28 -115 95c0 86 79 102 79 232
c0 67 -31 111 -67 111zM428 95c0 -65 -49 -114 -116 -114c-66 0 -116 49 -116 114s50 114 116 114c67 0 116 -49 116 -114z" />
    <glyph glyph-name="exclam" unicode="!" horiz-adv-x="392" 
d="M342 607c0 -123 -105 -192 -131 -340h-30c-26 148 -131 217 -131 340c0 76 48 133 146 133s146 -57 146 -133zM313 95c0 -65 -49 -114 -116 -114c-66 0 -116 49 -116 114s50 114 116 114c67 0 116 -49 116 -114z" />
    <glyph glyph-name="questiondown" unicode="&#xbf;" horiz-adv-x="617" 
d="M189 413c0 65 49 114 116 114c66 0 116 -49 116 -114s-50 -114 -116 -114c-67 0 -116 49 -116 114zM399 -187c46 0 52 75 35 213l19 6c71 -2 134 -21 134 -82c0 -96 -142 -182 -290 -182c-178 0 -267 83 -267 167c0 177 307 124 307 231c0 27 -17 50 -50 50
c-41 0 -66 -32 -81 -65l-34 18c28 51 67 82 124 82c52 0 115 -28 115 -95c0 -86 -79 -102 -79 -232c0 -67 31 -111 67 -111z" />
    <glyph glyph-name="exclamdown" unicode="&#xa1;" horiz-adv-x="392" 
d="M79 413c0 65 49 114 116 114c66 0 116 -49 116 -114s-50 -114 -116 -114c-67 0 -116 49 -116 114zM50 -99c0 123 105 192 131 340h30c26 -148 131 -217 131 -340c0 -76 -48 -133 -146 -133s-146 57 -146 133z" />
    <glyph glyph-name="parenleft" unicode="(" horiz-adv-x="474" 
d="M60 297c0 206 147 385 382 463l10 -17c-138 -129 -180 -282 -180 -446c0 -159 42 -317 180 -446l-10 -17c-235 78 -382 257 -382 463z" />
    <glyph glyph-name="parenright" unicode=")" horiz-adv-x="474" 
d="M414 297c0 -206 -147 -385 -382 -463l-10 17c138 129 180 287 180 446c0 164 -42 317 -180 446l10 17c235 -78 382 -257 382 -463z" />
    <glyph glyph-name="braceleft" unicode="{" horiz-adv-x="554" 
d="M168 297c164 0 230 -78 230 -177c0 -61 -20 -115 -20 -163c0 -37 20 -53 55 -53c23 0 41 7 57 17l13 -23c-44 -40 -96 -64 -176 -64c-112 0 -161 62 -161 130c0 78 30 126 30 200s-33 113 -96 113h-24v40h24c63 0 96 40 96 113c0 74 -30 122 -30 200c0 68 49 130 161 130
c80 0 132 -24 176 -64l-13 -23c-16 10 -34 17 -57 17c-35 0 -55 -16 -55 -53c0 -48 20 -102 20 -163c0 -99 -66 -177 -230 -177z" />
    <glyph glyph-name="braceright" unicode="}" horiz-adv-x="554" 
d="M386 297c-164 0 -230 78 -230 177c0 61 20 115 20 163c0 37 -20 53 -55 53c-23 0 -41 -7 -57 -17l-13 23c44 40 96 64 176 64c112 0 161 -62 161 -130c0 -78 -30 -126 -30 -200c0 -73 33 -113 96 -113h24v-40h-24c-63 0 -96 -39 -96 -113s30 -122 30 -200
c0 -68 -49 -130 -161 -130c-80 0 -132 24 -176 64l13 23c16 -10 34 -17 57 -17c35 0 55 16 55 53c0 48 -20 102 -20 163c0 99 66 177 230 177z" />
    <glyph glyph-name="bracketleft" unicode="[" horiz-adv-x="474" 
d="M120 -166v926h329v-40h-137v-846h137v-40h-329z" />
    <glyph glyph-name="bracketright" unicode="]" horiz-adv-x="474" 
d="M354 -166h-329v40h137v846h-137v40h329v-926z" />
    <glyph glyph-name="slash" unicode="/" horiz-adv-x="419" 
d="M0 -90l354 860h65l-354 -860h-65z" />
    <glyph glyph-name="backslash" unicode="\" horiz-adv-x="419" 
d="M419 -90h-65l-354 860h65z" />
    <glyph glyph-name="underscore" unicode="_" horiz-adv-x="420" 
d="M10 -125v75h400v-75h-400z" />
    <glyph glyph-name="hyphen" unicode="-" horiz-adv-x="334" 
d="M40 273v115h254v-115h-254z" />
    <glyph glyph-name="uni00AD" unicode="&#xad;" horiz-adv-x="0" 
 />
    <glyph glyph-name="endash" unicode="&#x2013;" 
d="M30 288v85h440v-85h-440z" />
    <glyph glyph-name="emdash" unicode="&#x2014;" horiz-adv-x="1000" 
d="M30 288v85h940v-85h-940z" />
    <glyph glyph-name="brokenbar" unicode="&#xa6;" horiz-adv-x="222" 
d="M60 430v390h102v-390h-102zM60 -140v390h102v-390h-102z" />
    <glyph glyph-name="bar" unicode="|" horiz-adv-x="222" 
d="M60 -140v960h102v-960h-102z" />
    <glyph glyph-name="guillemotleft" unicode="&#xab;" horiz-adv-x="575" 
d="M35 205v99l247 200l19 -13l-110 -237l110 -236l-19 -13zM274 205v99l247 200l19 -13l-110 -237l110 -236l-19 -13z" />
    <glyph glyph-name="guillemotright" unicode="&#xbb;" horiz-adv-x="575" 
d="M301 205l-247 -200l-19 13l110 236l-110 237l19 13l247 -200v-99zM540 205l-247 -200l-19 13l110 236l-110 237l19 13l247 -200v-99z" />
    <glyph glyph-name="guilsinglleft" unicode="&#x2039;" horiz-adv-x="336" 
d="M35 205v99l247 200l19 -13l-110 -237l110 -236l-19 -13z" />
    <glyph glyph-name="guilsinglright" unicode="&#x203a;" horiz-adv-x="336" 
d="M301 205l-247 -200l-19 13l110 236l-110 237l19 13l247 -200v-99z" />
    <glyph glyph-name="quotesinglbase" unicode="&#x201a;" horiz-adv-x="310" 
d="M56 -181l-16 26l34 31c63 57 36 119 -26 228l14 21c25 21 53 38 91 38c74 0 107 -55 107 -108c0 -99 -83 -173 -204 -236z" />
    <glyph glyph-name="quotedblbase" unicode="&#x201e;" horiz-adv-x="551" 
d="M56 -181l-16 26l34 31c63 57 36 119 -26 228l14 21c25 21 53 38 91 38c74 0 107 -55 107 -108c0 -99 -83 -173 -204 -236zM297 -181l-16 26l34 31c63 57 36 119 -26 228l14 21c25 21 53 38 91 38c74 0 107 -55 107 -108c0 -99 -83 -173 -204 -236z" />
    <glyph glyph-name="quoteleft" unicode="&#x2018;" horiz-adv-x="310" 
d="M254 706l16 -26l-34 -31c-63 -57 -36 -119 26 -228l-14 -21c-25 -21 -53 -38 -91 -38c-74 0 -107 55 -107 108c0 99 83 173 204 236z" />
    <glyph glyph-name="quotedblleft" unicode="&#x201c;" horiz-adv-x="551" 
d="M254 706l16 -26l-34 -31c-63 -57 -36 -119 26 -228l-14 -21c-25 -21 -53 -38 -91 -38c-74 0 -107 55 -107 108c0 99 83 173 204 236zM495 706l16 -26l-34 -31c-63 -57 -36 -119 26 -228l-14 -21c-25 -21 -53 -38 -91 -38c-74 0 -107 55 -107 108c0 99 83 173 204 236z
" />
    <glyph glyph-name="quoteright" unicode="&#x2019;" horiz-adv-x="310" 
d="M56 355l-16 26l34 31c63 57 36 119 -26 228l14 21c25 21 53 38 91 38c74 0 107 -55 107 -108c0 -99 -83 -173 -204 -236z" />
    <glyph glyph-name="quotedblright" unicode="&#x201d;" horiz-adv-x="551" 
d="M56 355l-16 26l34 31c63 57 36 119 -26 228l14 21c25 21 53 38 91 38c74 0 107 -55 107 -108c0 -99 -83 -173 -204 -236zM297 355l-16 26l34 31c63 57 36 119 -26 228l14 21c25 21 53 38 91 38c74 0 107 -55 107 -108c0 -99 -83 -173 -204 -236z" />
    <glyph glyph-name="quotesingle" unicode="'" horiz-adv-x="278" 
d="M122 363c-9 138 -72 167 -72 249c0 62 46 87 89 87s89 -26 89 -87c0 -82 -63 -111 -72 -249h-34z" />
    <glyph glyph-name="quotedbl" unicode="&#x22;" horiz-adv-x="492" 
d="M122 363c-9 138 -72 167 -72 249c0 62 46 87 89 87s89 -26 89 -87c0 -82 -63 -111 -72 -249h-34zM336 363c-9 138 -72 167 -72 249c0 62 46 87 89 87s89 -26 89 -87c0 -82 -63 -111 -72 -249h-34z" />
    <glyph glyph-name="bullet" unicode="&#x2022;" horiz-adv-x="512" 
d="M256 154c-108 0 -196 88 -196 196s88 196 196 196s196 -88 196 -196s-88 -196 -196 -196z" />
    <glyph glyph-name="ampersand" unicode="&#x26;" horiz-adv-x="879" 
d="M554 -3l-99 116c-42 -80 -112 -132 -198 -132c-159 0 -237 110 -237 204c0 112 77 167 205 206c-29 46 -43 90 -43 128c0 107 102 180 256 180c118 0 210 -46 210 -136c0 -66 -69 -102 -170 -116l105 -127c32 89 86 137 153 137c61 0 104 -43 104 -101
c0 -57 -35 -97 -78 -114l-21 2c-35 75 -62 93 -83 93c-20 0 -32 -10 -53 -43l104 -125c89 -107 122 -130 153 -138l12 -3v-31c-97 6 -220 6 -320 0zM433 501l25 -30c43 45 47 83 47 114c0 45 -23 77 -55 77c-33 0 -53 -29 -53 -69c0 -28 11 -62 36 -92zM241 310
c0 -93 62 -172 162 -172c10 0 19 2 26 5l-164 193c-7 8 -13 16 -19 23c-4 -13 -5 -31 -5 -49z" />
    <glyph glyph-name="paragraph" unicode="&#xb6;" horiz-adv-x="755" 
d="M349 -228c-130 0 -246 61 -246 148c0 37 30 58 68 58l20 -4c44 -82 90 -166 153 -166c66 0 99 51 99 185v657h-21c-41 0 -42 -10 -42 -102v-657c-15 -6 -27 -14 -40 -26l-12 6v374c-207 2 -303 83 -303 227s108 211 260 211c72 0 146 -4 228 -4c86 0 164 3 217 4v-31
l-17 -3c-22 -4 -23 -21 -23 -144v-452c0 -190 -131 -281 -341 -281z" />
    <glyph glyph-name="dagger" unicode="&#x2020;" horiz-adv-x="648" 
d="M403 663c0 -55 -56 -114 -63 -201c87 7 146 63 201 63c53 0 77 -35 77 -79c0 -42 -23 -79 -79 -79c-53 0 -111 56 -199 63v-39c0 -131 78 -220 78 -303c0 -74 -42 -107 -94 -107c-50 0 -94 32 -94 109c0 81 78 168 78 301v39c-88 -7 -146 -63 -199 -63
c-56 0 -79 37 -79 79c0 44 24 79 77 79c55 0 114 -56 201 -63c-7 88 -63 146 -63 199c0 56 37 79 79 79c44 0 79 -24 79 -77z" />
    <glyph glyph-name="daggerdbl" unicode="&#x2021;" horiz-adv-x="648" 
d="M403 663c0 -55 -56 -114 -63 -201c87 7 146 63 201 63c53 0 77 -35 77 -79c0 -42 -23 -79 -79 -79c-53 0 -111 56 -199 63v-10c0 -104 46 -158 121 -188l-12 -29c-97 40 -141 104 -141 217v10c-88 -7 -146 -63 -199 -63c-56 0 -79 37 -79 79c0 44 24 79 77 79
c55 0 114 -56 201 -63c-7 88 -63 146 -63 199c0 56 37 79 79 79c44 0 79 -24 79 -77zM199 308c97 -40 141 -104 141 -217v-10c88 7 146 63 199 63c56 0 79 -37 79 -79c0 -44 -24 -79 -77 -79c-55 0 -114 56 -201 63c7 -88 63 -146 63 -199c0 -56 -37 -79 -79 -79
c-44 0 -79 24 -79 77c0 55 56 114 63 201c-87 -7 -146 -63 -201 -63c-53 0 -77 35 -77 79c0 42 23 79 79 79c53 0 111 -56 199 -63v10c0 104 -46 158 -121 188z" />
    <glyph glyph-name="section" unicode="&#xa7;" horiz-adv-x="519" 
d="M470 13c0 -99 -85 -170 -220 -170c-124 0 -189 59 -189 111c0 33 27 54 61 54l19 -6c40 -72 87 -129 129 -129c21 0 36 13 36 40c0 38 -26 62 -140 116c-71 34 -135 88 -135 182c0 96 54 148 115 173c-56 37 -91 79 -91 145c0 99 85 170 220 170c124 0 189 -59 189 -111
c0 -33 -27 -54 -61 -54l-19 6c-40 72 -87 129 -129 129c-21 0 -36 -13 -36 -40c0 -38 26 -62 140 -116c71 -34 135 -88 135 -182c0 -96 -54 -148 -115 -173c56 -37 91 -79 91 -145zM333 184c8 -4 17 -9 24 -13c5 10 7 19 7 29c0 69 -57 97 -172 158c-8 4 -17 9 -24 13
c-5 -10 -7 -19 -7 -29c0 -69 57 -97 172 -158z" />
    <glyph glyph-name="asterisk" unicode="*" horiz-adv-x="532" 
d="M410 289c-32 -23 -69 -25 -95 11c-29 40 -22 105 -49 163c-27 -58 -21 -124 -48 -162c-27 -37 -65 -34 -94 -13c-32 23 -45 57 -18 94c28 39 93 52 140 96c-65 8 -124 -19 -170 -4c-43 14 -53 51 -41 85c12 37 40 61 83 47c47 -16 78 -73 135 -103
c-12 63 -56 111 -56 159c0 46 32 66 68 66c39 0 70 -20 70 -65c0 -50 -45 -97 -57 -160c57 30 90 87 135 102c44 15 73 -10 84 -44c12 -37 2 -73 -40 -87c-47 -15 -107 12 -170 4c47 -43 111 -58 139 -96c27 -37 13 -72 -16 -93z" />
    <glyph glyph-name="trademark" unicode="&#x2122;" horiz-adv-x="1052" 
d="M151 382v275l-16 -5c-32 -10 -52 -37 -83 -104l-12 -26l-20 2c4 54 8 108 8 160c134 -4 270 -4 406 0c0 -52 3 -106 7 -160l-20 -2l-12 26c-35 75 -52 95 -82 104l-17 5v-275c0 -74 0 -83 19 -86l14 -2v-23c-69 4 -157 4 -225 0v23l13 2c18 3 20 12 20 86zM1022 294v-23
c-66 4 -149 4 -213 0v23l12 2c14 2 14 12 14 86v179l-129 -267h-43l-136 277v-191c0 -64 7 -77 39 -84l9 -2v-23c-38 3 -92 3 -130 0v23l13 3c23 5 34 18 34 82v225c0 22 -3 39 -26 53l-10 6v21c62 -5 124 -5 186 0l107 -216l105 216c55 -4 111 -4 168 0v-21l-12 -1
c-14 -1 -14 -13 -14 -82v-198c0 -74 0 -84 14 -86z" />
    <glyph glyph-name="registered" unicode="&#xae;" horiz-adv-x="815" 
d="M407 74c-202 0 -382 151 -382 380c0 244 191 399 382 399c203 0 383 -151 383 -380c0 -244 -188 -399 -383 -399zM407 809c-168 0 -331 -143 -331 -350c0 -205 154 -341 331 -341c169 0 331 140 331 350c0 203 -153 341 -331 341zM659 292v-20c-58 3 -125 3 -184 0
l-99 182v-73c0 -74 1 -84 12 -87l7 -2v-20c-59 3 -143 3 -205 0v20l11 2c14 3 15 13 15 87v199c0 69 -1 78 -15 81l-11 2v20c30 -1 63 -3 97 -3c40 0 92 3 127 3c122 0 188 -32 188 -101c0 -61 -77 -110 -185 -115c31 -22 76 -27 113 -19h21l40 -75c34 -63 44 -72 60 -78z
M376 656v-171c35 3 70 22 70 73s-32 92 -70 98z" />
    <glyph glyph-name="copyright" unicode="&#xa9;" horiz-adv-x="855" 
d="M427 -69c-213 0 -402 159 -402 400c0 256 201 419 402 419c214 0 403 -159 403 -400c0 -256 -198 -419 -403 -419zM427 706c-179 0 -351 -151 -351 -370c0 -217 163 -361 351 -361c180 0 351 148 351 370c0 215 -162 361 -351 361zM462 561c-50 0 -74 -53 -74 -161
c0 -159 57 -276 120 -276c30 0 46 24 100 121l14 25l22 -5c-10 -48 -18 -100 -23 -148c-39 -23 -92 -35 -157 -35c-166 0 -290 100 -290 268c0 142 109 249 292 249c62 0 117 -18 150 -37c-3 -61 0 -108 3 -163l-25 -3l-11 21c-52 100 -82 144 -121 144z" />
    <glyph glyph-name="at" unicode="@" horiz-adv-x="962" 
d="M707 122c-8 -33 -7 -46 12 -46c54 0 163 96 163 273c0 170 -125 292 -329 292c-295 0 -473 -233 -473 -459c0 -231 163 -333 361 -333c106 0 200 34 251 75l17 -24c-54 -49 -146 -97 -281 -97c-217 0 -400 121 -400 375c0 269 210 506 528 506c235 0 378 -143 378 -328
c0 -212 -149 -365 -310 -365c-104 0 -146 57 -108 168l60 176c-122 -280 -200 -344 -295 -344c-63 0 -99 31 -99 115c0 198 174 381 320 381c65 0 114 -33 138 -59c52 3 112 39 129 61h23zM385 181c0 -51 9 -67 25 -67c22 0 71 85 130 221c-9 63 -29 113 -60 113
c-60 0 -95 -97 -95 -267z" />
    <glyph glyph-name="ordfeminine" unicode="&#xaa;" horiz-adv-x="470" 
d="M455 363c-34 -32 -89 -46 -137 -46c-51 0 -82 24 -82 64v5c-22 -50 -55 -69 -106 -69c-62 0 -110 42 -110 105c0 47 29 87 123 98l93 11c-1 78 -30 120 -61 120c-32 0 -45 -33 -41 -105l-17 -6c-47 0 -75 10 -75 39c0 59 123 120 224 120c88 0 149 -46 149 -139
c0 -42 -2 -102 -2 -152c0 -28 2 -31 17 -31c6 0 12 2 16 4zM219 401c7 0 14 1 17 4v99h-7c-41 0 -53 -23 -53 -49c0 -30 18 -54 43 -54zM32 218v48h408v-48h-408z" />
    <glyph glyph-name="ordmasculine" unicode="&#xba;" horiz-adv-x="483" 
d="M20 506c0 120 101 193 226 193c135 0 217 -80 217 -190c0 -119 -100 -192 -225 -192c-135 0 -218 80 -218 189zM287 438c0 102 -31 230 -64 230c-17 0 -26 -32 -26 -90c0 -102 31 -230 65 -230c16 0 25 32 25 90zM35 218v48h412v-48h-412z" />
    <glyph glyph-name="numbersign" unicode="#" horiz-adv-x="611" 
d="M315 0l43 190h-172l-43 -190h-57l43 190h-109v55h121l43 190h-107v55h119l43 190h57l-43 -190h172l43 190h57l-43 -190h109v-55h-121l-43 -190h107v-55h-119l-43 -190h-57zM198 245h172l43 190h-172z" />
    <glyph glyph-name="uni2116" unicode="&#x2116;" horiz-adv-x="1131" 
d="M222 28v-31c-61 4 -146 4 -207 0v31l18 6c38 13 52 46 52 271v245c0 37 -18 66 -47 88l-19 14v31c77 -5 206 -5 282 0l277 -418l-2 107c-4 219 -16 254 -74 274l-17 6v31c58 -6 134 -6 192 0v-31l-14 -5c-35 -12 -47 -48 -47 -274v-373c-47 2 -95 2 -142 0l-351 525
l3 -220c3 -214 28 -256 83 -273zM673 386c0 120 101 193 226 193c135 0 217 -80 217 -190c0 -119 -100 -192 -225 -192c-135 0 -218 80 -218 189zM940 318c0 102 -31 230 -64 230c-17 0 -26 -32 -26 -90c0 -102 31 -230 65 -230c16 0 25 32 25 90zM688 98v48h412v-48h-412z
" />
    <glyph glyph-name="Euro" unicode="&#x20ac;" horiz-adv-x="679" 
d="M660 72c-37 -40 -102 -91 -212 -91c-181 0 -322 101 -360 275h-70l10 45h53c-2 17 -3 35 -3 53c0 13 1 26 2 39h-62l10 45h59c35 153 168 261 369 261c83 0 160 -20 203 -46l-53 -158h-26c-34 98 -81 160 -133 160c-72 0 -109 -72 -112 -217h222l-14 -45h-207
c1 -32 4 -63 10 -92h177l-14 -45h-153c32 -113 99 -186 189 -186c28 0 61 3 97 26z" />
    <glyph glyph-name="dollar" unicode="$" horiz-adv-x="606" 
d="M260 -19h-13l-23 -100h-40l23 103c-62 7 -122 25 -157 46c4 63 3 163 1 228l26 4l12 -30c36 -89 78 -157 132 -188l42 189c-94 52 -212 108 -212 252c0 122 102 214 275 214c14 0 28 -1 42 -2l18 82h40l-20 -87c47 -9 86 -24 116 -42c-4 -63 -4 -137 -2 -202l-26 -4
l-12 29c-29 72 -58 122 -91 151l-35 -158c95 -52 222 -102 222 -252c0 -135 -112 -233 -318 -233zM252 585c0 -43 28 -72 68 -98l36 159c-12 5 -24 7 -38 7c-40 0 -66 -21 -66 -68zM379 108c0 46 -34 76 -80 105l-41 -183c9 -2 18 -3 28 -3c55 0 93 23 93 81z" />
    <glyph glyph-name="yen" unicode="&#xa5;" horiz-adv-x="707" 
d="M536 435l-50 -94h121v-45h-129v-92h129v-45h-129c0 -109 3 -124 33 -129l17 -3v-31c-105 6 -238 6 -342 0v31l17 3c30 5 33 20 33 129h-145v45h145v71l-11 21h-134v45h110l-129 243c-29 55 -35 62 -48 65l-14 3v31c110 -5 236 -5 370 0v-31l-14 -4
c-32 -9 -53 -26 -19 -93l106 -206l47 103c62 135 36 182 -1 195l-14 5v31c77 -6 148 -5 212 0v-31l-9 -4c-37 -16 -68 -55 -152 -213z" />
    <glyph glyph-name="sterling" unicode="&#xa3;" horiz-adv-x="678" 
d="M653 210c-17 -161 -84 -258 -200 -258c-82 0 -138 40 -187 80c-37 -33 -83 -51 -131 -51c-76 0 -115 41 -115 90c0 46 33 92 117 92c37 0 77 -4 119 -10c-7 56 -45 103 -83 153h-137v45h105c-27 41 -48 86 -48 140c0 107 94 208 277 208c141 0 231 -80 231 -157
c0 -44 -28 -70 -84 -71l-21 6c-40 109 -66 192 -123 192c-37 0 -58 -24 -58 -102c0 -96 25 -144 38 -216h165v-45h-160c1 -12 2 -26 2 -40c0 -46 -8 -88 -21 -124c40 -5 79 -9 115 -9c97 0 137 27 180 87zM63 71c0 -22 16 -51 63 -51c44 0 81 16 105 43
c-36 30 -70 55 -112 55s-56 -23 -56 -47z" />
    <glyph glyph-name="cent" unicode="&#xa2;" horiz-adv-x="556" 
d="M285 -19h-8l-23 -100h-37l23 104c-118 19 -202 115 -202 251c0 180 135 291 281 291c15 0 30 -1 44 -3l23 103h37l-25 -110c71 -20 113 -66 113 -114c0 -54 -47 -89 -121 -94l-19 6c-3 14 -6 27 -10 40l-39 -173c26 -26 58 -39 92 -39c30 0 64 9 103 36l13 -13
c-51 -118 -141 -185 -245 -185zM247 416c0 -85 17 -152 46 -198l47 205c-15 39 -33 65 -54 65c-24 0 -39 -23 -39 -72z" />
    <glyph glyph-name="colonmonetary" unicode="&#x20a1;" horiz-adv-x="643" 
d="M317 -119l23 103c-23 3 -45 7 -66 14l-26 -117h-40l29 130c-127 52 -210 173 -210 343c0 195 148 345 365 345l18 80h40l-18 -82c23 -2 46 -5 66 -10l21 92h40l-23 -103c18 -7 34 -15 47 -23c-2 -72 4 -143 11 -218l-26 -4l-17 33c-16 31 -31 58 -44 82l-110 -489
c17 -15 35 -24 53 -24c46 0 63 34 132 181l16 34l27 -7c-13 -70 -25 -145 -32 -216c-49 -30 -116 -44 -199 -44h-14l-23 -100h-40zM284 423c0 -52 5 -101 13 -146l86 383h-5c-56 0 -94 -79 -94 -237zM318 194c13 -39 30 -73 47 -99l112 496c-20 27 -38 46 -56 57z" />
    <glyph glyph-name="uni20AE" unicode="&#x20ae;" horiz-adv-x="658" 
d="M500 28v-31c-105 5 -238 5 -342 0v31l20 3c26 4 30 19 30 123l-100 -27v45l100 27v75l-100 -27v45l100 27v332l-15 -4c-60 -16 -80 -52 -124 -148l-35 -76l-24 3c7 87 12 174 12 257c204 -6 409 -6 614 0c0 -83 5 -170 12 -257l-24 -3l-35 76c-44 96 -64 132 -124 148
l-15 4v-266l100 27v-45l-100 -27v-75l100 27v-45l-100 -27v-45c0 -123 1 -140 29 -144z" />
    <glyph glyph-name="uni20B4" unicode="&#x20b4;" horiz-adv-x="641" 
d="M581 30c-46 -27 -133 -49 -213 -49c-200 0 -308 84 -308 223c0 21 2 41 7 58h-52v45h69c20 38 51 66 85 89h-154v45h231c72 39 137 72 137 141c0 42 -24 68 -60 68c-54 0 -116 -50 -168 -144l-16 -29l-26 4c2 54 1 116 -2 169c50 29 127 49 221 49
c160 0 255 -84 255 -197c0 -22 -3 -43 -7 -61h46v-45h-64c-19 -37 -48 -65 -81 -89h145v-45h-217c-78 -44 -152 -80 -152 -151c0 -58 42 -81 94 -81c76 0 146 63 194 153l16 30l26 -4c-5 -61 -6 -125 -6 -179z" />
    <glyph glyph-name="uni20BA" unicode="&#x20ba;" horiz-adv-x="612" 
d="M222 0c-71 0 -115 -1 -180 -3v31l17 3c22 4 23 20 23 132v64l-67 -18v45l67 18v75l-67 -18v45l67 18v113c0 123 -1 140 -23 144l-17 3v31c99 -5 224 -5 322 0v-31l-17 -3c-22 -4 -23 -21 -23 -144v-47l133 36v-45l-133 -36v-75l133 36v-45l-133 -36v-127
c0 -87 7 -120 71 -120c97 0 149 38 149 142v44h48v-27c0 -138 -57 -205 -192 -207c-75 -1 -131 2 -178 2z" />
    <glyph glyph-name="uni20B9" unicode="&#x20b9;" horiz-adv-x="580" 
d="M20 635l14 45h531l-14 -45h-194c46 -26 74 -63 80 -110h128l-14 -45h-113c-9 -73 -66 -120 -178 -145l136 -174c90 -115 101 -122 125 -129l14 -4v-31c-83 5 -186 5 -268 0l-242 319v35c112 11 171 37 177 129h-182l14 45h166c-10 64 -52 110 -125 110h-55z" />
    <glyph glyph-name="dong" unicode="&#x20ab;" horiz-adv-x="654" 
d="M369 85c-23 -67 -76 -104 -148 -104c-122 0 -190 111 -190 248c0 199 137 298 279 298c19 0 38 -2 57 -6v66h-144v40h143c-3 46 -10 56 -30 61l-9 2v31c112 0 184 3 266 19l10 -9c-2 -28 -3 -66 -3 -104h45v-40h-46v-369c0 -133 2 -151 23 -157l17 -5v-31
c-81 -9 -168 -23 -252 -42c-7 22 -15 58 -18 102zM269 345c0 -145 26 -248 70 -248c10 0 20 5 28 14v303c0 48 -18 77 -48 77c-28 0 -50 -34 -50 -146zM76 -127v45h514v-45h-514z" />
    <glyph glyph-name="uni20A9" unicode="&#x20a9;" horiz-adv-x="1111" 
d="M1059 319h-127l-104 -320c-45 2 -89 2 -134 0l-108 320h-79l-111 -320c-45 2 -91 2 -136 0l-108 320h-119v40h105l-34 100h-71v40h58l-18 52c-27 81 -32 93 -51 98l-12 3v31c109 -5 228 -5 337 0v-31l-11 -4c-20 -7 -30 -21 -9 -91l17 -58h181l-18 53
c-27 79 -32 92 -51 97l-12 3v31c109 -5 228 -5 337 0v-31l-11 -4c-20 -7 -30 -19 -9 -90l17 -59h168c20 95 4 135 -42 149l-13 4v31c70 -6 143 -6 203 0v-31l-9 -3c-27 -9 -50 -33 -93 -150h67v-40h-81l-32 -100h113v-40zM819 359h88l29 100h-146zM387 359h95l31 100h-157z
M521 359h51l-25 75zM863 207l33 112h-66zM399 319l34 -114l36 114h-70z" />
    <glyph glyph-name="uni20AA" unicode="&#x20aa;" horiz-adv-x="832" 
d="M257 0h-212v490c90 21 190 37 272 37c145 0 200 -55 200 -186v-182h-72v177c0 97 -37 133 -115 133c-27 0 -47 0 -73 -4v-465zM575 508h212v-490c-90 -21 -190 -37 -272 -37c-145 0 -200 55 -200 186v182h72v-177c0 -97 37 -133 115 -133c27 0 47 0 73 4v465z" />
    <glyph glyph-name="uni20AD" unicode="&#x20ad;" horiz-adv-x="780" 
d="M440 512c80 90 61 123 24 135l-15 5v31c95 -5 184 -5 279 0v-31l-21 -4c-58 -11 -118 -53 -228 -159l-116 -112c8 -1 15 -1 22 -1h11c56 1 95 12 124 35h25l19 -35h151v-40h-129l88 -161c72 -124 84 -136 105 -143l12 -4v-31c-91 5 -197 5 -288 0l-175 339h-21v-161
c0 -123 1 -140 23 -144l17 -3v-31c-99 5 -224 5 -322 0v31l17 3c22 4 23 21 23 144v161h-45v40h45v129c0 123 -1 140 -23 144l-17 3v31c99 -5 224 -5 322 0v-31l-17 -3c-22 -4 -23 -21 -23 -144v-129h12z" />
    <glyph glyph-name="uni20B1" unicode="&#x20b1;" horiz-adv-x="736" 
d="M386 30v-33c-108 5 -245 5 -351 0v31l17 3c22 4 23 21 23 142v212h-55v40h55v92h-55v40h55c-1 77 -5 89 -23 92l-17 3v31c43 -3 89 -4 140 -4c62 0 131 4 201 4c177 0 267 -45 294 -126h51v-40h-42c1 -7 1 -15 1 -23c0 -24 -5 -47 -14 -69h55v-40h-79
c-54 -72 -166 -124 -325 -126v-84c0 -112 6 -130 52 -141zM317 644v-87h92c-22 50 -57 87 -92 87zM432 448c0 23 -3 47 -9 69h-106v-92h114c1 8 1 15 1 23zM317 298c56 4 90 40 106 87h-106v-87z" />
    <glyph glyph-name="uni20B5" unicode="&#x20b5;" horiz-adv-x="638" 
d="M588 25c-41 -25 -94 -39 -158 -43v-101h-42v100c-210 0 -366 140 -366 373c0 195 148 345 366 345v80h42v-82c61 -5 114 -23 148 -44c-2 -72 4 -143 11 -218l-26 -4l-17 33c-46 89 -81 145 -116 174v-603c5 -1 10 -2 15 -2c46 0 63 34 132 181l16 34l27 -7
c-13 -70 -25 -145 -32 -216zM279 423c0 -169 51 -306 109 -362v598c-5 1 -10 1 -15 1c-56 0 -94 -79 -94 -237z" />
    <glyph glyph-name="uni20B8" unicode="&#x20b8;" horiz-adv-x="639" 
d="M32 640v40h575v-40h-575zM203 175v341l-17 -6c-46 -16 -74 -47 -113 -140l-29 -69l-24 3c7 84 12 168 12 248c191 -6 383 -6 575 0c0 -80 5 -164 12 -248l-24 -3l-29 69c-43 103 -69 127 -111 140l-20 6v-341c0 -123 1 -140 29 -144l21 -3v-31c-102 5 -231 5 -332 0v31
l20 3c28 4 30 21 30 144z" />
    <glyph glyph-name="uni20BC" unicode="&#x20bc;" horiz-adv-x="912" 
d="M242 248v-248h-212v214c0 199 131 286 320 307v159h212v-158c190 -22 320 -108 320 -308v-214h-212v248c0 117 -39 188 -108 220v-328h-212v327c-69 -32 -108 -102 -108 -219z" />
    <glyph glyph-name="uni20BD" unicode="&#x20bd;" horiz-adv-x="706" 
d="M412 30v-33c-108 5 -245 5 -351 0v31l17 3c20 4 23 18 23 116h-81v40h81v90h-81v40h81v189c0 123 -1 139 -23 143l-17 3v31c43 -3 89 -4 140 -4c62 0 131 4 201 4c218 0 304 -64 304 -179c0 -118 -131 -223 -363 -226v-91h233v-40h-233c1 -92 7 -104 45 -112zM343 644
v-327c79 5 115 70 115 141c0 110 -55 186 -115 186z" />
    <glyph glyph-name="currency" unicode="&#xa4;" 
d="M432 180l-28 -27l-56 55c-27 -21 -60 -33 -96 -33c-37 0 -72 13 -99 35l-57 -57l-28 27l58 58c-19 26 -31 59 -31 94c0 36 12 69 33 96l-60 60l28 28l60 -60c27 21 60 33 96 33c35 0 67 -12 94 -31l58 58l28 -28l-58 -58c22 -27 35 -61 35 -98c0 -36 -12 -70 -33 -96z
M252 218c62 0 114 51 114 114c0 62 -52 114 -114 114s-114 -52 -114 -114c0 -63 52 -114 114 -114z" />
    <glyph glyph-name="zero" unicode="0" horiz-adv-x="626" 
d="M309 699c183 0 297 -157 297 -376c0 -213 -129 -342 -289 -342c-183 0 -297 157 -297 376c0 213 129 342 289 342zM300 661c-28 0 -47 -61 -47 -230c0 -259 41 -412 73 -412c28 0 47 61 47 230c0 259 -41 412 -73 412z" />
    <glyph glyph-name="one" unicode="1" horiz-adv-x="418" 
d="M96 175v285c0 96 0 121 -61 115l-22 -2l-3 35c112 14 219 49 307 91l15 -14c-3 -54 -4 -148 -4 -199v-311c0 -123 4 -134 63 -144l17 -3v-31c-127 6 -264 6 -392 0v31l17 3c59 10 63 21 63 144z" />
    <glyph glyph-name="two" unicode="2" horiz-adv-x="546" 
d="M531 250c-24 -81 -37 -180 -41 -254c-151 5 -329 5 -485 0v44c171 194 294 311 294 472c0 99 -31 143 -71 143c-56 0 -62 -114 -50 -213l-18 -6c-65 0 -128 20 -128 87c0 83 109 176 263 176c135 0 227 -91 227 -204c0 -193 -169 -218 -380 -352l85 5
c221 13 240 35 266 87l11 22z" />
    <glyph glyph-name="three" unicode="3" horiz-adv-x="510" 
d="M505 212c0 -124 -110 -231 -286 -231c-128 0 -214 75 -214 137c0 48 36 75 90 84l19 -4c30 -97 60 -178 105 -178c41 0 63 39 63 112c0 90 -36 176 -113 210l-9 4l198 189l-113 -7c-127 -8 -136 -36 -151 -83l-7 -22h-27c6 64 8 189 2 260c126 -5 270 -4 401 0v-123
l-226 -190c146 30 268 -45 268 -158z" />
    <glyph glyph-name="four" unicode="4" horiz-adv-x="607" 
d="M538 28v-31c-119 6 -249 6 -369 0v31l17 3c55 9 62 20 63 121c-79 0 -158 -2 -235 -4v54l303 483c48 -5 97 -8 145 -9c-3 -55 -4 -152 -4 -204v-175c89 10 100 28 117 57l7 12l20 -7c-19 -64 -30 -153 -33 -211c-36 1 -73 2 -111 3c1 -101 8 -111 63 -120zM249 513
l-142 -235l142 6v229z" />
    <glyph glyph-name="five" unicode="5" horiz-adv-x="506" 
d="M496 210c0 -114 -88 -229 -268 -229c-132 0 -218 75 -218 137c0 50 37 78 92 87l19 -4c27 -90 56 -181 103 -181c32 0 49 38 49 106c0 105 -53 245 -195 245h-14l50 313c53 -2 113 -4 199 -4c81 0 113 5 146 36l17 -8c-16 -60 -30 -137 -33 -200c-60 4 -150 5 -312 5
l-29 -110c46 13 83 19 135 19c154 0 259 -89 259 -212z" />
    <glyph glyph-name="six" unicode="6" horiz-adv-x="588" 
d="M573 226c0 -150 -130 -245 -269 -245c-169 0 -289 122 -289 284c0 200 135 368 452 430l9 -31c-146 -38 -216 -117 -234 -230c23 10 49 15 81 15c146 0 250 -89 250 -223zM286 404c-23 0 -40 -34 -40 -125c0 -169 36 -260 64 -260c24 0 40 34 40 129
c0 165 -36 256 -64 256z" />
    <glyph glyph-name="seven" unicode="7" horiz-adv-x="495" 
d="M490 639c-131 -203 -190 -420 -203 -639h-253l-11 16l357 505l-136 -4c-153 -5 -175 -33 -194 -86l-8 -22h-27c6 67 8 199 2 274c149 -6 318 -5 473 0v-44z" />
    <glyph glyph-name="eight" unicode="8" horiz-adv-x="588" 
d="M573 210c0 -138 -130 -229 -294 -229c-167 0 -264 89 -264 200c0 85 65 139 135 157c-59 45 -107 97 -107 173c0 97 87 188 257 188c141 0 231 -68 231 -157c0 -67 -53 -108 -132 -118c86 -53 174 -109 174 -214zM242 609c0 -67 47 -111 105 -151c12 27 17 57 17 95
c0 71 -30 112 -73 112c-33 0 -49 -23 -49 -56zM191 198c0 -105 43 -183 106 -183c42 0 74 31 74 78c0 94 -82 149 -164 205c-11 -29 -16 -65 -16 -100z" />
    <glyph glyph-name="nine" unicode="9" horiz-adv-x="588" 
d="M573 415c0 -201 -135 -370 -452 -432l-9 31c146 38 216 118 234 232c-23 -10 -49 -15 -81 -15c-146 0 -250 89 -250 223c0 150 130 245 269 245c169 0 289 -122 289 -284zM302 276c23 0 40 34 40 125c0 169 -36 260 -64 260c-24 0 -40 -34 -40 -129
c0 -165 36 -256 64 -256z" />
    <glyph glyph-name="zero.tlf" horiz-adv-x="580" 
d="M286 699c163 0 279 -157 279 -376c0 -209 -127 -342 -271 -342c-163 0 -279 167 -279 376c0 188 122 342 271 342zM277 661c-28 0 -39 -61 -39 -230c0 -310 29 -412 65 -412c28 0 39 61 39 230c0 308 -33 412 -65 412z" />
    <glyph glyph-name="one.tlf" horiz-adv-x="580" 
d="M177 175v282c0 98 0 124 -81 117l-22 -2l-3 35c119 15 234 48 327 92l15 -14c-3 -54 -4 -148 -4 -199v-311c0 -123 6 -130 83 -144l17 -3v-31c-139 5 -291 5 -432 0v31l17 3c77 14 83 21 83 144z" />
    <glyph glyph-name="two.tlf" horiz-adv-x="580" 
d="M540 253c-24 -81 -37 -183 -41 -257c-151 5 -329 5 -485 0v44c171 194 294 311 294 472c0 99 -31 143 -71 143c-56 0 -63 -119 -50 -223l-18 -6c-70 0 -138 24 -138 92c0 95 125 181 273 181c135 0 227 -91 227 -204c0 -182 -165 -216 -371 -347l76 5
c221 13 241 34 266 85l11 22z" />
    <glyph glyph-name="three.tlf" horiz-adv-x="580" 
d="M538 212c0 -124 -110 -231 -286 -231c-131 0 -219 83 -219 152c0 48 36 75 90 84l19 -4c33 -105 63 -193 110 -193c41 0 63 39 63 112c0 90 -36 176 -113 210l-9 4l198 189l-128 -7c-125 -7 -134 -36 -149 -83l-7 -22h-29c6 64 8 189 2 260c130 -5 281 -4 416 0v-123
l-223 -190c144 29 265 -45 265 -158z" />
    <glyph glyph-name="four.tlf" horiz-adv-x="580" 
d="M519 28v-31c-119 6 -249 6 -369 0v31l17 3c55 9 62 20 63 121c-72 0 -144 -2 -215 -4v54l283 483c48 -5 97 -8 145 -9c-3 -55 -4 -152 -4 -204v-174c71 11 81 29 97 56l7 12l20 -7c-19 -64 -30 -153 -33 -211c-30 1 -60 2 -91 3c1 -101 8 -111 63 -120zM230 500
l-122 -223l122 7v216z" />
    <glyph glyph-name="five.tlf" horiz-adv-x="580" 
d="M535 210c0 -114 -91 -229 -278 -229c-135 0 -223 80 -223 147c0 54 40 84 98 94l19 -4c34 -118 55 -198 102 -198c39 0 59 38 59 106c0 105 -57 245 -210 245h-14l50 313c58 -2 124 -4 219 -4c81 0 117 6 146 36l17 -8c-16 -60 -30 -137 -33 -200c-64 4 -161 5 -333 5
l-28 -110c49 14 90 19 145 19c157 0 264 -89 264 -212z" />
    <glyph glyph-name="six.tlf" horiz-adv-x="580" 
d="M561 226c0 -150 -125 -245 -259 -245c-163 0 -279 122 -279 284c0 200 132 369 442 430l9 -31c-143 -37 -211 -117 -229 -229c22 9 46 14 76 14c140 0 240 -89 240 -223zM284 404c-20 0 -35 -34 -35 -125c0 -169 33 -260 59 -260c21 0 35 34 35 129
c0 165 -33 256 -59 256z" />
    <glyph glyph-name="seven.tlf" horiz-adv-x="580" 
d="M553 639c-135 -210 -210 -420 -223 -639h-253l-11 16l375 505l-136 -4c-176 -5 -206 -43 -222 -86l-8 -22h-27c6 67 8 199 2 274c158 -6 338 -5 503 0v-44z" />
    <glyph glyph-name="eight.tlf" horiz-adv-x="580" 
d="M564 210c0 -138 -128 -229 -289 -229c-164 0 -259 89 -259 200c0 84 64 138 133 157c-58 45 -105 97 -105 173c0 97 85 188 252 188c138 0 226 -68 226 -157c0 -65 -50 -105 -125 -117c82 -54 167 -110 167 -215zM243 609c0 -64 43 -107 97 -146c11 26 15 55 15 90
c0 71 -28 112 -68 112c-30 0 -44 -23 -44 -56zM192 198c0 -105 41 -183 101 -183c39 0 69 31 69 78c0 93 -77 147 -155 202c-11 -29 -15 -63 -15 -97z" />
    <glyph glyph-name="nine.tlf" horiz-adv-x="580" 
d="M559 415c0 -201 -132 -371 -442 -432l-9 31c143 37 211 118 229 231c-22 -9 -46 -14 -76 -14c-141 0 -242 89 -242 223c0 150 126 245 261 245c163 0 279 -122 279 -284zM298 276c20 0 35 34 35 125c0 169 -33 260 -59 260c-21 0 -35 -34 -35 -129
c0 -165 33 -256 59 -256z" />
    <glyph glyph-name="zero.posf" horiz-adv-x="608" 
d="M298 -19c-174 0 -282 124 -282 296c0 193 131 310 294 310c174 0 282 -128 282 -306c0 -187 -131 -300 -294 -300zM291 549c-28 0 -42 -50 -42 -188c0 -224 38 -342 68 -342c25 0 42 48 42 178c0 230 -32 352 -68 352z" />
    <glyph glyph-name="one.posf" horiz-adv-x="423" 
d="M101 175v173c0 96 0 121 -61 115l-22 -2l-3 37c112 14 219 47 307 89l15 -13c-3 -54 -4 -147 -4 -198v-201c0 -123 4 -134 63 -144l17 -3v-31c-127 6 -264 6 -392 0v31l17 3c59 10 63 21 63 144z" />
    <glyph glyph-name="two.posf" horiz-adv-x="526" 
d="M511 248c-23 -79 -37 -180 -41 -252c-145 5 -310 5 -460 0v37c203 224 261 313 261 419c0 59 -24 92 -54 92c-56 0 -62 -105 -50 -196l-18 -6c-65 0 -128 18 -128 78c0 79 101 167 243 167c153 0 230 -81 230 -162c0 -140 -160 -159 -342 -281l74 5c204 15 222 35 246 84
l11 22z" />
    <glyph glyph-name="three.posf" horiz-adv-x="515" 
d="M505 98c0 -113 -108 -228 -286 -228c-128 0 -214 73 -214 134c0 46 36 72 90 81l19 -4c30 -96 58 -175 105 -175c41 0 63 39 63 112c0 91 -36 178 -113 212l-9 4l194 185l-57 -2c-165 -7 -181 -32 -201 -94l-7 -22h-29c6 66 8 196 2 270c126 -5 270 -5 401 0v-123
l-221 -189c144 27 263 -48 263 -161z" />
    <glyph glyph-name="four.posf" horiz-adv-x="622" 
d="M478 -76c-74 -8 -143 -34 -188 -80l-18 5v151c-90 0 -180 -1 -267 -4v54l342 529c46 -5 91 -8 135 -9c-3 -57 -4 -146 -4 -200v-217c78 11 86 27 102 54l7 12l25 -7c-20 -67 -30 -155 -33 -216c-33 1 -67 2 -101 3v-75zM272 398l-165 -264l165 6v258z" />
    <glyph glyph-name="five.posf" horiz-adv-x="519" 
d="M509 101c0 -115 -108 -231 -286 -231c-132 0 -218 72 -218 132c0 49 37 76 92 85l19 -4c26 -88 59 -174 107 -174c41 0 63 38 63 108c0 104 -55 243 -203 243h-14l47 313l53 -3c209 -12 265 5 302 58l12 17l24 -8c-35 -85 -48 -154 -55 -243c-83 5 -176 5 -318 5
l-27 -107c50 14 90 20 144 20c154 0 258 -91 258 -211z" />
    <glyph glyph-name="six.posf" horiz-adv-x="589" 
d="M573 226c0 -150 -130 -245 -269 -245c-169 0 -289 122 -289 284c0 200 135 368 452 430l9 -31c-146 -38 -216 -117 -234 -230c23 10 49 15 81 15c146 0 250 -89 250 -223zM286 404c-23 0 -40 -34 -40 -125c0 -169 36 -260 64 -260c24 0 40 34 40 129
c0 165 -36 256 -64 256z" />
    <glyph glyph-name="seven.posf" 
d="M495 528c-131 -202 -187 -422 -200 -641h-249l-8 12l348 510l-123 -4c-164 -5 -189 -34 -208 -86l-8 -22h-27c6 67 8 199 2 274c149 -6 318 -5 473 0v-43z" />
    <glyph glyph-name="eight.posf" horiz-adv-x="588" 
d="M573 210c0 -138 -130 -229 -294 -229c-167 0 -264 89 -264 200c0 85 65 139 135 157c-59 45 -107 97 -107 173c0 97 87 188 257 188c141 0 231 -68 231 -157c0 -67 -53 -108 -132 -118c86 -53 174 -109 174 -214zM242 609c0 -67 47 -111 105 -151c12 27 17 57 17 95
c0 71 -30 112 -73 112c-33 0 -49 -23 -49 -56zM191 198c0 -105 43 -183 106 -183c42 0 74 31 74 78c0 94 -82 149 -164 205c-11 -29 -16 -65 -16 -100z" />
    <glyph glyph-name="nine.posf" horiz-adv-x="588" 
d="M573 303c0 -201 -135 -370 -452 -432l-9 31c146 38 216 118 234 232c-23 -10 -49 -15 -81 -15c-146 0 -250 89 -250 223c0 150 130 245 269 245c169 0 289 -122 289 -284zM302 164c23 0 40 34 40 125c0 169 -36 260 -64 260c-24 0 -40 -34 -40 -129
c0 -165 36 -256 64 -256z" />
    <glyph glyph-name="degree" unicode="&#xb0;" horiz-adv-x="348" 
d="M174 397c-84 0 -149 67 -149 151s65 151 149 151s149 -67 149 -151s-65 -151 -149 -151zM174 651c-56 0 -96 -48 -96 -103s40 -103 96 -103s96 48 96 103s-40 103 -96 103z" />
    <glyph glyph-name="percent" unicode="%" horiz-adv-x="736" 
d="M196 357c-95 0 -171 76 -171 171s76 171 171 171s171 -76 171 -171s-76 -171 -171 -171zM73 0l529 680h60l-529 -680h-60zM196 647c-64 0 -114 -55 -114 -119c0 -65 50 -119 114 -119s114 54 114 119c0 64 -50 119 -114 119zM540 -19c-95 0 -171 76 -171 171
s76 171 171 171s171 -76 171 -171s-76 -171 -171 -171zM540 271c-64 0 -114 -55 -114 -119s50 -119 114 -119s114 55 114 119s-50 119 -114 119z" />
    <glyph glyph-name="perthousand" unicode="&#x2030;" horiz-adv-x="1122" 
d="M196 357c-95 0 -171 76 -171 171s76 171 171 171s171 -76 171 -171s-76 -171 -171 -171zM73 0l529 680h60l-529 -680h-60zM196 647c-64 0 -114 -55 -114 -119c0 -65 50 -119 114 -119s114 54 114 119c0 64 -50 119 -114 119zM540 -19c-95 0 -171 76 -171 171
s76 171 171 171s171 -76 171 -171s-76 -171 -171 -171zM926 -19c-95 0 -171 76 -171 171s76 171 171 171s171 -76 171 -171s-76 -171 -171 -171zM540 271c-64 0 -114 -55 -114 -119s50 -119 114 -119s114 55 114 119s-50 119 -114 119zM926 271c-64 0 -114 -55 -114 -119
s50 -119 114 -119s114 55 114 119s-50 119 -114 119z" />
    <glyph glyph-name="fraction" unicode="&#x2044;" horiz-adv-x="99" 
d="M-215 0l476 680h53l-476 -680h-53z" />
    <glyph glyph-name="uni2215" unicode="&#x2215;" horiz-adv-x="99" 
d="M-215 0l476 680h53l-476 -680h-53z" />
    <glyph glyph-name="zerosuperior" unicode="&#x2070;" horiz-adv-x="403" 
d="M201 816c111 0 189 -84 189 -200c0 -120 -86 -193 -193 -193c-114 0 -184 84 -184 200c0 120 90 193 188 193zM192 788c-16 0 -28 -31 -28 -118c0 -148 26 -219 46 -219c16 0 29 31 29 119c0 147 -27 218 -47 218z" />
    <glyph glyph-name="onesuperior" unicode="&#xb9;" horiz-adv-x="265" 
d="M67 544v134c0 53 0 66 -37 63l-14 -1l-2 25c68 8 133 27 186 51l9 -8c-1 -29 -2 -82 -2 -110v-154c0 -69 2 -73 38 -80l10 -2v-23c-77 5 -159 5 -236 0v23l10 2c35 7 38 11 38 80z" />
    <glyph glyph-name="twosuperior" unicode="&#xb2;" horiz-adv-x="341" 
d="M321 587c-15 -45 -22 -106 -24 -148c-96 5 -188 5 -287 0v27c137 125 162 202 162 251c0 48 -17 69 -39 69c-27 0 -33 -40 -28 -109l-15 -5c-47 0 -73 13 -73 46s45 98 151 98c88 0 140 -49 140 -108c0 -91 -89 -107 -206 -183l49 5c116 11 124 17 145 52l7 12z" />
    <glyph glyph-name="threesuperior" unicode="&#xb3;" horiz-adv-x="313" 
d="M303 549c0 -68 -66 -126 -173 -126c-75 0 -120 37 -120 78c0 27 21 41 52 47l14 -4c12 -51 32 -97 60 -97c19 0 31 21 31 57c0 52 -18 103 -63 121l-5 2l103 86l-31 -1c-94 -4 -105 -20 -113 -43l-4 -12h-21c5 35 6 104 2 143c84 -5 159 -5 242 0v-72l-120 -85
c80 11 146 -30 146 -94z" />
    <glyph glyph-name="foursuperior" unicode="&#x2074;" horiz-adv-x="375" 
d="M331 463v-24c-71 4 -148 4 -220 0v24l11 2c29 5 36 9 38 49c-51 0 -101 -1 -151 -2v24l191 271c29 -3 58 -5 85 -5c-2 -29 -3 -80 -3 -108v-107c45 7 49 18 62 37l5 7l13 -3c-10 -40 -17 -84 -19 -116c-20 1 -40 1 -61 1c2 -39 10 -42 39 -48zM160 706l-86 -129l86 4v125
z" />
    <glyph glyph-name="fivesuperior" unicode="&#x2075;" horiz-adv-x="310" 
d="M295 552c0 -69 -60 -129 -161 -129c-81 0 -124 44 -124 80c0 28 21 36 53 42l14 -4c10 -51 27 -93 53 -93c21 0 32 20 32 54c0 56 -32 129 -119 129h-9l25 166c153 -5 167 -1 188 16l12 10l13 -5c-10 -32 -18 -75 -19 -110c-58 4 -96 4 -178 4l-13 -55c27 8 51 13 82 13
c87 0 151 -52 151 -118z" />
    <glyph glyph-name="sixsuperior" unicode="&#x2076;" horiz-adv-x="356" 
d="M346 557c0 -82 -77 -134 -160 -134c-101 0 -174 67 -174 156c0 110 82 202 272 237l5 -23c-87 -21 -129 -61 -141 -119c15 5 31 7 49 7c88 0 149 -50 149 -124zM175 652c-15 0 -25 -18 -25 -65c0 -90 21 -139 39 -139c14 0 24 18 24 67c0 87 -22 137 -38 137z" />
    <glyph glyph-name="sevensuperior" unicode="&#x2077;" horiz-adv-x="300" 
d="M295 776c-74 -105 -90 -212 -95 -334h-155l-7 12l189 257l-64 -2c-99 -3 -113 -18 -125 -47l-5 -12h-18c3 38 4 107 1 150c88 -5 184 -5 279 0v-24z" />
    <glyph glyph-name="eightsuperior" unicode="&#x2078;" horiz-adv-x="368" 
d="M353 545c0 -74 -78 -122 -177 -122c-101 0 -161 49 -161 110c0 43 40 75 82 86c-36 24 -64 52 -64 90c0 55 53 107 155 107c86 0 140 -36 140 -85c0 -35 -34 -59 -78 -68c51 -29 103 -60 103 -118zM152 758c0 -34 30 -56 67 -78c7 15 8 33 8 54c0 37 -19 59 -45 59
c-18 0 -30 -14 -30 -35zM123 533c0 -52 29 -85 65 -85c25 0 44 16 44 43c0 45 -49 74 -99 105c-7 -19 -10 -41 -10 -63z" />
    <glyph glyph-name="ninesuperior" unicode="&#x2079;" horiz-adv-x="356" 
d="M344 660c0 -110 -82 -202 -272 -237l-5 23c87 21 129 61 141 119c-15 -5 -31 -7 -49 -7c-88 0 -149 50 -149 124c0 82 77 134 160 134c101 0 174 -67 174 -156zM181 587c15 0 25 18 25 65c0 90 -21 139 -39 139c-14 0 -24 -18 -24 -67c0 -87 22 -137 38 -137z" />
    <glyph glyph-name="zeroinferior" unicode="&#x2080;" horiz-adv-x="403" 
d="M201 262c111 0 189 -84 189 -200c0 -120 -86 -193 -193 -193c-114 0 -184 84 -184 200c0 120 90 193 188 193zM192 234c-16 0 -28 -31 -28 -118c0 -148 26 -219 46 -219c16 0 29 31 29 119c0 147 -27 218 -47 218z" />
    <glyph glyph-name="oneinferior" unicode="&#x2081;" horiz-adv-x="265" 
d="M67 -10v134c0 53 0 66 -37 63l-14 -1l-2 25c68 8 133 27 186 51l9 -8c-1 -29 -2 -82 -2 -110v-154c0 -69 2 -73 38 -80l10 -2v-23c-77 5 -159 5 -236 0v23l10 2c35 7 38 11 38 80z" />
    <glyph glyph-name="twoinferior" unicode="&#x2082;" horiz-adv-x="341" 
d="M321 33c-15 -45 -22 -106 -24 -148c-96 5 -188 5 -287 0v27c137 125 162 202 162 251c0 48 -17 69 -39 69c-27 0 -33 -40 -28 -109l-15 -5c-47 0 -73 13 -73 46s45 98 151 98c88 0 140 -49 140 -108c0 -91 -89 -107 -206 -183l49 5c116 11 124 17 145 52l7 12z" />
    <glyph glyph-name="threeinferior" unicode="&#x2083;" horiz-adv-x="313" 
d="M303 -5c0 -68 -66 -126 -173 -126c-75 0 -120 37 -120 78c0 27 21 41 52 47l14 -4c12 -51 32 -97 60 -97c19 0 31 21 31 57c0 52 -18 103 -63 121l-5 2l103 86l-31 -1c-94 -4 -105 -20 -113 -43l-4 -12h-21c5 35 6 104 2 143c84 -5 159 -5 242 0v-72l-120 -85
c80 11 146 -30 146 -94z" />
    <glyph glyph-name="fourinferior" unicode="&#x2084;" horiz-adv-x="375" 
d="M331 -91v-24c-71 4 -148 4 -220 0v24l11 2c29 5 36 9 38 49c-51 0 -101 -1 -151 -2v24l191 271c29 -3 58 -5 85 -5c-2 -29 -3 -80 -3 -108v-107c45 7 49 18 62 37l5 7l13 -3c-10 -40 -17 -84 -19 -116c-20 1 -40 1 -61 1c2 -39 10 -42 39 -48zM160 152l-86 -129l86 4v125
z" />
    <glyph glyph-name="fiveinferior" unicode="&#x2085;" horiz-adv-x="310" 
d="M295 -2c0 -69 -60 -129 -161 -129c-81 0 -124 44 -124 80c0 28 21 36 53 42l14 -4c10 -51 27 -93 53 -93c21 0 32 20 32 54c0 56 -32 129 -119 129h-9l25 166c153 -5 167 -1 188 16l12 10l13 -5c-10 -32 -18 -75 -19 -110c-58 4 -96 4 -178 4l-13 -55c27 8 51 13 82 13
c87 0 151 -52 151 -118z" />
    <glyph glyph-name="sixinferior" unicode="&#x2086;" horiz-adv-x="356" 
d="M346 3c0 -82 -77 -134 -160 -134c-101 0 -174 67 -174 156c0 110 82 202 272 237l5 -23c-87 -21 -129 -61 -141 -119c15 5 31 7 49 7c88 0 149 -50 149 -124zM175 98c-15 0 -25 -18 -25 -65c0 -90 21 -139 39 -139c14 0 24 18 24 67c0 87 -22 137 -38 137z" />
    <glyph glyph-name="seveninferior" unicode="&#x2087;" horiz-adv-x="300" 
d="M295 222c-74 -105 -90 -212 -95 -334h-155l-7 12l189 257l-64 -2c-99 -3 -113 -18 -125 -47l-5 -12h-18c3 38 4 107 1 150c88 -5 184 -5 279 0v-24z" />
    <glyph glyph-name="eightinferior" unicode="&#x2088;" horiz-adv-x="368" 
d="M353 -9c0 -74 -78 -122 -177 -122c-101 0 -161 49 -161 110c0 43 40 75 82 86c-36 24 -64 52 -64 90c0 55 53 107 155 107c86 0 140 -36 140 -85c0 -35 -34 -59 -78 -68c51 -29 103 -60 103 -118zM152 204c0 -34 30 -56 67 -78c7 15 8 33 8 54c0 37 -19 59 -45 59
c-18 0 -30 -14 -30 -35zM123 -21c0 -52 29 -85 65 -85c25 0 44 16 44 43c0 45 -49 74 -99 105c-7 -19 -10 -41 -10 -63z" />
    <glyph glyph-name="nineinferior" unicode="&#x2089;" horiz-adv-x="356" 
d="M344 106c0 -110 -82 -202 -272 -237l-5 23c87 21 129 61 141 119c-15 -5 -31 -7 -49 -7c-88 0 -149 50 -149 124c0 82 77 134 160 134c101 0 174 -67 174 -156zM181 33c15 0 25 18 25 65c0 90 -21 139 -39 139c-14 0 -24 -18 -24 -67c0 -87 22 -137 38 -137z" />
    <glyph glyph-name="zero.numerator" horiz-adv-x="403" 
d="M201 699c111 0 189 -84 189 -200c0 -120 -86 -193 -193 -193c-114 0 -184 84 -184 200c0 120 90 193 188 193zM192 671c-16 0 -28 -31 -28 -118c0 -148 26 -219 46 -219c16 0 29 31 29 119c0 147 -27 218 -47 218z" />
    <glyph glyph-name="one.numerator" horiz-adv-x="265" 
d="M67 427v134c0 53 0 66 -37 63l-14 -1l-2 25c68 8 133 27 186 51l9 -8c-1 -29 -2 -82 -2 -110v-154c0 -69 2 -73 38 -80l10 -2v-23c-77 5 -159 5 -236 0v23l10 2c35 7 38 11 38 80z" />
    <glyph glyph-name="two.numerator" horiz-adv-x="341" 
d="M321 470c-15 -45 -22 -106 -24 -148c-96 5 -188 5 -287 0v27c137 125 162 202 162 251c0 48 -17 69 -39 69c-27 0 -33 -40 -28 -109l-15 -5c-47 0 -73 13 -73 46s45 98 151 98c88 0 140 -49 140 -108c0 -91 -89 -107 -206 -183l49 5c116 11 124 17 145 52l7 12z" />
    <glyph glyph-name="three.numerator" horiz-adv-x="313" 
d="M303 432c0 -68 -66 -126 -173 -126c-75 0 -120 37 -120 78c0 27 21 41 52 47l14 -4c12 -51 32 -97 60 -97c19 0 31 21 31 57c0 52 -18 103 -63 121l-5 2l103 86l-31 -1c-94 -4 -105 -20 -113 -43l-4 -12h-21c5 35 6 104 2 143c84 -5 159 -5 242 0v-72l-120 -85
c80 11 146 -30 146 -94z" />
    <glyph glyph-name="four.numerator" horiz-adv-x="375" 
d="M331 346v-24c-71 4 -148 4 -220 0v24l11 2c29 5 36 9 38 49c-51 0 -101 -1 -151 -2v24l191 271c29 -3 58 -5 85 -5c-2 -29 -3 -80 -3 -108v-107c45 7 49 18 62 37l5 7l13 -3c-10 -40 -17 -84 -19 -116c-20 1 -40 1 -61 1c2 -39 10 -42 39 -48zM160 589l-86 -129l86 4v125
z" />
    <glyph glyph-name="five.numerator" horiz-adv-x="310" 
d="M295 435c0 -69 -60 -129 -161 -129c-81 0 -124 44 -124 80c0 28 21 36 53 42l14 -4c10 -51 27 -93 53 -93c21 0 32 20 32 54c0 56 -32 129 -119 129h-9l25 166c153 -5 167 -1 188 16l12 10l13 -5c-10 -32 -18 -75 -19 -110c-58 4 -96 4 -178 4l-13 -55c27 8 51 13 82 13
c87 0 151 -52 151 -118z" />
    <glyph glyph-name="six.numerator" horiz-adv-x="356" 
d="M346 440c0 -82 -77 -134 -160 -134c-101 0 -174 67 -174 156c0 110 82 202 272 237l5 -23c-87 -21 -129 -61 -141 -119c15 5 31 7 49 7c88 0 149 -50 149 -124zM175 535c-15 0 -25 -18 -25 -65c0 -90 21 -139 39 -139c14 0 24 18 24 67c0 87 -22 137 -38 137z" />
    <glyph glyph-name="seven.numerator" horiz-adv-x="300" 
d="M295 659c-74 -105 -90 -212 -95 -334h-155l-7 12l189 257l-64 -2c-99 -3 -113 -18 -125 -47l-5 -12h-18c3 38 4 107 1 150c88 -5 184 -5 279 0v-24z" />
    <glyph glyph-name="eight.numerator" horiz-adv-x="368" 
d="M353 428c0 -74 -78 -122 -177 -122c-101 0 -161 49 -161 110c0 43 40 75 82 86c-36 24 -64 52 -64 90c0 55 53 107 155 107c86 0 140 -36 140 -85c0 -35 -34 -59 -78 -68c51 -29 103 -60 103 -118zM152 641c0 -34 30 -56 67 -78c7 15 8 33 8 54c0 37 -19 59 -45 59
c-18 0 -30 -14 -30 -35zM123 416c0 -52 29 -85 65 -85c25 0 44 16 44 43c0 45 -49 74 -99 105c-7 -19 -10 -41 -10 -63z" />
    <glyph glyph-name="nine.numerator" horiz-adv-x="356" 
d="M344 543c0 -110 -82 -202 -272 -237l-5 23c87 21 129 61 141 119c-15 -5 -31 -7 -49 -7c-88 0 -149 50 -149 124c0 82 77 134 160 134c101 0 174 -67 174 -156zM181 470c15 0 25 18 25 65c0 90 -21 139 -39 139c-14 0 -24 -18 -24 -67c0 -87 22 -137 38 -137z" />
    <glyph glyph-name="zero.denominator" horiz-adv-x="403" 
d="M201 374c111 0 189 -84 189 -200c0 -120 -86 -193 -193 -193c-114 0 -184 84 -184 200c0 120 90 193 188 193zM192 346c-16 0 -28 -31 -28 -118c0 -148 26 -219 46 -219c16 0 29 31 29 119c0 147 -27 218 -47 218z" />
    <glyph glyph-name="one.denominator" horiz-adv-x="265" 
d="M67 102v134c0 53 0 66 -37 63l-14 -1l-2 25c68 8 133 27 186 51l9 -8c-1 -29 -2 -82 -2 -110v-154c0 -69 2 -73 38 -80l10 -2v-23c-77 5 -159 5 -236 0v23l10 2c35 7 38 11 38 80z" />
    <glyph glyph-name="two.denominator" horiz-adv-x="341" 
d="M321 145c-15 -45 -22 -106 -24 -148c-96 5 -188 5 -287 0v27c137 125 162 202 162 251c0 48 -17 69 -39 69c-27 0 -33 -40 -28 -109l-15 -5c-47 0 -73 13 -73 46s45 98 151 98c88 0 140 -49 140 -108c0 -91 -89 -107 -206 -183l49 5c116 11 124 17 145 52l7 12z" />
    <glyph glyph-name="three.denominator" horiz-adv-x="313" 
d="M303 107c0 -68 -66 -126 -173 -126c-75 0 -120 37 -120 78c0 27 21 41 52 47l14 -4c12 -51 32 -97 60 -97c19 0 31 21 31 57c0 52 -18 103 -63 121l-5 2l103 86l-31 -1c-94 -4 -105 -20 -113 -43l-4 -12h-21c5 35 6 104 2 143c84 -5 159 -5 242 0v-72l-120 -85
c80 11 146 -30 146 -94z" />
    <glyph glyph-name="four.denominator" horiz-adv-x="375" 
d="M331 21v-24c-71 4 -148 4 -220 0v24l11 2c29 5 36 9 38 49c-51 0 -101 -1 -151 -2v24l191 271c29 -3 58 -5 85 -5c-2 -29 -3 -80 -3 -108v-107c45 7 49 18 62 37l5 7l13 -3c-10 -40 -17 -84 -19 -116c-20 1 -40 1 -61 1c2 -39 10 -42 39 -48zM160 264l-86 -129l86 4v125z
" />
    <glyph glyph-name="five.denominator" horiz-adv-x="310" 
d="M295 110c0 -69 -60 -129 -161 -129c-81 0 -124 44 -124 80c0 28 21 36 53 42l14 -4c10 -51 27 -93 53 -93c21 0 32 20 32 54c0 56 -32 129 -119 129h-9l25 166c153 -5 167 -1 188 16l12 10l13 -5c-10 -32 -18 -75 -19 -110c-58 4 -96 4 -178 4l-13 -55c27 8 51 13 82 13
c87 0 151 -52 151 -118z" />
    <glyph glyph-name="six.denominator" horiz-adv-x="356" 
d="M346 115c0 -82 -77 -134 -160 -134c-101 0 -174 67 -174 156c0 110 82 202 272 237l5 -23c-87 -21 -129 -61 -141 -119c15 5 31 7 49 7c88 0 149 -50 149 -124zM175 210c-15 0 -25 -18 -25 -65c0 -90 21 -139 39 -139c14 0 24 18 24 67c0 87 -22 137 -38 137z" />
    <glyph glyph-name="seven.denominator" horiz-adv-x="300" 
d="M295 334c-74 -105 -90 -212 -95 -334h-155l-7 12l189 257l-64 -2c-99 -3 -113 -18 -125 -47l-5 -12h-18c3 38 4 107 1 150c88 -5 184 -5 279 0v-24z" />
    <glyph glyph-name="eight.denominator" horiz-adv-x="368" 
d="M353 103c0 -74 -78 -122 -177 -122c-101 0 -161 49 -161 110c0 43 40 75 82 86c-36 24 -64 52 -64 90c0 55 53 107 155 107c86 0 140 -36 140 -85c0 -35 -34 -59 -78 -68c51 -29 103 -60 103 -118zM152 316c0 -34 30 -56 67 -78c7 15 8 33 8 54c0 37 -19 59 -45 59
c-18 0 -30 -14 -30 -35zM123 91c0 -52 29 -85 65 -85c25 0 44 16 44 43c0 45 -49 74 -99 105c-7 -19 -10 -41 -10 -63z" />
    <glyph glyph-name="nine.denominator" horiz-adv-x="356" 
d="M344 218c0 -110 -82 -202 -272 -237l-5 23c87 21 129 61 141 119c-15 -5 -31 -7 -49 -7c-88 0 -149 50 -149 124c0 82 77 134 160 134c101 0 174 -67 174 -156zM181 145c15 0 25 18 25 65c0 90 -21 139 -39 139c-14 0 -24 -18 -24 -67c0 -87 22 -137 38 -137z" />
    <glyph glyph-name="onehalf" unicode="&#xbd;" horiz-adv-x="711" 
d="M67 427v134c0 53 0 66 -37 63l-14 -1l-2 25c68 8 133 27 186 51l9 -8c-1 -29 -2 -82 -2 -110v-154c0 -69 2 -73 38 -80l10 -2v-23c-77 5 -159 5 -236 0v23l10 2c35 7 38 11 38 80zM80 0l476 680h53l-476 -680h-53zM691 145c-15 -45 -22 -106 -24 -148
c-96 5 -188 5 -287 0v27c137 125 162 202 162 251c0 48 -17 69 -39 69c-27 0 -33 -40 -28 -109l-15 -5c-47 0 -73 13 -73 46s45 98 151 98c88 0 140 -49 140 -108c0 -91 -89 -107 -206 -183l49 5c116 11 124 17 145 52l7 12z" />
    <glyph glyph-name="onethird" unicode="&#x2153;" horiz-adv-x="707" 
d="M67 427v134c0 53 0 66 -37 63l-14 -1l-2 25c68 8 133 27 186 51l9 -8c-1 -29 -2 -82 -2 -110v-154c0 -69 2 -73 38 -80l10 -2v-23c-77 5 -159 5 -236 0v23l10 2c35 7 38 11 38 80zM80 0l476 680h53l-476 -680h-53zM697 107c0 -68 -66 -126 -173 -126
c-75 0 -120 37 -120 78c0 27 21 41 52 47l14 -4c12 -51 32 -97 60 -97c19 0 31 21 31 57c0 52 -18 103 -63 121l-5 2l103 86l-31 -1c-94 -4 -105 -20 -113 -43l-4 -12h-21c5 35 6 104 2 143c84 -5 159 -5 242 0v-72l-120 -85c80 11 146 -30 146 -94z" />
    <glyph glyph-name="onequarter" unicode="&#xbc;" horiz-adv-x="693" 
d="M67 427v134c0 53 0 66 -37 63l-14 -1l-2 25c68 8 133 27 186 51l9 -8c-1 -29 -2 -82 -2 -110v-154c0 -69 2 -73 38 -80l10 -2v-23c-77 5 -159 5 -236 0v23l10 2c35 7 38 11 38 80zM85 0l476 680h53l-476 -680h-53zM649 21v-24c-71 4 -148 4 -220 0v24l11 2
c29 5 36 9 38 49c-51 0 -101 -1 -151 -2v24l191 271c29 -3 58 -5 85 -5c-2 -29 -3 -80 -3 -108v-107c45 7 49 18 62 37l5 7l13 -3c-10 -40 -17 -84 -19 -116c-20 1 -40 1 -61 1c2 -39 10 -42 39 -48zM478 264l-86 -129l86 4v125z" />
    <glyph glyph-name="onefifth" horiz-adv-x="669" 
d="M67 427v134c0 53 0 66 -37 63l-14 -1l-2 25c68 8 133 27 186 51l9 -8c-1 -29 -2 -82 -2 -110v-154c0 -69 2 -73 38 -80l10 -2v-23c-77 5 -159 5 -236 0v23l10 2c35 7 38 11 38 80zM80 0l476 680h53l-476 -680h-53zM654 110c0 -69 -60 -129 -161 -129
c-81 0 -124 44 -124 80c0 28 21 36 53 42l14 -4c10 -51 27 -93 53 -93c21 0 32 20 32 54c0 56 -32 129 -119 129h-9l25 166c153 -5 167 -1 188 16l12 10l13 -5c-10 -32 -18 -75 -19 -110c-58 4 -96 4 -178 4l-13 -55c27 8 51 13 82 13c87 0 151 -52 151 -118z" />
    <glyph glyph-name="onesixth" horiz-adv-x="699" 
d="M67 427v134c0 53 0 66 -37 63l-14 -1l-2 25c68 8 133 27 186 51l9 -8c-1 -29 -2 -82 -2 -110v-154c0 -69 2 -73 38 -80l10 -2v-23c-77 5 -159 5 -236 0v23l10 2c35 7 38 11 38 80zM82 0l476 680h53l-476 -680h-53zM689 115c0 -82 -77 -134 -160 -134
c-101 0 -174 67 -174 156c0 110 82 202 272 237l5 -23c-87 -21 -129 -61 -141 -119c15 5 31 7 49 7c88 0 149 -50 149 -124zM518 210c-15 0 -25 -18 -25 -65c0 -90 21 -139 39 -139c14 0 24 18 24 67c0 87 -22 137 -38 137z" />
    <glyph glyph-name="oneseventh" horiz-adv-x="712" 
d="M67 427v134c0 53 0 66 -37 63l-14 -1l-2 25c68 8 133 27 186 51l9 -8c-1 -29 -2 -82 -2 -110v-154c0 -69 2 -73 38 -80l10 -2v-23c-77 5 -159 5 -236 0v23l10 2c35 7 38 11 38 80zM80 0l476 680h53l-476 -680h-53zM707 334c-74 -105 -90 -212 -95 -334h-155l-7 12
l189 257l-64 -2c-99 -3 -113 -18 -125 -47l-5 -12h-18c3 38 4 107 1 150c88 -5 184 -5 279 0v-24z" />
    <glyph glyph-name="oneeighth" unicode="&#x215b;" horiz-adv-x="727" 
d="M67 427v134c0 53 0 66 -37 63l-14 -1l-2 25c68 8 133 27 186 51l9 -8c-1 -29 -2 -82 -2 -110v-154c0 -69 2 -73 38 -80l10 -2v-23c-77 5 -159 5 -236 0v23l10 2c35 7 38 11 38 80zM80 0l476 680h53l-476 -680h-53zM712 103c0 -74 -78 -122 -177 -122
c-101 0 -161 49 -161 110c0 43 40 75 82 86c-36 24 -64 52 -64 90c0 55 53 107 155 107c86 0 140 -36 140 -85c0 -35 -34 -59 -78 -68c51 -29 103 -60 103 -118zM511 316c0 -34 30 -56 67 -78c7 15 8 33 8 54c0 37 -19 59 -45 59c-18 0 -30 -14 -30 -35zM482 91
c0 -52 29 -85 65 -85c25 0 44 16 44 43c0 45 -49 74 -99 105c-7 -19 -10 -41 -10 -63z" />
    <glyph glyph-name="oneninth" horiz-adv-x="718" 
d="M67 427v134c0 53 0 66 -37 63l-14 -1l-2 25c68 8 133 27 186 51l9 -8c-1 -29 -2 -82 -2 -110v-154c0 -69 2 -73 38 -80l10 -2v-23c-77 5 -159 5 -236 0v23l10 2c35 7 38 11 38 80zM80 0l476 680h53l-476 -680h-53zM706 218c0 -110 -82 -202 -272 -237l-5 23
c87 21 129 61 141 119c-15 -5 -31 -7 -49 -7c-88 0 -149 50 -149 124c0 82 77 134 160 134c101 0 174 -67 174 -156zM543 145c15 0 25 18 25 65c0 90 -21 139 -39 139c-14 0 -24 -18 -24 -67c0 -87 22 -137 38 -137z" />
    <glyph glyph-name="twothirds" unicode="&#x2154;" horiz-adv-x="753" 
d="M321 470c-15 -45 -22 -106 -24 -148c-96 5 -188 5 -287 0v27c137 125 162 202 162 251c0 48 -17 69 -39 69c-27 0 -33 -40 -28 -109l-15 -5c-47 0 -73 13 -73 46s45 98 151 98c88 0 140 -49 140 -108c0 -91 -89 -107 -206 -183l49 5c116 11 124 17 145 52l7 12zM126 0
l476 680h53l-476 -680h-53zM743 107c0 -68 -66 -126 -173 -126c-75 0 -120 37 -120 78c0 27 21 41 52 47l14 -4c12 -51 32 -97 60 -97c19 0 31 21 31 57c0 52 -18 103 -63 121l-5 2l103 86l-31 -1c-94 -4 -105 -20 -113 -43l-4 -12h-21c5 35 6 104 2 143c84 -5 159 -5 242 0
v-72l-120 -85c80 11 146 -30 146 -94z" />
    <glyph glyph-name="twofifths" horiz-adv-x="715" 
d="M321 470c-15 -45 -22 -106 -24 -148c-96 5 -188 5 -287 0v27c137 125 162 202 162 251c0 48 -17 69 -39 69c-27 0 -33 -40 -28 -109l-15 -5c-47 0 -73 13 -73 46s45 98 151 98c88 0 140 -49 140 -108c0 -91 -89 -107 -206 -183l49 5c116 11 124 17 145 52l7 12zM126 0
l476 680h53l-476 -680h-53zM700 110c0 -69 -60 -129 -161 -129c-81 0 -124 44 -124 80c0 28 21 36 53 42l14 -4c10 -51 27 -93 53 -93c21 0 32 20 32 54c0 56 -32 129 -119 129h-9l25 166c153 -5 167 -1 188 16l12 10l13 -5c-10 -32 -18 -75 -19 -110c-58 4 -96 4 -178 4
l-13 -55c27 8 51 13 82 13c87 0 151 -52 151 -118z" />
    <glyph glyph-name="twosevenths" horiz-adv-x="758" 
d="M321 470c-15 -45 -22 -106 -24 -148c-96 5 -188 5 -287 0v27c137 125 162 202 162 251c0 48 -17 69 -39 69c-27 0 -33 -40 -28 -109l-15 -5c-47 0 -73 13 -73 46s45 98 151 98c88 0 140 -49 140 -108c0 -91 -89 -107 -206 -183l49 5c116 11 124 17 145 52l7 12zM126 0
l476 680h53l-476 -680h-53zM753 334c-74 -105 -90 -212 -95 -334h-155l-7 12l189 257l-64 -2c-99 -3 -113 -18 -125 -47l-5 -12h-18c3 38 4 107 1 150c88 -5 184 -5 279 0v-24z" />
    <glyph glyph-name="twoninths" horiz-adv-x="764" 
d="M321 470c-15 -45 -22 -106 -24 -148c-96 5 -188 5 -287 0v27c137 125 162 202 162 251c0 48 -17 69 -39 69c-27 0 -33 -40 -28 -109l-15 -5c-47 0 -73 13 -73 46s45 98 151 98c88 0 140 -49 140 -108c0 -91 -89 -107 -206 -183l49 5c116 11 124 17 145 52l7 12zM122 0
l476 680h53l-476 -680h-53zM752 218c0 -110 -82 -202 -272 -237l-5 23c87 21 129 61 141 119c-15 -5 -31 -7 -49 -7c-88 0 -149 50 -149 124c0 82 77 134 160 134c101 0 174 -67 174 -156zM589 145c15 0 25 18 25 65c0 90 -21 139 -39 139c-14 0 -24 -18 -24 -67
c0 -87 22 -137 38 -137z" />
    <glyph glyph-name="threequarters" unicode="&#xbe;" horiz-adv-x="700" 
d="M303 432c0 -68 -66 -126 -173 -126c-75 0 -120 37 -120 78c0 27 21 41 52 47l14 -4c12 -51 32 -97 60 -97c19 0 31 21 31 57c0 52 -18 103 -63 121l-5 2l103 86l-31 -1c-94 -4 -105 -20 -113 -43l-4 -12h-21c5 35 6 104 2 143c84 -5 159 -5 242 0v-72l-120 -85
c80 11 146 -30 146 -94zM107 0l476 680h53l-476 -680h-53zM656 21v-24c-71 4 -148 4 -220 0v24l11 2c29 5 36 9 38 49c-51 0 -101 -1 -151 -2v24l191 271c29 -3 58 -5 85 -5c-2 -29 -3 -80 -3 -108v-107c45 7 49 18 62 37l5 7l13 -3c-10 -40 -17 -84 -19 -116
c-20 1 -40 1 -61 1c2 -39 10 -42 39 -48zM485 264l-86 -129l86 4v125z" />
    <glyph glyph-name="threefifths" horiz-adv-x="671" 
d="M303 432c0 -68 -66 -126 -173 -126c-75 0 -120 37 -120 78c0 27 21 41 52 47l14 -4c12 -51 32 -97 60 -97c19 0 31 21 31 57c0 52 -18 103 -63 121l-5 2l103 86l-31 -1c-94 -4 -105 -20 -113 -43l-4 -12h-21c5 35 6 104 2 143c84 -5 159 -5 242 0v-72l-120 -85
c80 11 146 -30 146 -94zM77 0l476 680h53l-476 -680h-53zM656 110c0 -69 -60 -129 -161 -129c-81 0 -124 44 -124 80c0 28 21 36 53 42l14 -4c10 -51 27 -93 53 -93c21 0 32 20 32 54c0 56 -32 129 -119 129h-9l25 166c153 -5 167 -1 188 16l12 10l13 -5
c-10 -32 -18 -75 -19 -110c-58 4 -96 4 -178 4l-13 -55c27 8 51 13 82 13c87 0 151 -52 151 -118z" />
    <glyph glyph-name="threesevenths" horiz-adv-x="709" 
d="M303 432c0 -68 -66 -126 -173 -126c-75 0 -120 37 -120 78c0 27 21 41 52 47l14 -4c12 -51 32 -97 60 -97c19 0 31 21 31 57c0 52 -18 103 -63 121l-5 2l103 86l-31 -1c-94 -4 -105 -20 -113 -43l-4 -12h-21c5 35 6 104 2 143c84 -5 159 -5 242 0v-72l-120 -85
c80 11 146 -30 146 -94zM77 0l476 680h53l-476 -680h-53zM704 334c-74 -105 -90 -212 -95 -334h-155l-7 12l189 257l-64 -2c-99 -3 -113 -18 -125 -47l-5 -12h-18c3 38 4 107 1 150c88 -5 184 -5 279 0v-24z" />
    <glyph glyph-name="threeeighths" unicode="&#x215c;" horiz-adv-x="729" 
d="M303 432c0 -68 -66 -126 -173 -126c-75 0 -120 37 -120 78c0 27 21 41 52 47l14 -4c12 -51 32 -97 60 -97c19 0 31 21 31 57c0 52 -18 103 -63 121l-5 2l103 86l-31 -1c-94 -4 -105 -20 -113 -43l-4 -12h-21c5 35 6 104 2 143c84 -5 159 -5 242 0v-72l-120 -85
c80 11 146 -30 146 -94zM82 0l476 680h53l-476 -680h-53zM714 103c0 -74 -78 -122 -177 -122c-101 0 -161 49 -161 110c0 43 40 75 82 86c-36 24 -64 52 -64 90c0 55 53 107 155 107c86 0 140 -36 140 -85c0 -35 -34 -59 -78 -68c51 -29 103 -60 103 -118zM513 316
c0 -34 30 -56 67 -78c7 15 8 33 8 54c0 37 -19 59 -45 59c-18 0 -30 -14 -30 -35zM484 91c0 -52 29 -85 65 -85c25 0 44 16 44 43c0 45 -49 74 -99 105c-7 -19 -10 -41 -10 -63z" />
    <glyph glyph-name="fourfifths" horiz-adv-x="737" 
d="M331 346v-24c-71 4 -148 4 -220 0v24l11 2c29 5 36 9 38 49c-51 0 -101 -1 -151 -2v24l191 271c29 -3 58 -5 85 -5c-2 -29 -3 -80 -3 -108v-107c45 7 49 18 62 37l5 7l13 -3c-10 -40 -17 -84 -19 -116c-20 1 -40 1 -61 1c2 -39 10 -42 39 -48zM148 0l476 680h53
l-476 -680h-53zM160 589l-86 -129l86 4v125zM722 110c0 -69 -60 -129 -161 -129c-81 0 -124 44 -124 80c0 28 21 36 53 42l14 -4c10 -51 27 -93 53 -93c21 0 32 20 32 54c0 56 -32 129 -119 129h-9l25 166c153 -5 167 -1 188 16l12 10l13 -5c-10 -32 -18 -75 -19 -110
c-58 4 -96 4 -178 4l-13 -55c27 8 51 13 82 13c87 0 151 -52 151 -118z" />
    <glyph glyph-name="foursevenths" horiz-adv-x="780" 
d="M331 346v-24c-71 4 -148 4 -220 0v24l11 2c29 5 36 9 38 49c-51 0 -101 -1 -151 -2v24l191 271c29 -3 58 -5 85 -5c-2 -29 -3 -80 -3 -108v-107c45 7 49 18 62 37l5 7l13 -3c-10 -40 -17 -84 -19 -116c-20 1 -40 1 -61 1c2 -39 10 -42 39 -48zM152 0l476 680h53
l-476 -680h-53zM160 589l-86 -129l86 4v125zM775 334c-74 -105 -90 -212 -95 -334h-155l-7 12l189 257l-64 -2c-99 -3 -113 -18 -125 -47l-5 -12h-18c3 38 4 107 1 150c88 -5 184 -5 279 0v-24z" />
    <glyph glyph-name="fourninths" horiz-adv-x="806" 
d="M331 346v-24c-71 4 -148 4 -220 0v24l11 2c29 5 36 9 38 49c-51 0 -101 -1 -151 -2v24l191 271c29 -3 58 -5 85 -5c-2 -29 -3 -80 -3 -108v-107c45 7 49 18 62 37l5 7l13 -3c-10 -40 -17 -84 -19 -116c-20 1 -40 1 -61 1c2 -39 10 -42 39 -48zM158 0l476 680h53
l-476 -680h-53zM160 589l-86 -129l86 4v125zM794 218c0 -110 -82 -202 -272 -237l-5 23c87 21 129 61 141 119c-15 -5 -31 -7 -49 -7c-88 0 -149 50 -149 124c0 82 77 134 160 134c101 0 174 -67 174 -156zM631 145c15 0 25 18 25 65c0 90 -21 139 -39 139
c-14 0 -24 -18 -24 -67c0 -87 22 -137 38 -137z" />
    <glyph glyph-name="fivesixths" horiz-adv-x="683" 
d="M295 435c0 -69 -60 -129 -161 -129c-81 0 -124 44 -124 80c0 28 21 36 53 42l14 -4c10 -51 27 -93 53 -93c21 0 32 20 32 54c0 56 -32 129 -119 129h-9l25 166c153 -5 167 -1 188 16l12 10l13 -5c-10 -32 -18 -75 -19 -110c-58 4 -96 4 -178 4l-13 -55c27 8 51 13 82 13
c87 0 151 -52 151 -118zM75 0l476 680h53l-476 -680h-53zM673 115c0 -82 -77 -134 -160 -134c-101 0 -174 67 -174 156c0 110 82 202 272 237l5 -23c-87 -21 -129 -61 -141 -119c15 5 31 7 49 7c88 0 149 -50 149 -124zM502 210c-15 0 -25 -18 -25 -65
c0 -90 21 -139 39 -139c14 0 24 18 24 67c0 87 -22 137 -38 137z" />
    <glyph glyph-name="fivesevenths" horiz-adv-x="696" 
d="M295 435c0 -69 -60 -129 -161 -129c-81 0 -124 44 -124 80c0 28 21 36 53 42l14 -4c10 -51 27 -93 53 -93c21 0 32 20 32 54c0 56 -32 129 -119 129h-9l25 166c153 -5 167 -1 188 16l12 10l13 -5c-10 -32 -18 -75 -19 -110c-58 4 -96 4 -178 4l-13 -55c27 8 51 13 82 13
c87 0 151 -52 151 -118zM69 0l476 680h53l-476 -680h-53zM691 334c-74 -105 -90 -212 -95 -334h-155l-7 12l189 257l-64 -2c-99 -3 -113 -18 -125 -47l-5 -12h-18c3 38 4 107 1 150c88 -5 184 -5 279 0v-24z" />
    <glyph glyph-name="fiveeighths" unicode="&#x215d;" horiz-adv-x="721" 
d="M295 435c0 -69 -60 -129 -161 -129c-81 0 -124 44 -124 80c0 28 21 36 53 42l14 -4c10 -51 27 -93 53 -93c21 0 32 20 32 54c0 56 -32 129 -119 129h-9l25 166c153 -5 167 -1 188 16l12 10l13 -5c-10 -32 -18 -75 -19 -110c-58 4 -96 4 -178 4l-13 -55c27 8 51 13 82 13
c87 0 151 -52 151 -118zM74 0l476 680h53l-476 -680h-53zM706 103c0 -74 -78 -122 -177 -122c-101 0 -161 49 -161 110c0 43 40 75 82 86c-36 24 -64 52 -64 90c0 55 53 107 155 107c86 0 140 -36 140 -85c0 -35 -34 -59 -78 -68c51 -29 103 -60 103 -118zM505 316
c0 -34 30 -56 67 -78c7 15 8 33 8 54c0 37 -19 59 -45 59c-18 0 -30 -14 -30 -35zM476 91c0 -52 29 -85 65 -85c25 0 44 16 44 43c0 45 -49 74 -99 105c-7 -19 -10 -41 -10 -63z" />
    <glyph glyph-name="fiveninths" horiz-adv-x="722" 
d="M295 435c0 -69 -60 -129 -161 -129c-81 0 -124 44 -124 80c0 28 21 36 53 42l14 -4c10 -51 27 -93 53 -93c21 0 32 20 32 54c0 56 -32 129 -119 129h-9l25 166c153 -5 167 -1 188 16l12 10l13 -5c-10 -32 -18 -75 -19 -110c-58 4 -96 4 -178 4l-13 -55c27 8 51 13 82 13
c87 0 151 -52 151 -118zM74 0l476 680h53l-476 -680h-53zM710 218c0 -110 -82 -202 -272 -237l-5 23c87 21 129 61 141 119c-15 -5 -31 -7 -49 -7c-88 0 -149 50 -149 124c0 82 77 134 160 134c101 0 174 -67 174 -156zM547 145c15 0 25 18 25 65c0 90 -21 139 -39 139
c-14 0 -24 -18 -24 -67c0 -87 22 -137 38 -137z" />
    <glyph glyph-name="sixsevenths" horiz-adv-x="761" 
d="M346 440c0 -82 -77 -134 -160 -134c-101 0 -174 67 -174 156c0 110 82 202 272 237l5 -23c-87 -21 -129 -61 -141 -119c15 5 31 7 49 7c88 0 149 -50 149 -124zM119 0l476 680h53l-476 -680h-53zM175 535c-15 0 -25 -18 -25 -65c0 -90 21 -139 39 -139c14 0 24 18 24 67
c0 87 -22 137 -38 137zM746 334c-74 -105 -90 -212 -95 -334h-155l-7 12l189 257l-64 -2c-99 -3 -113 -18 -125 -47l-5 -12h-18c3 38 4 107 1 150c88 -5 184 -5 279 0v-24z" />
    <glyph glyph-name="seveneighths" unicode="&#x215e;" horiz-adv-x="695" 
d="M295 659c-74 -105 -90 -212 -95 -334h-155l-7 12l189 257l-64 -2c-99 -3 -113 -18 -125 -47l-5 -12h-18c3 38 4 107 1 150c88 -5 184 -5 279 0v-24zM33 0l476 680h53l-476 -680h-53zM680 103c0 -74 -78 -122 -177 -122c-101 0 -161 49 -161 110c0 43 40 75 82 86
c-36 24 -64 52 -64 90c0 55 53 107 155 107c86 0 140 -36 140 -85c0 -35 -34 -59 -78 -68c51 -29 103 -60 103 -118zM479 316c0 -34 30 -56 67 -78c7 15 8 33 8 54c0 37 -19 59 -45 59c-18 0 -30 -14 -30 -35zM450 91c0 -52 29 -85 65 -85c25 0 44 16 44 43
c0 45 -49 74 -99 105c-7 -19 -10 -41 -10 -63z" />
    <glyph glyph-name="sevenninths" horiz-adv-x="681" 
d="M295 659c-74 -105 -90 -212 -95 -334h-155l-7 12l189 257l-64 -2c-99 -3 -113 -18 -125 -47l-5 -12h-18c3 38 4 107 1 150c88 -5 184 -5 279 0v-24zM28 0l476 680h53l-476 -680h-53zM669 218c0 -110 -82 -202 -272 -237l-5 23c87 21 129 61 141 119c-15 -5 -31 -7 -49 -7
c-88 0 -149 50 -149 124c0 82 77 134 160 134c101 0 174 -67 174 -156zM506 145c15 0 25 18 25 65c0 90 -21 139 -39 139c-14 0 -24 -18 -24 -67c0 -87 22 -137 38 -137z" />
    <glyph glyph-name="eightninths" horiz-adv-x="771" 
d="M353 428c0 -74 -78 -122 -177 -122c-101 0 -161 49 -161 110c0 43 40 75 82 86c-36 24 -64 52 -64 90c0 55 53 107 155 107c86 0 140 -36 140 -85c0 -35 -34 -59 -78 -68c51 -29 103 -60 103 -118zM128 0l476 680h53l-476 -680h-53zM152 641c0 -34 30 -56 67 -78
c7 15 8 33 8 54c0 37 -19 59 -45 59c-18 0 -30 -14 -30 -35zM123 416c0 -52 29 -85 65 -85c25 0 44 16 44 43c0 45 -49 74 -99 105c-7 -19 -10 -41 -10 -63zM759 218c0 -110 -82 -202 -272 -237l-5 23c87 21 129 61 141 119c-15 -5 -31 -7 -49 -7c-88 0 -149 50 -149 124
c0 82 77 134 160 134c101 0 174 -67 174 -156zM596 145c15 0 25 18 25 65c0 90 -21 139 -39 139c-14 0 -24 -18 -24 -67c0 -87 22 -137 38 -137z" />
    <glyph glyph-name="plus" unicode="+" 
d="M440 316h-165v-175h-50v175h-165v48h165v175h50v-175h165v-48z" />
    <glyph glyph-name="minus" unicode="&#x2212;" 
d="M440 316h-380v48h380v-48z" />
    <glyph glyph-name="multiply" unicode="&#xd7;" 
d="M416 471l-131 -131l131 -131l-35 -35l-131 131l-131 -131l-35 35l131 131l-131 131l35 35l131 -131l131 131z" />
    <glyph glyph-name="divide" unicode="&#xf7;" 
d="M327 489c0 -42 -32 -75 -77 -75c-44 0 -76 33 -76 75c0 44 32 76 76 76s77 -32 77 -76zM440 316h-380v48h380v-48zM327 190c0 -42 -32 -75 -77 -75c-44 0 -76 33 -76 75c0 44 32 76 76 76s77 -32 77 -76z" />
    <glyph glyph-name="equal" unicode="=" 
d="M440 396h-380v48h380v-48zM440 236h-380v48h380v-48z" />
    <glyph glyph-name="logicalnot" unicode="&#xac;" 
d="M440 364v-223h-50v175h-330v48h380z" />
    <glyph glyph-name="asciitilde" unicode="~" 
d="M440 326c-25 -15 -52 -28 -90 -28c-79 0 -127 36 -194 36c-39 0 -70 -15 -96 -28v48c26 13 60 28 96 28c80 0 120 -36 194 -36c43 0 67 13 90 28v-48z" />
    <glyph glyph-name="less" unicode="&#x3c;" 
d="M440 167v-52l-380 200v39l380 200v-52l-324 -167z" />
    <glyph glyph-name="greater" unicode="&#x3e;" 
d="M440 315l-380 -200v52l324 168l-324 167v52l380 -200v-39z" />
    <glyph glyph-name="plusminus" unicode="&#xb1;" 
d="M440 316h-165v-175h-50v175h-165v48h165v175h50v-175h165v-48zM440 0h-380v48h380v-48z" />
    <glyph glyph-name="asciicircum" unicode="^" 
d="M385 306l-137 305l-133 -305h-55l170 374h39l171 -374h-55z" />
    <glyph glyph-name="notequal" unicode="&#x2260;" 
d="M440 236h-196l-29 -100h-50l29 100h-134v48h149l32 112h-181v48h196l29 100h50l-29 -100h134v-48h-149l-32 -112h181v-48z" />
    <glyph glyph-name="approxequal" unicode="&#x2248;" 
d="M440 396c-25 -15 -52 -28 -90 -28c-79 0 -127 36 -194 36c-39 0 -70 -15 -96 -28v48c26 13 60 28 96 28c80 0 120 -36 194 -36c43 0 67 13 90 28v-48zM440 256c-25 -15 -52 -28 -90 -28c-79 0 -127 36 -194 36c-39 0 -70 -15 -96 -28v48c26 13 60 28 96 28
c80 0 120 -36 194 -36c43 0 67 13 90 28v-48z" />
    <glyph glyph-name="lessequal" unicode="&#x2264;" 
d="M440 167v-52l-380 200v39l380 200v-52l-324 -167zM440 0h-380v48h380v-48z" />
    <glyph glyph-name="greaterequal" unicode="&#x2265;" 
d="M440 315l-380 -200v52l324 168l-324 167v52l380 -200v-39zM440 0h-380v48h380v-48z" />
    <glyph glyph-name="infinity" unicode="&#x221e;" horiz-adv-x="564" 
d="M549 291c0 -95 -59 -147 -130 -147c-68 0 -111 49 -140 114c-32 -59 -69 -114 -141 -114c-68 0 -123 44 -123 151c0 95 59 148 130 148c64 0 105 -45 133 -106c31 56 68 106 136 106c74 0 135 -45 135 -152zM58 295c0 -63 25 -110 80 -110c58 0 89 54 119 112
c-37 74 -62 104 -113 104s-86 -41 -86 -106zM414 401c-56 0 -86 -49 -115 -104c38 -80 66 -112 121 -112c51 0 86 41 86 106c0 64 -29 110 -92 110z" />
    <glyph glyph-name="lozenge" unicode="&#x25ca;" horiz-adv-x="490" 
d="M15 334l221 306h22l217 -306v-30l-217 -304h-22l-221 304v30zM38 319l268 -109l146 109l-263 111z" />
    <glyph glyph-name="radical" unicode="&#x221a;" horiz-adv-x="553" 
d="M543 721l-224 -721h-104l-136 354c-18 47 -33 58 -51 68l-18 10v31c76 -5 152 16 205 50h20l111 -305l154 513h43z" />
    <glyph glyph-name="integral" unicode="&#x222b;" horiz-adv-x="538" 
d="M385 610v-584c0 -137 -92 -255 -252 -255c-97 0 -153 60 -153 112c0 43 33 65 88 68l19 -6c4 -63 21 -144 46 -144c17 0 20 32 20 100v584c0 137 92 255 252 255c97 0 153 -60 153 -112c0 -43 -33 -65 -88 -68l-19 6c-4 63 -21 144 -46 144c-17 0 -20 -32 -20 -100z" />
    <glyph glyph-name="partialdiff" unicode="&#x2202;" horiz-adv-x="607" 
d="M591 286c0 -201 -130 -305 -293 -305c-174 0 -282 114 -282 271c0 171 131 275 294 275c6 0 13 0 28 -1c-36 81 -111 146 -211 172l9 30c318 -62 455 -245 455 -442zM363 133c0 158 -40 355 -84 355c-22 0 -34 -40 -34 -113c0 -158 40 -355 84 -355c22 0 34 40 34 113z
" />
    <glyph glyph-name="product" unicode="&#x220f;" horiz-adv-x="772" 
d="M465 642h-158v-604c0 -123 1 -143 23 -147l17 -3v-31c-99 5 -224 5 -322 0v31l17 3c22 4 23 24 23 147v467c0 123 -1 140 -23 144l-17 3v31c288 -6 430 -6 722 0v-31l-17 -3c-22 -4 -23 -21 -23 -144v-467c0 -123 1 -143 23 -147l17 -3v-31c-99 5 -224 5 -322 0v31l17 3
c22 4 23 24 23 147v604z" />
    <glyph glyph-name="mu" unicode="&#xb5;" horiz-adv-x="714" 
d="M206 -110c0 -54 -28 -108 -109 -108c-48 0 -97 40 -97 108c0 91 71 150 71 266v352h232v-316c0 -66 18 -93 49 -93c14 0 28 8 39 21v388h232v-363c0 -34 7 -48 25 -48c15 0 25 7 39 22l17 -14c-35 -85 -89 -124 -170 -124c-83 0 -126 42 -139 108
c-26 -66 -68 -108 -129 -108c-69 0 -114 36 -133 149h-12c4 -106 85 -149 85 -240z" />
    <glyph glyph-name="summation" unicode="&#x2211;" horiz-adv-x="625" 
d="M615 135c-13 -86 -24 -192 -28 -280c-165 7 -383 5 -554 0l-12 33l284 303l-295 461v31c189 -5 378 -5 566 0c0 -74 4 -152 10 -229l-29 -3l-18 39c-49 106 -93 143 -185 147l-94 4l218 -333l-281 -291l157 5c177 5 212 37 224 85l8 32z" />
    <glyph glyph-name="Omega" unicode="&#x2126;" horiz-adv-x="752" 
d="M742 243c-23 -78 -37 -175 -41 -246c-92 3 -196 3 -290 0v129c37 78 41 156 41 221c0 167 -69 311 -120 311c-32 0 -57 -49 -57 -165c0 -134 31 -264 85 -366v-130c-100 3 -211 3 -309 0c-4 71 -18 168 -41 246l25 7l11 -22c25 -50 42 -89 253 -97
c-136 41 -266 133 -266 282c0 165 146 286 326 286c176 0 339 -113 339 -291c0 -116 -73 -210 -239 -277c206 8 222 48 247 97l11 22z" />
    <glyph glyph-name="Delta" unicode="&#x2206;" horiz-adv-x="699" 
d="M689 30l-10 -30h-658l-11 30l253 639c50 3 94 12 131 30h20zM104 156h274l-138 345z" />
    <glyph glyph-name="uni2113" unicode="&#x2113;" horiz-adv-x="431" 
d="M415 106c-47 -81 -124 -125 -205 -125c-103 0 -175 56 -175 188v283c0 207 117 288 234 288c97 0 146 -57 146 -144c0 -117 -61 -196 -148 -273v-137c0 -71 26 -94 65 -94c28 0 54 12 71 25zM267 617v-250c67 62 106 130 106 225c0 62 -29 95 -62 95
c-32 0 -44 -20 -44 -70z" />
    <glyph glyph-name="arrowleft" unicode="&#x2190;" horiz-adv-x="707" 
d="M273 315c0 -54 36 -137 70 -205l-22 -15c-105 102 -202 163 -318 223v26c116 60 213 121 318 223l22 -15c-34 -68 -70 -151 -70 -205h9c137 0 228 78 311 78c77 0 109 -44 109 -94c0 -52 -33 -94 -107 -94c-85 0 -178 78 -313 78h-9z" />
    <glyph glyph-name="arrowup" unicode="&#x2191;" horiz-adv-x="476" 
d="M254 410v-9c0 -133 78 -225 78 -309c0 -74 -42 -107 -94 -107c-50 0 -94 32 -94 109c0 82 78 172 78 307v9c-54 0 -137 -36 -205 -70l-15 22c102 105 163 202 223 318h26c60 -116 121 -213 223 -318l-15 -22c-68 34 -151 70 -205 70z" />
    <glyph glyph-name="arrowright" unicode="&#x2192;" horiz-adv-x="707" 
d="M434 315h-9c-135 0 -228 -78 -313 -78c-74 0 -107 42 -107 94c0 50 32 94 109 94c83 0 174 -78 311 -78h9c0 54 -36 137 -70 205l22 15c105 -102 202 -163 318 -223v-26c-116 -60 -213 -121 -318 -223l-22 15c34 68 70 151 70 205z" />
    <glyph glyph-name="arrowdown" unicode="&#x2193;" horiz-adv-x="476" 
d="M254 270c54 0 137 36 205 70l15 -22c-102 -105 -163 -202 -223 -318h-26c-60 116 -121 213 -223 318l15 22c68 -34 151 -70 205 -70v9c0 135 -78 225 -78 307c0 77 44 109 94 109c52 0 94 -33 94 -107c0 -84 -78 -176 -78 -309v-9z" />
    <glyph glyph-name="uni2194" unicode="&#x2194;" horiz-adv-x="807" 
d="M534 315h-261c0 -54 36 -137 70 -205l-22 -15c-105 102 -202 163 -318 223v26c116 60 213 121 318 223l22 -15c-34 -68 -70 -151 -70 -205h261c0 54 -36 137 -70 205l22 15c105 -102 202 -163 318 -223v-26c-116 -60 -213 -121 -318 -223l-22 15c34 68 70 151 70 205z
" />
    <glyph glyph-name="uni2195" unicode="&#x2195;" horiz-adv-x="480" 
d="M256 461v-261c54 0 137 36 205 70l15 -22c-102 -105 -163 -202 -223 -318h-26c-60 116 -121 213 -223 318l15 22c68 -34 151 -70 205 -70v261c-54 0 -137 -36 -205 -70l-15 22c102 105 163 202 223 318h26c60 -116 121 -213 223 -318l-15 -22c-68 34 -151 70 -205 70z
" />
    <glyph glyph-name="uni2196" unicode="&#x2196;" horiz-adv-x="539" 
d="M216 399l6 -7c94 -94 214 -104 274 -163c52 -52 46 -105 9 -142c-35 -35 -89 -44 -143 11c-58 58 -67 176 -162 272l-7 6c-38 -38 -71 -122 -95 -194l-26 5c-3 146 -28 258 -68 382l19 19c124 -40 236 -65 382 -68l5 -26c-72 -24 -156 -57 -194 -95z" />
    <glyph glyph-name="uni2197" unicode="&#x2197;" horiz-adv-x="539" 
d="M323 399c-38 38 -122 71 -194 95l5 26c146 3 258 28 382 68l19 -19c-40 -124 -65 -236 -68 -382l-26 -5c-24 72 -57 156 -95 194l-7 -6c-95 -96 -104 -214 -162 -272c-54 -55 -108 -46 -143 -11c-37 37 -43 90 9 142c60 59 180 69 274 163z" />
    <glyph glyph-name="uni2198" unicode="&#x2198;" horiz-adv-x="539" 
d="M323 232l-6 7c-94 94 -214 104 -274 163c-52 52 -46 105 -9 142c35 35 89 44 143 -11c58 -58 67 -176 162 -272l7 -6c38 38 71 122 95 194l26 -5c3 -146 28 -258 68 -382l-19 -19c-124 40 -236 65 -382 68l-5 26c72 24 156 57 194 95z" />
    <glyph glyph-name="uni2199" unicode="&#x2199;" horiz-adv-x="539" 
d="M216 232c38 -38 122 -71 194 -95l-5 -26c-146 -3 -258 -28 -382 -68l-19 19c40 124 65 236 68 382l26 5c24 -72 57 -156 95 -194l7 6c95 96 104 214 162 272c54 55 108 46 143 11c37 -37 43 -90 -9 -142c-60 -59 -180 -69 -274 -163z" />
    <glyph glyph-name="estimated" unicode="&#x212e;" horiz-adv-x="715" 
d="M663 257h-496c-2 0 -4 -1 -4 -3v-150c0 -7 3 -13 7 -18c47 -49 114 -80 188 -80c80 0 149 35 197 90h44c-55 -64 -143 -107 -242 -107c-169 0 -306 123 -306 275c0 153 137 277 306 277s306 -124 306 -277v-7zM551 276v151c0 8 -3 14 -8 19c-47 48 -112 78 -185 78
s-140 -31 -187 -81c-5 -4 -8 -11 -8 -19v-148c0 -2 2 -4 4 -4h381c2 0 3 2 3 4z" />
    <glyph glyph-name="at.case" horiz-adv-x="976" 
d="M714 192c-8 -33 -7 -46 12 -46c54 0 163 96 163 273c0 170 -125 292 -329 292c-295 0 -473 -233 -473 -459c0 -231 163 -333 361 -333c106 0 200 34 251 75l17 -24c-54 -49 -146 -97 -281 -97c-217 0 -400 121 -400 375c0 269 210 506 528 506c235 0 378 -143 378 -328
c0 -212 -149 -365 -310 -365c-104 0 -146 57 -108 168l60 176c-122 -280 -200 -344 -295 -344c-63 0 -99 31 -99 115c0 198 174 381 320 381c65 0 114 -33 138 -59c52 3 112 39 129 61h23zM392 251c0 -51 9 -67 25 -67c22 0 71 85 130 221c-9 63 -29 113 -60 113
c-60 0 -95 -97 -95 -267z" />
    <glyph glyph-name="questiondown.case" horiz-adv-x="597" 
d="M194 599c0 57 43 100 101 100c57 0 101 -43 101 -100c0 -56 -44 -100 -101 -100c-58 0 -101 44 -101 100zM389 26c46 0 52 75 35 213l19 6c71 -2 134 -21 134 -82c0 -96 -142 -182 -290 -182c-178 0 -267 83 -267 167c0 177 307 124 307 231c0 27 -17 50 -50 50
c-41 0 -66 -32 -81 -65l-34 18c28 51 67 82 124 82c52 0 115 -28 115 -95c0 -86 -79 -102 -79 -232c0 -67 31 -111 67 -111z" />
    <glyph glyph-name="exclamdown.case" horiz-adv-x="362" 
d="M80 599c0 57 43 100 101 100c57 0 101 -43 101 -100c0 -56 -44 -100 -101 -100c-58 0 -101 44 -101 100zM35 114c0 123 105 192 131 340h30c26 -148 131 -217 131 -340c0 -76 -48 -133 -146 -133s-146 57 -146 133z" />
    <glyph glyph-name="parenleft.case" horiz-adv-x="442" 
d="M60 332c0 186 130 347 342 418l10 -17c-116 -108 -140 -254 -140 -401c0 -143 24 -293 140 -401l-10 -17c-212 71 -342 232 -342 418z" />
    <glyph glyph-name="parenright.case" horiz-adv-x="442" 
d="M382 332c0 -186 -130 -347 -342 -418l-10 17c116 108 140 258 140 401c0 148 -24 293 -140 401l10 17c212 -71 342 -232 342 -418z" />
    <glyph glyph-name="braceleft.case" horiz-adv-x="492" 
d="M132 332c164 0 230 -72 230 -162c0 -54 -15 -101 -15 -143c0 -37 18 -53 50 -53c21 0 37 8 52 17l13 -23c-42 -38 -91 -64 -166 -64c-112 0 -161 62 -161 130c0 70 25 113 25 180c0 64 -33 98 -96 98h-24v40h24c63 0 96 34 96 98c0 67 -25 110 -25 180
c0 68 49 130 161 130c75 0 124 -26 166 -64l-13 -23c-15 9 -31 17 -52 17c-32 0 -50 -16 -50 -53c0 -42 15 -89 15 -143c0 -90 -66 -162 -230 -162z" />
    </font>
</defs>
</svg>
