<?xml version="1.0" encoding="utf-8"?>
<!-- Generator: Adobe Illustrator 19.0.0, SVG Export Plug-In . SVG Version: 6.00 Build 0)  -->
<svg version="1.1" xmlns="http://www.w3.org/2000/svg" xmlns:xlink="http://www.w3.org/1999/xlink" x="0px" y="0px"
	 viewBox="-564 391 150 20" style="enable-background:new -564 391 150 20;" xml:space="preserve">
<style type="text/css">
	.st0{display:none;}
	.st1{display:inline;}
	.st2{fill:#FFFFFF;}
	.st3{display:inline;fill:#F9F9F9;}
	.st4{font-family:'NexaDemo-Bold';}
	.st5{font-size:16.5339px;}
</style>
<g id="Layer_2">
</g>
<g id="Layer_1" class="st0">
	<g class="st1">
		<path class="st2" d="M-562.7,376.2h5.1c1.3,0,2.4,0.4,3.1,1s1.1,1.4,1.1,2.4c0,1.4-0.9,2.4-2.5,2.9c0.9,0.1,1.5,0.5,2,1.1
			c0.5,0.6,0.8,1.3,0.8,2.1c0,1-0.4,1.8-1.1,2.4s-1.8,0.9-3,0.9h-5.5V376.2z M-560.1,378.1v3.2h2.3c0.6,0,1-0.1,1.4-0.4
			c0.4-0.3,0.5-0.8,0.5-1.3s-0.1-0.9-0.5-1.3c-0.4-0.3-0.8-0.4-1.4-0.4H-560.1z M-560.1,386.8h2.6c0.6,0,1-0.1,1.4-0.5
			c0.4-0.3,0.5-0.8,0.5-1.3s-0.1-1-0.5-1.3s-0.9-0.5-1.5-0.5h-2.5V386.8z"/>
		<path class="st2" d="M-542.6,388.8l-0.9-2.4h-5l-0.6,2.4h-2.8l4.5-12.8h3l4.5,12.8H-542.6z M-547.6,384.5h3.6l-1.9-5.3
			L-547.6,384.5z"/>
		<path class="st2" d="M-536.8,387.1c-1.3-1.3-1.9-2.7-1.9-4.6s0.6-3.4,1.9-4.6c1.3-1.3,2.8-1.9,4.6-1.9c1.4,0,2.6,0.4,3.6,1
			c1.1,0.8,1.9,1.8,2.3,3h-3.1c-0.6-1.1-1.5-1.6-2.9-1.6c-1.1,0-2.1,0.4-2.8,1.1c-0.8,0.8-1.1,1.8-1.1,3s0.4,2.3,1.1,3
			c0.8,0.8,1.6,1.1,2.8,1.1c1.4,0,2.4-0.5,2.9-1.6h3.1c-0.5,1.3-1.3,2.3-2.3,3c-1.1,0.8-2.3,1-3.6,1
			C-534.1,389-535.6,388.3-536.8,387.1z"/>
		<path class="st2" d="M-521.4,388.8h-2.6v-12.6h2.6v5.6l4.6-5.6h3.4l-5.6,6.3l5.5,6.4h-3.4l-4.6-5.6v5.6H-521.4z"/>
		<path class="st2" d="M-504.4,376.1v2h-4.8v3.4h4.3v2h-4.3v3.4h4.8v2h-7.4v-12.8H-504.4z"/>
		<path class="st2" d="M-493.6,376.1h2.6v12.8h-2.6l-5.8-8.8v8.8h-2.6v-12.8h2.6l5.8,8.7V376.1z"/>
		<path class="st2" d="M-483.9,376.2c2,0,3.6,0.6,4.9,1.8s1.9,2.8,1.9,4.6s-0.6,3.5-1.9,4.6c-1.3,1.1-2.9,1.7-4.9,1.7h-4.3v-12.7
			H-483.9z M-485.7,386.8h1.8c1.4,0,2.4-0.4,3.1-1.1c0.8-0.8,1.1-1.9,1.1-3.3s-0.4-2.4-1.1-3.3s-1.8-1.1-3.1-1.1h-1.8
			C-485.7,378.1-485.7,386.8-485.7,386.8z"/>
		<path class="st2" d="M-461.3,382.5c-0.4,0.4-0.8,0.8-1.4,1s-1.4,0.4-2.3,0.4h-2.1v5h-2.6v-12.6h4.6c1.5,0,2.6,0.4,3.4,1.1
			c0.8,0.8,1.3,1.6,1.3,2.6C-460.4,381-460.7,381.7-461.3,382.5z M-467.1,381.8h2.1c0.6,0,1.1-0.1,1.5-0.5c0.4-0.4,0.5-0.7,0.5-1.4
			s-0.1-1-0.5-1.4c-0.4-0.4-0.9-0.5-1.5-0.5h-2.1C-467.1,378.1-467.1,381.8-467.1,381.8z"/>
		<path class="st2" d="M-450.2,388.8l-0.9-2.4h-5l-0.9,2.4h-2.8l4.5-12.8h3l4.5,12.8H-450.2z M-455.2,384.5h3.6l-1.9-5.3
			L-455.2,384.5z"/>
		<path class="st2" d="M-437.3,376.1h2.6v12.8h-2.6l-5.8-8.8v8.8h-2.6v-12.8h2.6l5.8,8.7V376.1z"/>
		<path class="st2" d="M-424.7,376.1v2h-4.8v3.4h4.3v2h-4.3v3.4h4.8v2h-7.4v-12.8H-424.7z"/>
		<path class="st2" d="M-422.1,376.2h2.6v10.6h4.1v2h-6.6v-12.6H-422.1z"/>
	</g>
	<text transform="matrix(1 0 0 1 -518.75 407.1042)" class="st3 st4 st5">SIKEPA</text>
</g>
</svg>
