<?xml version="1.0" encoding="utf-8"?>
<!-- Generator: Adobe Illustrator 23.0.3, SVG Export Plug-In . SVG Version: 6.00 Build 0)  -->
<svg version="1.1" id="Layer_1" xmlns="http://www.w3.org/2000/svg" xmlns:xlink="http://www.w3.org/1999/xlink" x="0px" y="0px"
	 width="677.2px" height="540.6px" viewBox="0 0 677.2 540.6" style="enable-background:new 0 0 677.2 540.6;" xml:space="preserve"
	>
<style type="text/css">
	.st0{opacity:0.3;}
	.st1{fill:#7BAEFF;}
	.st2{fill:#ADCDFC;}
	.st3{fill:#1D2A78;}
	.st4{fill:#3AAEEF;}
	.st5{fill:#FFB28F;}
	.st6{fill:#FF8569;}
	.st7{fill:#7F3535;}
	.st8{fill:#19142A;}
	.st9{fill:#35455C;}
	.st10{fill:#74DDFF;}
	.st11{fill:#62BBD9;}
	.st12{fill:#415874;}
	.st13{fill:#39587F;}
	.st14{fill:#121820;}
	.st15{fill:#476C9D;}
	.st16{fill:#34394A;}
	.st17{fill:#83B1A1;}
	.st18{fill:#4A6384;}
	.st19{fill:#DDD4E6;}
	.st20{fill:#3278CC;}
	.st21{fill:#C7D8F2;}
</style>
<g class="st0">
	<rect x="224.3" y="243" class="st1" width="453" height="233.6"/>
	<rect x="239.9" y="258.4" class="st2" width="421.7" height="197.1"/>
</g>
<g class="st0">
	<rect y="47.3" class="st1" width="186.7" height="401.3"/>
	<rect x="12.3" y="58.6" class="st2" width="162.1" height="120"/>
	<rect x="23.1" y="66" class="st1" width="42.2" height="11.7"/>
	<rect x="12.3" y="192.5" class="st2" width="162.1" height="120"/>
	<rect x="23.1" y="199.9" class="st1" width="42.2" height="11.7"/>
	<rect x="12.3" y="326.3" class="st2" width="162.1" height="120"/>
	<rect x="23.1" y="333.7" class="st1" width="42.2" height="11.7"/>
</g>
<g class="st0">
	<g>
		<rect x="321.6" class="st1" width="240" height="132"/>
	</g>
	<rect x="335.6" y="9.6" class="st2" width="212.1" height="112.8"/>
</g>
<g>
	<rect x="227.7" y="418.1" class="st3" width="17" height="99.1"/>
	<path class="st4" d="M309.6,397.7h-25.8c0.2-1.6,0.4-3.2,0.6-4.9l28.1-118.9c3.1-24.5-8.6-47.4-24.3-47.4H156.5
		c-15.6,0-27.3,22.9-24.3,47.4l28.1,118.9c1.1,12.3,4.5,22.4,9.1,28.6c2.7,5.1,8.1,8.5,14.2,8.5h125.9c8.9,0,16.1-7.2,16.1-16.1
		S318.5,397.7,309.6,397.7z"/>
	<g>
		<g>
			<path class="st5" d="M385.1,311.1c0,0,22.4,1.2,26.6,4.8c5,4.3,9.6,14.5,5.8,14.5c-3.7,0-38.2,4.8-43.6-5.3
				C368.5,314.9,385.1,311.1,385.1,311.1z"/>
			<g>
				<g>
					<path class="st6" d="M383.7,321c6.5,0.5,11.5,2.8,17.5,4.9c0.6,0.2,0.9-0.7,0.4-1c-5-3.5-12-4.5-17.9-4.8
						C383.1,320.1,383.2,320.9,383.7,321L383.7,321z"/>
				</g>
			</g>
		</g>
		<path class="st7" d="M244.1,122.4c-7.5,0.5-37.5,4.4-38.9,30c-1.3,25.6-1.6,59.9-6.9,68.8c-5.3,8.8,1.1,20.4,16.6,28.4
			c15.5,8,73.3,10.6,75.5-16.3S301.5,118.8,244.1,122.4z"/>
		<path class="st8" d="M275.5,157.1c0,0,14.2-9.8,16.9,9.6c2.7,19.5-8.2,27.6-16.2,25.5C268.3,190.1,269.3,169.1,275.5,157.1z"/>
		<path class="st9" d="M278.6,216.2c0,0,13,0.9,22.8,30.8c9.9,29.9,9.7,53,19.1,53.9c9.4,1,66.5,10.1,66.5,10.1s-13.4,6.7-13,14
			c0.4,7.2-60.5,7.2-73.5-6.3c-13-13.5-31.8-80.9-28.7-87.7C275,224.4,278.6,216.2,278.6,216.2z"/>
		<path class="st10" d="M241,215.3c0,0-24.1,5.2-26.6,14.6c-2.5,9.4,9.5,77.9,9.5,77.9l-11.3,59.4l104.4-4.4l-26.4-58.7l3.5-16.9
			c0,0,8.7-13,7.4-27.1c-1.2-14.1-16.5-42.6-22.5-43.9C266.5,213.3,241,215.3,241,215.3z"/>
		<g>
			<g>
				<path class="st11" d="M259.8,231.4c4.4,19.9,9,40,10.4,60.4c1.4,19.6-2.2,39.4,3.2,58.6c0.1,0.5,0.9,0.3,0.8-0.2
					c-2.1-10.8-2.8-21.3-2.4-32.3c0.4-10,0.6-19.8-0.3-29.7c-1.9-19.3-6.3-38.2-10.6-57C260.7,230.4,259.7,230.7,259.8,231.4
					L259.8,231.4z"/>
			</g>
		</g>
		<path class="st12" d="M290.7,304.2l3.5-16.9c0,0,8.7-13,7.4-27.1c-1.2-14.1-16.5-42.6-22.5-43.9c-4-0.9-9.3-1.4-14.7-1.5h-0.7
			c0,0,19,34.8,16.6,64.8c-1.5,19.6,3.2,59.4,6.7,84.6l30-1.3L290.7,304.2z"/>
		<path class="st12" d="M263.3,359c0,0-4.1-58.9-3.5-77.7c0.6-18.8-20.1-65.5-20.1-65.5l-0.1-0.1c-5.2,1.3-23.1,6.2-25.2,14.3
			c-2.5,9.4,9.5,77.9,9.5,77.9l-14.1,52L263.3,359z"/>
		<path class="st9" d="M235.8,235.6c-1.4-14.7-10-17.6-12.9-14.3c-13.4,15.6-38.8,50.6-31.8,59.1c9.2,11.2,1.4,9.2,13.3,7.1
			C215.3,285.6,237.3,251.6,235.8,235.6z"/>
		<path class="st13" d="M260,351.5c0,0,111.5-4.8,125.1,16c15.7,24-81.5,129.4-81.5,129.4s-16.3,9.1-11.9-14.1
			c4.4-23.2,50.6-89.1,50.6-89.1s-54,11.1-74.8,3.3C258.7,393.9,246.2,375.4,260,351.5z"/>
		<path class="st14" d="M292.2,479.9c0,0-15.7,12.9-11.7,19.7c5.8,9.8,18.8,40.3,31.3,40.9c12.4,0.7,11-6.4,7.6-11.2
			c-3.4-4.8-14.1-36.1-14.1-36.1S296.3,498.8,292.2,479.9z"/>
		<path class="st15" d="M211.5,351.8c0,0,112.8-5.1,126.4,15.8c15.7,24-81.5,129.4-81.5,129.4s-16.3,9.1-11.9-14.1
			c4.4-23.2,50.6-89.1,50.6-89.1s-54,11.1-74.8,3.3C211.6,393.9,202.9,377.2,211.5,351.8z"/>
		<path class="st14" d="M245,479.9c0,0-15.7,12.9-11.7,19.7c5.8,9.8,18.8,40.3,31.3,40.9c12.4,0.7,11-6.4,7.6-11.2
			c-3.4-4.8-14.1-36.1-14.1-36.1S249.1,498.8,245,479.9z"/>
		<path class="st5" d="M237.1,199.3l2.6,16.5c0,0,7.4,12.4,7.7,13.7c1.5,7.8-1.5,5.4,13,1.8c14.4-3.6,4.7-5.9,4.7-5.9l-1.2-10.3
			l-2.7-18L237.1,199.3z"/>
		<path class="st6" d="M261.2,197l-24,2.3l1,6.4c7.5,6.1,15.5,9.5,20.9,8.3c1.4-0.3,2.9-0.9,4.4-1.7L261.2,197z"/>
		<path class="st5" d="M279.7,162.6c3.8,21.8-9.6,44.5-21.6,47c-12,2.5-37-17.4-40.9-39.3c-3.8-21.8,7.1-41.3,24.3-43.4
			C258.8,124.8,275.9,140.8,279.7,162.6z"/>
		<path class="st7" d="M214.5,174.9c0,0,15.6-6.6,18.7-23.4c3.2-16.8,0.8-19,0.8-19s6.4,21.6,24.7,26.9s21.5,7.1,21.5,7.1
			s0.9-55.4-51.1-38.9C187.2,141,214.5,174.9,214.5,174.9z"/>
		<path class="st8" d="M209,161.7c0,0,14.6-13.3,22.6,6.4c8,19.7-3,30.5-13,30C208.5,197.6,204.5,175.5,209,161.7z"/>
		<path class="st5" d="M221.7,200.4c0,0,3.8-2.5,1.6-10.9c-2.3-8.4-9.7-17.6-6-20.7c3.7-3.1,3-7.8-0.5-7.7c-3.6,0.1-4.1,2.1-4.1,2.1
			s-5.1-5.2-11.3,3.6c-6.3,8.8,3.5,31.4,9.6,33.2C216.9,201.9,221.7,200.4,221.7,200.4z"/>
		<path class="st12" d="M205.2,197l18.6,2.4c0,0-3.8,89.9-20.6,90c-16.8,0.1-21.3-6.1-14.4-38C195.6,219.5,205.2,197,205.2,197z"/>
		<path class="st16" d="M218.1,161.5c0,0-1.9-36.8,29.3-39.2c35.5-2.7,32.8,33,32.8,33h4.8c0,0,7.8-43.2-45.1-37.1
			c-34.9,4-27.3,43.7-27.3,43.7L218.1,161.5z"/>
		<polygon class="st17" points="239.7,215.8 260.3,231.2 245.2,237.6 		"/>
		<polygon class="st17" points="263.8,215 260.3,231.2 275,232.4 		"/>
		<path class="st11" d="M258,244c2.3,0,2.3-3.6,0-3.6C255.7,240.4,255.7,244,258,244L258,244z"/>
		<path class="st11" d="M260.2,254.3c2.3,0,2.3-3.6,0-3.6C257.9,250.6,257.9,254.3,260.2,254.3L260.2,254.3z"/>
		<path class="st18" d="M239.6,215.7c-0.3,0.1-0.6,0.1-0.9,0.2c-0.7,7.6-2.3,32,3.9,35.8c7.3,4.6,9.6,7.1,9.6,7.1s-9.9,6.2-3,12.4
			c3.4,3.1,7.3,6.4,10.5,9.1c-0.1-19.4-20-64.6-20-64.6L239.6,215.7z"/>
		<path class="st18" d="M280.3,280.6c1-2.1,5.1-11.2,8-18.7c3.3-8.6-8.3-9.7-8.3-9.7s0.9-3.3,5.4-10.7c3.7-6.2-14.4-21.6-20.7-26.7
			c-0.1,0-0.2,0-0.3,0h-0.7c0,0,19,34.8,16.6,64.8C280.3,279.9,280.3,280.2,280.3,280.6z"/>
		<g>
			<g>
				<path class="st6" d="M211.8,163.5c-2.8,2.6-5.8,5.9-4.4,10c0.1,0.3,0.6,0.2,0.5-0.1c-1.4-4,1.7-7,4.3-9.4
					C212.5,163.6,212.1,163.2,211.8,163.5L211.8,163.5z"/>
			</g>
		</g>
		<g>
			<g>
				<path class="st6" d="M204.2,164c-2.7,3.5-4.4,7.1-2.3,11.4c0.1,0.3,0.6,0.1,0.5-0.2c-0.6-2.1-1.2-3.9-0.5-6.1
					c0.6-1.8,1.7-3.3,2.8-4.8C204.9,164,204.4,163.7,204.2,164L204.2,164z"/>
			</g>
		</g>
		<path class="st8" d="M225.5,192.4c0,0,1.1,8.2,6.4,8.8c5.3,0.7,16.6-0.4,16.6-0.4l-0.4-2.7c0,0-15.2,1.3-15.9-0.2
			c-0.7-1.5-4.2-6.8-4.2-6.8L225.5,192.4z"/>
		<path class="st8" d="M251.4,197.7c-1.9-1.7-5-0.5-5.4,2c-0.2,1.2,1.6,2.8,3.4,3C252.5,203,253.5,199.7,251.4,197.7z"/>
	</g>
	<path class="st19" d="M233.3,296.5h-25.9c-1.3,0-2.3,1-2.3,2.3v4c-0.4,0-0.8-0.1-1.2-0.1c-6.3,0-11.4,5.1-11.4,11.4
		c0,6.3,5.1,11.4,11.4,11.4c0.4,0,0.8,0,1.2-0.1v3.2c0,1.3,1,2.3,2.3,2.3h25.9c1.3,0,2.3-1,2.3-2.3v-29.9
		C235.6,297.5,234.6,296.5,233.3,296.5z M204,322.5c-4.6,0-8.3-3.7-8.3-8.3c0-4.6,3.7-8.3,8.3-8.3c0.4,0,0.8,0,1.2,0.1v16.5
		C204.8,322.4,204.4,322.5,204,322.5z"/>
	<g>
		<path class="st9" d="M447.8,323.2h-82.9c-2.5,0-4.5,2-4.5,4.5v0.6c0,2.5,2,4.5,4.5,4.5h82.9c2.5,0,4.5-2,4.5-4.5v-0.6
			C452.2,325.2,450.2,323.2,447.8,323.2z"/>
		<g>
			<path class="st12" d="M494.3,189.6H352.6c-8,0-14.5,6.3-14.8,14.3l-3,79.1c-0.3,8.4,6.4,15.4,14.8,15.4h120.6
				c6.5,0,12.3-4.3,14.2-10.5l24.1-79.1C511.4,199.3,504.2,189.6,494.3,189.6z"/>
			<path class="st9" d="M482.2,201.2h-118c-6.6,0-12.1,5-12.4,11.2l-2.5,62.2c-0.3,6.6,5.3,12.1,12.4,12.1h100.4
				c5.4,0,10.2-3.4,11.8-8.3l20.1-62.2C496.5,208.8,490.5,201.2,482.2,201.2z"/>
			<polygon class="st9" points="420.6,326.1 393.3,326.1 403.7,261.3 431,261.3 			"/>
		</g>
	</g>
	<path class="st9" d="M345,324.4h-91.6c-1.7,0-3.2,1.6-3.2,3.6v4.5c0,2,1.4,3.6,3.2,3.6H345c1.7,0,3.2-1.6,3.2-3.6v-4.5
		C348.1,326.1,346.7,324.4,345,324.4z"/>
	<path class="st20" d="M318.1,400.2H205.4c-6.2,0-11.5-3.5-14.2-8.5c-4.6-6.2-8-16.4-9.1-28.6l-28.1-118.9c-0.8-6-0.6-11.8,0.2-17.3
		c-14.4,2.2-24.8,23.9-21.9,47.2l28.1,118.9c1.1,12.3,4.5,22.4,9.1,28.6c2.7,5.1,8.1,8.5,14.2,8.5h125.9c8.9,0,16.1-7.2,16.1-16.1
		C325.8,408.1,322.7,403,318.1,400.2z"/>
	<g>
		<path class="st21" d="M121.5,536.6L121.5,536.6c-5.7,0-9.8-5.4-8.4-10.9l49.2-185.9c1-3.8,4.4-6.4,8.4-6.4h0
			c5.7,0,9.8,5.4,8.4,10.9l-49.2,185.9C128.9,534,125.5,536.6,121.5,536.6z"/>
		<path class="st21" d="M512.4,537L512.4,537c5.7,0,9.8-5.4,8.4-10.9l-49.1-183.5c-1-3.8-4.4-6.4-8.4-6.4l0,0
			c-5.7,0-9.8,5.4-8.4,10.9L504,530.6C505.1,534.4,508.5,537,512.4,537z"/>
		<path class="st21" d="M285.3,537L285.3,537c5.7,0,9.8-5.4,8.4-10.9l-49.1-183.5c-1-3.8-4.4-6.4-8.4-6.4l0,0
			c-5.7,0-9.8,5.4-8.4,10.9L277,530.6C278,534.4,281.4,537,285.3,537z"/>
		<path class="st1" d="M362.9,537L362.9,537c-5.7,0-9.8-5.4-8.4-10.9l49.1-183.5c1-3.8,4.4-6.4,8.4-6.4h0c5.7,0,9.8,5.4,8.4,10.9
			l-49.1,183.5C370.2,534.4,366.8,537,362.9,537z"/>
		<path class="st2" d="M518.4,342.8H104.9c-3.9,0-7-3.1-7-7l0,0c0-3.9,3.1-7,7-7h413.5c3.9,0,7,3.1,7,7l0,0
			C525.4,339.7,522.3,342.8,518.4,342.8z"/>
		<rect x="139.4" y="438" class="st21" width="350" height="23.8"/>
	</g>
</g>
</svg>
