<?xml version="1.0" encoding="utf-8"?>
<!-- Generator: Adobe Illustrator 23.0.3, SVG Export Plug-In . SVG Version: 6.00 Build 0)  -->
<svg version="1.1" id="Capa_1" xmlns="http://www.w3.org/2000/svg" xmlns:xlink="http://www.w3.org/1999/xlink" x="0px" y="0px"
	 width="368px" height="368px" viewBox="0 0 368 368" style="enable-background:new 0 0 368 368;" xml:space="preserve">
<style type="text/css">
	.st0{fill:#FFC5C5;}
	.st1{fill:#FC5959;}
</style>
<circle class="st0" cx="184" cy="184" r="184"/>
<path class="st1" d="M184,225.8c-31.1,0-60.8,13.2-81.5,36.2c-3.1,3.4-2.8,8.7,0.6,11.8c3.4,3.1,8.7,2.8,11.8-0.6
	c17.5-19.5,42.7-30.7,69.1-30.7c26.4,0,51.6,11.2,69,30.7c1.7,1.8,3.9,2.8,6.2,2.8c2,0,4-0.7,5.6-2.1c3.4-3.1,3.7-8.4,0.7-11.8
	C244.9,239,215.2,225.8,184,225.8z"/>
<path class="st1" d="M158.9,150.5c0-3.2-1.8-6.1-4.6-7.5l-66.9-33.5c-4.1-2.1-9.2-0.4-11.2,3.7c-2.1,4.1-0.4,9.2,3.7,11.2l52,26
	l-51.9,26c-4.1,2.1-5.8,7.1-3.7,11.2c1.5,2.9,4.4,4.6,7.5,4.6c1.3,0,2.5-0.3,3.7-0.9l66.9-33.5C157.1,156.6,158.9,153.7,158.9,150.5
	z"/>
<path class="st1" d="M291.8,113.4c-2.1-4.1-7.1-5.8-11.2-3.7l-66.9,33.5c-2.8,1.4-4.6,4.3-4.6,7.5s1.8,6.1,4.6,7.5l66.9,33.5
	c1.2,0.6,2.5,0.9,3.7,0.9c3.1,0,6-1.7,7.5-4.6c2.1-4.1,0.4-9.2-3.7-11.2l-52-26l51.9-26C292.2,122.5,293.9,117.5,291.8,113.4z"/>
</svg>
