<?xml version="1.0" encoding="utf-8"?>
<!-- Generator: Adobe Illustrator 23.0.3, SVG Export Plug-In . SVG Version: 6.00 Build 0)  -->
<svg version="1.1" id="Capa_1" xmlns="http://www.w3.org/2000/svg" xmlns:xlink="http://www.w3.org/1999/xlink" x="0px" y="0px"
	 width="368px" height="368px" viewBox="0 0 368 368" style="enable-background:new 0 0 368 368;" xml:space="preserve">
<style type="text/css">
	.st0{fill:#DFF794;}
	.st1{fill:#9ED81E;}
</style>
<circle class="st0" cx="184" cy="184" r="184"/>
<path class="st1" d="M253,228.6c-17.4,19.5-42.6,30.7-69,30.7c-26.4,0-51.5-11.2-69.1-30.7c-3.1-3.4-8.4-3.7-11.8-0.6
	c-3.4,3.1-3.7,8.4-0.6,11.8c20.7,23,50.4,36.2,81.5,36.2c31.2,0,60.9-13.2,81.5-36.2c3.1-3.4,2.8-8.7-0.7-11.8
	C261.4,224.9,256.1,225.2,253,228.6z"/>
<path class="st1" d="M250.9,125.5c-23.1,0-41.8,18.8-41.8,41.8c0,4.6,3.7,8.4,8.4,8.4s8.4-3.7,8.4-8.4c0-13.8,11.3-25.1,25.1-25.1
	c13.8,0,25.1,11.3,25.1,25.1c0,4.6,3.7,8.4,8.4,8.4c4.6,0,8.4-3.7,8.4-8.4C292.7,144.2,274,125.5,250.9,125.5z"/>
<path class="st1" d="M142.2,167.3c0,4.6,3.7,8.4,8.4,8.4s8.4-3.7,8.4-8.4c0-23.1-18.8-41.8-41.8-41.8s-41.8,18.8-41.8,41.8
	c0,4.6,3.7,8.4,8.4,8.4c4.6,0,8.4-3.7,8.4-8.4c0-13.8,11.3-25.1,25.1-25.1S142.2,153.4,142.2,167.3z"/>
</svg>
