<?xml version="1.0" encoding="utf-8"?>
<!-- Generator: Adobe Illustrator 23.0.3, SVG Export Plug-In . SVG Version: 6.00 Build 0)  -->
<svg version="1.1" id="Capa_1" xmlns="http://www.w3.org/2000/svg" xmlns:xlink="http://www.w3.org/1999/xlink" x="0px" y="0px"
	 width="368px" height="368px" viewBox="0 0 368 368" style="enable-background:new 0 0 368 368;" xml:space="preserve">
<style type="text/css">
	.st0{fill:#FFD2B0;}
	.st1{fill:#FF9331;}
</style>
<circle class="st0" cx="184" cy="184" r="184"/>
<circle class="st1" cx="117.1" cy="150.5" r="25.1"/>
<circle class="st1" cx="250.9" cy="150.5" r="25.1"/>
<path class="st1" d="M184,225.8c-31.1,0-60.8,13.2-81.5,36.2c-3.1,3.4-2.8,8.7,0.6,11.8c3.4,3.1,8.7,2.8,11.8-0.6
	c17.5-19.5,42.7-30.7,69.1-30.7c26.4,0,51.6,11.2,69,30.7c1.6,1.8,3.9,2.8,6.2,2.8c2,0,4-0.7,5.6-2.1c3.4-3.1,3.7-8.4,0.7-11.8
	C244.9,239,215.2,225.8,184,225.8z"/>
</svg>
