<?xml version="1.0" encoding="utf-8"?>
<!-- Generator: Adobe Illustrator 23.0.3, SVG Export Plug-In . SVG Version: 6.00 Build 0)  -->
<svg version="1.1" id="Capa_1" xmlns="http://www.w3.org/2000/svg" xmlns:xlink="http://www.w3.org/1999/xlink" x="0px" y="0px"
	 width="368px" height="368px" viewBox="0 0 368 368" style="enable-background:new 0 0 368 368;" xml:space="preserve">
<style type="text/css">
	.st0{fill:#FFEF9F;}
	.st1{fill:#F9E6B9;}
	.st2{fill:#FFAE1F;}
</style>
<circle class="st0" cx="184" cy="184" r="184"/>
<circle class="st1" cx="250.9" cy="150.5" r="16.7"/>
<circle class="st1" cx="117.1" cy="150.5" r="16.7"/>
<circle class="st2" cx="117.1" cy="150.5" r="25.1"/>
<circle class="st2" cx="250.9" cy="150.5" r="25.1"/>
<path class="st2" d="M253,228.6c-17.4,19.5-42.6,30.7-69,30.7c-26.4,0-51.5-11.2-69.1-30.7c-3.1-3.4-8.4-3.7-11.8-0.6
	c-3.4,3.1-3.7,8.4-0.6,11.8c20.7,23,50.4,36.2,81.5,36.2c31.2,0,60.9-13.2,81.5-36.2c3.1-3.4,2.8-8.7-0.7-11.8
	C261.4,224.9,256.1,225.2,253,228.6z"/>
</svg>
