<?xml version="1.0" encoding="utf-8"?>
<!-- Generator: Adobe Illustrator 23.0.3, SVG Export Plug-In . SVG Version: 6.00 Build 0)  -->
<svg version="1.1" id="Layer_1" xmlns="http://www.w3.org/2000/svg" xmlns:xlink="http://www.w3.org/1999/xlink" x="0px" y="0px"
	 width="512px" height="512px" viewBox="0 0 512 512" style="enable-background:new 0 0 512 512;" xml:space="preserve">
<style type="text/css">
	.st0{fill:#2A2F30;}
	.st1{fill:#0EB6DD;}
	.st2{fill:#9CCF10;}
</style>
<path class="st0" d="M45,512h302c24.8,0,45-20.2,45-45V90h60V45c0-24.8-20.2-45-45-45H105C80.2,0,60,20.2,60,45v377H0v45
	C0,491.8,20.2,512,45,512z"/>
<path class="st1" d="M105,30h259.6c-1.7,4.7-2.6,9.8-2.6,15v422c0,8.3-6.7,15-15,15s-15-6.7-15-15v-45H90V45C90,36.7,96.7,30,105,30
	z"/>
<path class="st1" d="M422,45v15h-30V45c0-8.3,6.7-15,15-15S422,36.7,422,45z"/>
<path class="st1" d="M30,452h272v15c0,5.3,0.9,10.3,2.6,15H45c-8.3,0-15-6.7-15-15V452z"/>
<path class="st0" d="M226,272c16.7,0,33.7-3.9,48-11.1l-13.4-26.8c-10.2,5.1-22.4,7.9-34.5,7.9c-41.9,0-76-33.6-76-75
	c0-41.7,34.8-77,76-77s76,35.3,76,77c0,8.3-6.7,15-15,15s-15-6.7-15-15c0-25-21.5-47-46-47c-24.4,0-45,21.5-45,47
	c0,24.8,20.2,45,45,45c11.4,0,22.2-4.2,30.7-11.7c8,7.3,18.6,11.7,30.3,11.7c24.8,0,45-20.2,45-45c0-58.3-48.2-107-106-107
	s-106,48.7-106,107C120,224.9,167.6,272,226,272z M226,182c-8.3,0-15-6.7-15-15c0-8.7,7.3-17,15-17c8.1,0,16,8.4,16,17
	C242,175,234.5,182,226,182z"/>
<path class="st0" d="M120,302h212v30H120V302z"/>
<path class="st0" d="M120,362h212v30H120V362z"/>
<polygon class="st0" points="482,151 452,151 452,182 422,182 422,410.5 467,500.5 512,410.5 512,182 482,182 "/>
<rect x="452" y="212" class="st2" width="30" height="30"/>
<polygon class="st2" points="467,433.5 452,403.5 452,272 482,272 482,403.5 "/>
</svg>
