<?xml version="1.0" encoding="utf-8"?>
<!-- Generator: Adobe Illustrator 16.0.0, SVG Export Plug-In . SVG Version: 6.00 Build 0)  -->
<!DOCTYPE svg PUBLIC "-//W3C//DTD SVG 1.1//EN" "http://www.w3.org/Graphics/SVG/1.1/DTD/svg11.dtd">
<svg version="1.1" id="Layer_1" xmlns="http://www.w3.org/2000/svg" xmlns:xlink="http://www.w3.org/1999/xlink" x="0px" y="0px"
	 width="512px" height="512px" viewBox="0 0 512 512" enable-background="new 0 0 512 512" xml:space="preserve">
<g>
	<path opacity="0.8" fill="#9CCC38" enable-background="new    " d="M105,30h259.6c-1.7,4.7-2.6,9.8-2.6,15v422c0,8.3-6.7,15-15,15
		c-8.302,0-15-6.7-15-15v-45H90V45C90,36.7,96.7,30,105,30z"/>
	<path opacity="0.8" fill="#9CCC38" enable-background="new    " d="M422,45v15h-30V45c0-8.3,6.698-15,15-15
		C415.3,30,422,36.7,422,45z"/>
	<path opacity="0.8" fill="#9CCC38" enable-background="new    " d="M30,452h272v15c0,5.3,0.898,10.3,2.6,15H45c-8.3,0-15-6.7-15-15
		V452z"/>
</g>
<rect x="452" y="212" fill="#0EB6DD" width="30" height="30"/>
<polygon fill="#0EB6DD" points="467,433.5 452,403.5 452,272 482,272 482,403.5 "/>
<g>
	<path fill="#333333" d="M45,512h302c24.8,0,45-20.2,45-45V90h60V45c0-24.8-20.2-45-45-45H105C80.2,0,60,20.2,60,45v377H0v45
		C0,491.8,20.2,512,45,512z M422,45v15h-30V45c0-8.3,6.698-15,15-15C415.3,30,422,36.7,422,45z M105,30h259.6
		c-1.7,4.7-2.6,9.8-2.6,15v422c0,8.3-6.7,15-15,15c-8.302,0-15-6.7-15-15v-45H90V45C90,36.7,96.7,30,105,30z M30,452h272v15
		c0,5.3,0.898,10.3,2.6,15H45c-8.3,0-15-6.7-15-15V452z"/>
	<path fill="#333333" d="M482,151h-30v31h-30v228.5l45,90l45-90V182h-30V151z M482,212v30h-30v-30H482z M467,433.5l-15-30V272h30
		v131.5L467,433.5z"/>
	<g>
		<path fill="#333333" d="M226,272c16.7,0,33.7-3.9,48-11.1l-13.4-26.8c-10.2,5.1-22.398,7.9-34.5,7.9c-41.898,0-76-33.6-76-75
			c0-41.7,34.8-77,76-77s76,35.3,76,77c0,8.3-6.7,15-15,15s-15-6.7-15-15c0-25-21.5-47-46-47c-24.398,0-45,21.5-45,47
			c0,24.8,20.2,45,45,45c11.4,0,22.2-4.2,30.7-11.7c8,7.3,18.6,11.7,30.3,11.7c24.8,0,45-20.2,45-45c0-58.3-48.2-107-106-107
			s-106,48.7-106,107C120,224.9,167.6,272,226,272z M226,182c-8.3,0-15-6.7-15-15c0-8.7,7.3-17,15-17c8.1,0,16,8.4,16,17
			C242,175,234.5,182,226,182z"/>
		<path fill="#333333" d="M120,302h212v30H120V302z"/>
		<path fill="#333333" d="M120,362h212v30H120V362z"/>
	</g>
</g>
</svg>
