<?xml version="1.0" encoding="utf-8"?>
<!-- Generator: Adobe Illustrator 16.0.0, SVG Export Plug-In . SVG Version: 6.00 Build 0)  -->
<!DOCTYPE svg PUBLIC "-//W3C//DTD SVG 1.1//EN" "http://www.w3.org/Graphics/SVG/1.1/DTD/svg11.dtd">
<svg version="1.1" id="Capa_1" xmlns="http://www.w3.org/2000/svg" xmlns:xlink="http://www.w3.org/1999/xlink" x="0px" y="0px"
	 width="512px" height="512px" viewBox="0 0 512 512" enable-background="new 0 0 512 512" xml:space="preserve">
<path opacity="0.8" fill="#9CCC38" enable-background="new    " d="M363.1,419.7h-29.9v-251c0-3.9-1.6-7.8-4.398-10.6l-91.6-91.5
	c-2.802-2.8-6.7-4.4-10.7-4.4H90.2V30.1h272.998v389.6H363.1z"/>
<g>
	<path fill="#0EB6DD" d="M30.1,481.9V92.3h181.4v76.4c0,8.3,6.7,15.1,15.1,15.1h76.5V481.9H30.1L30.1,481.9z"/>
	<polygon fill="#0EB6DD" points="281.8,153.7 241.7,153.7 241.7,113.7 	"/>
	<path fill="#0EB6DD" d="M440.5,93.1c0-11.4,9.3-20.6,20.698-20.6c11.4,0,20.7,9.3,20.7,20.6v31.8h-41.3L440.5,93.1L440.5,93.1z"/>
	<polygon fill="#0EB6DD" points="461.198,418.2 440.5,372.8 440.5,155.1 481.8,155.1 481.8,372.8 	"/>
</g>
<g>
	<path fill="#333333" d="M378.198,0H75.1C66.8,0,60,6.7,60,15.1v47.2H15.1C6.7,62.2,0,69,0,77.3V497c0,8.3,6.7,15.1,15.1,15.1h303.1
		c8.302,0,15.102-6.698,15.102-15.1v-47.2h44.898c8.302,0,15.102-6.7,15.102-15.1V15.1C393.3,6.7,386.5,0,378.198,0L378.198,0z
		 M30.1,481.9V92.3h181.4v76.4c0,8.3,6.7,15.1,15.1,15.1h76.5V481.9H30.1L30.1,481.9z M281.8,153.7h-40.1v-40L281.8,153.7z
		 M363.1,419.7h-29.9v-251c0-3.9-1.6-7.8-4.398-10.6l-91.6-91.5c-2.802-2.8-6.7-4.4-10.7-4.4H90.2V30.1h272.998v389.6H363.1z"/>
	<path fill="#333333" d="M461.198,42.3c-28,0-50.8,22.8-50.8,50.8v283c0,2.102,0.5,4.301,1.4,6.2l35.699,78.602
		c5.301,11.8,22.101,11.698,27.399,0l35.7-78.602c0.899-2,1.399-4.1,1.399-6.2c0-12.699,0-269.8,0-283
		C512,65.1,489.198,42.3,461.198,42.3L461.198,42.3z M440.5,93.1c0-11.4,9.3-20.6,20.698-20.6c11.4,0,20.7,9.3,20.7,20.6v31.8h-41.3
		L440.5,93.1L440.5,93.1z M461.198,418.2L440.5,372.8V155.1h41.3v217.7L461.198,418.2z"/>
	<path fill="#333333" d="M85,189.7h52.5c8.3,0,15.1-6.7,15.1-15.1s-6.7-15.1-15.1-15.1H85c-8.3,0-15.102,6.7-15.102,15.1
		S76.7,189.7,85,189.7z"/>
	<path fill="#333333" d="M248.3,255.8H85c-8.3,0-15.102,6.7-15.102,15.101c0,8.301,6.7,15.101,15.102,15.101h163.3
		c8.3,0,15.1-6.7,15.1-15.101C263.3,262.5,256.6,255.8,248.3,255.8L248.3,255.8z"/>
	<path fill="#333333" d="M248.3,320.2H85c-8.3,0-15.102,6.7-15.102,15.1c0,8.3,6.7,15.101,15.102,15.101h163.3
		c8.3,0,15.1-6.699,15.1-15.101C263.3,326.9,256.6,320.2,248.3,320.2L248.3,320.2z"/>
	<path fill="#333333" d="M248.3,384.5H85c-8.3,0-15.102,6.7-15.102,15.1C69.9,407.9,76.6,414.7,85,414.7h163.3
		c8.3,0,15.1-6.7,15.1-15.102C263.3,391.3,256.6,384.5,248.3,384.5L248.3,384.5z"/>
</g>
</svg>
