<?xml version="1.0" encoding="utf-8"?>
<!-- Generator: Adobe Illustrator 16.0.0, SVG Export Plug-In . SVG Version: 6.00 Build 0)  -->
<!DOCTYPE svg PUBLIC "-//W3C//DTD SVG 1.1//EN" "http://www.w3.org/Graphics/SVG/1.1/DTD/svg11.dtd">
<svg version="1.1" id="Layer_1" xmlns="http://www.w3.org/2000/svg" xmlns:xlink="http://www.w3.org/1999/xlink" x="0px" y="0px"
	 width="512px" height="512px" viewBox="0 0 512 512" enable-background="new 0 0 512 512" xml:space="preserve">
<path opacity="0.8" fill="#9CCC38" enable-background="new    " d="M100.9,331.5l-57.1,15.8l15.8-57.1L56,284.6
	c-17-26.6-25.9-57.3-25.9-89C30,104.2,104.2,30,195.5,30S361,104.2,361,195.5S286.8,361,195.5,361c-31.7,0-62.4-9-89-25.9
	L100.9,331.5z"/>
<g>
	<path fill="#333333" d="M512,346.5c0-74.6-50.302-139.8-121.2-159.5C386.3,83.1,300.5,0,195.5,0C87.7,0,0,87.7,0,195.5
		c0,35.1,9.398,69.3,27.1,99.4L0.7,390.3L96.1,363.9c27.602,16.3,58.7,25.5,90.9,26.898C206.7,461.7,271.9,512,346.5,512
		c29.8,0,58.8-7.9,84.198-23l80.602,22.3L489,430.7C504.1,405.3,512,376.3,512,346.5z M100.9,331.5l-57.1,15.8l15.8-57.1L56,284.6
		c-17-26.6-25.9-57.3-25.9-89C30,104.2,104.2,30,195.5,30S361,104.2,361,195.5S286.8,361,195.5,361c-31.7,0-62.4-9-89-25.9
		L100.9,331.5z M468.3,468.3l-42.4-11.7l-5.7,3.7C398.3,474.6,372.8,482.1,346.5,482.1c-58.7,0-110.2-37.898-128.5-92.3
		C307.8,379.4,379.3,308,389.698,218.1C444.1,236.4,482,287.9,482,346.6c0,26.301-7.5,51.802-21.802,73.7L456.5,426L468.3,468.3z"/>
	<g>
		<path fill="#333333" d="M180.5,271h30v30h-30V271z"/>
		<path fill="#333333" d="M225.5,150c0,8.5-3.5,16.4-9.8,22.1l-35.2,32.3V241h30v-23.4l25.5-23.3c12.398-11.3,19.5-27.5,19.5-44.3
			c0-33.1-26.9-60-60-60c-33.102,0-60,26.9-60,60h30c0-16.5,13.5-30,30-30S225.5,133.5,225.5,150z"/>
	</g>
</g>
<path fill="#0EB6DD" d="M468.3,468.3l-42.4-11.7l-5.7,3.7C398.3,474.6,372.8,482.1,346.5,482.1c-58.7,0-110.2-37.898-128.5-92.3
	C307.8,379.4,379.3,308,389.698,218.1C444.1,236.4,482,287.9,482,346.6c0,26.301-7.5,51.802-21.802,73.7L456.5,426L468.3,468.3z"/>
</svg>
