<?xml version="1.0" encoding="utf-8"?>
<!-- Generator: Adobe Illustrator 23.0.3, SVG Export Plug-In . SVG Version: 6.00 Build 0)  -->
<svg version="1.1" id="Layer_1" xmlns="http://www.w3.org/2000/svg" xmlns:xlink="http://www.w3.org/1999/xlink" x="0px" y="0px"
	 width="100px" height="100px" viewBox="0 0 100 100" style="enable-background:new 0 0 100 100;" xml:space="preserve">
<style type="text/css">
	.st0{fill:#0EB6DD;}
	.st1{fill:#B6EFF2;}
</style>
<g>
	<path class="st0" d="M92.5,26.09H69.43V9.2c0-1.66-1.34-3-3-3H7.5c-1.66,0-3,1.34-3,3v68.57c0,8.84,7.3,16.04,16.26,16.04h59.15
		c0.16,0,0.31-0.02,0.46-0.05c8.42-0.48,15.13-7.45,15.13-15.99V29.09C95.5,27.43,94.16,26.09,92.5,26.09z M20.76,87.8
		c-5.66,0-10.26-4.5-10.26-10.04V12.2h52.93v16.89v48.68c0,3.8,1.33,7.29,3.55,10.04H20.76V87.8z M89.5,77.77
		c0,5.53-4.5,10.04-10.04,10.04s-10.04-4.5-10.04-10.04V32.09H89.5V77.77z"/>
	<path class="st0" d="M50.23,22.32H23.7c-1.66,0-3,1.34-3,3s1.34,3,3,3h26.52c1.66,0,3-1.34,3-3S51.88,22.32,50.23,22.32z"/>
	<path class="st0" d="M50.23,38.07H23.7c-1.66,0-3,1.34-3,3s1.34,3,3,3h26.52c1.66,0,3-1.34,3-3S51.88,38.07,50.23,38.07z"/>
	<path class="st0" d="M36.96,53.82H23.7c-1.66,0-3,1.34-3,3s1.34,3,3,3h13.26c1.66,0,3-1.34,3-3S38.62,53.82,36.96,53.82z"/>
</g>
<path class="st1" d="M89.5,77.77c0,5.53-4.5,10.04-10.04,10.04s-10.04-4.5-10.04-10.04V32.09H89.5V77.77z"/>
</svg>
