<?xml version="1.0" encoding="utf-8"?>
<!-- Generator: Adobe Illustrator 16.0.0, SVG Export Plug-In . SVG Version: 6.00 Build 0)  -->
<!DOCTYPE svg PUBLIC "-//W3C//DTD SVG 1.1//EN" "http://www.w3.org/Graphics/SVG/1.1/DTD/svg11.dtd">
<svg version="1.1" id="Layer_1" xmlns="http://www.w3.org/2000/svg" xmlns:xlink="http://www.w3.org/1999/xlink" x="0px" y="0px"
	 width="512px" height="512px" viewBox="0 0 512 512" enable-background="new 0 0 512 512" xml:space="preserve">
<path opacity="0.8" fill="#9CCC38" enable-background="new    " d="M482,256c0,18.4-14.802,33.2-33.2,33.2H272.1
	c-3.2,0-6.398,1.1-9,3l-40.3,30.2V63.2c0-18.4,14.8-33.2,33.2-33.2h192.8c18.398,0,33.2,14.8,33.2,33.2V256z"/>
<g>
	<path fill="#333333" d="M367.4,231.9c0,8.3-6.7,15-15,15s-15-6.7-15-15c0-8.3,6.7-15,15-15S367.4,223.6,367.4,231.9z"/>
	<path fill="#333333" d="M352.4,72.3c-30.398,0-55.1,24.6-55.1,55.1l0,0c0,8.3,6.7,15,15,15s15-6.7,15-15
		c0-13.9,11.2-25.1,25.2-25.1c13.898,0,25.198,11.3,25.198,25.2s-11.3,25.2-25.198,25.2c-8.302,0-15,6.7-15,15v16.1
		c0,8.3,6.698,15,15,15c8.3,0,15-6.7,15-15v-3.1c23.198-6.6,40.198-27.9,40.198-53.1C407.6,97,382.8,72.3,352.4,72.3z"/>
	<path fill="#333333" d="M143.9,382.8c18.602-14.5,30.7-37.1,30.7-62.5c0-43.7-35.6-79.3-79.3-79.3S16,276.6,16,320.3
		c0,25.4,12,48,30.7,62.5C20.4,398.5,0,428,0,464.9V497c0,8.3,6.7,15,15,15h160.7c8.3,0,15-6.7,15-15v-32.1
		C190.7,428,170.3,398.5,143.9,382.8z M46.1,320.3c0-27.2,22.102-49.3,49.3-49.3c27.2,0,49.302,22.1,49.302,49.3
		S122.6,369.6,95.4,369.6C68.2,369.5,46.1,347.4,46.1,320.3z M160.7,482H30v-17.1C30,428.8,59.2,399.6,95.3,399.6
		s65.3,29.2,65.3,65.302L160.7,482L160.7,482z"/>
	<path fill="#333333" d="M448.8,0H256c-34.9,0-63.2,28.2-63.2,63.2v289.2c0,12.3,14.1,19.398,24,12l60.3-45.2h171.7
		c34.898,0,63.2-28.2,63.2-63.2V63.2C512,28.3,483.8,0,448.8,0z M482,256c0,18.4-14.802,33.2-33.2,33.2H272.1c-3.2,0-6.398,1.1-9,3
		l-40.3,30.2V63.2c0-18.4,14.8-33.2,33.2-33.2h192.8c18.398,0,33.2,14.8,33.2,33.2V256z"/>
</g>
<path fill="#0EB6DD" d="M46.1,320.3c0-27.2,22.102-49.3,49.3-49.3c27.2,0,49.302,22.1,49.302,49.3S122.6,369.6,95.4,369.6
	C68.2,369.5,46.1,347.4,46.1,320.3z"/>
<path fill="#0EB6DD" d="M160.7,482H30v-17.1C30,428.8,59.2,399.6,95.3,399.6s65.3,29.2,65.3,65.302L160.7,482L160.7,482z"/>
</svg>
