<?xml version="1.0" encoding="utf-8"?>
<!-- Generator: Adobe Illustrator 23.0.3, SVG Export Plug-In . SVG Version: 6.00 Build 0)  -->
<svg version="1.1" id="Capa_1" xmlns="http://www.w3.org/2000/svg" xmlns:xlink="http://www.w3.org/1999/xlink" x="0px" y="0px"
	 width="512px" height="512px" viewBox="0 0 512 512" style="enable-background:new 0 0 512 512;" xml:space="preserve">
<style type="text/css">
	.st0{fill:#2A2F30;}
	.st1{opacity:0.3;fill:#0EB6DD;enable-background:new    ;}
	.st2{fill:#0EB6DD;}
	.st3{fill:#9CCF10;}
</style>
<path class="st0" d="M509.8,206.2l-88-145.6c-3.9-6.4-12-9-18.9-6l-53.8,23.6l-83-24.6c-3.9-1.1-8-0.7-11.5,1.3L159,107.8
	l-55.1-35.3c-3.4-2.2-7.6-2.9-11.5-2s-7.3,3.4-9.4,6.8L2.2,211.1c-4.2,7-2.1,16,4.8,20.4l34,21.7l-6.9,9.2
	C20.2,281,24,307.3,42.5,321.2c7.3,5.5,16.1,8.4,25.1,8.4c0.8,0,1.6,0,2.4-0.1c2.2,9.3,7.5,17.9,15.7,24.1
	c7.5,5.6,16.4,8.4,25.1,8.4c0.8,0,1.6,0,2.4-0.1c2.2,9.6,7.7,18.1,15.7,24.1c7.3,5.5,16.1,8.4,25.1,8.4c0.8,0,1.6,0,2.4-0.1
	c2.2,9.3,7.5,17.9,15.7,24.1c7.5,5.6,16.4,8.4,25.1,8.4c12.8,0,25.4-5.8,33.7-16.8l1.4-1.8l60,42.7c7.7,5.5,16.7,8.1,25.5,8.1
	c13.7,0,27.2-6.4,35.8-18.3c3.7-5.2,6.1-10.9,7.4-16.7c16.3,3.1,33.8-3.2,44.1-17.5c5.5-7.7,8.2-16.6,8.2-25.4
	c11.8-1.4,23-7.6,30.5-17.9c4.6-6.3,7.2-13.5,7.9-20.7c14.1,0.3,28.1-6,36.9-18.3c6.9-9.5,9.6-21.1,7.7-32.7s-8.2-21.7-17.8-28.5
	l-14.6-10.4l41.2-26C511.9,222.3,514.1,213.2,509.8,206.2z"/>
<path class="st1" d="M466.6,296.4c0.6,3.6-0.3,7.3-2.4,10.2c-4.5,6.2-13.3,7.7-19.6,3.2l-10.9-7.7l0,0l0,0l-60.6-43
	c-6.8-4.8-16.1-3.2-20.9,3.5c-4.8,6.8-3.2,16.1,3.5,20.9l60.4,43c6.1,4.4,7.5,13,3.1,19.1c-4.5,6.2-13.3,7.7-19.6,3.2l-4.7-3.4l0,0
	l0,0l-46.8-33.2c-6.8-4.8-16.1-3.2-20.9,3.5c-4.8,6.8-3.2,16.1,3.5,20.9l46.6,33.2c6.1,4.4,7.5,13,3.1,19.1
	c-4.5,6.2-13.3,7.7-19.6,3.2l-16.6-11.8l0,0L319,362.4c-6.8-4.8-16.1-3.2-20.9,3.5s-3.2,16.1,3.5,20.9l24.7,17.6
	c5.7,4.6,6.8,12.8,2.6,18.7c-4.5,6.2-13.3,7.7-19.6,3.2L249.9,384l0.3-0.4c13.9-18.5,10.1-44.9-8.4-58.8c-3.5-2.6-7.3-4.6-11.2-6
	c4.1-7.7,5.6-16.5,4.3-25.4c-1.6-11.1-7.4-20.9-16.4-27.7c-9-6.7-20-9.6-31.1-8c-1.6,0.2-3.2,0.6-4.7,1c-2.8-6.6-7.3-12.6-13.5-17.2
	c-9-6.7-20-9.6-31.1-8c-5.6,0.8-10.8,2.7-15.5,5.4c-2.7-4.3-6.2-8.2-10.4-11.4c-16.1-12.1-38.1-10.8-52.8,1.9L35,213.9l65.3-108.1
	l28.4,18.2l-18.8,10.4c-4.5,2.5-7.4,7-7.7,12.1c-0.7,10.7,1.5,21.4,6.3,30.9c14.9,29.5,51.2,41.5,80.9,26.7l69.6-34.8l35.3,0.5
	l133.6,94l0,0l32.7,23.3C464,289.6,466,292.8,466.6,296.4z"/>
<path class="st2" d="M466.6,296.4c0.6,3.6-0.3,7.3-2.4,10.2c-4.5,6.2-13.3,7.7-19.6,3.2l-10.9-7.7l0,0l0,0l-60.6-43
	c-6.8-4.8-16.1-3.2-20.9,3.5c-4.8,6.8-3.2,16.1,3.5,20.9l60.4,43c6.1,4.4,7.5,13,3.1,19.1c-4.5,6.2-13.3,7.7-19.6,3.2l-4.7-3.4l0,0
	l0,0l-46.8-33.2c-6.8-4.8-16.1-3.2-20.9,3.5c-4.8,6.8-3.2,16.1,3.5,20.9l46.6,33.2c6.1,4.4,7.5,13,3.1,19.1
	c-4.5,6.2-13.3,7.7-19.6,3.2l-16.6-11.8l0,0L319,362.4c-6.8-4.8-16.1-3.2-20.9,3.5s-3.2,16.1,3.5,20.9l24.7,17.6
	c5.7,4.6,6.8,12.8,2.6,18.7c-4.5,6.2-13.3,7.7-19.6,3.2L249.9,384l0.3-0.4c13.9-18.5,10.1-44.9-8.4-58.8c-3.5-2.6-7.3-4.6-11.2-6
	c4.1-7.7,5.6-16.5,4.3-25.4c-1.6-11.1-7.4-20.9-16.4-27.7c-9-6.7-20-9.6-31.1-8c-1.6,0.2-3.2,0.6-4.7,1c-2.8-6.6-7.3-12.6-13.5-17.2
	c-9-6.7-20-9.6-31.1-8c-5.6,0.8-10.8,2.7-15.5,5.4c-2.7-4.3-6.2-8.2-10.4-11.4c-16.1-12.1-38.1-10.8-52.8,1.9L35,213.9l65.3-108.1
	l28.4,18.2l-18.8,10.4c-4.5,2.5-7.4,7-7.7,12.1c-0.7,10.7,1.5,21.4,6.3,30.9c14.9,29.5,51.2,41.5,80.9,26.7l69.6-34.8l35.3,0.5
	l133.6,94l0,0l32.7,23.3C464,289.6,466,292.8,466.6,296.4z"/>
<g>
	<path class="st3" d="M77.3,294.8c-1.9,2.6-4.7,4.2-7.9,4.7c-3.2,0.5-6.3-0.4-8.9-2.3c-5.3-4-6.4-11.5-2.4-16.8l19.7-26.2
		c4-5.3,11.5-6.4,16.8-2.4s6.4,11.5,2.4,16.8L77.3,294.8z"/>
	<path class="st3" d="M120.5,327.2c-4,5.3-11.5,6.4-16.8,2.4s-6.4-11.5-2.4-16.8l19.7-26.2l0,0l13.8-18.5c1.9-2.6,4.7-4.2,7.9-4.7
		s6.3,0.4,8.9,2.3c5.3,4,6.4,11.5,2.4,16.8L120.5,327.2z"/>
	<path class="st3" d="M163.7,359.6c-1.9,2.6-4.7,4.2-7.9,4.7s-6.3-0.4-8.9-2.3c-2.6-1.9-4.2-4.7-4.7-7.9s0.4-6.3,2.3-8.9l33.5-44.7
		l0,0l6.1-8.1c1.9-2.6,4.7-4.2,7.9-4.7c0.6-0.1,1.2-0.1,1.7-0.1c2.6,0,5.1,0.8,7.2,2.4c2.6,1.9,4.2,4.7,4.7,7.9s-0.4,6.3-2.3,8.9
		L163.7,359.6z"/>
	<path class="st3" d="M226.6,365.7L206.9,392c-4,5.3-11.5,6.4-16.8,2.4s-6.4-11.5-2.4-16.8l19.7-26.2c1.9-2.6,4.7-4.2,7.9-4.7
		s6.3,0.4,8.9,2.3C229.5,352.9,230.6,360.4,226.6,365.7z"/>
	<path class="st3" d="M437.4,233.9L308.2,143c-2.5-1.7-5.4-2.7-8.4-2.7l-43.6-0.6c-0.1,0-0.1,0-0.2,0c-2.3,0-4.6,0.5-6.7,1.6
		l-72.9,36.4c-14.9,7.5-33.2,1.5-40.7-13.4c-1.3-2.5-2.1-5.1-2.7-7.8l130.5-72.2l82.2,24.4c3.4,1,7,0.8,10.3-0.6l46.8-20.6
		l73.6,121.8L437.4,233.9z"/>
</g>
</svg>
