<?xml version="1.0" encoding="utf-8"?>
<!-- Generator: Adobe Illustrator 16.0.0, SVG Export Plug-In . SVG Version: 6.00 Build 0)  -->
<!DOCTYPE svg PUBLIC "-//W3C//DTD SVG 1.1//EN" "http://www.w3.org/Graphics/SVG/1.1/DTD/svg11.dtd">
<svg version="1.1" id="Capa_1" xmlns="http://www.w3.org/2000/svg" xmlns:xlink="http://www.w3.org/1999/xlink" x="0px" y="0px"
	 width="512px" height="512px" viewBox="0 0 512 512" enable-background="new 0 0 512 512" xml:space="preserve">
<path opacity="0.8" fill="#9CCC38" enable-background="new    " d="M466.6,296.4c0.6,3.6-0.3,7.3-2.4,10.199
	c-4.5,6.199-13.3,7.699-19.6,3.199l-10.9-7.699l0,0l0,0l-60.6-43c-6.8-4.801-16.1-3.201-20.9,3.5
	c-4.8,6.801-3.198,16.101,3.5,20.899l60.4,43c6.1,4.399,7.5,13,3.1,19.101c-4.5,6.199-13.3,7.699-19.6,3.199l-4.7-3.398l0,0l0,0
	l-46.8-33.2c-6.8-4.8-16.1-3.2-20.9,3.5c-4.8,6.8-3.198,16.1,3.5,20.899l46.602,33.199c6.1,4.4,7.5,13,3.1,19.102
	c-4.5,6.199-13.3,7.699-19.6,3.199l-16.602-11.801l0,0L319,362.4c-6.802-4.801-16.102-3.2-20.9,3.5c-4.8,6.699-3.2,16.1,3.5,20.898
	l24.7,17.602c5.7,4.6,6.8,12.8,2.6,18.698c-4.5,6.2-13.3,7.7-19.6,3.2L249.9,384l0.302-0.4c13.898-18.5,10.1-44.898-8.4-58.8
	c-3.5-2.6-7.3-4.6-11.2-6c4.102-7.7,5.602-16.5,4.3-25.399c-1.6-11.101-7.398-20.899-16.398-27.699c-9-6.7-20-9.6-31.102-8
	c-1.6,0.199-3.198,0.6-4.698,1c-2.802-6.6-7.302-12.6-13.5-17.2c-9-6.7-20-9.6-31.102-8c-5.6,0.8-10.8,2.7-15.5,5.4
	c-2.7-4.3-6.2-8.2-10.398-11.4C96.1,215.4,74.1,216.7,59.4,229.4L35,213.9l65.3-108.1l28.4,18.2L109.9,134.4
	c-4.5,2.5-7.398,7-7.698,12.1c-0.7,10.7,1.5,21.4,6.3,30.9c14.898,29.5,51.2,41.5,80.898,26.7L259,169.3l35.3,0.5l133.6,94l0,0
	l32.7,23.3C464,289.6,466,292.8,466.6,296.4z"/>
<path fill="#333333" d="M509.8,206.2l-88-145.6c-3.9-6.4-12-9-18.9-6l-53.8,23.6l-83-24.6c-3.898-1.1-8-0.7-11.5,1.3L159,107.8
	L103.9,72.5c-3.398-2.2-7.6-2.9-11.5-2C88.5,71.4,85.1,73.9,83,77.3L2.2,211.1c-4.2,7-2.102,16,4.8,20.4l34,21.7l-6.9,9.2
	C20.2,281,24,307.3,42.5,321.2c7.3,5.5,16.1,8.399,25.1,8.399c0.8,0,1.602,0,2.4-0.101c2.2,9.3,7.5,17.899,15.7,24.101
	c7.5,5.601,16.398,8.399,25.1,8.399c0.8,0,1.6,0,2.4-0.101C115.4,371.5,120.9,380,128.9,386c7.302,5.5,16.102,8.4,25.102,8.4
	c0.8,0,1.6,0,2.398-0.102c2.2,9.3,7.5,17.9,15.7,24.102c7.5,5.6,16.4,8.398,25.102,8.398c12.8,0,25.398-5.8,33.698-16.8l1.4-1.8
	l60,42.7c7.7,5.5,16.7,8.1,25.5,8.1c13.7,0,27.2-6.4,35.8-18.3c3.7-5.2,6.1-10.9,7.398-16.7c16.302,3.1,33.802-3.2,44.102-17.5
	c5.5-7.7,8.2-16.601,8.2-25.399c11.8-1.399,23-7.601,30.5-17.899c4.6-6.3,7.2-13.5,7.898-20.7c14.102,0.3,28.102-6,36.9-18.3
	c6.898-9.5,9.6-21.101,7.7-32.7c-1.9-11.6-8.2-21.7-17.801-28.5L463.9,252.6l41.2-26C511.9,222.3,514.1,213.2,509.8,206.2z
	 M77.3,294.8c-1.9,2.601-4.7,4.2-7.9,4.7c-3.198,0.5-6.3-0.4-8.898-2.3c-5.3-4-6.4-11.5-2.4-16.8l19.7-26.2c4-5.3,11.5-6.4,16.8-2.4
	s6.4,11.5,2.4,16.8L77.3,294.8z M120.5,327.2c-4,5.3-11.5,6.399-16.8,2.399c-5.302-4-6.4-11.5-2.4-16.801L121,286.6l0,0l13.8-18.5
	c1.9-2.601,4.7-4.199,7.9-4.699c3.198-0.5,6.3,0.398,8.898,2.3c5.3,4,6.4,11.5,2.4,16.8L120.5,327.2z M163.7,359.6
	c-1.9,2.602-4.7,4.2-7.9,4.7s-6.3-0.399-8.9-2.3c-2.6-1.9-4.198-4.7-4.698-7.9c-0.5-3.199,0.398-6.3,2.3-8.898l33.5-44.7l0,0
	l6.1-8.101c1.9-2.601,4.7-4.199,7.9-4.699c0.6-0.102,1.2-0.102,1.7-0.102c2.6,0,5.1,0.801,7.198,2.4c2.602,1.9,4.2,4.7,4.7,7.9
	c0.5,3.199-0.398,6.3-2.3,8.898L163.7,359.6z M226.6,365.7L206.9,392c-4,5.3-11.5,6.4-16.8,2.4S183.7,382.9,187.7,377.6L207.4,351.4
	c1.9-2.602,4.7-4.2,7.9-4.7s6.3,0.399,8.9,2.3C229.5,352.9,230.6,360.4,226.6,365.7z M466.6,296.4c0.6,3.6-0.3,7.3-2.4,10.199
	c-4.5,6.199-13.3,7.699-19.6,3.199l-10.9-7.699l0,0l0,0l-60.6-43c-6.8-4.801-16.1-3.201-20.9,3.5
	c-4.8,6.801-3.198,16.101,3.5,20.899l60.4,43c6.1,4.399,7.5,13,3.1,19.101c-4.5,6.199-13.3,7.699-19.6,3.199l-4.7-3.398l0,0l0,0
	l-46.8-33.2c-6.8-4.8-16.1-3.2-20.9,3.5c-4.8,6.8-3.198,16.1,3.5,20.899l46.602,33.199c6.1,4.4,7.5,13,3.1,19.102
	c-4.5,6.199-13.3,7.699-19.6,3.199l-16.602-11.801l0,0L319,362.4c-6.802-4.801-16.102-3.2-20.9,3.5c-4.8,6.699-3.2,16.1,3.5,20.898
	l24.7,17.602c5.7,4.6,6.8,12.8,2.6,18.698c-4.5,6.2-13.3,7.7-19.6,3.2L249.9,384l0.302-0.4c13.898-18.5,10.1-44.898-8.4-58.8
	c-3.5-2.6-7.3-4.6-11.2-6c4.102-7.7,5.602-16.5,4.3-25.399c-1.6-11.101-7.398-20.899-16.398-27.699c-9-6.7-20-9.6-31.102-8
	c-1.6,0.199-3.198,0.6-4.698,1c-2.802-6.6-7.302-12.6-13.5-17.2c-9-6.7-20-9.6-31.102-8c-5.6,0.8-10.8,2.7-15.5,5.4
	c-2.7-4.3-6.2-8.2-10.398-11.4C96.1,215.4,74.1,216.7,59.4,229.4L35,213.9l65.3-108.1l28.4,18.2L109.9,134.4
	c-4.5,2.5-7.398,7-7.698,12.1c-0.7,10.7,1.5,21.4,6.3,30.9c14.898,29.5,51.2,41.5,80.898,26.7L259,169.3l35.3,0.5l133.6,94l0,0
	l32.7,23.3C464,289.6,466,292.8,466.6,296.4z M437.4,233.9l-129.2-90.9c-2.498-1.7-5.398-2.7-8.398-2.7l-43.6-0.6
	c-0.102,0-0.102,0-0.2,0c-2.3,0-4.602,0.5-6.7,1.6l-72.9,36.4c-14.898,7.5-33.198,1.5-40.698-13.4c-1.302-2.5-2.102-5.1-2.7-7.8
	l130.5-72.2l82.198,24.4c3.4,1,7,0.8,10.302-0.6l46.8-20.6l73.6,121.8L437.4,233.9z"/>
<g>
	<path fill="#20B6DA" d="M77.3,294.8c-1.9,2.601-4.7,4.2-7.9,4.7c-3.198,0.5-6.3-0.4-8.898-2.3c-5.3-4-6.4-11.5-2.4-16.8l19.7-26.2
		c4-5.3,11.5-6.4,16.8-2.4s6.4,11.5,2.4,16.8L77.3,294.8z"/>
	<path fill="#20B6DA" d="M120.5,327.2c-4,5.3-11.5,6.399-16.8,2.399c-5.302-4-6.4-11.5-2.4-16.801L121,286.6l0,0l13.8-18.5
		c1.9-2.601,4.7-4.199,7.9-4.699c3.198-0.5,6.3,0.398,8.898,2.3c5.3,4,6.4,11.5,2.4,16.8L120.5,327.2z"/>
	<path fill="#20B6DA" d="M163.7,359.6c-1.9,2.602-4.7,4.2-7.9,4.7s-6.3-0.399-8.9-2.3c-2.6-1.9-4.198-4.7-4.698-7.9
		c-0.5-3.199,0.398-6.3,2.3-8.898l33.5-44.7l0,0l6.1-8.101c1.9-2.601,4.7-4.199,7.9-4.699c0.6-0.102,1.2-0.102,1.7-0.102
		c2.6,0,5.1,0.801,7.198,2.4c2.602,1.9,4.2,4.7,4.7,7.9c0.5,3.199-0.398,6.3-2.3,8.898L163.7,359.6z"/>
	<path fill="#20B6DA" d="M226.6,365.7L206.9,392c-4,5.3-11.5,6.4-16.8,2.4S183.7,382.9,187.7,377.6L207.4,351.4
		c1.9-2.602,4.7-4.2,7.9-4.7s6.3,0.399,8.9,2.3C229.5,352.9,230.6,360.4,226.6,365.7z"/>
	<path fill="#20B6DA" d="M437.4,233.9l-129.2-90.9c-2.498-1.7-5.398-2.7-8.398-2.7l-43.6-0.6c-0.102,0-0.102,0-0.2,0
		c-2.3,0-4.602,0.5-6.7,1.6l-72.9,36.4c-14.898,7.5-33.198,1.5-40.698-13.4c-1.302-2.5-2.102-5.1-2.7-7.8l130.5-72.2l82.198,24.4
		c3.4,1,7,0.8,10.302-0.6l46.8-20.6l73.6,121.8L437.4,233.9z"/>
</g>
</svg>
