<?xml version="1.0" encoding="utf-8"?>
<!-- Generator: Adobe Illustrator 16.0.0, SVG Export Plug-In . SVG Version: 6.00 Build 0)  -->
<!DOCTYPE svg PUBLIC "-//W3C//DTD SVG 1.1//EN" "http://www.w3.org/Graphics/SVG/1.1/DTD/svg11.dtd">
<svg version="1.1" id="Capa_1" xmlns="http://www.w3.org/2000/svg" xmlns:xlink="http://www.w3.org/1999/xlink" x="0px" y="0px"
	 width="512px" height="512px" viewBox="0 0 512 512" enable-background="new 0 0 512 512" xml:space="preserve">
<g>
	<path fill="#20B6DA" d="M105,302c16.5,0,30,13.5,30,30s-13.5,30-30,30s-30-13.5-30-30S88.5,302,105,302z"/>
	<path fill="#20B6DA" d="M180,437v45H30v-45c0-24.8,20.2-45,45-45h60C159.8,392,180,412.2,180,437z"/>
	<path fill="#20B6DA" d="M361,226v23.8l-34.4-34.4c-2.8-2.8-6.6-4.4-10.6-4.4l0,0c9.398-12.5,15-28.1,15-45V75
		c0-5.1-0.5-10.2-1.5-15H376c24.8,0,45,20.2,45,45v61c0,24.8-20.2,45-45,45C367.698,211,361,217.7,361,226z"/>
</g>
<g>
	<path opacity="0.8" fill="#9CCC38" enable-background="new    " d="M301,166c0,24.8-20.2,45-45,45h-60c-4,0-7.8,1.6-10.602,4.4
		L151,249.8V226c0-8.3-6.7-15-15-15c-24.8,0-45-20.2-45-45V75c0-24.8,20.2-45,45-45h120c24.8,0,45,20.2,45,45V166z"/>
	<path opacity="0.8" fill="#9CCC38" enable-background="new    " d="M407,302c16.5,0,30,13.5,30,30s-13.5,30-30,30s-30-13.5-30-30
		S390.5,302,407,302z"/>
	<path opacity="0.8" fill="#9CCC38" enable-background="new    " d="M482,482H332v-45c0-24.8,20.198-45,45-45h60
		c24.8,0,45,20.2,45,45V482z"/>
</g>
<g>
	<path fill="#333333" d="M457.198,364.8C463.4,355.4,467,344.1,467,332c0-33.1-26.9-60-60-60c-5.5,0-10.9,0.8-16,2.2v-34.7
		c34.198-7,60-37.3,60-73.5v-61c0-41.4-33.602-75-75-75h-60c-13.7-18.2-35.5-30-60-30H136C94.6,0,61,33.6,61,75v91
		c0,36.2,25.8,66.5,60,73.5v34.7c-5.102-1.4-10.5-2.2-16-2.2c-33.102,0-60,26.9-60,60c0,12.1,3.6,23.4,9.8,32.8
		C23.2,373.6,0,402.6,0,437v60c0,8.3,6.7,15,15,15h180c8.3,0,15-6.7,15-15v-60c0-34.4-23.2-63.4-54.8-72.2
		c6.198-9.399,9.8-20.7,9.8-32.8c0-15-5.5-28.7-14.602-39.2L202.2,241H256h53.8l51.8,51.8C352.5,303.3,347,317,347,332
		c0,12.1,3.6,23.4,9.8,32.8c-31.602,8.8-54.8,37.9-54.8,72.2v60c0,8.3,6.698,15,15,15h180c8.3,0,15-6.7,15-15v-60
		C512,402.6,488.8,373.6,457.198,364.8z M105,302c16.5,0,30,13.5,30,30s-13.5,30-30,30s-30-13.5-30-30S88.5,302,105,302z M180,437
		v45H30v-45c0-24.8,20.2-45,45-45h60C159.8,392,180,412.2,180,437z M301,166c0,24.8-20.2,45-45,45h-60c-4,0-7.8,1.6-10.602,4.4
		L151,249.8V226c0-8.3-6.7-15-15-15c-24.8,0-45-20.2-45-45V75c0-24.8,20.2-45,45-45h120c24.8,0,45,20.2,45,45V166z M407,302
		c16.5,0,30,13.5,30,30s-13.5,30-30,30s-30-13.5-30-30S390.5,302,407,302z M361,226v23.8l-34.4-34.4c-2.8-2.8-6.6-4.4-10.6-4.4l0,0
		c9.398-12.5,15-28.1,15-45V75c0-5.1-0.5-10.2-1.5-15H376c24.8,0,45,20.2,45,45v61c0,24.8-20.2,45-45,45
		C367.698,211,361,217.7,361,226z M482,482H332v-45c0-24.8,20.198-45,45-45h60c24.8,0,45,20.2,45,45V482z"/>
	<g>
		<g>
			<path fill="#333333" d="M251.6,64.4c-5.898-5.9-15.398-5.9-21.2,0L181,113.8l-19.4-19.4c-5.898-5.9-15.398-5.9-21.2,0
				c-5.8,5.9-5.898,15.4,0,21.2l30,30c5.9,5.9,15.4,5.9,21.2,0l60-60C257.5,79.7,257.5,70.3,251.6,64.4z"/>
		</g>
	</g>
</g>
</svg>
