<?xml version="1.0" encoding="utf-8"?>
<!-- Generator: Adobe Illustrator 23.0.3, SVG Export Plug-In . SVG Version: 6.00 Build 0)  -->
<svg version="1.1" id="Capa_1" xmlns="http://www.w3.org/2000/svg" xmlns:xlink="http://www.w3.org/1999/xlink" x="0px" y="0px"
	 width="512px" height="512px" viewBox="0 0 512 512" style="enable-background:new 0 0 512 512;" xml:space="preserve">
<style type="text/css">
	.st0{fill:#2A2F30;}
	.st1{fill:#06C2FC;enable-background:new    ;}
	.st2{fill:#9CCF10;}
</style>
<path class="st0" d="M457.2,364.8c6.2-9.4,9.8-20.7,9.8-32.8c0-33.1-26.9-60-60-60c-5.5,0-10.9,0.8-16,2.2v-34.7
	c34.2-7,60-37.3,60-73.5v-61c0-41.4-33.6-75-75-75h-60c-13.7-18.2-35.5-30-60-30H136C94.6,0,61,33.6,61,75v91
	c0,36.2,25.8,66.5,60,73.5v34.7c-5.1-1.4-10.5-2.2-16-2.2c-33.1,0-60,26.9-60,60c0,12.1,3.6,23.4,9.8,32.8C23.2,373.6,0,402.6,0,437
	v60c0,8.3,6.7,15,15,15h180c8.3,0,15-6.7,15-15v-60c0-34.4-23.2-63.4-54.8-72.2c6.2-9.4,9.8-20.7,9.8-32.8c0-15-5.5-28.7-14.6-39.2
	l51.8-51.8H256h53.8l51.8,51.8C352.5,303.3,347,317,347,332c0,12.1,3.6,23.4,9.8,32.8c-31.6,8.8-54.8,37.9-54.8,72.2v60
	c0,8.3,6.7,15,15,15h180c8.3,0,15-6.7,15-15v-60C512,402.6,488.8,373.6,457.2,364.8z M105,302c16.5,0,30,13.5,30,30s-13.5,30-30,30
	s-30-13.5-30-30S88.5,302,105,302z M180,437v45H30v-45c0-24.8,20.2-45,45-45h60C159.8,392,180,412.2,180,437z M407,302
	c16.5,0,30,13.5,30,30s-13.5,30-30,30s-30-13.5-30-30S390.5,302,407,302z M482,482H332v-45c0-24.8,20.2-45,45-45h60
	c24.8,0,45,20.2,45,45V482z"/>
<path class="st1" d="M301,166c0,24.8-20.2,45-45,45h-60c-4,0-7.8,1.6-10.6,4.4L151,249.8V226c0-8.3-6.7-15-15-15
	c-24.8,0-45-20.2-45-45V75c0-24.8,20.2-45,45-45h120c24.8,0,45,20.2,45,45V166z"/>
<path class="st1" d="M301,166c0,24.8-20.2,45-45,45h-60c-4,0-7.8,1.6-10.6,4.4L151,249.8V226c0-8.3-6.7-15-15-15
	c-24.8,0-45-20.2-45-45V75c0-24.8,20.2-45,45-45h120c24.8,0,45,20.2,45,45V166z"/>
<path class="st2" d="M361,226v23.8l-34.4-34.4c-2.8-2.8-6.6-4.4-10.6-4.4l0,0c9.4-12.5,15-28.1,15-45V75c0-5.1-0.5-10.2-1.5-15H376
	c24.8,0,45,20.2,45,45v61c0,24.8-20.2,45-45,45C367.7,211,361,217.7,361,226z"/>
<g>
	<g>
		<path class="st0" d="M251.6,75.4c-5.9-5.9-15.4-5.9-21.2,0L181,124.8l-19.4-19.4c-5.9-5.9-15.4-5.9-21.2,0s-5.9,15.4,0,21.2l30,30
			c5.9,5.9,15.4,5.9,21.2,0l60-60C257.5,90.7,257.5,81.3,251.6,75.4z"/>
	</g>
</g>
</svg>
