<?xml version="1.0" encoding="utf-8"?>
<!-- Generator: Adobe Illustrator 16.0.0, SVG Export Plug-In . SVG Version: 6.00 Build 0)  -->
<!DOCTYPE svg PUBLIC "-//W3C//DTD SVG 1.1//EN" "http://www.w3.org/Graphics/SVG/1.1/DTD/svg11.dtd">
<svg version="1.1" id="Layer_1" xmlns="http://www.w3.org/2000/svg" xmlns:xlink="http://www.w3.org/1999/xlink" x="0px" y="0px"
	 width="512px" height="512px" viewBox="0 0 512 512" enable-background="new 0 0 512 512" xml:space="preserve">
<path fill="#333333" d="M465.3,305.3h-17.602v-81.4C447.698,100.4,347.3,0,223.9,0C100.5,0,0,100.4,0,223.9
	C0,347.4,100.4,447.8,223.9,447.8c0.4,0,0.7,0,1.102,0V464.9c0,26.3,21.398,47.1,47.1,47.1c26.3,0,47.1-21.3,47.1-47.1v-40
	L426,478.3c4.6,2.3,10.198,2.102,14.6-0.7c4.4-2.698,7.1-7.6,7.1-12.8V407v-7.5h16.7c26.3,0,47.5-21.2,47.5-47.6
	C512,326.1,491.1,305.3,465.3,305.3L465.3,305.3z M79.8,353.5C48.9,319.1,30,273.6,30,223.9c0-42.4,13.7-81.6,36.8-113.5h36.5
	c5,0,9.1,4.1,9.1,9.1c0,21.6,17.5,39.1,39.102,39.1h8c18.3,0,33.2,14.9,33.2,33.2c0,18.3-14.9,33.2-33.2,33.2h-48.2
	c-26,0-47.1,21.1-47.1,47.1c0,26,21.1,47.102,47.1,47.102c9.4,0,17.1,7.699,17.1,17.1s-7.698,17.102-17.1,17.102L79.8,353.5z
	 M224.9,417.7c-0.398,0-0.698,0-1.1,0c-40.8,0-78.7-12.7-110-34.3c24.9-1.301,44.7-21.9,44.7-47.102c0-26-21.102-47.1-47.102-47.1
	c-9.398,0-17.1-7.7-17.1-17.102c0-9.398,7.7-17.1,17.1-17.1h48.2c34.8,0,63.2-28.4,63.2-63.2c0-34.8-28.4-63.2-63.2-63.2h-8
	c-5,0-9.1-4.1-9.1-9.1c0-21.6-17.5-39.1-39.102-39.1H93.7C128.1,49.1,173.8,30,223.9,30C274,30,319.6,49.1,354,80.3H348.4
	c-26,0-47.1,21.1-47.1,47.1s21.1,47.1,47.1,47.1c9.4,0,17.102,7.7,17.102,17.1c0,9.3-7.5,17.1-17.102,17.1h-12.1
	c-43.7,0-79.3,35.6-79.3,79.3v1.1h-1c-34.8,0-63.2,28.2-63.2,63.2c0,24.8,13.9,44.7,32.1,55V417.7L224.9,417.7z M289.2,464.9
	c0,9.5-7.7,17.1-17.102,17.1c-9.398,0-17.1-7.7-17.1-17.1V415.6h34.3L289.2,464.9L289.2,464.9z M289.2,385.6H256
	c-18.3,0-33.2-14.8-33.2-33.199s14.9-33.199,33.2-33.199h33.2V385.6z M300.7,289.2H287.1V288.1c0-27.199,22.1-49.3,49.3-49.3H348.5
	c26.1,0,47.1-21.1,47.1-47.1s-21.1-47.1-47.1-47.1c-9.4,0-17.102-7.7-17.102-17.1s7.7-17.1,17.102-17.1H380.9
	c23.102,31.9,36.8,71.2,36.8,113.5c0,2.3,0,4.6-0.1,6.9L300.7,289.2z M417.698,440.6l-98.5-49.3V313.4l98.5-49.301V440.6z
	 M464.5,369.5h-16.7v-34.3h17.6c9.2,0,16.7,7.399,16.7,16.7C482,361.5,474.3,369.5,464.5,369.5z"/>
<g>
	<path opacity="0.8" fill="#9CCC38" enable-background="new    " d="M79.8,353.5C48.9,319.1,30,273.6,30,223.9
		c0-42.4,13.7-81.6,36.8-113.5h36.5c5,0,9.1,4.1,9.1,9.1c0,21.6,17.5,39.1,39.102,39.1h8c18.3,0,33.2,14.9,33.2,33.2
		c0,18.3-14.9,33.2-33.2,33.2h-48.2c-26,0-47.1,21.1-47.1,47.1c0,26,21.1,47.102,47.1,47.102c9.4,0,17.1,7.699,17.1,17.1
		s-7.698,17.102-17.1,17.102L79.8,353.5z"/>
	<path opacity="0.8" fill="#9CCC38" enable-background="new    " d="M300.7,289.2H287.1V288.1c0-27.199,22.1-49.3,49.3-49.3H348.5
		c26.1,0,47.1-21.1,47.1-47.1s-21.1-47.1-47.1-47.1c-9.4,0-17.102-7.7-17.102-17.1s7.7-17.1,17.102-17.1H380.9
		c23.102,31.9,36.8,71.2,36.8,113.5c0,2.3,0,4.6-0.1,6.9L300.7,289.2z"/>
</g>
<g>
	<path fill="#0EB6DD" d="M224.9,417.7c-0.398,0-0.698,0-1.1,0c-40.8,0-78.7-12.7-110-34.3c24.9-1.301,44.7-21.9,44.7-47.102
		c0-26-21.102-47.1-47.102-47.1c-9.398,0-17.1-7.7-17.1-17.102c0-9.398,7.7-17.1,17.1-17.1h48.2c34.8,0,63.2-28.4,63.2-63.2
		c0-34.8-28.4-63.2-63.2-63.2h-8c-5,0-9.1-4.1-9.1-9.1c0-21.6-17.5-39.1-39.102-39.1H93.7C128.1,49.1,173.8,30,223.9,30
		C274,30,319.6,49.1,354,80.3H348.4c-26,0-47.1,21.1-47.1,47.1s21.1,47.1,47.1,47.1c9.4,0,17.102,7.7,17.102,17.1
		c0,9.3-7.5,17.1-17.102,17.1h-12.1c-43.7,0-79.3,35.6-79.3,79.3v1.1h-1c-34.8,0-63.2,28.2-63.2,63.2c0,24.8,13.9,44.7,32.1,55
		V417.7L224.9,417.7z"/>
	<path fill="#0EB6DD" d="M289.2,464.9c0,9.5-7.7,17.1-17.102,17.1c-9.398,0-17.1-7.7-17.1-17.1V415.6h34.3L289.2,464.9L289.2,464.9z
		"/>
	<path fill="#0EB6DD" d="M289.2,385.6H256c-18.3,0-33.2-14.8-33.2-33.199s14.9-33.199,33.2-33.199h33.2V385.6z"/>
	<polygon fill="#0EB6DD" points="417.698,440.6 319.198,391.3 319.198,313.4 417.698,264.1 	"/>
	<path fill="#0EB6DD" d="M464.5,369.5h-16.7v-34.3h17.6c9.2,0,16.7,7.399,16.7,16.7C482,361.5,474.3,369.5,464.5,369.5z"/>
</g>
</svg>
