<?xml version="1.0" encoding="utf-8"?>
<!-- Generator: Adobe Illustrator 23.0.3, SVG Export Plug-In . SVG Version: 6.00 Build 0)  -->
<svg version="1.1" id="Layer_1" xmlns="http://www.w3.org/2000/svg" xmlns:xlink="http://www.w3.org/1999/xlink" x="0px" y="0px"
	 width="512px" height="512px" viewBox="0 0 512 512" style="enable-background:new 0 0 512 512;" xml:space="preserve">
<style type="text/css">
	.st0{fill:#2A2F30;}
	.st1{fill:#0EB6DD;}
	.st2{fill:#9CCF10;}
</style>
<path class="st0" d="M465.3,305.3h-17.6v-81.4C447.7,100.4,347.3,0,223.9,0S0,100.4,0,223.9s100.4,223.9,223.9,223.9
	c0.4,0,0.7,0,1.1,0v17.1c0,26.3,21.4,47.1,47.1,47.1c26.3,0,47.1-21.3,47.1-47.1v-40L426,478.3c4.6,2.3,10.2,2.1,14.6-0.7
	c4.4-2.7,7.1-7.6,7.1-12.8V407v-7.5h16.7c26.3,0,47.5-21.2,47.5-47.6C512,326.1,491.1,305.3,465.3,305.3z M222.8,352.4
	c0-18.4,14.9-33.2,33.2-33.2h33.2v66.4H256C237.7,385.6,222.8,370.8,222.8,352.4z M289.2,464.9c0,9.5-7.7,17.1-17.1,17.1
	c-9.4,0-17.1-7.7-17.1-17.1v-49.3h34.3L289.2,464.9z M417.7,440.6l-98.5-49.3v-77.9l98.5-49.3V440.6z M464.5,369.5h-16.7v-34.3h17.6
	c9.2,0,16.7,7.4,16.7,16.7C482,361.5,474.3,369.5,464.5,369.5z"/>
<path class="st1" d="M79.8,353.5C48.9,319.1,30,273.6,30,223.9c0-42.4,13.7-81.6,36.8-113.5h36.5c5,0,9.1,4.1,9.1,9.1
	c0,21.6,17.5,39.1,39.1,39.1h8c18.3,0,33.2,14.9,33.2,33.2S177.8,225,159.5,225h-48.2c-26,0-47.1,21.1-47.1,47.1
	s21.1,47.1,47.1,47.1c9.4,0,17.1,7.7,17.1,17.1s-7.7,17.1-17.1,17.1L79.8,353.5z"/>
<path class="st1" d="M224.9,417.7c-0.4,0-0.7,0-1.1,0c-40.8,0-78.7-12.7-110-34.3c24.9-1.3,44.7-21.9,44.7-47.1
	c0-26-21.1-47.1-47.1-47.1c-9.4,0-17.1-7.7-17.1-17.1S102,255,111.4,255h48.2c34.8,0,63.2-28.4,63.2-63.2s-28.4-63.2-63.2-63.2h-8
	c-5,0-9.1-4.1-9.1-9.1c0-21.6-17.5-39.1-39.1-39.1h-9.7C128.1,49.1,173.8,30,223.9,30S319.6,49.1,354,80.3h-5.6
	c-26,0-47.1,21.1-47.1,47.1s21.1,47.1,47.1,47.1c9.4,0,17.1,7.7,17.1,17.1c0,9.3-7.5,17.1-17.1,17.1h-12.1
	c-43.7,0-79.3,35.6-79.3,79.3v1.1h-1c-34.8,0-63.2,28.2-63.2,63.2c0,24.8,13.9,44.7,32.1,55V417.7L224.9,417.7z"/>
<path class="st1" d="M300.7,289.2h-13.6v-1.1c0-27.2,22.1-49.3,49.3-49.3h12.1c26.1,0,47.1-21.1,47.1-47.1s-21.1-47.1-47.1-47.1
	c-9.4,0-17.1-7.7-17.1-17.1s7.7-17.1,17.1-17.1h32.4c23.1,31.9,36.8,71.2,36.8,113.5c0,2.3,0,4.6-0.1,6.9L300.7,289.2z"/>
<path class="st2" d="M79.8,353.5C48.9,319.1,30,273.6,30,223.9c0-42.4,13.7-81.6,36.8-113.5h36.5c5,0,9.1,4.1,9.1,9.1
	c0,21.6,17.5,39.1,39.1,39.1h8c18.3,0,33.2,14.9,33.2,33.2S177.8,225,159.5,225h-48.2c-26,0-47.1,21.1-47.1,47.1
	s21.1,47.1,47.1,47.1c9.4,0,17.1,7.7,17.1,17.1s-7.7,17.1-17.1,17.1L79.8,353.5z"/>
<path class="st2" d="M300.7,289.2h-13.6v-1.1c0-27.2,22.1-49.3,49.3-49.3h12.1c26.1,0,47.1-21.1,47.1-47.1s-21.1-47.1-47.1-47.1
	c-9.4,0-17.1-7.7-17.1-17.1s7.7-17.1,17.1-17.1h32.4c23.1,31.9,36.8,71.2,36.8,113.5c0,2.3,0,4.6-0.1,6.9L300.7,289.2z"/>
</svg>
