<?xml version="1.0" encoding="utf-8"?>
<!-- Generator: Adobe Illustrator 16.0.0, SVG Export Plug-In . SVG Version: 6.00 Build 0)  -->
<!DOCTYPE svg PUBLIC "-//W3C//DTD SVG 1.1//EN" "http://www.w3.org/Graphics/SVG/1.1/DTD/svg11.dtd">
<svg version="1.1" id="Capa_1" xmlns="http://www.w3.org/2000/svg" xmlns:xlink="http://www.w3.org/1999/xlink" x="0px" y="0px"
	 width="512px" height="512px" viewBox="0 0 512 512" enable-background="new 0 0 512 512" xml:space="preserve">
<path fill="#333333" d="M451,30H148.4C142.2,12.5,125.6,0,106,0C81.2,0,61,20.2,61,45v467h360v-60h30V30z M106,30
	c8.3,0,15,6.7,15,15v349.6c-4.7-1.699-9.7-2.6-15-2.6s-10.3,0.9-15,2.6V45C91,36.7,97.7,30,106,30z M391,482H91v-45
	c0-8.3,6.7-15,15-15s15,6.7,15,15v15h270V482z M421,422H151V60h270V422z"/>
<g>
	<path opacity="0.8" fill="#9CCC38" enable-background="new    " d="M106,30c8.3,0,15,6.7,15,15v349.6c-4.7-1.699-9.7-2.6-15-2.6
		s-10.3,0.9-15,2.6V45C91,36.7,97.7,30,106,30z"/>
	<path opacity="0.8" fill="#9CCC38" enable-background="new    " d="M391,482H91v-45c0-8.3,6.7-15,15-15s15,6.7,15,15v15h270V482z"
		/>
</g>
<rect x="151" y="60" fill="#0EB6DD" width="270" height="362"/>
<path fill="#333333" d="M296.6,87.6l-21.2-21.2L226,115.8l-19.4-19.4l-21.2,21.2L226,158.2L296.6,87.6z"/>
<path fill="#333333" d="M296.6,207.6l-21.2-21.2L226,235.8l-19.4-19.4l-21.2,21.2L226,278.2L296.6,207.6z"/>
<path fill="#333333" d="M296.6,327.6L275.4,306.4L226,355.8L206.6,336.4L185.4,357.6L226,398.2L296.6,327.6z"/>
<path fill="#333333" d="M301,122h90v30h-90V122z"/>
<path fill="#333333" d="M301,242h90v30h-90V242z"/>
<path fill="#333333" d="M301,362h90v30h-90V362z"/>
</svg>
