<?xml version="1.0" encoding="utf-8"?>
<!-- Generator: Adobe Illustrator 23.0.3, SVG Export Plug-In . SVG Version: 6.00 Build 0)  -->
<svg version="1.1" id="Capa_1" xmlns="http://www.w3.org/2000/svg" xmlns:xlink="http://www.w3.org/1999/xlink" x="0px" y="0px"
	 width="512px" height="512px" viewBox="0 0 512 512" style="enable-background:new 0 0 512 512;" xml:space="preserve">
<style type="text/css">
	.st0{fill:#2A2F30;}
	.st1{fill:#9CCF10;}
	.st2{fill:#06C2FC;enable-background:new    ;}
</style>
<path class="st0" d="M451,30H148.4C142.2,12.5,125.6,0,106,0C81.2,0,61,20.2,61,45v467h360v-60h30V30z"/>
<path class="st1" d="M106,30c8.3,0,15,6.7,15,15v349.6c-4.7-1.7-9.7-2.6-15-2.6s-10.3,0.9-15,2.6V45C91,36.7,97.7,30,106,30z"/>
<path class="st1" d="M391,482H91v-45c0-8.3,6.7-15,15-15s15,6.7,15,15v15h270V482z"/>
<rect x="151" y="60" class="st2" width="270" height="362"/>
<g>
	<polygon class="st0" points="211.8,132.6 198.1,118.9 179,138.1 211.8,170.9 265.7,117 246.5,97.8 	"/>
	<rect x="280.8" y="133.2" class="st0" width="111" height="27.1"/>
	<polygon class="st0" points="211.8,239.2 198.1,225.6 179,244.7 211.8,277.5 265.7,223.6 246.5,204.5 	"/>
	<rect x="280.8" y="239.8" class="st0" width="111" height="27.1"/>
	<polygon class="st0" points="211.8,345.9 198.1,332.2 179,351.4 211.8,384.2 265.7,330.3 246.5,311.1 	"/>
	<rect x="280.8" y="346.5" class="st0" width="111" height="27.1"/>
</g>
</svg>
