<?xml version="1.0" encoding="utf-8"?>
<!-- Generator: Adobe Illustrator 22.0.0, SVG Export Plug-In . SVG Version: 6.00 Build 0)  -->
<svg version="1.1" id="Layer_1" xmlns="http://www.w3.org/2000/svg" xmlns:xlink="http://www.w3.org/1999/xlink" x="0px" y="0px"
	 viewBox="0 0 100 100" style="enable-background:new 0 0 100 100;" xml:space="preserve">
<style type="text/css">
	.st0{fill:#DC1E3C;}
	.st1{fill:none;stroke:#FFFFFF;stroke-linecap:round;stroke-linejoin:round;}
	.st2{fill:#FFFFFF;}
	.st3{fill:none;stroke:#FFFFFF;stroke-miterlimit:10;}
	.st4{font-family:'Exo-Regular';}
	.st5{font-size:15.96px;}
	.st6{letter-spacing:1;}
	.st7{font-family:'Exo-Bold';}
</style>
<title>Tour Guide</title>
<g id="BG">
	<rect class="st0" width="100" height="100"/>
</g>
<g id="tour_guirde">
	<path class="st1" d="M35.7,20.6c3.3,0,6,2.7,6,6"/>
	<path class="st1" d="M63.9,19.8c2,0.8,3.8,2.1,5.3,3.6"/>
	<circle class="st2" cx="70.6" cy="24.8" r="0.5"/>
	<path class="st1" d="M63.1,15.5l1.5,0.6l-0.3,1.2c7.2,3.1,15.7,15.2,15.6,15.1c-3.4-1.3-6.9-2.1-10.5-2.2c-2.8-0.2-5.5-0.1-8.3-0.2
		c-0.5,0-0.7,0.2-0.9,0.7c-2.6,8.5-5.2,17-7.8,25.5L52.2,57l-1.7-0.5c0.1-0.2,0.1-0.5,0.2-0.7c4-13.3,8-26.5,12.1-39.8
		c0.1-0.2,0.1-0.4,0.2-0.6L63.1,15.5z"/>
	<path class="st1" d="M52.4,45.8c-2.4,0.6-4.8,0.3-7-0.8l-0.7-0.4c0,0.3,0,0.5,0,0.7v14.2"/>
	<path class="st1" d="M31.8,54.8l1.8,0.4c0.2-0.7,0.4-1.4,0.7-2.1c0.1-0.3,0.4-0.6,0.7-0.8c0.5-0.4,1.1-0.6,1.7-1
		c1.5-0.9,2-2.9,1-4.5c-0.2-0.3-0.4-0.6-0.7-0.8c-0.4-0.2-0.5-0.6-0.3-1c0,0,0,0,0,0c0.2-0.9,0.6-1.8,1.2-2.5
		c0.8-0.9,0.9-2.2,0.2-3.2c-0.5-0.9-1.6-1.3-2.5-1c-1.4,0.5-2.2,2-1.8,3.4c0,0,0,0,0,0.1c0.5,1.2-0.2,2.4-0.3,3.6
		c0,0.1-0.1,0.2-0.2,0.2c-1.8,1.2-3.8,2-5.9,2.5c-0.1,0-0.3,0-0.4,0v-3.7h-0.2c-0.7,1.1-1,2.5-0.8,3.8c0.2,0.3,0.4,0.5,0.8,0.5
		c0.8,0,1.6-0.1,2.4-0.4c1.5-0.6,3-1.4,4.5-2.1c0.9-0.5,2-0.5,2.8,0.1c0.9,0.5,1.4,1.6,1.1,2.6c-0.1,0.7-0.5,1.3-1.1,1.7
		c-2.5,1.7-5.4,2.9-8.4,3.4c-4.6,0.6-7.9-2.5-7.4-7.2c0.3-3.6,2.1-7,5-9.2c1.3-1.1,3-1.7,4.8-1.7c3.8,0.1,7.6,0,11.4,0
		c1.2,0,2.3,0.5,2.9,1.5c0.8,1,1.8,1.9,2.9,2.7c1.5,1,3.4,1,4.9,0c0.6-0.4,1.2-0.8,1.7-1.3"/>
	<line class="st1" x1="26.8" y1="59.6" x2="26.8" y2="55.4"/>
	<path class="st3" d="M28.3,25.8c0-4.1,3.3-7.4,7.4-7.4c4.1,0,7.4,3.3,7.4,7.4c0,4.1-3.3,7.4-7.4,7.4C31.6,33.2,28.3,29.9,28.3,25.8
		C28.3,25.8,28.3,25.8,28.3,25.8z"/>
	<path class="st1" d="M60,36c1.3,0.5,1.8,1.9,1.3,3.2c0,0.1-0.1,0.2-0.1,0.3c-1,1.3-2.2,2.4-3.4,3.5"/>
	<text transform="matrix(1 0 0 1 3.7799 79.99)" class="st2 st4 st5">T</text>
	<text transform="matrix(1 0 0 1 12.2499 79.99)" class="st2 st4 st5 st6">our </text>
	<text transform="matrix(1 0 0 1 47.9899 79.99)" class="st2 st7 st5 st6">Guide</text>
</g>
</svg>
