<?xml version="1.0" encoding="utf-8"?>
<!-- Generator: Adobe Illustrator 23.0.3, SVG Export Plug-In . SVG Version: 6.00 Build 0)  -->
<svg version="1.1" id="Layer_1" xmlns="http://www.w3.org/2000/svg" xmlns:xlink="http://www.w3.org/1999/xlink" x="0px" y="0px"
	 width="40px" height="48.5px" viewBox="0 0 40 48.5" style="enable-background:new 0 0 40 48.5;" xml:space="preserve">
<style type="text/css">
	.st0{opacity:0.2;enable-background:new    ;}
	.st1{fill:#9CCF10;}
	.st2{fill-rule:evenodd;clip-rule:evenodd;fill:#739109;}
	.st3{fill-rule:evenodd;clip-rule:evenodd;fill:#FFFFFF;}
</style>
<ellipse class="st0" cx="20" cy="44.9" rx="15.1" ry="3.7"/>
<g>
	<polygon class="st1" points="20,46.8 14.7,37.8 20,28.9 25.3,37.8 	"/>
	<circle class="st1" cx="20" cy="20" r="20"/>
</g>
<g>
	<path class="st2" d="M20,10.5c6.8,0,12.3,6,12.3,13.3c0,3-1,5.8-2.5,8c-1.2-2.8-3.4-4.9-6.1-5.9c2.3-1.3,3.9-3.8,3.9-6.6
		c0-4.2-3.5-7.6-7.6-7.6s-7.6,3.4-7.6,7.6c0,2.8,1.5,5.3,3.9,6.6c-2.8,1.1-4.9,3.2-6.1,5.9c-1.5-2.3-2.5-5-2.5-8
		C7.7,16.5,13.2,10.5,20,10.5L20,10.5z"/>
	<g>
		<path class="st3" d="M26.5,13.5c1.3,0,2.3-1.1,2.3-2.3s-1.1-2.3-2.3-2.3s-2.3,1.1-2.3,2.3S25.2,13.5,26.5,13.5L26.5,13.5z"/>
		<path class="st3" d="M26.1,12.3c3.7,2.3,6.2,6.6,6.2,11.6c0,3-1,5.8-2.5,8l0,0c0.8-1.2,1.2-2.7,1.2-4.3c0-4.4-3.6-8-8-8l0,0
			c-0.6,0-1.1,0.5-1,1.1l0.7,4.9c-0.5-0.2-1.1-0.2-1.5-0.3C21.1,24,20.6,23,20,23s-1.1,1-1.2,2.3c-0.5,0.1-1.1,0.2-1.5,0.3l0.7-4.9
			c0.1-0.6-0.3-1.1-1-1.1l0,0c-4.4,0-8,3.6-8,8c0,1.5,0.5,3,1.2,4.3l0,0c-1.5-2.3-2.5-5-2.5-8c0-4.9,2.5-9.2,6.2-11.6
			c0.2,3.2,2.8,5.8,6.1,5.8S25.9,15.5,26.1,12.3L26.1,12.3z"/>
		<path class="st3" d="M13.5,13.5c1.3,0,2.3-1.1,2.3-2.3s-1.1-2.3-2.3-2.3s-2.3,1.1-2.3,2.3S12.2,13.5,13.5,13.5L13.5,13.5z"/>
		<path class="st3" d="M10.8,11.4c0.7,0,1.2-0.6,1.2-1.2s-0.6-1.2-1.2-1.2s-1.2,0.6-1.2,1.2S10.2,11.4,10.8,11.4L10.8,11.4z"/>
		<path class="st3" d="M20,17.2c0.9,0,1.7-0.7,1.7-1.7c0-0.9-0.7-1.7-1.7-1.7s-1.7,0.7-1.7,1.7S19.1,17.2,20,17.2L20,17.2z"/>
	</g>
</g>
</svg>
