<?xml version="1.0" encoding="utf-8"?>
<!-- Generator: Adobe Illustrator 23.0.3, SVG Export Plug-In . SVG Version: 6.00 Build 0)  -->
<svg version="1.1" id="Layer_1" xmlns="http://www.w3.org/2000/svg" xmlns:xlink="http://www.w3.org/1999/xlink" x="0px" y="0px"
	 width="715px" height="520px" viewBox="0 0 715 520" style="enable-background:new 0 0 715 520;" xml:space="preserve">
<style type="text/css">
	.st0{opacity:0.15;fill:#0F2B42;}
	.st1{enable-background:new    ;}
	.st2{fill:#ADCDFC;}
	.st3{fill:#E2EDFF;}
	.st4{fill:#C7D8F2;}
	.st5{fill:#7BAEFF;}
	.st6{fill:#4DA5DC;}
	.st7{fill:#3AAEEF;}
	.st8{fill:#E1E8F2;}
	.st9{fill:#E16B40;}
	.st10{fill:#FF8654;}
	.st11{fill:#0046A6;}
	.st12{fill:#003783;}
	.st13{fill:#FF9F75;}
	.st14{fill:#CFDAE4;}
	.st15{fill:#00A5FF;}
	.st16{fill:#382747;}
	.st17{fill:#94A3C0;}
	.st18{fill:#FFFFFF;}
	.st19{fill:#F2F8FD;}
	.st20{fill:url(#SVGID_1_);}
	.st21{fill:url(#SVGID_2_);}
	.st22{fill:#14347C;}
	.st23{fill:#18388F;}
	.st24{fill:#CE7C56;}
	.st25{fill:#E2A029;}
	.st26{fill:#FFBE3D;}
	.st27{fill:#FFAA83;}
	.st28{fill:#4D2C63;}
	.st29{fill:#3278CC;}
</style>
<g>
	<path class="st0" d="M577.71,434.71c-22.13-12.78-53.17-17.18-81.39-13.23l100.14-58.2c10.94-6.36,10.88-16.66-0.13-23.02
		L367.11,207.93c-11.01-6.36-28.8-6.36-39.74,0l-78.33,45.52c-33.89-14.96-82.39-13.51-113.2,4.4
		c-30.81,17.91-33.2,46.02-7.27,65.61l-28.93,16.81c-10.94,6.36-10.88,16.66,0.13,23.02l229.22,132.34c11.01,6.36,28.8,6.36,39.74,0
		l64.32-37.38c-6.75,16.37,0.94,34.34,23.07,47.12c33.79,19.51,88.45,19.51,122.02,0C611.71,485.86,611.5,454.22,577.71,434.71z"/>
	<g>
		<g>
			<g>
				<g>
					<g class="st1">
						<path class="st2" d="M233.61,282.73c-0.9,10.04-10.36,16.87-18.88,20.54c-9.29,4-19.5,5.62-29.58,5.49
							c-10.29-0.13-20.79-2.1-30.06-6.66c-8.09-3.98-16.68-11.21-16.65-21.03c-0.02,7.15,0.48,13.07,5.64,18.65
							c6.64,7.19,16.63,11.06,26.03,13c18.34,3.79,43.31,1.96,57.24-12.16c5.6-5.68,6.37-11.67,6.39-19.22
							C233.71,281.8,233.67,282.27,233.61,282.73z"/>
						<g>
							<path class="st3" d="M219.65,261.67c18.67,10.78,18.79,28.25,0.24,39.03c-18.55,10.78-48.74,10.78-67.41,0
								c-18.67-10.78-18.74-28.25-0.2-39.03C170.83,250.9,200.98,250.9,219.65,261.67z"/>
						</g>
					</g>
				</g>
				<g>
					<g class="st1">
						<g>
							<polygon class="st4" points="194.57,239.89 194.45,281.54 187.16,285.77 187.28,244.12 							"/>
						</g>
						<g>
							<polygon class="st5" points="187.28,244.12 187.16,285.77 179.83,281.54 179.95,239.89 							"/>
						</g>
						<g>
							<polygon class="st6" points="194.57,239.89 187.28,244.12 179.95,239.89 187.24,235.66 							"/>
						</g>
					</g>
				</g>
			</g>
			<path class="st7" d="M139.89,104.85c0,0-14.93,3.98-18.92,12.94c-3.98,8.96-2.99,76.66,17.92,104.54
				c20.91,27.88,59.74,31.86,68.7,27.88c8.96-3.98,60.73-29.87,64.71-42.81c3.98-12.94-15.93-22.9-26.88-27.88
				c-10.95-4.98-17.92-11.95-23.89-29.87c-5.97-17.92-8.96-48.78-15.93-53.76C198.63,90.91,181.71,82.94,139.89,104.85z"/>
			<g>
				<path class="st8" d="M229.16,86.83c0,0-24.5-20.28-29.48-20.75c-5.98-0.47-13.43,1.56-15.38,10.04s2.57,14.92,7.06,17.39
					c4.49,2.47,43.92,21.17,50.89,21.14c6.97-0.04,11.42-6.03,6.9-13.48C244.63,93.72,229.16,86.83,229.16,86.83z"/>
				<g>
					<g>
						<g>
							<g>
								<g>
									<g>
										<path class="st9" d="M186.81,61.45c0,0-0.05,0.31,0.05,0.81c0.37,1.82,1.51,6.46,1.77,8.41c0.26,1.87-1.71,5.22-6.78,5.37
											c-5.07,0.15-13.77-1.55-16.93-7.44c0.18-1.08-0.73-12.24-1.72-17.78L186.81,61.45z"/>
										<g>
											<g>
												<path class="st10" d="M197.7,24.58c-3.66-15.35-16.37-23.54-30.09-19.61c0,0-14.97,2.25-21.01,15.8
													c-6.03,13.55,4.33,24.18,10.97,30.88c2.79,2.75,4.91,4.87,6.24,6.22c0.48,0.51,0.96,1.03,1.46,1.49
													c0.09,0.09,0.14,0.15,0.14,0.15l0.02-0.01c4.51,4.08,9.55,6.27,13.25,7.18c6.14,1.5,13.25,0.12,16.91-4.19
													C199.25,58.16,201.37,39.93,197.7,24.58z"/>
											</g>
										</g>
									</g>
								</g>
							</g>
						</g>
						<path class="st11" d="M166.05,62.65c0,0-24.12,19.09-26.3,25.16c-2.18,6.06-1.89,22.63,3.8,33.4
							c5.7,10.77,5.81,51.42,8.06,59.26c2.25,7.84,23.77,9.29,36.88,6.08c13.11-3.21,33.94-14.19,29.76-29.08
							c-6.18-21.98-4.71-44.13-4.22-51.13c0.5-7-1.28-24.42-5.08-35.97c-0.8-2.44-9.39-5.84-9.39-5.84S190.65,60.39,166.05,62.65z"
							/>
					</g>
					<path class="st12" d="M170.42,153.63c-9.96-12.61,4.65-55.75-12.61-67.7c-5.26-3.64-9.78-4.56-13.52-4.09
						c-2.31,2.43-4.03,4.56-4.54,5.97c-2.18,6.06-1.89,22.63,3.8,33.4c5.7,10.77,5.81,51.42,8.06,59.26
						c2.05,7.14,20.04,8.97,33.15,6.82l18.85-19.72C203.61,167.57,180.38,166.24,170.42,153.63z"/>
					<path class="st8" d="M165.23,65.89c20.97-1.93,30.62,1.68,33.02,2.79c0.37,4.22,0.54,9.79-0.31,14.89
						c-1.64,9.91-5.59,37.13-5.59,37.13s-12.94-22.37-21.45-31.57c-5.99-6.48-11.9-12.58-14.87-15.64
						C161.05,69.2,165.23,65.89,165.23,65.89z"/>
					<path class="st10" d="M186.81,61.45c0,0-0.05,0.31,0.05,0.81c0.37,1.82,1.51,6.46,1.77,8.41c0.26,1.87-1.71,5.22-6.78,5.37
						c-5.07,0.15-13.77-1.55-16.93-7.44c0.18-1.08-0.73-12.24-1.72-17.78L186.81,61.45z"/>
					<g>
						<g>
							<path class="st13" d="M197.7,24.58c-3.66-15.35-16.37-23.54-30.09-19.61c0,0-14.97,2.25-21.01,15.8
								c-6.03,13.55,4.33,24.18,10.97,30.88c2.79,2.75,4.91,4.87,6.24,6.22c0.48,0.51,0.96,1.03,1.46,1.49
								c0.09,0.09,0.14,0.15,0.14,0.15l0.02-0.01c4.51,4.08,9.55,6.27,13.25,7.18c6.14,1.5,13.25,0.12,16.91-4.19
								C199.25,58.16,201.37,39.93,197.7,24.58z"/>
						</g>
					</g>
					<path class="st14" d="M195.28,89.11l-9.35-8.28l-7.48,13.09l-7.54-4.76c8.52,9.22,21.44,31.55,21.44,31.55
						s3.29-22.71,5.11-34.2L195.28,89.11z"/>
					<path class="st15" d="M194.64,105.14l-4.16-14.7l0.63-5.04l-5.17-4.58l-3.63,6.35l4.16,3.8l1.13,21.82
						c2.84,4.59,4.75,7.9,4.75,7.9S193.4,113.49,194.64,105.14z"/>
				</g>
				<path class="st9" d="M144.87,19.22c0,0-5.97,10.95,1.49,22.4c7.47,11.45,15.47,16.54,17.44,16.24c1.97-0.31,2.97-0.81,2.47-2.3
					c-0.5-1.49-2.99-6.47-2.99-6.47s-8.46-1-8.46-6.47s2.99-6.47,6.47-4.98c3.48,1.49,3.98,3.98,5.97,5.97
					c1.99,1.99,2.49,6.97,3.98,6.47c1.49-0.5,2.49-1.99,2.49-4.48c0-2.49,0-5.48-2.99-8.46c-2.99-2.99,0.5-7.96-2.49-11.95
					c-2.99-3.98-4.98-5.48-4.98-5.48s1.99,2.99,11.95,1c9.96-1.99,14.44-1.49,18.42-3.98c3.98-2.49,2.99-7.96,0.5-9.96
					c-2.49-1.99-8.46-2.99-15.43-5.48s-10.95-1-19.41,1C150.84,4.29,142.88,13.25,144.87,19.22z"/>
			</g>
		</g>
		<path class="st16" d="M285.25,318.9c0,0-0.33,4.98,4.98,8.63c5.31,3.65,6.31,5.97,10.62,7.63c4.31,1.66,8.3,7.3,6.31,11.28
			c-1.99,3.98-11.28,4.65-17.26,2.99c-5.97-1.66-6.97-6.97-12.61-8.96c-5.64-1.99-7.63-4.31-9.29-5.97c-1.66-1.66-1-8.3-1-8.3
			l20.24-6.64"/>
		<path class="st16" d="M311.14,299.65c0,0-0.33,4.98,4.98,8.63c5.31,3.65,6.31,5.97,10.62,7.63c4.31,1.66,8.3,7.3,6.31,11.28
			s-11.28,4.65-17.26,2.99c-5.97-1.66-6.97-6.97-12.61-8.96c-5.64-1.99-7.63-4.31-9.29-5.97c-1.66-1.66-1-8.3-1-8.3l20.24-6.64"/>
		<path class="st17" d="M153.17,180.68c0,0,1,3.98,1,7.47c0,3.48-2.49,13.44,2.49,25.39c4.98,11.95,38.33,14.44,49.28,19.41
			c10.95,4.98,17.42,9.46,19.41,10.95c1.99,1.49,4.81,22.57,13.44,35.18c8.63,12.61,23.23,37.83,26.55,48.45
			c0,0,9.44,2.23,17.92-3.32c4.44-2.9,3.98-4.65,3.98-4.65S269.99,281.73,266,265.8c-3.98-15.93-8.63-34.51-15.93-39.16
			c-7.3-4.65-30.53-21.24-35.84-24.56c-5.31-3.32-19.62-13.81-22.42-20.18C189.01,175.53,161.8,165.25,153.17,180.68z"/>
		<path class="st17" d="M180.55,164.25c0,0,1,3.98,1,7.47c0,3.48-2.49,13.44,2.49,25.39c4.98,11.95,38.33,14.44,49.28,19.41
			c10.95,4.98,17.42,9.46,19.41,10.95c1.99,1.49,4.81,22.57,13.44,35.18c8.63,12.61,23.23,37.83,26.55,48.45
			c0,0,9.44,2.23,17.92-3.32c4.44-2.9,3.98-4.65,3.98-4.65s-17.26-37.83-21.24-53.76c-3.98-15.93-8.63-34.51-15.93-39.16
			s-30.53-21.24-35.84-24.56c-5.31-3.32-19.62-13.81-22.42-20.18C216.39,159.11,189.18,148.82,180.55,164.25z"/>
	</g>
	<g>
		<g>
			<g class="st1">
				<g>
					<polygon class="st4" points="314.95,290.12 314.66,391.37 296.95,401.66 297.23,300.42 					"/>
				</g>
				<g>
					<g>
						<polygon class="st5" points="297.23,300.42 296.95,401.66 279.12,391.37 279.41,290.12 						"/>
					</g>
				</g>
				<g>
					<polygon class="st6" points="314.95,290.12 297.23,300.42 279.41,290.12 297.12,279.83 					"/>
				</g>
			</g>
		</g>
		<g>
			<path class="st2" d="M606.18,220.77c-0.03,0.29-0.05,0.59-0.1,0.88c-0.04,0.24-0.12,0.48-0.18,0.72
				c-0.07,0.28-0.14,0.56-0.24,0.84c-0.08,0.23-0.19,0.46-0.29,0.69c-0.13,0.29-0.25,0.59-0.41,0.87c-0.11,0.21-0.25,0.42-0.38,0.62
				c-0.2,0.33-0.42,0.66-0.66,0.98c-0.23,0.31-0.47,0.62-0.74,0.93c-0.06,0.07-0.12,0.14-0.18,0.22c-0.36,0.4-0.76,0.78-1.18,1.16
				c-0.27,0.24-0.57,0.48-0.86,0.71c-0.26,0.21-0.51,0.42-0.78,0.62c-0.32,0.23-0.67,0.45-1.01,0.68c-0.35,0.23-0.69,0.46-1.07,0.69
				L370.36,363.72c-1.87,1.09-3.95,1.99-6.16,2.71c-1.7,0.55-3.49,0.99-5.32,1.32c-1.18,0.21-2.38,0.38-3.58,0.5
				c-1.03,0.1-2.07,0.17-3.12,0.21c-0.96,0.03-1.92,0.04-2.88,0.01c-0.93-0.02-1.85-0.07-2.77-0.15l-0.05,16.23
				c0.92,0.08,1.84,0.13,2.77,0.15c0.96,0.02,1.92,0.02,2.88-0.01c1.04-0.04,2.08-0.1,3.12-0.21c1.21-0.12,2.41-0.29,3.58-0.5
				c1.83-0.33,3.61-0.77,5.32-1.32c2.21-0.72,4.28-1.62,6.16-2.71l227.73-132.34c0.12-0.07,0.23-0.13,0.34-0.2
				c0.26-0.15,0.47-0.32,0.72-0.48c0.35-0.22,0.7-0.45,1.02-0.68c0.28-0.2,0.52-0.41,0.78-0.62c0.3-0.24,0.6-0.47,0.87-0.72
				c0.05-0.05,0.12-0.09,0.17-0.14c0.36-0.33,0.69-0.67,1.01-1.02c0.07-0.07,0.12-0.15,0.19-0.22c0.19-0.21,0.38-0.42,0.55-0.64
				c0.07-0.09,0.12-0.19,0.19-0.29c0.24-0.32,0.46-0.65,0.66-0.98c0.09-0.14,0.2-0.27,0.28-0.41c0.04-0.07,0.06-0.14,0.1-0.21
				c0.16-0.29,0.28-0.58,0.41-0.87c0.07-0.17,0.17-0.34,0.24-0.51c0.02-0.06,0.03-0.12,0.05-0.18c0.1-0.28,0.17-0.56,0.24-0.84
				c0.05-0.19,0.12-0.38,0.16-0.57c0.01-0.05,0.01-0.1,0.02-0.15c0.05-0.29,0.07-0.59,0.1-0.89c0.02-0.19,0.06-0.38,0.07-0.58
				c0-0.08,0-0.16,0-0.25l0.05-16.23C606.25,220.22,606.21,220.5,606.18,220.77z"/>
			<path class="st2" d="M343.8,368.02c-0.94-0.13-1.87-0.29-2.79-0.48c-0.99-0.21-1.97-0.45-2.93-0.72
				c-1.17-0.33-2.31-0.72-3.41-1.15c-1.43-0.56-2.79-1.21-4.05-1.94L101.4,231.38c-5.54-3.2-8.31-7.4-8.3-11.59l-0.05,16.23
				c-0.01,4.19,2.76,8.39,8.3,11.59l229.22,132.34c1.27,0.73,2.63,1.38,4.05,1.94c1.1,0.43,2.24,0.82,3.41,1.15
				c0.96,0.27,1.94,0.51,2.93,0.72c0.92,0.19,1.85,0.35,2.79,0.48c0.9,0.13,1.82,0.23,2.73,0.31l0.05-16.23
				C345.61,368.25,344.7,368.15,343.8,368.02z"/>
			<g>
				<g>
					<path class="st3" d="M597.96,209c11.01,6.36,11.07,16.66,0.13,23.02L370.36,364.36c-10.94,6.36-28.73,6.36-39.74,0
						L101.4,232.02c-11.01-6.36-11.07-16.66-0.13-23.02L329,76.66c10.94-6.36,28.73-6.36,39.74,0L597.96,209z"/>
				</g>
			</g>
		</g>
	</g>
	<g>
		<g>
			<g>
				<polygon class="st18" points="351.6,256.94 414.35,293.4 458.49,267.92 395.74,231.45 				"/>
			</g>
		</g>
		<g>
			<g>
				<path class="st19" d="M425.48,308.87c1.53,0.88,1.53,2.31,0.02,3.19l-44.79,26.01c-1.52,0.88-3.98,0.88-5.5,0l-31.26-18.05
					c-1.52-0.88-1.53-2.31-0.02-3.19l44.79-26.01c1.51-0.88,3.98-0.88,5.5,0L425.48,308.87z"/>
			</g>
			<g>
				
					<linearGradient id="SVGID_1_" gradientUnits="userSpaceOnUse" x1="372.1588" y1="215.8479" x2="361.6581" y2="296.6581" gradientTransform="matrix(-1 0 0 1 743.9279 0)">
					<stop  offset="0" style="stop-color:#C6E6FF"/>
					<stop  offset="1" style="stop-color:#8D9FFF"/>
				</linearGradient>
				<path class="st20" d="M426.62,310.59c0,0.04-0.01,0.08-0.01,0.12c-0.01,0.03-0.02,0.07-0.02,0.1c-0.01,0.04-0.02,0.08-0.03,0.12
					c-0.01,0.03-0.03,0.06-0.04,0.09c-0.02,0.04-0.04,0.08-0.06,0.12c-0.02,0.03-0.03,0.06-0.05,0.09
					c-0.03,0.05-0.06,0.09-0.09,0.14c-0.02,0.03-0.04,0.05-0.06,0.08c-0.05,0.06-0.11,0.12-0.16,0.18
					c-0.02,0.02-0.04,0.04-0.06,0.06c-0.04,0.03-0.08,0.07-0.12,0.1c-0.04,0.03-0.07,0.06-0.11,0.09c-0.04,0.03-0.09,0.06-0.14,0.09
					c-0.05,0.03-0.1,0.06-0.15,0.09l-44.79,26.01c-0.17,0.1-0.35,0.18-0.54,0.26c-0.05,0.02-0.1,0.04-0.15,0.06
					c-0.12,0.04-0.24,0.08-0.37,0.11c-0.13,0.04-0.26,0.07-0.39,0.1c-0.16,0.03-0.31,0.06-0.47,0.08c-0.04,0-0.08,0.01-0.12,0.02
					c-0.22,0.02-0.43,0.03-0.65,0.04c-0.03,0-0.07,0-0.1,0c-0.22,0-0.43-0.01-0.65-0.04c-0.03,0-0.06-0.01-0.1-0.01
					c-0.21-0.03-0.42-0.06-0.62-0.11c-0.04-0.01-0.07-0.02-0.11-0.03c-0.19-0.05-0.37-0.1-0.54-0.16c-0.03-0.01-0.06-0.02-0.09-0.03
					c-0.21-0.08-0.41-0.17-0.59-0.28l-31.26-18.05c-0.58-0.33-0.94-0.74-1.08-1.17c-0.05-0.14-0.07-0.29-0.07-0.43l-0.01,1.79
					c0,0.07,0.01,0.15,0.02,0.22c0.08,0.51,0.46,1,1.13,1.39l31.26,18.05c0.18,0.1,0.36,0.19,0.56,0.27c0.01,0,0.02,0.01,0.03,0.01
					c0.03,0.01,0.06,0.02,0.09,0.03c0.11,0.04,0.23,0.08,0.35,0.12c0.06,0.02,0.13,0.03,0.19,0.05c0.04,0.01,0.07,0.02,0.11,0.03
					c0.03,0.01,0.07,0.02,0.1,0.02c0.13,0.03,0.26,0.05,0.38,0.07c0.05,0.01,0.09,0.01,0.14,0.02c0.03,0,0.06,0.01,0.1,0.01
					c0.05,0.01,0.1,0.01,0.14,0.02c0.13,0.01,0.25,0.02,0.38,0.02c0.04,0,0.08,0,0.12,0c0.03,0,0.07,0,0.1,0c0.06,0,0.12,0,0.17,0
					c0.14,0,0.29-0.01,0.43-0.03c0.02,0,0.03-0.01,0.05-0.01c0.04,0,0.08-0.01,0.12-0.02c0.11-0.01,0.22-0.03,0.33-0.05
					c0.05-0.01,0.09-0.03,0.14-0.04c0.13-0.03,0.26-0.06,0.39-0.1c0.07-0.02,0.14-0.03,0.21-0.05c0.05-0.02,0.11-0.04,0.16-0.06
					c0.05-0.02,0.1-0.04,0.15-0.06c0.19-0.08,0.37-0.16,0.54-0.26l44.79-26.01c0.02-0.01,0.03-0.02,0.05-0.03
					c0.04-0.02,0.07-0.04,0.1-0.07c0.05-0.03,0.1-0.06,0.14-0.09c0.04-0.03,0.07-0.06,0.11-0.09c0.04-0.03,0.08-0.07,0.12-0.1
					c0.01-0.01,0.02-0.01,0.02-0.02c0.02-0.01,0.03-0.03,0.04-0.04c0.06-0.06,0.11-0.12,0.16-0.18c0.01-0.01,0.03-0.03,0.04-0.04
					c0.01-0.01,0.02-0.03,0.03-0.04c0.03-0.04,0.06-0.09,0.09-0.14c0.01-0.02,0.03-0.04,0.04-0.06c0.01-0.01,0.01-0.02,0.01-0.03
					c0.02-0.04,0.04-0.08,0.06-0.12c0.01-0.02,0.02-0.05,0.03-0.07c0-0.01,0-0.02,0.01-0.02c0.01-0.04,0.02-0.08,0.03-0.12
					c0.01-0.03,0.02-0.05,0.02-0.08c0-0.01,0-0.01,0-0.02c0.01-0.04,0.01-0.08,0.01-0.12c0-0.03,0.01-0.05,0.01-0.08
					c0-0.01,0-0.02,0-0.03l0.01-1.79C426.63,310.52,426.62,310.55,426.62,310.59z"/>
				<g>
					
						<linearGradient id="SVGID_2_" gradientUnits="userSpaceOnUse" x1="530.7075" y1="357.7036" x2="560.667" y2="290.5941" gradientTransform="matrix(1 0 0 1 -165.5001 0)">
						<stop  offset="0" style="stop-color:#1AE5FF"/>
						<stop  offset="1" style="stop-color:#EAEEEE"/>
					</linearGradient>
					<path class="st21" d="M420.86,309.44c0.49,0.28,0.49,0.74,0,1.02l-42.51,24.71c-0.49,0.28-1.28,0.28-1.77,0l-28.16-16.26
						c-0.49-0.28-0.49-0.74-0.01-1.03l42.51-24.71c0.49-0.28,1.28-0.28,1.77,0L420.86,309.44z"/>
				</g>
			</g>
		</g>
		<g>
			<g>
				<polygon class="st18" points="212.21,161.36 274.96,197.82 319.1,172.34 256.35,135.87 				"/>
			</g>
		</g>
	</g>
	<g>
		<g>
			<g>
				<polygon class="st18" points="373.9,191.15 424.69,242.99 474.02,230.16 423.23,178.32 				"/>
			</g>
		</g>
		<g>
			<g>
				<path class="st17" d="M423.39,447.58c0,0-3.98,2.74-0.25,9.21c3.73,6.47,6.97,2.49,15.43,8.96c8.46,6.47,11.45,7.72,15.93,7.22
					c4.48-0.5,7.22-2.74,7.96-5.23c0.75-2.49-1.49-6.72-1.49-6.72L423.39,447.58z"/>
				<path class="st16" d="M459.23,447.83c0,0,1.74,8.46,2.74,14.93c0.25,2.99-3.73,7.05-9.46,6.8c-5.72-0.25-8.96-1.99-10.95-4.48
					c-1.99-2.49-14.44-7.3-16.68-9.29c-2.24-1.99-2.74-7.96-1.74-9.46c1-1.49,4.73-3.98,8.71-2.24c3.98,1.74,7.22,4.98,15.18,5.48
					C455,450.07,459.23,447.83,459.23,447.83z"/>
			</g>
			<g>
				<g>
					<path class="st17" d="M462.88,426.01c0,0-3.98,2.74-0.25,9.21c3.73,6.47,6.97,2.49,15.43,8.96c8.46,6.47,11.45,7.72,15.93,7.22
						c4.48-0.5,7.22-2.74,7.96-5.23c0.75-2.49-1.49-6.72-1.49-6.72L462.88,426.01z"/>
					<path class="st16" d="M498.73,426.26c0,0,1.74,8.46,2.74,14.93c0.25,2.99-3.73,7.05-9.46,6.8c-5.72-0.25-8.96-1.99-10.95-4.48
						c-1.99-2.49-14.44-7.3-16.68-9.29c-2.24-1.99-2.74-7.96-1.74-9.46c1-1.49,4.73-3.98,8.71-2.24s7.22,4.98,15.18,5.48
						C494.49,428.5,498.73,426.26,498.73,426.26z"/>
				</g>
				<path class="st22" d="M467.78,357.4c1.99,15.93,9.96,57.75,11.28,72.35c0,0,3.32,5.31,13.27,3.98l4.73-1.97
					c1.9-0.79,3.05-2.75,2.79-4.8c-1-8.05-3.25-28.33-2.21-40.36c1.33-15.27-2.65-24.56-2.65-24.56c0.33-4.98,1-22.24-8.96-26.88
					C486.03,335.16,461.64,330.68,467.78,357.4"/>
			</g>
			<path class="st23" d="M488.02,342.46l-2.65,5.31c0,0-40.82,1.99-51.77,13.94c0,0-7.3,1.33-5.31,17.26
				c1.99,15.93,9.96,57.75,11.28,72.35c0,0,3.32,5.31,13.27,3.98l4.73-1.97c1.9-0.79,3.05-2.75,2.79-4.8
				c-1-8.05-3.25-28.33-2.21-40.36c1.33-15.27-2.65-24.56-2.65-24.56s17.92,3.32,37.17,11.28c19.25,7.96,35.84-1.33,43.14-5.31
				s9.96-6.64,9.96-6.64s9.29,0,17.92-7.3c8.63-7.3,9.96-26.55,0.66-37.83C555.06,326.54,488.02,342.46,488.02,342.46z"/>
		</g>
		<g>
			<path class="st24" d="M502.63,241.58c0,0,6.6-2.45,6.16-11.26c-2-8.68-4.42-9.26-4.42-9.26s9.23-8.53,20.36-5.84
				c0,0,6.87,13.95,14.65,19.92C539.37,235.14,533.16,251.53,502.63,241.58z"/>
			<g>
				<path class="st25" d="M517.06,246.55c0,0,24.39-20.41,29.37-20.91c5.97-0.5,13.44,1.49,15.43,9.96
					c1.99,8.46-2.49,14.93-6.97,17.42c-4.48,2.49-43.81,21.41-50.78,21.41c-6.97,0-11.45-5.97-6.97-13.44
					C501.63,253.52,517.06,246.55,517.06,246.55z"/>
				<path class="st26" d="M524.53,232.95c0,0-25.89,8.63-33.19,20.58c-7.3,11.95-5.97,25.22-0.66,43.81
					c5.31,18.58-5.31,35.18-2.65,45.13c2.65,9.96,21.24,19.25,48.45,14.6s29.2-15.27,31.2-21.24c1.99-5.97-5.31-34.51,1.33-57.75
					c6.64-23.23-6.64-39.16-11.95-43.14C551.74,230.96,541.12,225.65,524.53,232.95z"/>
				<path class="st25" d="M557.05,234.94c-5.31-3.98-15.93-9.29-32.52-1.99c0,0-25.89,8.63-33.19,20.58
					c-1.77,2.9-3.02,5.87-3.84,8.98c10.48-13.62,25.36-19.61,35.04,3.63c9.04,21.69-13.95,85.44-34.04,65.39
					c-0.84,4.18-1.29,7.87-0.47,10.94c2.65,9.96,21.24,19.25,48.45,14.6s29.2-15.27,31.2-21.24c1.99-5.97-5.31-34.51,1.33-57.75
					C575.64,254.85,562.36,238.92,557.05,234.94z"/>
				<path class="st18" d="M499.8,244.23c0,0,6.97,4.48,24.39,1.99c17.42-2.49,18.42-14.93,16.93-15.93c-1.49-1-4.48-4.98-4.48-4.98
					s-18.42,8.46-24.89,10.95c-6.47,2.49-9.96,3.98-9.96,3.98L499.8,244.23z"/>
			</g>
		</g>
		<g>
			<path class="st27" d="M488.36,189.97c0,0-1.49,17.92,7.96,29.87c9.46,11.95,18.92,4.98,24.89,1.99
				c5.97-2.99,8.46-7.96,10.45-22.4c1.99-14.44,1.99-28.37-8.46-32.86c-10.45-4.48-21.9-5.48-28.37,5.48
				C488.36,183,488.36,189.97,488.36,189.97z"/>
			<path class="st28" d="M495.32,168.57c0,0-8.46,6.47-7.96,15.93c0.5,9.46-2.49,10.95-1.49,15.93c1,4.98,8.96,6.47,9.46,13.44
				c0.5,6.97,10.95,9.46,16.43,11.45c5.48,1.99,14.44-4.48,16.93-7.96c2.49-3.48,1.99-12.45,4.98-20.41
				c2.99-7.96,1.49-17.92-1-24.89c-2.49-6.97-7.47-8.46-7.47-8.46s-2.49-5.48-8.46-6.47C510.76,156.12,492.34,157.12,495.32,168.57z
				"/>
		</g>
		<g>
			<g>
				<g>
					<g>
						<g class="st1">
							<path class="st2" d="M575.1,462.94c-0.9,10.04-10.36,16.87-18.88,20.54c-9.29,4-19.5,5.62-29.58,5.49
								c-10.29-0.13-20.79-2.1-30.06-6.66c-8.09-3.98-16.68-11.21-16.65-21.03c-0.02,7.15,0.48,13.07,5.64,18.65
								c6.64,7.19,16.63,11.06,26.03,13c18.34,3.79,43.31,1.96,57.24-12.16c5.6-5.68,6.37-11.67,6.39-19.22
								C575.2,462.01,575.16,462.47,575.1,462.94z"/>
							<g>
								<path class="st3" d="M561.14,441.88c18.67,10.78,18.79,28.25,0.24,39.03c-18.55,10.78-48.74,10.78-67.41,0
									c-18.67-10.78-18.74-28.25-0.2-39.03C512.33,431.1,542.48,431.1,561.14,441.88z"/>
							</g>
						</g>
					</g>
					<g>
						<g class="st1">
							<g>
								<polygon class="st4" points="536.06,420.09 535.94,461.74 528.66,465.98 528.78,424.33 								"/>
							</g>
							<g>
								<polygon class="st5" points="528.78,424.33 528.66,465.98 521.32,461.74 521.44,420.09 								"/>
							</g>
							<g>
								<polygon class="st6" points="536.06,420.09 528.78,424.33 521.44,420.09 528.73,415.86 								"/>
							</g>
						</g>
					</g>
				</g>
				<path class="st29" d="M621.01,277.89c-0.21-5.77-5.94-9.7-11.39-7.79c-23.81,8.35-78.38,28.13-81.89,35.14
					c-3.34,6.68-14.14,44.01-19.45,62.71c-1.54,5.4-7.76,7.88-12.6,5.02l-32.98-19.45c-6.27-3.7-14.01,1.61-12.82,8.8l5.3,31.77
					c0.42,2.53,1.96,4.75,4.19,6.03l35.29,20.27c19.72,11.33,43.81,12.03,64.15,1.85l27.21-13.6c23.79-11.9,38.44-36.6,37.47-63.18
					L621.01,277.89z"/>
			</g>
			<path class="st7" d="M527.73,305.24c-3.34,6.68-14.14,44.01-19.45,62.71c-1.54,5.4-7.76,7.88-12.6,5.02l-32.98-19.45
				c-6.27-3.7-14.01,1.61-12.82,8.8l5.3,31.77c0.12,0.74,0.37,1.44,0.67,2.11c0.42,0.66,0.84,1.32,1.27,1.98
				c0.64,0.75,1.37,1.43,2.24,1.94l35.29,20.27c7.48,4.3,15.58,7.05,23.87,8.28c28.63-22.21,25.02-114.93,14.64-122.72
				c-1.54-1.15-2.89-1.87-4.09-2.26C528.42,304.27,527.96,304.78,527.73,305.24z"/>
		</g>
		<g>
			<path class="st26" d="M463.96,277.09c0,0,24.39-20.41,29.37-20.91c5.97-0.5,13.44,1.49,15.43,9.96
				c1.99,8.46-2.49,14.93-6.97,17.42c-4.48,2.49-43.81,21.41-50.78,21.41c-6.97,0-11.45-5.97-6.97-13.44
				C448.53,284.06,463.96,277.09,463.96,277.09z"/>
			<path class="st27" d="M429.61,244.73c0,0-1.24-2.49-1.49-4.23c-0.25-1.74,0.75-3.98-0.25-7.96c-1-3.98-2.74-7.47-3.48-10.2
				c-1.99-2.49-3.73,1.99-2.24,5.72c1.49,3.73,1,5.97-0.5,6.22c-1.49,0.25-7.72-3.48-9.46-5.48c-1.74-1.99-11.7-11.7-12.69-10.45
				c-1,1.24-1,2.49,2.49,6.22c3.48,3.73,4.73,5.48,4.98,6.47c0.25,1,0,1.99,1.24,4.98c1.24,2.99,0.25,4.98,2.49,7.72
				c2.24,2.74,6.47,3.24,8.46,4.98c1.99,1.74,1.99,1.74,1.99,1.74L429.61,244.73z"/>
			<path class="st26" d="M451.02,304.96c0,0-10.45,1.99-16.1-9.62c-5.64-11.62-15.27-42.81-16.59-45.8c0,0,3.32-7.3,11.62-6.97
				c0,0,9.29,18.25,14.6,26.55C449.86,277.42,468.77,301.65,451.02,304.96z"/>
		</g>
	</g>
	<g>
		<g>
			<path class="st13" d="M297.18,107.09c0,0,3.24-2.06,5.16-1.47c1.92,0.59,8.55,1.62,10.62,1.77c2.06,0.15,6.19-3.54,6.93-4.13
				c0.74-0.59,1.18-1.92,2.06-2.8s1.33-0.74,1.33-2.36c0-1.62,1.62-3.1,2.36-3.83c0.74-0.74,3.69-2.51,3.39-3.83
				c-0.3-1.33-1.77-0.59-2.65-0.3s-4.28,3.39-5.75,4.28c-1.47,0.88-5.01,2.21-6.78,2.21c-1.77,0-3.39-0.44-3.39-0.44
				s-0.44,0,1.33-0.59c1.77-0.59,2.8-0.15,4.28-0.44c1.47-0.3,2.21-1.18,2.06-1.92c-0.15-0.74-2.06-0.74-2.8-0.74
				c-0.74,0-5.16,0.15-6.93-0.15c-1.77-0.29-4.72,2.65-5.31,3.24c-0.59,0.59-3.69,1.47-5.31,1.62
				C296.15,97.36,297.18,107.09,297.18,107.09z"/>
			<path class="st8" d="M233.71,105.51c0,0,3.09,10.18,15.99,9.79c12.91-0.39,45.01-6.34,48.27-6.55c0,0,4.93-6.33,0.78-13.52
				c0,0-20.48,0.24-30.29-0.62C258.65,93.76,228.41,88.24,233.71,105.51z"/>
		</g>
		<g>
			<path class="st8" d="M165.39,125.9c0,0-5.39-31.34-8.87-34.94c-4.23-4.24-11.21-7.56-18.21-2.39c-6.99,5.16-7.76,13-5.96,17.79
				c1.81,4.8,19.55,44.66,24.87,49.17c5.31,4.51,12.6,2.85,14.01-5.74C172.65,141.2,165.39,125.9,165.39,125.9z"/>
			<path class="st13" d="M219.79,142.6c0,0,4.23,0.25,5.72,0.25c1.49,0,12.94-1,14.93-1c1.99,0,1.99,2.24,1.99,2.24
				s1.99,3.24,1.99,4.48s0,2.99,0.5,4.23c0.5,1.24-0.25,2.24-0.75,3.24c-0.5,1-1.74,1.49-2.99,2.24c-1.24,0.75-2.74,0.75-3.73,0.25
				c-1-0.5-1-0.75,0.25-1.49c1.24-0.75,2.24-1.74,2.24-1.74s-1.49,1.49-3.73,1.74c-2.24,0.25-5.72,0.25-7.72-0.75
				c-1.99-1-5.48-2.74-5.48-2.74l-3.98-0.5L219.79,142.6z"/>
			<path class="st8" d="M156.38,151.31c0,0,3.09,10.18,15.99,9.79c12.91-0.39,45.01-6.34,48.27-6.55c0,0,4.93-6.33,0.78-13.52
				c0,0-20.48,0.24-30.29-0.62C181.32,139.56,151.09,134.04,156.38,151.31z"/>
		</g>
	</g>
</g>
</svg>
