<?xml version="1.0" encoding="utf-8"?>
<!-- Generator: Adobe Illustrator 23.0.3, SVG Export Plug-In . SVG Version: 6.00 Build 0)  -->
<svg version="1.1" id="Layer_1" xmlns="http://www.w3.org/2000/svg" xmlns:xlink="http://www.w3.org/1999/xlink" x="0px" y="0px"
	 width="80px" height="80px" viewBox="0 0 80 80" style="enable-background:new 0 0 80 80;" xml:space="preserve">
<style type="text/css">
	.st0{fill-rule:evenodd;clip-rule:evenodd;fill:#9CCF10;}
	.st1{fill-rule:evenodd;clip-rule:evenodd;fill:#06C2FC;}
</style>
<g>
	<path class="st0" d="M40,10c20.8,0,37.6,18.2,37.6,40.5c0,9.2-2.9,17.7-7.7,24.5c-3.6-8.3-10.3-14.8-18.5-18
		c7.1-4,11.9-11.6,11.9-20.3c0-12.9-10.5-23.3-23.3-23.3S16.7,23.8,16.7,36.7c0,8.7,4.8,16.4,11.9,20.3c-8.3,3.2-14.9,9.7-18.5,18
		c-4.8-6.8-7.7-15.3-7.7-24.5C2.4,28.1,19.2,10,40,10L40,10z"/>
	<g>
		<path class="st1" d="M59.7,19.3c3.9,0,7.2-3.2,7.2-7.1c0-3.9-3.2-7.2-7.2-7.2s-7.1,3.2-7.1,7.2C52.6,16.1,55.8,19.3,59.7,19.3
			L59.7,19.3z"/>
		<path class="st1" d="M58.6,15.3c11.4,7,19,20.1,19,35.2c0,9.2-2.9,17.7-7.7,24.5l0-0.1c2.4-3.8,3.8-8.2,3.8-13
			c0-13.4-10.9-24.4-24.4-24.4h0c-1.8,0-3.2,1.6-2.9,3.4l2.1,15c-1.6-0.4-3.1-0.8-4.8-0.9c-0.5-4-2-6.9-3.7-6.9s-3.1,2.9-3.6,6.9
			c-1.6,0.2-3.3,0.5-4.8,0.9l2.1-15c0.3-1.8-1.1-3.4-2.9-3.4h0c-13.4,0-24.4,10.9-24.4,24.4c0,4.8,1.4,9.2,3.8,13l0,0.1
			c-4.8-6.8-7.7-15.3-7.7-24.5c0-15,7.7-28.2,19-35.2C21.9,25.1,30,32.9,40,32.9C50,32.9,58.1,25.1,58.6,15.3L58.6,15.3z"/>
		<path class="st1" d="M20.3,19.3c3.9,0,7.2-3.2,7.2-7.1c0-3.9-3.2-7.2-7.2-7.2s-7.2,3.2-7.2,7.2C13.2,16.1,16.4,19.3,20.3,19.3
			L20.3,19.3z"/>
		<path class="st1" d="M12.2,12.6c2.1,0,3.8-1.7,3.8-3.8S14.3,5,12.2,5S8.4,6.7,8.4,8.8S10.1,12.6,12.2,12.6L12.2,12.6z"/>
		<path class="st1" d="M40,30.3c2.8,0,5.1-2.3,5.1-5.1c0-2.8-2.3-5.1-5.1-5.1c-2.8,0-5.1,2.3-5.1,5.1C34.9,28.1,37.2,30.3,40,30.3
			L40,30.3z"/>
	</g>
</g>
</svg>
